<svg xmlns="http://www.w3.org/2000/svg" viewBox="0 0 4002.12 3160.38"><defs><style>.cls-1{fill:#fff;}.cls-2{fill:#371a45;}.cls-3{opacity:0.35;}.cls-4{opacity:0.25;}.cls-5{fill:#ddd;}.cls-6{opacity:0.26;}.cls-7{fill:#293856;}.cls-8{fill:#21102b;}.cls-9{opacity:0.5;}.cls-10{fill:#22a7f0;}.cls-11{fill:#127ddd;}.cls-12{opacity:0.7;}.cls-13{fill:#9da9b9;}.cls-14{fill:#ff1b40;}.cls-15{opacity:0.55;}.cls-16{opacity:0.3;}.cls-17{fill:#232323;}.cls-18{fill:#f6f6f6;}.cls-19{fill:#45c1f7;}.cls-20{opacity:0.2;}</style></defs><g id="Calque_2" data-name="Calque 2"><g id="Layer_1" data-name="Layer 1"><path class="cls-1" d="M3880.57,941.21s-98.89-70.4-224.63-52.05c-134.89,19.67-238.1,76.05-411,63.23-213.12-15.84-359.08-248.74-359.08-248.74s155.32-417.81,155.32-584.59c26.36,2.85,51.5,10.58,75.78,21.48,108.15,48.54,199.81,160.26,311.46,187a206.2,206.2,0,0,0,49.81,5.86,244.69,244.69,0,0,0,51.55-6c121.14-26.51,220.41-131.49,409.1-101,13.26,2.14,27,4.93,41.26,8.49C3980.18,234.94,3878.11,936.77,3880.57,941.21Z"/><path class="cls-2" d="M3295.13,976.17c-16.59,0-33.8-.61-51.75-1.94-221.65-16.45-369.87-249.06-376.07-259a21.9,21.9,0,0,1-2-19.27c1.54-4.14,153.95-416,153.95-576.95a21.92,21.92,0,0,1,24.27-21.79c82.92,9,152.63,61.21,220.05,111.75,70.31,52.7,136.75,102.5,213.2,102.5h1.27c56.21-.41,107-23.9,160.66-48.78,89.33-41.36,190.59-88.23,346.79-49.06a21.92,21.92,0,0,1,16.36,24.41c-39,268.32-97.29,674-99.42,702.48A21.91,21.91,0,0,1,3867.85,959c-.88-.63-93.68-65-208.72-48.19-44.64,6.51-85.2,17-128.14,28.14C3460.21,957.31,3387.38,976.17,3295.13,976.17ZM2910.3,700.72c28.66,41.46,159.78,216.69,336.33,229.8,110.49,8.19,193.3-13.23,273.37-34,42.18-10.92,85.8-22.21,132.8-29.07,91.55-13.38,169,16.72,209.78,37.75,5.38-44,18.21-133.59,45.19-321.93,20.14-140.53,40.46-280.71,47.84-331.55-130.22-27.13-215.69,12.43-298.45,50.76-58.15,26.92-113.06,52.35-178.76,52.82h-1.59c-91.06,0-166.5-56.55-239.48-111.26-58.32-43.71-113.74-85.26-175.21-99.31C3050.15,311.16,2933.72,636.63,2910.3,700.72Zm989.5,230v0Zm0-.05,0,0Zm0-.06,0,0Z"/><path class="cls-1" d="M1865.68,1323.37l-11.38,99.56-5.82,50.71L1748.34,2348.1s60,3.44,140.85,1.59c15.82-.37,32.43-.92,49.55-1.75,127.53-6.1,282.93-27.08,344.24-89.93,91.65-94,126.28-570.22,56.05-762.58-32.17-88.18-212.56-133.57-341.11-155.07-14.36-2.43-28.1-4.54-40.89-6.35C1903.11,1326.26,1865.68,1323.37,1865.68,1323.37Z"/><g class="cls-3"><path class="cls-2" d="M1854.3,1422.93l-5.82,50.71L1769,2168l-20.63,180.13,3.64.18c.67,0,1.48.06,2.33.11l2.21.09c.58.05,1.16.05,1.74.1.23,0,.5,0,.72,0,1.08,0,2.3.1,3.56.13a5.77,5.77,0,0,0,.85,0l3.29.13c1.57.08,3.19.12,4.9.17,1.22,0,2.52.09,3.83.12l4.1.13c1.76.06,3.61.09,5.5.17,3.83.08,7.89.2,12.18.27,3.78.11,7.76.17,11.91.22,4.79.05,9.8.15,15,.18,19.22.14,41.24.07,65.09-.48,4.64-.11,9.37-.24,14.14-.37,3.32-.09,6.74-.21,10.15-.33,8.24-.29,16.72-.63,25.26-1,127.57-6.09,282.93-27.08,344.2-89.93,75.49-77.38,112.35-414,83.74-637.83-1.58,193.56-36.48,399-93.39,457.34-28.13,28.83-79.37,48.43-139.17,61.78-25.47,5.69-47-19-38.5-43.72l.21-.59c15.35-45.31,26.08-97.52,29.29-159.43,6.87-132.66-2.06-324.49-138.17-486.25C1983.77,1445.48,1925.21,1435,1854.3,1422.93Z"/></g><path class="cls-2" d="M1842.28,2372.28c-53.18,0-90.21-2-95.22-2.3l-23.16-1.32,122.42-1068.74,21,1.62c44.67,3.43,438,37.83,492.27,186.36,33.52,91.8,46.52,255.53,33.94,427.31-4.84,66.15-26,287.46-94.91,358.11C2214.7,2359.42,1976.83,2372.28,1842.28,2372.28Zm-69.52-45c129.55,4.9,414-2.06,494.53-84.58,85.2-87.38,117.73-557.52,51.18-739.8-35.67-97.69-307.42-143.61-433.44-155.84Z"/><path class="cls-1" d="M2295,1904.58l-173.06,1.18a33.89,33.89,0,0,0-32.67,25.57c-13.84,54.86-39.23,183.23,11.89,229.68,42.42,38.56,115.52,39.36,160.65,6.15,50.48-37.14,63.81-163.83,67.32-226.76A33.91,33.91,0,0,0,2295,1904.58Z"/><g class="cls-3"><path class="cls-2" d="M2089.24,1931.35c-13.87,54.84-39.23,183.22,11.89,229.65,42.43,38.57,115.51,39.37,160.67,6.16,31-22.87,48-79.59,57.31-134.49-9.64,27.09-23.35,48.69-39.5,62.37-92.53,78.4-150.53-25.43-150.53-25.43s-12.89,23.37-21.95,24.13c-37.86,3.16-22.11-113.61-12.56-173.84A32.9,32.9,0,0,0,2089.24,1931.35Z"/></g><path class="cls-2" d="M2185,2208.42c-35.23,0-70.22-11.66-95.48-34.61-56.1-51-34.74-176.45-17-246.7a51.15,51.15,0,0,1,49.31-38.63l173.06-1.19h.35a51.23,51.23,0,0,1,51.17,54.08c-4.93,88-21.82,201.07-74.34,239.72C2247.13,2199.39,2216,2208.42,2185,2208.42Zm110.11-286.56L2122,1923.05a16.6,16.6,0,0,0-16,12.51c-26.54,105.2-24,184.7,6.75,212.66,35.32,32.09,98.87,34.39,138.78,5,31.58-23.23,54.13-103.16,60.31-213.8a16.64,16.64,0,0,0-16.75-17.58Z"/><path class="cls-2" d="M2176.13,2206a68.51,68.51,0,0,1-7.87-6.13c-2.2-2-4.33-4-6.27-6.06a120.94,120.94,0,0,1-10.87-12.94,145.84,145.84,0,0,1-16.41-28.44,184.24,184.24,0,0,1-15.09-61.48c-1.52-20.79-.13-41.29,2.19-61.12,1.18-10,2.71-20,4.76-29.89,2.22-10,4.31-19.51,8.81-29.83a5.15,5.15,0,0,1,9.64,3.59l-.21.66c-2.58,8.14-4,18.24-5,27.64-1,9.59-1.47,19.27-1.62,29-.27,19.53.47,38.68,3.72,57.11s9.35,36.08,18.31,51.56a115.53,115.53,0,0,0,15.4,21.34,90.5,90.5,0,0,0,9.14,8.85c1.58,1.38,3.2,2.6,4.81,3.77a34.34,34.34,0,0,0,4.08,2.58,17.48,17.48,0,0,1-12.34,32.71,16.94,16.94,0,0,1-3.45-1.75Z"/><path class="cls-2" d="M2079.19,1453.11c21.5-1.62,42.75-2.65,64.17-3.4s42.83-1.1,64.35-.85,43.09.84,64.85,2.62,43.65,4.19,66.18,9.42a21.94,21.94,0,0,1-9.92,42.74c-.6-.14-1.18-.3-1.75-.48l-.15-.05c-18.43-6-38.62-10-58.92-13.38s-41.13-5.72-62-7.7-41.84-3.37-62.87-4.42-42.19-1.75-63.09-1.92h-.13a11.3,11.3,0,0,1-.75-22.57Z"/><path class="cls-1" d="M2883.11,1539.27S2715.57,2125.89,2038.22,1838c-28.65-12.17-58.23-25.86-88.75-41.37l-6.63-222-1.81-61.42-6.3-210.28s26.9,20.17,72.48,46.35c24.06,14,53.31,29.48,86.51,44.66,107.83,49.25,257.51,94.5,407.46,64.92a460.41,460.41,0,0,0,171.6-71.88Z"/><g class="cls-4"><path class="cls-2" d="M2883.11,1539.27S2715.57,2125.89,2038.22,1838c-28.65-12.17-58.23-25.86-88.75-41.37l-6.63-222c109.14,81.19,299.09,317.11,572.81,179.81,139.7-70,2.95-124.64-14.47-295.58a460.41,460.41,0,0,0,171.6-71.88Z"/></g><path class="cls-2" d="M2381.78,1939.58c-131.75,0-279.66-41.18-442.24-123.36a21.92,21.92,0,0,1,19.77-39.12c246.67,124.69,455.85,151.24,621.74,78.91,181.5-79.14,257.43-256.75,276.16-308.43L2672.16,1413.5c-137.89,87.69-309.86,100.14-498.46,35.86-145.14-49.47-247.82-125.74-252.12-129a21.92,21.92,0,0,1,26.28-35.08c4,3,401.58,295.22,712.57,83.44a21.89,21.89,0,0,1,25.19.37L2896,1521.54a21.92,21.92,0,0,1,8.22,23.76c-2.9,10.14-73.58,249.4-305.13,350.67Q2499.3,1939.59,2381.78,1939.58Z"/><path class="cls-2" d="M2433.23,1937.19a21.67,21.67,0,0,1-4.7-.51c-48-10.49-83.93-37-106.74-78.78-73.76-135.13,18.94-387.88,22.92-398.58a21.92,21.92,0,0,1,41.08,15.29c-.91,2.44-89.74,244.74-25.51,362.33,16.68,30.54,42.07,49.16,77.61,56.92a21.92,21.92,0,0,1-4.66,43.33Z"/><path class="cls-5" d="M3084.89,107.07,2755.4,1413.15l-95.22,377.49-247.65,981.52-63.77,252.9-79.5-20,82.46-326.92,228.79-906.79,91.72-363.63L3005.39,87a41,41,0,0,1,39.72-30.95,42.34,42.34,0,0,1,10,1.26A41,41,0,0,1,3084.89,107.07Z"/><g class="cls-6"><path class="cls-2" d="M2412.53,2772.16l-63.77,252.9-79.5-20,82.46-326.92C2363.39,2712.66,2382.24,2747.4,2412.53,2772.16Z"/></g><g class="cls-4"><path class="cls-2" d="M2755.4,1413.15l-95.22,377.49c-31.84,1.64-58.13-6.3-79.67-19.34l91.72-363.63Z"/></g><path class="cls-2" d="M2364.65,3051.69l-122-30.77L2984.14,81.67a62.9,62.9,0,1,1,122,30.78Zm-68.77-62.55,37,9.33L3063.62,101.72a19.07,19.07,0,1,0-37-9.32Z"/><path class="cls-1" d="M2758,1242.21a65.85,65.85,0,0,1-.6,9.1c-8.6,74.56-115.33,221.4-115.33,221.4s-79,28.1-114.23,5.69c-14-8.93-23.45-66.84-25.37-122.56-1.53-45.53,2-89.63,12.22-104.31C2544.13,1209.29,2757.92,1196.85,2758,1242.21Z"/><g class="cls-4"><path class="cls-2" d="M2757.37,1251.31c-8.6,74.56-115.33,221.4-115.33,221.4s-79,28.1-114.23,5.69c-14-8.93-23.45-66.84-25.37-122.56,15.34,18.47,33.2,31.29,48.71,19.56,33.2-25.09,3.23-101.52,78.89-134.72C2654,1230.11,2710.74,1240.08,2757.37,1251.31Z"/></g><path class="cls-2" d="M2566.55,1509.08c-18.28,0-36.33-3.15-50.5-12.18-12.36-7.87-20.31-24.62-26.58-56-10.1-50.54-16.71-167.61,7.21-201.88,32.85-47.07,187.78-56.28,243.63-38.74,34.39,10.79,39.54,30.91,39.56,41.94.08,75.91-107.82,226.46-120.13,243.38l-4,5.48-6.39,2.27C2639.51,1496.85,2602.58,1509.08,2566.55,1509.08Zm75.47-36.39h0Zm-101.05-12c17.5,9.35,59.71,2.2,87.38-6.57,32.78-46,104.53-156.8,107.58-208.55-9.26-5.86-44.65-13.38-101.93-8.78-59.52,4.78-95.68,19.09-101.38,27.25C2517.51,1286.1,2524.12,1435.87,2541,1460.74Z"/><path class="cls-1" d="M2883.65,1552.31c-42.57,109.14-127.87,133-155.76,133-40.38,0-56.1-16.65-132.75-34.84s-4.38-311.2,17.53-353.66c22.08-42.68,93-74.84,133.52-81.8a87.54,87.54,0,0,1,14.47-1.42c35.22,0,142.61,98.67,145.51,135C2913.24,1437.31,2902.72,1503.39,2883.65,1552.31Z"/><g class="cls-4"><path class="cls-2" d="M2883.65,1552.31c-42.57,109.14-127.87,133-155.76,133-40.38,0-56.1-16.65-132.75-34.84s-4.38-311.2,17.53-353.66c22.08-42.68,93-74.84,133.52-81.8-18.35,38.46-53.53,124.81-71.28,252C2653.44,1620.91,2791.23,1605.46,2883.65,1552.31Z"/></g><path class="cls-2" d="M2727.89,1707.22c-26.35,0-44.27-6.3-67-14.28a638.26,638.26,0,0,0-70.84-21.2c-11.76-2.79-28.05-11-38.8-34.48-38.36-83.58,24.08-316,41.94-350.53,30-58.07,126.82-95.11,167.44-95.11,47.79,0,163.53,107.32,167.35,155.18h0c13.08,164-33.44,251.75-74.78,296.51C2806.66,1693.76,2752.53,1707.22,2727.89,1707.22Zm32.68-471.78c-30.07,0-108.59,33.06-128.4,71.41-17.45,33.76-70.1,248.83-41.05,312.12,4.1,8.94,7.86,9.83,9.1,10.13a679.8,679.8,0,0,1,75.26,22.49c21.63,7.61,33.55,11.8,52.41,11.8,13.12,0,55.42-9,93.15-49.81,50.76-55,72.64-146,63.29-263.27C2881.38,1325,2786.56,1236.94,2760.57,1235.44Zm123.76,114.88h0Zm0,0Z"/><path class="cls-1" d="M390.81,1131.49s-81.63,143.76-207.92,143.76c-63,.06-126.23-62.35-150.55-123.66-8.33-21-12.11-42-9.7-60.21,4.11-31.45,38.46-64.21,80.65-93.3,74.18-51.12,172.52-90.62,172.52-90.62Z"/><g class="cls-4"><path class="cls-2" d="M390.81,1131.49s-81.63,143.76-207.92,143.76c-63,.06-126.23-62.35-150.55-123.66,14.68,3,33.85.28,52.26-21.8,70.08-84.1,18.69-131.71,18.69-131.71,74.18-51.12,172.52-90.62,172.52-90.62Z"/></g><path class="cls-2" d="M182.87,1297.18c-43.36,0-89.81-24.59-127.44-67.47C16.22,1185-4.68,1130.92.89,1088.51c12.44-94.68,224.37-184.36,266.73-201.38A21.92,21.92,0,0,1,284,927.8c-88.89,35.74-232.54,112.52-239.63,166.42-3.85,29.34,13.85,72.18,44,106.58,28.87,32.9,64.19,52.55,94.49,52.55h0c111.81,0,188.12-131.38,188.88-132.71a21.92,21.92,0,0,1,38.1,21.67c-3.59,6.32-89.49,154.83-227,154.87Z"/><path class="cls-2" d="M269.5,1234.09a11,11,0,0,1-10.52-14c3.93-13.44,2.34-25.85-4.85-37.92-28.39-47.66-129.69-70-130.71-70.2a11,11,0,0,1,4-21.54c98,14.89,148.13-66.91,150.21-70.41a11,11,0,0,1,18.85,11.18c-.46.78-37.16,61.29-108,78.45,31.82,13,67.64,33,84.51,61.27,10.35,17.36,12.73,36,7.08,55.32A11,11,0,0,1,269.5,1234.09Z"/><path class="cls-1" d="M1456.11,1607.81a444.68,444.68,0,0,1-102.46,76.43,436,436,0,0,1-209.12,53.58q-45,0-87.17-3.83c-404-35.56-621.35-309.33-668-333.6-49.8-26-308.9-27.78-289.17-148.75,1.53-9.32,6.79-18.63,14.63-27.83,45-52.93,174.82-103.23,168.3-132.54-10.46-47.17-144.42-171.59-170.5-227.53-53.74-115.44,28.77-199.1,75.17-143C266.12,815.2,356,863.41,497.59,974.52c46.79,36.71,157.35,113.36,212.47,147.54,74.62,46.3,146.34,82.62,220.69,108.65,114.61,40.16,235.36,55.88,382.25,45.91,4.88-.33,9.81-.71,14.79-1.1C1603.16,1253.88,1600,1463.67,1456.11,1607.81Z"/><g class="cls-4"><path class="cls-2" d="M1353.65,1684.24a436,436,0,0,1-209.12,53.58q-45,0-87.17-3.83c-404-35.56-621.35-309.33-668-333.6-49.8-26-308.9-27.78-289.17-148.75,1.53-9.32,6.79-18.63,14.63-27.83,3.28,18.84,18.08,39,60.15,51.44,96.65,28.6,236.8,27.07,278.76,49.86,55.45,30.08,261.67,275.09,520.82,275.09,170.17,0,230.1-136.59,230.1-136.59Z"/></g><path class="cls-2" d="M1144.53,1759.74c-30.11,0-60.1-1.32-89.13-3.92-334.92-29.48-545.81-220.43-635.87-302-17.46-15.81-33.95-30.74-40.26-34-10.47-5.46-40.66-11-69.85-16.37-99-18.19-248.71-45.68-230.83-155.35,7.18-44,64.88-79.34,120.68-113.46,21.45-13.12,53-32.44,61.32-42.44-8.37-22-49-69-82.12-107.15-37.2-42.91-72.34-83.45-85.68-112.06C54.26,790.24,77.7,717.65,119.31,691.35c29-18.32,62.5-12.29,85.39,15.36,51.87,62.61,108.16,103.62,186.07,160.38,35.35,25.75,75.41,54.93,120.35,90.19,45.27,35.51,155.43,112,210.49,146.16C798.38,1151.07,869.16,1185.93,938,1210c114.32,40.06,233,54.28,373.53,44.73,4.46-.3,9-.64,13.5-1l1.09-.09c161.22-12.66,216.34,52.73,234.85,92.84,35.35,76.6-.56,187.83-89.34,276.78h0C1385.1,1710,1265.88,1759.74,1144.53,1759.74Zm-990.64-1035a20.85,20.85,0,0,0-11.17,3.65c-22.11,14-39.88,62.33-10.2,126.09,10.75,23,45.48,63.11,79.07,101.87,53.59,61.82,86.59,101.44,93,130.16,6.89,30.91-28.64,52.64-82.42,85.52-38.36,23.46-96.34,58.91-100.28,83.12-10.12,62.08,91,86,195.49,105.19,36.8,6.76,65.87,12.1,82.18,20.6,11.3,5.89,25.65,18.88,49.43,40.41,86.79,78.58,290,262.61,610.33,290.8,27.77,2.49,56.44,3.75,85.25,3.75,109.79,0,217.7-45,296.06-123.58h0c75.89-76,108.27-167.44,80.58-227.45-23.71-51.38-91.77-75.34-191.66-67.51l-1.13.09c-4.68.36-9.32.72-13.9,1-146.65,10-270.88-5-391-47.09-71.88-25.16-145.48-61.37-225-110.71-57.14-35.43-167.36-112-214.44-148.92C439.74,957,400,928.05,365,902.52c-77.46-56.44-138.65-101-194-167.85C165.46,728,159.82,724.75,153.89,724.75Z"/><path class="cls-2" d="M734.31,1668.39a21.91,21.91,0,0,1-14.38-38.46c139.26-121,113-424.77,112.73-427.82a21.91,21.91,0,0,1,43.64-4c1.24,13.38,28.64,329.2-127.63,465A21.8,21.8,0,0,1,734.31,1668.39Z"/><path class="cls-1" d="M1844.71,2292c-224.63,36.87-873.53,83.11-900.65-28-8.11-33.42,30.84-276.07,113.3-530,27.23-83.66,59.12-168.58,95.6-247.59,24.33-52.7,50.68-102.78,79.06-148.2,10-15.94,39.23-37.64,81-61.58,221.62-127.22,796-316.84,713.28-32.38a688.85,688.85,0,0,0-21.42,103.49,896.3,896.3,0,0,0-7.45,121.2c.27,121,20.71,241.5,37.47,351.68C2071.26,2060.58,2090,2251.73,1844.71,2292Z"/><path class="cls-2" d="M2016.34,1607.51c22.59,100.1,40.29,200.32,53.7,303.46q5,38.61,7.57,78a620.37,620.37,0,0,1,.42,79.78c-1.72,26.87-5.57,54.16-13.72,81s-20.92,53.23-39.19,75.89c-18.11,22.78-41.4,41.14-66.29,54.47s-51.3,22.62-77.77,29.11c-6.61,1.7-13.27,2.76-19.91,4.16s-13.34,2.7-19.7,3.63q-19.32,3.09-38.58,5.75-38.53,5.32-77,9.59-77,8.64-154.2,14.39-77.18,6-154.6,8.74c-51.61,1.85-103.31,2.76-155.13,2.13s-103.75-2.66-156-8.14c-26.11-2.83-52.28-6.43-78.66-12.3a342.16,342.16,0,0,1-39.81-11.2c-13.35-4.88-26.93-10.62-40.48-20.61a75.4,75.4,0,0,1-19-20.63c-1.27-2.36-2.59-4.65-3.65-7.16s-1.85-5.26-2.64-7.92c-.56-2.67-1-5.38-1.31-8.08l-.32-6.19c-.35-15.48,1-28.21,2.36-41.61,2.82-26.36,6.81-52,11.2-77.67,8.86-51.18,19.56-101.78,31.38-152.12s24.76-100.39,39.49-149.93c29.39-99.05,64.9-196.62,110.84-289.36a11,11,0,0,1,20.24,8.41l0,0q-49.39,145.29-89.76,292.65c-26.8,98.31-50.61,197.75-67.39,297.89-4.14,25-7.86,50.08-10.35,74.77-1.18,12.13-2.27,25-1.92,35.21l.17,3.42a5.35,5.35,0,0,1,.19,1.43,3,3,0,0,1,.44,1.19c.2.43.59.89.77,1.38a30.24,30.24,0,0,0,7.16,7.29c7.16,5.26,17.36,10,28.12,13.7a298.59,298.59,0,0,0,34.32,9.4c23.77,5.14,48.55,8.45,73.47,11,49.94,4.95,100.73,6.61,151.53,7s101.82-.89,152.78-3c101.9-4.59,204-11.47,305.33-22.58q38-4.14,75.8-9.2,18.87-2.57,37.59-5.48c6.34-.91,12.2-2.15,18.15-3.31s12-2.15,17.79-3.63c46.46-11.42,90.54-31.27,118.55-66.33,28.59-34.52,40.47-81.83,43.79-130.26,3.48-48.68-.71-99.08-6.46-149.35s-14.15-100.91-20.71-151.9c-6.37-51-11.16-102.67-10.41-154.67a11,11,0,0,1,21.8-2.25Z"/><path class="cls-1" d="M1437.13,1044.3c-2.68-2.53-5.45-5.13-8.37-7.72l9,5.3Z"/><path class="cls-1" d="M866.58,1028.55c400.51,906.1,1678.42,394.91,1388.86-514.14C1867.47-422.84,547,106.8,866.58,1028.55Z"/><path class="cls-1" d="M866.58,1028.55c400.51,906.1,1678.42,394.91,1388.86-514.14C1867.47-422.84,547,106.8,866.58,1028.55Z"/><g class="cls-4"><path class="cls-2" d="M2088.57,1390.91a735,735,0,0,1-91.16,78q-27.45,20-56.6,37.36c-144.42,86.29-317.11,124.75-484.7,101.52A673.32,673.32,0,0,1,1153,1486.4c-84.75-61.2-161-145.57-222.21-255.69,114.61,40.16,235.36,55.88,382.25,45.91,221.62-127.22,796-316.84,713.28-32.38a688.85,688.85,0,0,0-21.42,103.49C2028.14,1361.21,2056.41,1376.22,2088.57,1390.91Z"/></g><path class="cls-1" d="M866.58,1028.55c400.51,906.1,1678.42,394.91,1388.86-514.14C1867.47-422.84,547,106.8,866.58,1028.55Z"/><path class="cls-2" d="M1544.71,1519.6c-88.83,0-176.47-15.79-258.84-47.4-189.29-72.63-339.22-223.86-433.58-437.34l-.47-1.2c-75.94-219-65.77-431.69,29.4-615,84.91-163.54,231.36-291.48,412.36-360.25,180.62-68.62,373.73-69.53,543.72-2.56,191.7,75.53,341.28,232,432.58,452.56l.45,1.24c68.91,216.34,54.9,425.55-40.52,605-85.34,160.53-230.24,286-408,353.41C1731.28,1502.42,1637.35,1519.6,1544.71,1519.6ZM881.13,1022.82c201.23,454.53,611.82,536.5,929.61,416.07,310.48-117.67,577.39-455.44,430-919.11C2046.86,52.18,1619.66-32,1304.68,87.64,986.59,208.5,718.46,552.66,881.13,1022.82Z"/><g class="cls-4"><path class="cls-2" d="M866.58,1028.52c332.31,788.65,1447.89,526.8,1431.2-295.56-80.48,255.88-172.22,255.38-326.47,371.93-476.88,386-1103-16.32-1122.8-555.54C800.33,709,808.69,877.64,866.58,1028.52Z"/></g><path class="cls-7" d="M1544.71,1525.89c-89.59,0-178-15.92-261.09-47.81-190.89-73.25-342-225.63-437.08-440.67l-.67-1.68C769.36,815,779.65,600.64,875.63,415.78c85.63-164.91,233.27-293.91,415.71-363.23,182.1-69.19,376.81-70.08,548.27-2.53,193.32,76.17,344.12,233.85,436.08,456l.63,1.72c69.44,218,55.28,428.9-41,609.91C2149.3,1279.53,2003.23,1406.08,1824,1474,1732.8,1508.58,1638.11,1525.89,1544.71,1525.89ZM887,1020.51c199.61,450.56,606.57,531.87,921.52,412.5,307.74-116.64,572.29-451.42,426.33-911.07-192.34-463.5-615.75-547-927.93-428.42C991.63,213.31,725.88,554.45,887,1020.51Z"/><path class="cls-2" d="M1544.71,1525.89c-89.59,0-178-15.92-261.09-47.81-190.89-73.25-342-225.63-437.08-440.67l-.67-1.68C769.36,815,779.65,600.64,875.63,415.78c85.63-164.91,233.27-293.91,415.71-363.23,182.1-69.19,376.81-70.08,548.27-2.53,193.32,76.17,344.12,233.85,436.08,456l.63,1.72c69.44,218,55.28,428.9-41,609.91C2149.3,1279.53,2003.23,1406.08,1824,1474,1732.8,1508.58,1638.11,1525.89,1544.71,1525.89ZM887,1020.51c199.61,450.56,606.57,531.87,921.52,412.5,307.74-116.64,572.29-451.42,426.33-911.07-192.34-463.5-615.75-547-927.93-428.42C991.63,213.31,725.88,554.45,887,1020.51Z"/><path class="cls-2" d="M956.7,1195.54c659.31,567.3,1439.57-180.84,969.8-780.21C1359.53-224,472.61,454.93,956.7,1195.54Z"/><path class="cls-8" d="M850.53,653.18c-142,773.2,953.05,1036.12,1198.88,350.53C1620.16,1356.62,990.77,1064.8,850.53,653.18Z"/><path class="cls-2" d="M1470.25,1494.57c-92.13,0-182.43-19.26-264.8-57.41-157.08-72.75-281.27-211.16-359.14-400.27l-.06-.15c-126.53-314-13.48-768.72,356.47-945l3.48-1.3c193.27-54.52,409.88-21.72,594.29,90,183.76,111.3,312.61,286.94,353.5,481.89,34.75,189.8-.27,369.37-101.17,519.84-91.45,136.39-230,237.43-390.25,284.5A682.37,682.37,0,0,1,1470.25,1494.57ZM886.87,1020.26c170.45,413.87,517.75,476.46,763.35,404.29,282.35-83,531.29-368.56,460.77-753.85-38.3-182.55-159.79-347.81-333.21-452.84s-376.72-136.31-557.89-85.8C873.55,298.34,768,725.16,886.87,1020.26Z"/><path class="cls-2" d="M1453.49,1419.17c-177.06,0-353.45-71.38-511.09-207l-2.35-2-1.7-2.6c-116.6-178.4-163.29-366.57-135-544.17,25.32-159,109.64-300.37,237.44-398C1165.68,170,1319.64,126.18,1474.34,142c172,17.56,334,107.06,468.56,258.8l.85,1c110,140.32,160.27,298,145.43,456.11-13.43,143.12-80.37,278.82-188.49,382.1a645.55,645.55,0,0,1-432.6,179C1463.23,1419.11,1458.35,1419.17,1453.49,1419.17ZM973.35,1181c337.37,288.55,693.44,221.88,897.06,27.37,184.84-176.57,268.58-485.86,39.25-778.95-282.31-317.93-626.42-294-842.28-129.15C852.72,464.15,732.11,809.42,973.35,1181Z"/><path class="cls-1" d="M2357.37,1060.65C2249.7,1393,1907.59,1313,1978.4,985.41,2078.46,633,2444.17,718.39,2357.37,1060.65Z"/><g class="cls-3"><path class="cls-2" d="M2097.11,1270.81c-102.72-23.21-156.69-162.49-114.09-302.39,39.81,160.9,239.18-59.75,262.24-128.75C2500.14,951.92,2284.88,1317.49,2097.11,1270.81Z"/></g><path class="cls-2" d="M2132.75,1295.72a172.75,172.75,0,0,1-44.9-5.85c-93-25-169.51-130.33-130.87-309.09l.34-1.35c54.58-192.27,189-264.4,293.67-236.29,94.47,25.38,174.7,137.26,127.62,322.9l-.39,1.37C2325.77,1229.3,2222.09,1295.72,2132.75,1295.72Zm-133.08-305c-32.22,150.18,26.74,237.2,99.58,256.82,77.19,20.81,184.24-30.75,237.05-193,39.43-156.44-22.42-249.15-96.69-269.1C2155.85,762.94,2046.61,826.24,1999.67,990.73Zm357.7,69.92h0Z"/><path class="cls-1" d="M2367.55,1081.91c-87.53,269.2-344.84,213.64-287.61-51.34C2160.6,741.39,2440.16,802.08,2367.55,1081.91Z"/><path class="cls-2" d="M2189.88,1280.4a127.49,127.49,0,0,1-33.21-4.33c-71.57-19.31-129.68-104.14-98.15-250.13l.31-1.26c45.07-161.59,152.39-223.6,235.1-201.35,73.54,19.8,134.59,110.88,94.84,264.08l-.38,1.28C2344.24,1224.47,2260.55,1280.4,2189.88,1280.4Zm-88.65-244.57c-25.18,117.47,15.39,184,66.86,197.92,56.16,15.16,135.88-27.83,178.42-158,31.94-123.92-10.72-195.77-64-210.1C2220.76,849,2138.71,902.17,2101.23,1035.83Zm266.32,46.08h0Z"/><g class="cls-9"><path class="cls-1" d="M1936.92,825.7c-62.77,133-215,64-180.14-60.12C1809.61,611.54,1990.37,690,1936.92,825.7Z"/></g><g class="cls-9"><path class="cls-1" d="M1815.47,1030.67c-26.94,49.47-94.11,20.58-69.82-35.88C1772.59,945.32,1839.76,974.21,1815.47,1030.67Z"/></g><g class="cls-9"><path class="cls-1" d="M938.13,710.86c-4.91-530.51,541.31-512.1,686.14-376.54C1277.28,303.11,1091.48,490.79,938.13,710.86Z"/></g><g class="cls-4"><path class="cls-2" d="M2056,1091c1.25-39.8,13.43-79.4,33.09-114.24,19.34,194.72,220.49,142.39,285.54,15.35C2371.84,1275,2070.29,1359.14,2056,1091Z"/></g><path class="cls-1" d="M2318.46,3135c-108,16.93-297.77-27.12-366.31-183.76,0,0-79.6-278.48-263.8-460.49-136-134.34-431.4-165.18-495-73.3-61.41,88.64,64.16,329-12.16,457-30.35,50.85-216.25,139.49-468.71,102.35-105.47-15.56-121.13-93.74-110.34-145.74.88-4.27,1.92-8.38,3.12-12.21C636.15,2719.29,775,2696.66,775,2696.66S594.51,2434.78,662.89,2218c57.25-181.29,202.22-249.72,318.75-250.71,53.2-.44,100.48,13.15,130.84,36.49l572.25-103.44,351.41-63.56c5.76,57.48,13.43,111.22,23,162.83,9.2,50.08,20.16,98.13,32.93,145.68,52.54,195.49,135.27,382,249.66,661,100.92,63.39,155.93,122.62,170.18,173.3C2533.23,3055.63,2462.94,3112.39,2318.46,3135Z"/><g class="cls-6"><path class="cls-2" d="M2318.46,3135c-108,16.93-297.77-27.12-366.31-183.76,0,0-79.6-278.48-263.8-460.49-136-134.34-431.4-165.18-495-73.3-61.41,88.64,64.16,329-12.16,457-30.35,50.85-216.25,139.49-468.71,102.35-105.47-15.56-121.13-93.74-110.34-145.74,31.23,19.89,91.33,37.26,206.71,33.53,250.82-8,332-79.82,293.34-271.14-36-178.17-25.92-302.32,43.61-360.34l-13-1.59a.56.56,0,0,0-.28-.05l-6.35-.77a87.74,87.74,0,0,1-9.37-1.64c-1.26-.28-2.52-.66-3.73-1-1.48-.44-3-.77-4.38-1.21h.17c-42.85-13.53-71.67-56.21-66.13-102.39l2.35-19.67c0-12.66.33-25.26,1-37.92a85.06,85.06,0,0,1-66.13-86.29c.17-3.12.5-6.24.94-9.26.11-.65.27-1.26.38-1.86s.27-1.48.38-2.19c53.2-.44,100.48,13.15,130.84,36.49l572.25-103.44a93.57,93.57,0,0,1,6.09,10c.38.72.65,1.43,1,2.09,1,1.91,1.86,3.83,2.69,5.86.38.93.71,1.86,1.09,2.79.66,1.81,1.26,3.62,1.87,5.43.32,1.09.6,2.13.87,3.17.49,1.81.93,3.62,1.32,5.48.22,1.1.43,2.14.6,3.29.33,1.86.6,3.78.77,5.7.11,1.09.27,2.14.33,3.18.16,2.13.21,4.32.21,6.46,0,.88.06,1.75.06,2.58a87.52,87.52,0,0,1-.66,9.26l-4.82,40.48c48.1,8.82,241.89,39.78,363-6.52,9.2,50.08,20.16,98.13,32.93,145.68a55.34,55.34,0,0,1-9.76,7.51s-159.37,68.21-404,2.3l-5.42,45a92.73,92.73,0,0,1-4.66,19.94.72.72,0,0,0-.11.33c-1.1,3-2.3,6-3.62,8.82l-.49,1c-1.32,2.63-2.68,5.15-4.16,7.67l-.17.33c-.44.66-.88,1.26-1.26,1.92-1.53,2.3-3.12,4.6-4.82,6.79-.71.93-1.48,1.92-2.25,2.85-.93,1.1-1.86,2.14-2.79,3.18s-1.86,2-2.85,3-1.81,1.8-2.74,2.68c-1.7,1.59-3.45,3.12-5.26,4.55-.22.22-.49.44-.71.66-.66.49-1.32.87-1.92,1.37-1.42,1-2.79,2-4.27,3-1,.66-1.92,1.26-2.91,1.86-1.42.88-2.9,1.7-4.38,2.52-.93.49-1.81,1-2.79,1.48-2.19,1.15-4.5,2.19-6.8,3.12-1,.44-2,.77-3,1.15l-2.47.83c58.9,24.71,109.25,54.13,139.93,86.29,169.63,177.84,209.29,420.16,314,589.79,54.84,88.81,328.07,117.3,449.54,24.38C2533.23,3055.63,2462.94,3112.39,2318.46,3135Z"/></g><path class="cls-2" d="M2271.74,3160.37c-117.89,0-276.4-55.77-339.68-200.33l-1-2.76c-.78-2.74-80.29-275.22-258.1-450.89-91.08-90-253.26-128-359.57-118.12-50.45,4.69-86.7,19.49-102.06,41.66-23.75,34.28-12,105.81.49,181.54,15.38,93.46,32.81,199.39-11.84,274.28-36.39,61-231.47,150.93-490.68,112.76-64.43-9.49-96.23-40.5-111.55-64.85-31.76-50.46-18.32-105.59-13.44-121.29,25.1-80.79,109.16-116.14,155.69-129.83-44.61-73.63-156.63-285.31-98-471.12,53.28-168.82,172.63-229.07,239-250,90.1-28.36,188.48-18.31,244.8,25a21.91,21.91,0,1,1-26.71,34.75c-44.79-34.43-129.05-41.8-204.93-17.92-58.27,18.33-163.09,71.46-210.4,221.35C619.46,2428.49,791.29,2681.68,793,2684.21l19.59,28.48-34.11,5.58c-1.23.21-125.87,21.86-152.36,107.1-7.15,23-8.62,57.44,8.69,84.94,15.15,24.08,42.35,39.17,80.83,44.83,249.51,36.73,422.87-51.94,446.65-91.83,36.46-61.14,21.09-154.47,6.24-244.72-14-84.74-27.12-164.76,6.73-213.62,23.19-33.47,69.54-54.34,134-60.34,116.16-10.83,293.91,31.27,394.43,130.57,181.2,179,261.79,443.85,269,468.55,63.28,142.39,241.45,185.45,342.28,169.63,103.61-16.25,168.29-51.14,177.46-95.73,10.49-51-48.74-121.31-162.5-192.79l-5.95-3.73-2.66-6.51c-18.6-45.34-36.35-88.25-53.28-129.15-138.93-335.7-222.8-538.32-253.8-846.46a21.91,21.91,0,0,1,43.6-4.39c30.37,301.73,113.3,502.11,250.7,834.09,16.14,39,33,79.81,50.68,122.82,163.78,104.48,186.34,185.33,176.14,234.94-9.37,45.6-54,105.19-213.6,130.21A324.69,324.69,0,0,1,2271.74,3160.37Z"/><circle class="cls-1" cx="1042.82" cy="1912.99" r="84.84" transform="translate(-1047.25 1297.69) rotate(-45)"/><g class="cls-6"><path class="cls-2" d="M958.07,1909.42a84.84,84.84,0,1,0,169.54,7.12A83.83,83.83,0,0,0,1121,1880a84.85,84.85,0,0,1-153.25-6.44A83.91,83.91,0,0,0,958.07,1909.42Z"/></g><path class="cls-2" d="M1042.93,2015.12c-1.47,0-2.93,0-4.4-.09a102.14,102.14,0,1,1,4.4.09Zm-.15-169.69a67.64,67.64,0,0,0-67.46,64.72h0a67.56,67.56,0,1,0,70.34-64.66Q1044.22,1845.43,1042.78,1845.43Zm-84.73,64h0Z"/><g class="cls-3"><path class="cls-2" d="M1033.92,1990.05a1302.3,1302.3,0,0,0,31-260.67,1320.84,1320.84,0,0,1-23.49,141.38c-12.74,57.44-19.58,117.85-18.25,177.71C1026.05,2028.79,1029.68,2009.25,1033.92,1990.05Z"/></g><path class="cls-1" d="M1104.24,2159.52l440.49,52.84c52.13,6.27,100-31.28,106.22-83.48l28.11-234.41c5.48-45.7-22.64-88-64.76-102a92.47,92.47,0,0,0-18.72-4.2l-440.42-52.84c-52.2-6.27-100,31.27-106.22,83.48l-22.31,185.65-5.87,48.75C1014.49,2105.49,1052.11,2153.24,1104.24,2159.52Z"/><g class="cls-6"><path class="cls-2" d="M1104.23,2159.52l440.49,52.84c52.13,6.27,100-31.28,106.22-83.48l28.11-234.41c5.48-45.7-22.64-88-64.75-102-27,13.61-44.17,22.33-44.17,22.33-44,185.58-108.85,273-343,248.77-101.05-10.48-162.86-33.5-200.55-59l-5.87,48.75C1014.48,2105.49,1052.1,2153.24,1104.23,2159.52Z"/></g><path class="cls-2" d="M1550.36,2229.61a119.58,119.58,0,0,1-14.32-.86l-427.27-51.27a119.57,119.57,0,0,1-104.37-132.83l26.54-221.26A119.75,119.75,0,0,1,1163.78,1719l427.27,51.27a119.74,119.74,0,0,1,104.37,132.83l-26.54,221.25A119.65,119.65,0,0,1,1550.36,2229.61Zm-10.2-35.19a85,85,0,0,0,94.39-74.16L1661.1,1899a85.18,85.18,0,0,0-74.17-94.39l-427.27-51.26a85.18,85.18,0,0,0-94.39,74.16l-26.54,221.26a85,85,0,0,0,74.16,94.38Z"/><path class="cls-1" d="M1086.76,2155.66a85.64,85.64,0,0,0,17.47,3.86l440.49,52.84a95.73,95.73,0,0,0,93-45.39,94,94,0,0,0,13.18-38.09l12.53-104.14,4.14-34.35,11.5-95.92c6.28-52.2-31.34-100-83.47-106.22l-95.19-11.4c42.88,13.54,71.65,56.22,66.14,102.38l-15.15,126.63-13,107.85c-6.27,52.13-54.09,89.74-106.23,83.47Z"/><g class="cls-3"><path class="cls-2" d="M1086.76,2155.66a85.64,85.64,0,0,0,17.47,3.86l440.49,52.84c52.13,6.27,100-31.28,106.16-83.48l16.67-138.49c-14,23.14-37.53,50.79-69.75,50.12-17.69-.33-33.38-15-46.42-34.65l-13,107.85c-6.27,52.13-54.09,89.74-106.23,83.47Z"/></g><path class="cls-2" d="M1556.23,2230.35a112.67,112.67,0,0,1-13.57-.81l-440.49-52.86a105.32,105.32,0,0,1-20.82-4.57l7.45-33.59L1434.27,2180a78.47,78.47,0,0,0,87-68.36l28.12-234.44a78.31,78.31,0,0,0-54.14-83.9l7.27-33.64,95.14,11.4c61.8,7.45,106,63.74,98.57,125.48L1668.07,2131a113.14,113.14,0,0,1-111.84,99.4Zm-43.31-39.2,33.86,4.06a78.48,78.48,0,0,0,87-68.36h0l28.13-234.43a78.35,78.35,0,0,0-68.37-87l-30.52-3.65a112.56,112.56,0,0,1,20.7,79.59l-28.12,234.43a112,112,0,0,1-42.37,75.19Z"/><path class="cls-10" d="M1378.56,1977.54c-1,8.67,3.21,80.09,3.21,80.09l49.42,5.64c34,3.88,65.64-28.2,70.6-71.67s-18.6-81.84-52.63-85.73l-49.42-5.64S1380.17,1963.4,1378.56,1977.54Z"/><path class="cls-11" d="M1378.56,1977.54c-1,8.67,3.21,80.09,3.21,80.09l49.42,5.64c34,3.88,65.64-28.2,70.6-71.67s-18.6-81.84-52.63-85.73l-49.42-5.64S1380.17,1963.4,1378.56,1977.54Z"/><path class="cls-2" d="M1436.71,2077.41a62.49,62.49,0,0,1-7.08-.4l-34.33-3.92a31.76,31.76,0,0,1-28.19-29.88c-3.22-59.06-2.55-65-2.29-67.24,1-8.33,6.77-30.3,17.29-65.3a31.81,31.81,0,0,1,34.11-22.48l34.51,3.94c41.55,4.75,70.62,50.07,64.8,101C1510.05,2041.23,1475.47,2077.41,1436.71,2077.41Zm-44.41-98.34c-.28,3.23.19,21.56,2.43,62.63a4.16,4.16,0,0,0,3.71,3.91l34.32,3.92c26.48,3,51.2-23.68,55.29-59.49s-14.06-67.42-40.46-70.43l-34.5-3.94a4.21,4.21,0,0,0-4.49,3C1394.61,1965.17,1392.59,1976.63,1392.3,1979.07Zm-13.74-1.53h0Z"/><ellipse class="cls-10" cx="1390.76" cy="1978.93" rx="79.21" ry="62.02" transform="translate(-733.14 3136.26) rotate(-83.49)"/><g class="cls-12"><path class="cls-1" d="M1328.62,1988.22c9.93-35.07,37.74-59,67.41-55.64s51.5,33.13,53.19,69.63a100.38,100.38,0,0,0,3.18-16.24c4.91-43.47-18.65-81.85-52.68-85.73s-65.62,28.17-70.59,71.64A97.93,97.93,0,0,0,1328.62,1988.22Z"/></g><path class="cls-11" d="M1381.75,2057.6c34,3.94,65.68-28.16,70.65-71.63a99.49,99.49,0,0,0-.89-28.8c-12.23,28.53-37.09,46.91-63.31,43.88s-46.22-26.42-51.73-56.92a96.9,96.9,0,0,0-7.34,27.75C1324.16,2015.35,1347.72,2053.73,1381.75,2057.6Z"/><path class="cls-2" d="M1387.29,2071.77a62.8,62.8,0,0,1-7.09-.4c-41.55-4.75-70.62-50.07-64.8-101h0c5.82-51,44.35-88.59,85.91-83.84s70.62,50.07,64.8,101C1460.63,2035.59,1426.05,2071.77,1387.29,2071.77Zm-44.41-98.31c-4.09,35.82,14.06,67.41,40.46,70.43s51.2-23.68,55.29-59.5-14.06-67.41-40.46-70.42-51.2,23.68-55.29,59.49Z"/><path class="cls-2" d="M1241.38,2188.08c-.44,0-.89,0-1.34-.06a13.84,13.84,0,0,1-12.44-15.09L1239,2054a68.53,68.53,0,0,0-25.15-60,95.88,95.88,0,0,1-35.07-86l19.48-167.26a13.83,13.83,0,0,1,27.47,3.2l-19.48,167.26a68.36,68.36,0,0,0,25,61.33,96.16,96.16,0,0,1,35.28,84.1l-11.43,118.91A13.84,13.84,0,0,1,1241.38,2188.08Z"/><path class="cls-1" d="M2063.09,1916.63s38.69,35.34,37.06,85.69c-1.87,58.21-39.81,79.28-39.81,79.28s-164.53,70.56-415.9-.9c0,0-68.61-100,18.66-147.86C1663.1,1932.84,1929.79,1988.16,2063.09,1916.63Z"/><g class="cls-6"><path class="cls-2" d="M2100.13,2002.35c-1.87,58.15-39.78,79.21-39.78,79.21s-164.5,70.6-415.93-.89c0,0-22.55-33-25.3-70,1.07,1.89,1.79,2.89,1.79,2.89,183.75,52.26,321.08,28.6,381.66,12.08,42.09-11.47,72.11-46.92,74-88.67,0-.58.05-1.15.07-1.74a17.28,17.28,0,0,0,0-2.88C2087.57,1947.41,2101.13,1972.19,2100.13,2002.35Z"/></g><path class="cls-2" d="M1866.2,2130.18c-63.38,0-139.8-8.21-226.49-32.85l-6-1.71-3.52-5.14c-1.59-2.31-38.69-57.21-26-110.38,6.3-26.46,23.33-47.46,50.62-62.42l5.58-3.06,6.24,1.29c2.61.54,262.12,53.21,388.3-14.52l10.79-5.79,9.05,8.26c1.82,1.66,44.54,41.37,42.68,99-2.17,67.24-46.79,92.79-48.7,93.84l-1.57.78C2062.58,2099.45,1988.8,2130.18,1866.2,2130.18Zm-210.62-64.31c229.22,63.29,383.28,5.7,397,.24,4.26-2.78,28.92-20.73,30.33-64.35.92-28.8-14.12-52-23.73-63.87-129.24,59.62-351,21.22-393,13.18-15.43,9.71-24.72,21.83-28.35,36.93C1630.48,2018.56,1648.12,2053.11,1655.58,2065.87Z"/><path class="cls-2" d="M1775.74,2615.4a21.92,21.92,0,0,1,0-43.83c142.22,0,381-25.25,416.09-92.8a21.91,21.91,0,1,1,38.88,20.22C2171.87,2612.13,1816.12,2615.4,1775.74,2615.4Z"/><path class="cls-2" d="M1184.65,2455.89a21.9,21.9,0,0,1-18.1-9.52c-120.08-175-241.59-240.66-322.38-264.88-86.9-26-146.69-11.1-147.29-10.95a21.92,21.92,0,0,1-11.27-42.36c10.89-2.92,269.55-67.47,517.09,293.4a21.91,21.91,0,0,1-18,34.31Z"/><path class="cls-1" d="M775,2696.64s87.43,54.23,245.08,11.69"/><path class="cls-2" d="M786.54,2678a54.65,54.65,0,0,0,4.85,2.9c1.86,1.1,4,2.08,6,3.12,4.18,2,8.45,4,12.94,5.66a228.93,228.93,0,0,0,27.57,9,323.59,323.59,0,0,0,58.52,9.36c10,.45,20,1,30.09.65,10.08.12,20.15-.84,30.26-1.55s20.15-2.5,30.28-3.69c10-1.73,20-3.81,30.13-5.7l.73-.13a10.94,10.94,0,0,1,5,21.29c-10.28,2.89-20.53,6-30.9,8.7-10.5,2.19-20.9,5-31.56,6.68s-21.29,3.64-32.12,4.48c-10.78,1.35-21.67,1.7-32.59,2.13a358.26,358.26,0,0,1-65.89-4.73,270.27,270.27,0,0,1-32.85-7.61c-5.47-1.52-10.89-3.48-16.35-5.51-2.74-1.1-5.44-2.08-8.23-3.37a97.77,97.77,0,0,1-9-4.41l-.75-.42a22,22,0,1,1,21.38-38.42A24.2,24.2,0,0,1,786.54,2678Z"/><path class="cls-2" d="M2129.52,2882.38a392.52,392.52,0,0,0,58.52-5,309.27,309.27,0,0,0,56.2-14.11c17.78-6.53,34.65-14.9,48.18-26a89.5,89.5,0,0,0,29-39.44,21.94,21.94,0,0,1,41.24,15c-.24.64-.53,1.33-.81,1.94a131.71,131.71,0,0,1-20.15,30.49,136.91,136.91,0,0,1-26.8,23c-19.24,12.92-40.18,20.77-61,26.37a338.4,338.4,0,0,1-62.85,9.93,415.68,415.68,0,0,1-62.91-.35,11,11,0,0,1,.81-21.88Z"/><path class="cls-13" d="M3248.11,808.29q-52.4-30.19-63.86-81.63h0c-.67-2.94-1.22-5.95-1.68-9a16.61,16.61,0,0,1,11.62-18.43l30.37-8.93,62.91,88.08-17.81,25.1A16.41,16.41,0,0,1,3248.11,808.29Z"/><path class="cls-14" d="M3287.65,581.39l-54.86-27.23a18,18,0,0,0-18.45,1.48L3186,575.9a18,18,0,0,0-4.47,24.68l39.56,58.78"/><g class="cls-15"><path class="cls-1" d="M3278.25,592.38l-45.83-22.75a18,18,0,0,0-18.46,1.49l-28.37,20.26a17.89,17.89,0,0,0-5.58,6.48,18,18,0,0,1,6-22l28.37-20.26a18,18,0,0,1,18.44-1.48l54.88,27.22Z"/></g><path class="cls-14" d="M3412.39,832.92,3384,853.19a18,18,0,0,1-24.78-3.78l-42.78-56.48L3375,769.77l36.81-14.55,7.91,60.41,0,.33A18,18,0,0,1,3412.39,832.92Z"/><g class="cls-16"><path class="cls-17" d="M3412.39,832.92,3384,853.19a18,18,0,0,1-24.78-3.78l-42.78-56.48L3375,769.77l4.18-1.42c-31.65,52.55-11.36,62.76,40.54,47.28l0,.33A18,18,0,0,1,3412.39,832.92Z"/></g><path class="cls-2" d="M3256.23,817.39a23,23,0,0,1-11.56-3.11c-39.69-22.86-62.89-55-69-95.63a23.58,23.58,0,0,1,16.51-26.06l30.36-8.93a6.91,6.91,0,1,1,3.9,13.26l-30.35,8.93a9.59,9.59,0,0,0-6.74,10.76c5.48,36.71,25.82,64.74,62.17,85.69a9.56,9.56,0,0,0,12.43-2.83l17.8-25.11a6.91,6.91,0,1,1,11.28,8l-17.79,25.11A23.35,23.35,0,0,1,3256.23,817.39Z"/><path class="cls-2" d="M3221.06,666.27a6.91,6.91,0,0,1-5.74-3l-39.56-58.78a24.77,24.77,0,0,1,6.19-34.17L3210.32,550a24.86,24.86,0,0,1,25.54-2l54.86,27.23a6.91,6.91,0,0,1-6.14,12.39l-54.86-27.23a11.06,11.06,0,0,0-11.36.9L3190,581.53a11,11,0,0,0-2.74,15.19l39.55,58.78a6.9,6.9,0,0,1-5.73,10.77Z"/><path class="cls-2" d="M3373.52,863.5a24.79,24.79,0,0,1-19.82-9.92l-42.76-56.49a6.91,6.91,0,1,1,11-8.34l42.77,56.49a11,11,0,0,0,15.26,2.32l28.37-20.26a11.05,11.05,0,0,0,4.55-10.45l-8-60.73a6.91,6.91,0,0,1,13.71-1.8l8,60.73a24.86,24.86,0,0,1-10.22,23.5L3388,858.82A24.87,24.87,0,0,1,3373.52,863.5Z"/><path class="cls-18" d="M3324.4,791.37a29.18,29.18,0,0,1-30-6.32C3260.72,753,3237,718.7,3221,682.64a29,29,0,0,1,4-29.81c1.09-1.36,2.18-2.73,3.28-4.05v0q136.74-169.23,280-215.56,75-24.22,151.73-14.82A31.35,31.35,0,0,1,3687,456.05q-3.24,15.31-7.77,30.16a350.94,350.94,0,0,1-55.49,108.53Q3532.43,716.62,3324.4,791.37Z"/><path class="cls-14" d="M3623.7,594.74c-67-17.91-126.64-103.3-115.38-161.54q75-24.22,151.73-14.82A31.35,31.35,0,0,1,3687,456.05Q3670.94,531.71,3623.7,594.74Z"/><g class="cls-15"><path class="cls-1" d="M3678.36,488.81c1.2-4.66,2.28-9.35,3.29-14.07a31.34,31.34,0,0,0-26.9-37.67A348.69,348.69,0,0,0,3507,450.66a80.18,80.18,0,0,1,1.34-17.46q75-24.22,151.73-14.82A31.35,31.35,0,0,1,3687,456.05C3684.61,467.17,3681.74,478.12,3678.36,488.81Z"/></g><g class="cls-16"><path class="cls-17" d="M3324.4,791.37a29.18,29.18,0,0,1-30-6.32C3260.72,753,3237,718.7,3221,682.64a29,29,0,0,1,4-29.81c1.09-1.36,2.18-2.73,3.28-4.05,196.5,105.62,450.89-162.66,450.89-162.66v.09a350.94,350.94,0,0,1-55.49,108.53Q3532.43,716.62,3324.4,791.37Z"/></g><path class="cls-2" d="M3314.48,800a36,36,0,0,1-24.8-10c-32.83-31.19-58.06-66.39-75-104.62a35.78,35.78,0,0,1,4.91-36.93c140.82-175.88,289.32-255.61,441.29-237a38.28,38.28,0,0,1,32.83,46c-31.69,149.74-155.16,264.27-367,340.4h0A36.23,36.23,0,0,1,3314.48,800Zm9.91-8.66h0Zm293.53-368.66c-132.66,0-262.82,78.68-387.52,234.45a21.94,21.94,0,0,0-3.06,22.68c16.42,37.07,39.92,69.84,71.86,100.19a22.14,22.14,0,0,0,22.85,4.84h0c207-74.41,327.51-185.52,358.14-330.26a24.44,24.44,0,0,0-21-29.37A339.09,339.09,0,0,0,3617.92,422.71Z"/><path class="cls-14" d="M3238,747h0a15.18,15.18,0,0,1,3.53-21.17l80.66-57.6a15.17,15.17,0,0,1,21.16,3.53h0a15.17,15.17,0,0,1-3.53,21.16l-80.65,57.61A15.18,15.18,0,0,1,3238,747Z"/><g class="cls-15"><path class="cls-1" d="M3345.77,683.9a12.6,12.6,0,0,0-.72-1.13,15.15,15.15,0,0,0-21.15-3.53l-80.66,57.62a15,15,0,0,0-6,9.07,15.16,15.16,0,0,1,4.23-20.08l80.65-57.6A15.2,15.2,0,0,1,3346,683.1,6.24,6.24,0,0,1,3345.77,683.9Z"/></g><path class="cls-2" d="M3250.36,760.29a22.9,22.9,0,0,1-3.67-.3,21.94,21.94,0,0,1-14.34-9h0a22.08,22.08,0,0,1,5.13-30.81l80.66-57.61a22.09,22.09,0,0,1,25.68,35.94l-80.66,57.61A21.91,21.91,0,0,1,3250.36,760.29Zm80.6-88a8.2,8.2,0,0,0-4.78,1.54l-80.66,57.61A8.25,8.25,0,0,0,3243.6,743h0a8.25,8.25,0,0,0,11.52,1.92l80.66-57.61a8.26,8.26,0,0,0-3.45-14.86A7.93,7.93,0,0,0,3331,672.33Z"/><circle class="cls-14" cx="3449.02" cy="603.31" r="62.58"/><g class="cls-16"><path class="cls-17" d="M3485.39,654.23A62.58,62.58,0,0,1,3399,565.66a62.57,62.57,0,0,0,110.64,53A62.27,62.27,0,0,1,3485.39,654.23Z"/></g><g class="cls-15"><path class="cls-1" d="M3506.15,628.87A62.58,62.58,0,0,0,3387.85,590a62.59,62.59,0,1,1,118.3,38.84Z"/></g><path class="cls-2" d="M3449.17,672.83a69.88,69.88,0,0,1-11.58-1,69.5,69.5,0,1,1,51.82-12h0A69,69,0,0,1,3449.17,672.83Zm-.27-125.2a55.67,55.67,0,1,0,32.47,101h0a55.69,55.69,0,0,0-32.47-101Zm36.49,106.61h0Z"/><circle class="cls-19" cx="3449.02" cy="603.31" r="38.69" transform="translate(128.56 1714.28) rotate(-28.42)"/><g class="cls-16"><path class="cls-17" d="M3476.31,630.71a38.69,38.69,0,0,0-58.38-45.92,37.8,37.8,0,0,0-4.79,4.07,38.68,38.68,0,1,1,63.17,41.85Z"/></g><path class="cls-2" d="M3449.08,645.44a42.09,42.09,0,1,1,24.44-7.83h0A41.94,41.94,0,0,1,3449.08,645.44ZM3449,568.1A35.22,35.22,0,1,0,3469.5,632h0A35.22,35.22,0,0,0,3449,568.1Z"/><path class="cls-2" d="M3623.71,601.66a6.94,6.94,0,0,1-1.79-.24c-69.42-18.55-132.42-107.27-120.38-169.53a6.92,6.92,0,0,1,13.58,2.63c-10.66,55.12,48.13,136.91,110.37,153.54a6.92,6.92,0,0,1-1.78,13.6Z"/><g class="cls-16"><path class="cls-17" d="M3248.11,808.29q-52.4-30.19-63.86-81.63c19.29,31.56,67.89,22.91,67.89,22.91l17.71,4.16,17.6,24.63-17.81,25.1A16.41,16.41,0,0,1,3248.11,808.29Z"/></g><g class="cls-20"><path class="cls-2" d="M3867.73,947.45s-95.64-69.57-216-49.7c-129.08,21.3-227.35,79.1-393.21,68.21-204.51-13.46-347.22-245.69-347.22-245.69s143.88-421.39,141.88-588.88c25.3,2.56,49.5,10,72.9,20.7-14.73,156.74-156.71,557.63-49.57,652.38,189.22,167.35,327.06-228,350.4-468.15a189,189,0,0,0,47.81,5.31,224.72,224.72,0,0,0,49.36-6.59c-59.37,188.26-132.4,507.65,64.31,484.72,222.94-26,192.7-389,326.66-590.81,12.73,2,25.95,4.64,39.65,8.05C3954.74,237,3865.32,943,3867.73,947.45Z"/></g></g></g></svg>