<svg xmlns="http://www.w3.org/2000/svg" viewBox="0 0 3483.3 2653.7"><defs><style>.cls-1{fill:#371a45;}.cls-2{fill:#fff;}.cls-3{fill:#ffe448;}.cls-4{fill:#ff5a5a;}.cls-5{fill:#3ecdff;}.cls-6{opacity:0.3;}.cls-7{fill:#db1947;}.cls-8{opacity:0.4;}.cls-9{fill:#dda55b;}.cls-10{fill:#ffdb23;}.cls-11{fill:#220f2d;}.cls-12{opacity:0.5;}</style></defs><g id="Calque_2" data-name="Calque 2"><g id="Layer_1" data-name="Layer 1"><path class="cls-1" d="M2833.36,1920.21s154.21-28.9,193.67,0,60.23,57.79,130.85,48.16,168.22-36.12,172.38,16.86-37.39,48.16-105.92,60.2-70.62,55.39-24.93,67.43,213.92,31.3,245.08,72.24,51.92,65-87.23,103.55-195.23-19.26-257.54-2.41-83.07,34.21-147.46,31.56-141.21-41.19-158.87,9.38,46.72,57.8,140.18,57.8,182.77,7.22,166.15,36.12-97.61,67.43-218.07,50.57-224.31-57.8-346.84-36.12-180.69,40.94-255.46,24.08-105.92,25.09-168.23,16.15-155.77-21-137.07,22.38,153.69,16.86,168.22,55.39-60.23,81.87-108,65-64.39,17.11-147.46,3.74-97.62-44.68-193.16-25.42-255.45,52.41-324,28.62-243,17.14-280.38-40.66,24.92-45.75,147.46-55.39,168.23-57.79,78.92-74.65S993.75,2450,892,2418.69s-205.61-96.32-236.76-67.43,108.95,81.88,103.28,106-92.9,60.2-209.21-2.41-93.46-86.69-182.76-89.1-108-41-182.77-95.13-141.23-.3-166.15-110.32,236.77-139,236.77-139Z"/><path class="cls-1" d="M2406,2566.79s102.81-34.92,143.31-37.33,88.26,38.53,143.3,37.33,89.31,30.1,31.15,55.39-140.19-3.28-235.72,11.61-150.58-15.22-144.35-35.69S2406,2566.79,2406,2566.79Z"/><path class="cls-1" d="M1435.16,2649.68c-27.64,0-52-2.65-70.71-9.14-24.42-8.48-68.11-7.78-110.36-7.1-74.11,1.22-150.75,2.43-178.16-39.94-8.46-13.08-18.7-32.42-10-49.32,11.44-22.28,44.22-23.84,103.73-26.68,19.42-.93,41.44-2,65.86-3.9,72.69-5.71,104.51-23.69,110.26-31.33-2.53-2.23-10.62-7.59-33-11.82-35.75-6.75-97.35-8.78-162.58-10.93-94.28-3.11-201.14-6.64-262.84-25.62-35.41-10.89-71.44-25.94-103.22-39.21-45.33-18.94-101.4-42.35-116.7-32.79,5.74,9.8,35.15,28.65,51.44,39.09,34.94,22.39,60.19,38.57,55.17,59.88-2.92,12.42-14.66,23.81-33,32.08-40.65,18.3-114.33,21.57-199.2-24.13-46.12-24.82-71-43.83-89.18-57.71-27.58-21.06-36.86-28.15-86.47-29.49-72.89-2-103.44-27.17-145.72-62-13.14-10.84-28-23.12-45.95-36.11-25.73-18.64-50.24-23-73.95-27.21-39.67-7.06-80.69-14.35-98.39-92.47-5.16-22.79-.75-44.22,13.12-63.69,52.24-73.35,229.88-93.8,237.42-94.64l1.12-.08,2577.83-101c29.41-5.45,162.59-27.94,204.85,3,6.54,4.79,12.48,9.49,18.22,14,29.17,23.11,48.45,38.38,101.07,31.19,11.24-1.53,23.06-3.48,35.56-5.54,56.43-9.31,109.72-18.09,137.76,3.87,10.1,7.92,16,19.35,17.08,33,4.62,59-38,65.11-87.4,72.21-10,1.44-20.38,2.94-31.63,4.91-30.66,5.39-42.49,16.85-42.74,22.81-.17,4.08,6.47,10.23,19.12,13.56,10.59,2.79,29.12,6.17,50.57,10.08,96.21,17.56,177.9,34.78,203.11,67.92l1.31,1.72c15.61,20.49,30.36,39.85,22.81,62.28-8.38,24.89-42,43-119.77,64.52-87.35,24.19-143.05,12.13-187.79,2.44-27.2-5.9-48.69-10.56-69.83-4.82-17.93,4.85-32.63,9.84-45.59,14.24-32.61,11.09-58.35,19.84-106.68,17.85-20.64-.85-41.72-5-62.1-9-49.84-9.86-74.08-12.31-81.1,7.78-4,11.39-1,15.56,0,16.94,14,19.69,91.92,19.69,125.2,19.69,142.58,0,171.28,16.37,180.55,32.39,4.93,8.53,4.72,18.33-.6,27.58-20.14,35-106.09,76.33-234.08,58.4-35.78-5-70.17-12.12-103.43-19-79.6-16.46-154.78-32-238.43-17.21-24.81,4.39-47.36,8.75-67.25,12.6-79.29,15.35-131.68,25.49-194.48,11.33-36.64-8.25-61.26-1-87.32,6.77-23.51,7-47.82,14.17-79.67,9.62-25.16-3.61-54.06-7.52-78.78-8.32-31.7-1-40.65,3.84-42.51,5.2a14.21,14.21,0,0,0,1.09,3.44c5.88,13.63,46.26,17.46,75.75,20.26,42.27,4,82.18,7.8,92.75,35.81,6.88,18.23,1.16,38.56-15.69,55.79-24.86,25.41-73.74,43.53-112.49,29.85-18.59-6.56-30.79-3.75-49.25.52-21.93,5.07-49.23,11.36-95.44,3.93-29.81-4.8-51.11-11.79-69.9-18-34.25-11.24-59-19.36-117.58-7.56l-6.58,1.33C1615.49,2628.91,1512.57,2649.67,1435.16,2649.68Zm-145.78-48.44c33.32,0,63.46,1.58,85.51,9.24,62.89,21.82,217-9.27,309-27.85l6.59-1.34c66.81-13.47,97.86-3.28,133.8,8.53,18.54,6.09,37.71,12.38,65,16.78,40.08,6.44,63,1.16,83.23-3.52,20.41-4.71,39.68-9.16,67,.48,25.18,8.87,61.94-4.52,79.16-22.1,4.6-4.71,11.84-13.86,8.66-22.29-3.57-9.44-45.72-13.45-66-15.37-43.58-4.13-88.64-8.41-102-39.34-7.63-17.71-1.73-29.56,2.47-35.06,18-23.54,67.14-21.45,151.48-9.37,25,3.58,44-2.07,66.1-8.61,27.49-8.16,58.64-17.39,103.37-7.31,56.29,12.68,103.4,3.57,181.43-11.54,20-3.87,42.69-8.26,67.76-12.69,89.66-15.86,167.75.29,250.41,17.39,32.77,6.77,66.65,13.78,101.4,18.64,110.15,15.42,183.36-17.73,200.28-40-8.28-4.56-39.35-15-150.56-15-80.85,0-131.5-5.42-151.15-33.1-8.92-12.58-10.29-28-4.05-45.86,16.89-48.36,70.24-37.8,117.31-28.5,19.2,3.79,39.05,7.72,57.24,8.47,42.39,1.75,63.37-5.39,95.13-16.18,13.41-4.55,28.62-9.72,47.52-14.84,28.62-7.74,54.69-2.09,84.88,4.44,41.33,9,92.76,20.1,172.56-2s95.76-37.07,98.09-44c2.17-6.43-8.06-19.86-17.95-32.85l-1.33-1.73c-19.79-26-126.28-45.44-183.49-55.88-23-4.2-41.19-7.51-53-10.62-27.28-7.19-43.68-24.69-42.8-45.67,1.07-25.67,26.88-45.41,69-52.81,11.74-2.06,22.83-3.66,32.61-5.07,53.85-7.75,62.34-11,60.2-38.22-.48-6.18-2.78-8.77-5-10.48-17-13.34-70.21-4.57-112.95,2.47-12.17,2-24.76,4.08-36.43,5.68-66.07,9-94.76-13.72-125.14-37.78-5.51-4.37-11.21-8.88-17.26-13.31-23.38-17.13-120.12-8.67-181.34,2.8a16.17,16.17,0,0,1-2.31.26l-2578.41,101c-47.89,5.4-178.08,30.33-214.45,81.41-8.49,11.94-11.11,24.43-8,38.19,13,57.52,35.57,61.53,72.93,68.17,24.68,4.39,55.4,9.85,87,32.77,18.73,13.57,34,26.19,47.53,37.33,40.15,33.12,64.39,53.11,126.33,54.78,57.47,1.56,73.69,12.17,104.92,36,17.33,13.23,41.06,31.35,85,55,86.31,46.46,146.78,31.78,163.25,26.17,11.61-3.94,18-8.43,20.93-11.26-7-7.17-26.11-19.44-39.37-27.94-40.25-25.79-64.83-43-66.76-64.65-.78-8.76,2.59-17.12,9.51-23.53,28-26,82.71-3.19,151.94,25.72C829,2379,862.73,2393,896.66,2403.48c57.64,17.73,162.24,21.18,254.53,24.23,66.48,2.19,129.28,4.27,167.43,11.47,50.71,9.57,60.4,29.28,59.6,44.13-2,37.76-73.78,56.79-140.23,62-24.91,2-47.18,3-66.84,4-32.7,1.56-69.68,3.32-76.73,9.37.09,1.48,1,6.43,8.23,17.55,17.82,27.55,88.53,26.41,150.93,25.42C1265.76,2601.43,1277.77,2601.24,1289.38,2601.24Zm1544-681h0Z"/><path class="cls-1" d="M2438.83,2653.7c-51.95,0-87.94-14-102.83-31.17-10.53-12.12-9.21-23.41-7.49-29.07,8-26.27,53.17-38.06,73.43-42.08,11.55-3.89,106-35.39,146.46-37.8,22.77-1.31,45.32,7.92,69.22,17.74,24.06,9.9,48.9,20.16,74.68,19.56,41-.85,71.95,13.81,76.95,36.61,2.42,11,.55,32-39.1,49.28-35,15.23-75.08,13-121.44,10.43-35.71-2-76.19-4.24-118.18,2.31A336.55,336.55,0,0,1,2438.83,2653.7Zm-79-52.14c6.7,8.35,47.39,28.71,125.79,16.5,45.31-7,87.57-4.7,124.85-2.64,42.32,2.37,78.86,4.4,107-7.84,15.31-6.65,19.45-12,20.43-13.62-2.87-4-18.12-11.78-44.89-11.26-32.34.62-61.66-11.33-87.48-21.94-20.44-8.4-39.71-16.33-55.23-15.41-31.45,1.87-111.1,27-139.13,36.51a15.7,15.7,0,0,1-2.09.55h0C2387.87,2586.54,2365.33,2595.43,2359.84,2601.56Zm46.2-34.77h0Z"/><path class="cls-2" d="M2909.22,2059.92c6.7,35.13,5.9,70.83,3.9,106.33-.82,11.82-1.89,23.63-3.9,35.45a2.69,2.69,0,0,1-5.3,0c-2-11.82-3.07-23.63-3.9-35.45a576.21,576.21,0,0,1-.52-70.89c.84-11.81,1.95-23.63,4.42-35.44.5-2.81,4.82-2.81,5.3,0Z"/><path class="cls-2" d="M2847.21,2128.16c29.41-6.7,59.49-5.94,89.33-3.9a256.93,256.93,0,0,1,29.78,3.9,2.7,2.7,0,0,1,0,5.3,256.93,256.93,0,0,1-29.78,3.9,398.59,398.59,0,0,1-59.55.52,187.51,187.51,0,0,1-29.78-4.42c-2.71-.58-2.7-4.74,0-5.3Z"/><path class="cls-2" d="M2405.33,2290.66c6.67,25,5.94,50.72,3.89,76.21a189.06,189.06,0,0,1-3.89,25.41,2.73,2.73,0,0,1-5.31,0,189.06,189.06,0,0,1-3.89-25.41,289.36,289.36,0,0,1-.53-50.81,138.12,138.12,0,0,1,4.42-25.4,2.78,2.78,0,0,1,5.31,0Z"/><path class="cls-2" d="M2360.13,2338.81c20.84-6.65,42.58-6,64-3.89a135.32,135.32,0,0,1,21.34,3.89,2.76,2.76,0,0,1,0,5.31,135.32,135.32,0,0,1-21.34,3.89,204.44,204.44,0,0,1-42.69.53,99.35,99.35,0,0,1-21.34-4.42,2.83,2.83,0,0,1,0-5.31Z"/><path class="cls-2" d="M1546.26,2453.21c6.68,25,6,50.72,3.9,76.21a190.31,190.31,0,0,1-3.9,25.4,2.72,2.72,0,0,1-5.3,0,187.12,187.12,0,0,1-3.9-25.4,290.34,290.34,0,0,1-.53-50.81,139,139,0,0,1,4.43-25.4,2.78,2.78,0,0,1,5.3,0Z"/><path class="cls-2" d="M1501.06,2501.36c20.84-6.65,42.59-6,64-3.89a135.11,135.11,0,0,1,21.34,3.89,2.76,2.76,0,0,1,0,5.31,135.11,135.11,0,0,1-21.34,3.89,204.43,204.43,0,0,1-42.69.53,99.6,99.6,0,0,1-21.34-4.42,2.83,2.83,0,0,1,0-5.31Z"/><path class="cls-2" d="M390.47,2215.73c6.68,25,5.94,50.73,3.89,76.21a189.06,189.06,0,0,1-3.89,25.41,2.73,2.73,0,0,1-5.31,0,189.06,189.06,0,0,1-3.89-25.41,289.25,289.25,0,0,1-.53-50.8,138.37,138.37,0,0,1,4.42-25.41,2.78,2.78,0,0,1,5.31,0Z"/><path class="cls-2" d="M345.27,2263.89c20.84-6.65,42.59-6,64-3.9a135.35,135.35,0,0,1,21.34,3.9,2.75,2.75,0,0,1,0,5.3,135.35,135.35,0,0,1-21.34,3.9,204.44,204.44,0,0,1-42.69.52c-7-1-30.34-3.48-21.34-9.72Z"/><ellipse class="cls-3" cx="1055.15" cy="2364.13" rx="17.72" ry="20.55"/><ellipse class="cls-3" cx="783.64" cy="2236.28" rx="17.72" ry="20.55"/><ellipse class="cls-3" cx="2658.46" cy="2353.75" rx="17.72" ry="20.55"/><ellipse class="cls-3" cx="3027.05" cy="2059.92" rx="35.45" ry="41.1"/><ellipse class="cls-3" cx="1755.99" cy="2465.03" rx="35.45" ry="41.1"/><ellipse class="cls-3" cx="199.92" cy="2136.98" rx="26.48" ry="30.7"/><ellipse class="cls-4" cx="3027.05" cy="2201.7" rx="22.82" ry="26.46"/><ellipse class="cls-4" cx="541.01" cy="2317.12" rx="22.82" ry="26.46"/><ellipse class="cls-4" cx="2241.99" cy="2353.75" rx="22.82" ry="26.46"/><ellipse class="cls-4" cx="1440.31" cy="2438.57" rx="22.82" ry="26.46"/><ellipse class="cls-5" cx="2591.99" cy="2583.57" rx="17.72" ry="20.55"/><ellipse class="cls-5" cx="2551.71" cy="2290.66" rx="17.72" ry="20.55"/><ellipse class="cls-5" cx="1860.78" cy="2412.11" rx="17.72" ry="20.55"/><ellipse class="cls-5" cx="1860.78" cy="2529.36" rx="17.72" ry="20.55"/><ellipse class="cls-5" cx="2157.92" cy="2380.21" rx="17.72" ry="20.55"/><ellipse class="cls-5" cx="652.17" cy="2290.66" rx="17.72" ry="20.55"/><ellipse class="cls-5" cx="487.58" cy="2130.91" rx="17.72" ry="20.55"/><ellipse class="cls-5" cx="901.4" cy="2343.58" rx="17.72" ry="20.55"/><ellipse class="cls-5" cx="2752.41" cy="2101.02" rx="17.72" ry="20.55"/><ellipse class="cls-2" cx="2497.17" cy="2570.46" rx="17.72" ry="20.55"/><ellipse class="cls-2" cx="2948.6" cy="2432.66" rx="17.72" ry="20.55"/><ellipse class="cls-2" cx="1403.62" cy="2549.91" rx="17.72" ry="20.55"/><ellipse class="cls-2" cx="265.48" cy="2236.28" rx="17.72" ry="20.55"/><ellipse class="cls-2" cx="1623.78" cy="2400.76" rx="17.72" ry="20.55"/><ellipse class="cls-2" cx="1550.63" cy="2287.64" rx="17.72" ry="20.55"/><ellipse class="cls-2" cx="1262.59" cy="2380.21" rx="17.72" ry="20.55"/><ellipse class="cls-2" cx="2009.35" cy="2380.21" rx="17.72" ry="20.55"/><ellipse class="cls-2" cx="2716.97" cy="2201.36" rx="17.72" ry="20.55"/><ellipse class="cls-5" cx="3185.98" cy="2180.81" rx="17.72" ry="20.55"/><ellipse class="cls-5" cx="2847.21" cy="2018.82" rx="17.72" ry="20.55"/><path class="cls-2" d="M915.05,2088.45s-540.34-733.72-529.61-758.82,968.2-179.11,968.2-179.11,341.53-533.31,375.44-538.59S2131.22,1196,2131.22,1196s862.07,104.14,864,116.36-411.29,764.88-457.52,802.3-600.77,170.7-862.3,164.38S938.24,2120,915.05,2088.45Z"/><g class="cls-6"><polygon class="cls-1" points="460.3 1356.61 1304.94 1225.19 1095.66 1546.08 1081.88 1567.21 1067.43 1567.5 460.3 1356.61"/></g><g class="cls-6"><polygon class="cls-1" points="2167.13 1255.25 2927.54 1340.24 2343.79 1540.28 2333.22 1529.05 2167.13 1255.25"/></g><g class="cls-6"><path class="cls-1" d="M1151.48,1599.4l580.24-924.88,548,890.74s-559,166.39-590.77,171.1-54.06,7.56-54.06,7.56l-37.69-4.22Z"/></g><g class="cls-6"><path class="cls-1" d="M1641.74,2104c311.78,16.41,762.57-507.54,762.57-507.54l457-155-380.87,697.37S1965.76,2275.69,1716.57,2279s-810.36-175-810.36-175L864.87,2020S1330,2087.56,1641.74,2104Z"/></g><g class="cls-6"><polygon class="cls-1" points="1426.03 1925.97 1621.33 1812.91 1839.62 1925.18 1624.94 1748.73 1426.03 1925.97"/></g><path class="cls-1" d="M1692.73,2295.2c-6.08,0-12-.07-17.75-.21-250.91-6.06-741.62-154.74-772.75-197.12-2-2.67-137-186.06-268.94-370.15-77.73-108.43-139.23-195.9-182.78-260-86.81-127.73-84-134.34-79.7-144.36,4.22-9.85,7-16.36,167.37-47.93,80.87-15.92,192.8-36.26,332.67-60.46,215.23-37.23,431.9-72.36,473.24-79,17.65-27.48,93.31-145,171.33-261.58,183.12-273.78,200-276.41,211.21-278.15,14.68-2.28,31.31-4.88,229.53,297.07,84,127.93,165.68,257.84,184.51,287.88,40.07,4.86,233,28.31,423.84,52.69,125.34,16,225.3,29.29,297.11,39.46,42.74,6,75.89,11.07,98.55,14.9,38.33,6.48,48.64,8.22,50.74,21.75,1.06,6.78,1.54,9.87-65.89,135.24-41.4,77-94.85,174.16-146.66,266.68-99.18,177.12-223.18,392.93-250.68,415.19C2496,2168.91,1954,2295.19,1692.73,2295.2ZM927.59,2078.64c31.9,30.49,489.13,178.28,748.16,184.53,112.07,2.75,297.34-21.15,508.23-65.46,199-41.8,327.46-82.26,343.68-95.38,12.9-10.45,82.72-120.29,237.05-395.5,98.14-175,184.57-335.18,208.66-384.06-89.67-17.37-540.11-74.21-844.06-110.93a15.93,15.93,0,0,1-11.59-7.37c-128.34-205.41-341.21-533.4-387.78-574.12C1686.57,670.52,1487.53,971,1367,1159.1a15.9,15.9,0,0,1-10.87,7.13c-348,56-869,144.76-951.25,171.52C443.35,1412.55,739.38,1823.07,927.59,2078.64Zm.29.39h0Zm0-.07,0,0ZM1725.34,627Z"/><path class="cls-1" d="M1629.23,1760.69c-99.11,0-1202.26-399.1-1249.2-416.1a15.91,15.91,0,1,1,10.83-29.92c318.29,115.27,1160.56,414.2,1238.2,414.2h.2c92.63-.62,1147.09-334.92,1359.37-431a15.91,15.91,0,0,1,13.12,29c-109.2,49.41-443.12,162-725.6,251.68-276.57,87.8-591.69,181.74-646.67,182.11Z"/><path class="cls-1" d="M2340.66,1557.2a15.92,15.92,0,0,1-13.62-7.66l-209.43-345.25a15.91,15.91,0,0,1,27.21-16.5L2354.25,1533a15.92,15.92,0,0,1-13.59,24.17Z"/><path class="cls-1" d="M1077.39,1590a15.92,15.92,0,0,1-13.31-24.61l276.23-423.54a15.91,15.91,0,1,1,26.66,17.38l-276.24,423.54A15.89,15.89,0,0,1,1077.39,1590Z"/><path class="cls-1" d="M1410.12,1933c48.7-52.62,102.32-103.23,155-151.81,17.79-16.22,35.63-32.4,53.75-48.25a15.65,15.65,0,0,1,20.81-.19c39.95,34.54,79.64,69.38,118.6,105s77.7,71.71,115,109.23c4.38,4.46-1.63,11.89-6.91,8-85.24-62.56-166.76-129.91-247.29-198.34l20.8-.2c-35.72,32.32-72.21,63.74-109.13,94.69-13.77,11.54-41.94,34.52-56,45.7-19,14.91-37.91,29.84-57.55,44-5,3.64-11.41-3.18-7.06-7.92Z"/><path class="cls-1" d="M1745,611.26c3.21,60,4.88,120.11,5.72,180.2-.19,60.45,4.67,120.43-5.12,180.66a1.37,1.37,0,0,1-2.65.12c-7.78-29.75-11.2-59.68-13.52-89.66-7.2-89.88-13.46-179.85-16.23-270,0-20.57,30-22,31.8-1.34Z"/><path class="cls-1" d="M1086.2,2144.35c35.88-14.28,74-30,109.45-45.94,37.3-15.83,69.72-37.08,108.49-50.84a1.4,1.4,0,0,1,1.6,2.11c-24.75,34-62.31,53-97.45,73.83-35.88,19.74-72.44,37-111.23,50.76-19.69,6.35-30.09-22.12-10.86-29.92Z"/><path class="cls-1" d="M2238.66,2210.3c-45-20.61-87.63-45.1-129.39-71.28-41.16-27.16-84.15-51.71-117.26-89.3a1.38,1.38,0,0,1,1.5-2.19c23.84,8.33,45.15,20,66.26,32,62.95,35.77,127.67,69.56,192.29,101.9,18.52,9.35,5.8,37-13.4,28.87Z"/><path class="cls-2" d="M2380,1590.1c-110,0-199.18,96.24-199.18,215S2270,2020,2380,2020s199.18-96.24,199.18-215S2490,1590.1,2380,1590.1Zm0,318.44c-52.94,0-95.86-46.33-95.86-103.47S2327,1701.6,2380,1701.6s95.86,46.33,95.86,103.47S2432.92,1908.54,2380,1908.54Z"/><path class="cls-7" d="M2423.85,1713.06s47.94-36.13,47.9-98.84c0,0-41.5-35.28-119.94-22.53s-125,74.62-125,74.62,69.29,16.33,87.89,63C2314.7,1729.32,2372.83,1683.72,2423.85,1713.06Z"/><g class="cls-8"><path class="cls-2" d="M2190.78,1758.46s72.29-135.84,189.2-134.88,174.63,78,174.63,78-52.24-124.9-190.82-111.5S2193.65,1727.85,2190.78,1758.46Z"/></g><path class="cls-7" d="M2447.84,1873.66s58,15.41,81.61,73.51c0,0-25.15,48.33-102.62,66.06s-143.89-22-143.89-22,58-41.23,57.67-91.48C2340.61,1899.73,2411.64,1920.06,2447.84,1873.66Z"/><path class="cls-1" d="M2380,2036c-118.6,0-215.09-103.58-215.09-230.89s96.49-230.89,215.09-230.89,215.09,103.58,215.09,230.89S2498.58,2036,2380,2036Zm0-429.95c-101.05,0-183.26,89.3-183.26,199.06s82.21,199.06,183.26,199.06,183.27-89.3,183.27-199.06S2481,1606,2380,1606Z"/><path class="cls-1" d="M2380,1924.45c-61.63,0-111.78-53.56-111.78-119.38s50.15-119.38,111.78-119.38,111.78,53.55,111.78,119.38S2441.62,1924.45,2380,1924.45Zm0-206.94c-44.09,0-79.95,39.28-79.95,87.56s35.86,87.55,79.95,87.55,79.95-39.28,79.95-87.55S2424.07,1717.51,2380,1717.51Z"/><g class="cls-6"><path class="cls-1" d="M2380,1676.67c-52.94,0-95.86,41-95.86,91.62a87.88,87.88,0,0,0,1.79,17.5c8.55-42.22,47.4-74.11,94.07-74.11s85.52,31.89,94.07,74.11a87.88,87.88,0,0,0,1.79-17.5C2475.84,1717.69,2432.92,1676.67,2380,1676.67Z"/><path class="cls-1" d="M2380,1980.5c-103.82,0-189.05-85.75-198.31-195.2-.55,6.51-.87,13.1-.87,19.77,0,118.73,89.18,215,199.18,215s199.18-96.24,199.18-215c0-6.67-.32-13.26-.87-19.77C2569,1894.75,2483.8,1980.5,2380,1980.5Z"/></g><path class="cls-9" d="M2372.69,1590.27v-65.54s-8.13-34.44-45.12-36.35-33.92,67.94-33.92,67.94l33.92-15,.71,55.15Z"/><path class="cls-1" d="M2328.28,1612.35a15.92,15.92,0,0,1-15.91-15.71l-.4-31-11.87,5.26a15.92,15.92,0,0,1-22.35-13.84c-.23-5.19-1.59-51.33,20.25-73a39,39,0,0,1,30.39-11.53c38.69,2,56,32.65,59.79,48.58a16.13,16.13,0,0,1,.43,3.66v65.54a15.91,15.91,0,0,1-13.73,15.76l-44.41,6.17A16.12,16.12,0,0,1,2328.28,1612.35Zm44.41-22.08h0Zm-45.12-64.9a15.92,15.92,0,0,1,15.91,15.71l.48,37.11,12.82-1.78V1527c-1.75-5.24-8.91-21.61-30-22.7a7.5,7.5,0,0,0-6.33,2.34c-4.63,4.59-7.63,14.29-9.3,24.56l10-4.43A16,16,0,0,1,2327.57,1525.37Z"/><path class="cls-2" d="M1769.24,53.94a38,38,0,1,0-62.34,29.23v535h48.62v-535A38,38,0,0,0,1769.24,53.94Z"/><path class="cls-10" d="M1729.08,1695.32s37.92-286,59-569.17-24.87-508-24.87-508H1700V1722.11S1730.37,1721.15,1729.08,1695.32Z"/><g class="cls-6"><path class="cls-1" d="M1743.11,17.84a37.92,37.92,0,0,1-10,45.5v535H1706.9v19.82h48.62v-535a38,38,0,0,0-12.41-65.33Z"/></g><g class="cls-6"><path class="cls-1" d="M1763.18,618.19h-32.81c12.11,86.47,28.61,251.56,14.34,443.49C1732,1233.33,1713,1406,1700,1515.41v206.7s30.33-1,29-26.79c0,0,37.92-286,59-569.17S1763.18,618.19,1763.18,618.19Z"/></g><path class="cls-1" d="M1700,1738a15.91,15.91,0,0,1-15.91-15.91V618.19A15.91,15.91,0,0,1,1700,602.28h63.14A15.92,15.92,0,0,1,1778.77,615c.46,2.27,46.11,230.22,25.15,512.31-20.12,270.68-56.09,547.42-58.9,568.79.18,10.54-3.23,19.89-9.9,27.13-12.63,13.7-32.37,14.7-34.58,14.77ZM1716,634.1V1672.71c9-70.51,38.67-311.47,56.23-547.74C1790,884.93,1759,685.31,1750,634.1Z"/><path class="cls-1" d="M1755.52,634.1H1706.9A15.91,15.91,0,0,1,1691,618.19V89.87a53.94,53.94,0,1,1,80.45,0V618.19A15.91,15.91,0,0,1,1755.52,634.1Zm-32.71-31.82h16.8V83.17a15.91,15.91,0,0,1,5.73-12.23,22.11,22.11,0,1,0-28.26,0,15.91,15.91,0,0,1,5.73,12.23Z"/><path class="cls-2" d="M1473.87,1176.93s97.92,10.28,125,28.47,61.85,188.08,71.73,318.3-145.18,142-145.18,142l-71.71,5.45-36.61-482.29Z"/><g class="cls-6"><path class="cls-1" d="M1445.32,1187.2s116.81,28.51,132.85,34.29,47.72,161,53.15,232.46,14,101.16-6.35,137.12-49.26,61.65-49.26,61.65a150.21,150.21,0,0,1-50.33,13l-71.71,5.45s-36.16-476.25-36.27-477.76S1445.32,1187.2,1445.32,1187.2Z"/></g><path class="cls-1" d="M1453.67,1684.39a13.25,13.25,0,0,1-13.22-12.26l-36.62-482.29a13.26,13.26,0,0,1,10.51-14l56.81-11.9a13.18,13.18,0,0,1,4.11-.21c10.35,1.08,102,11.18,131,30.65,36.93,24.84,69.63,223.86,77.56,328.29,8.61,113.46-99.2,151.8-157.41,156.22l-71.7,5.44C1454.34,1684.38,1454,1684.39,1453.67,1684.39Zm-22.51-485,34.73,457.47,58.49-4.44c5.77-.45,141.72-12.46,133-127.76-10.67-140.47-46.76-295.28-65.91-308.3-17.36-11.68-80-22-116.89-26.06Z"/><path class="cls-1" d="M1603,1218c-20.82,7.83-42.59,12.7-64.4,16.94-7.29,1.49-14.86,2.08-23.58-.77a1.38,1.38,0,0,1-.88-1.73c5.1-7.67,11.94-11.83,18.7-15,20.06-9.55,40.46-18.56,61.86-24.63A13.28,13.28,0,0,1,1603,1218Z"/><path class="cls-2" d="M1706.9,128.41s63-41.13,117.5-26.78,80.35,54.52,183.67,62.17,141.57,0,141.57,0-21,64.1-14.34,96.62,24.87,79.4,14.34,110a625.47,625.47,0,0,0-17.21,61.22s-82.27,54.53-180.8,20.09-152.1-60.26-171.23-59.31-73.5,15.31-73.5,15.31v-35.4l66.8-30.61s16.26-143.49,6.7-170.27-73.5-8.61-73.5-8.61Z"/><path class="cls-1" d="M2019.12,479.14a219.32,219.32,0,0,1-72.74-12.38c-38.55-13.47-70.2-25.61-95.63-35.37-32.86-12.6-61.41-23.52-69.56-23.07-14.32.72-55.55,10.93-70.23,14.8a15.91,15.91,0,0,1-20-15.38v-35.4a15.9,15.9,0,0,1,9.28-14.46L1758.88,331c7.2-66.56,11.52-140.25,6.53-154.21-2-5.45-29.08-5.79-54.16,1.34a15.91,15.91,0,0,1-20.26-15.3V128.41a15.91,15.91,0,0,1,7.21-13.32c2.81-1.84,69.57-44.82,130.25-28.85,21.3,5.6,38.06,14.53,55.8,24,30.48,16.24,62,33,125,37.7,98.83,7.32,137,.33,137.35.26a15.93,15.93,0,0,1,18.17,20.57c-5.48,16.73-18.66,65.23-13.88,88.45,1.52,7.38,3.72,15.76,6,24.63,8.12,30.91,17.33,65.94,7.76,93.76A616.61,616.61,0,0,0,2148,435.06a16,16,0,0,1-6.75,9.86C2138.48,446.73,2088.53,479.14,2019.12,479.14ZM1781.45,376.49c15,0,37.56,8.64,80.69,25.19,25.24,9.68,56.64,21.73,94.74,35,76.12,26.61,142.86-5,161.58-15.3,2.61-10.94,8.31-33.41,16.14-56.16,6.43-18.71-1.48-48.8-8.45-75.33-2.44-9.3-4.75-18.08-6.44-26.3-4.83-23.46,2.13-58.42,8.1-81.57-22.39,1.41-61,2.05-120.92-2.39-69.7-5.16-105.78-24.39-137.61-41.36-16.75-8.93-31.22-16.64-48.93-21.3-37-9.76-80.61,11.12-97.54,20.49V143c24.79-4.11,62.47-5.21,72.57,23.07,10.29,28.81-3.08,152.85-5.87,177.42a15.92,15.92,0,0,1-9.18,12.68l-57.52,26.36v4.75c18.18-4.4,43.81-10.12,56.79-10.77C1780.2,376.51,1780.82,376.49,1781.45,376.49Z"/><path class="cls-2" d="M1027.4,1221s-83.87-.36-140.51-33.11-140-35.38-181.77,22.74,77.71,129.4,186.38,141,166.62-8.15,166.62-8.15S1146.17,1225.66,1027.4,1221Z"/><g class="cls-6"><path class="cls-1" d="M937.81,1298.34c-96.07-10.26-200.48-67.17-194.58-120.38a105,105,0,0,0-38.11,32.71c-41.73,58.12,77.71,129.4,186.38,141s166.62-8.15,166.62-8.15,16.88-22.59,25.89-48.38C1058.37,1300.1,1009,1305.94,937.81,1298.34Z"/></g><path class="cls-1" d="M957.72,1371.26a638.18,638.18,0,0,1-67.91-3.76c-80.44-8.59-178.5-50.7-203.39-106.3-9.34-20.87-7.34-41.55,5.77-59.81,47.6-66.29,139.95-63.5,202.67-27.23,52.2,30.18,131.82,31,132.61,31h.54c37.13,1.44,61.33,13.44,71.93,35.66,20.75,43.49-23.91,105.35-29.07,112.25a15.8,15.8,0,0,1-7.61,5.54C1061.33,1359.25,1025.12,1371.26,957.72,1371.26ZM802.17,1180.89c-33,0-64.53,11.76-84.13,39.06-6.39,8.9-7.21,17.88-2.57,28.25,17.2,38.42,100.24,79.38,177.72,87.66,86.33,9.22,139.74-2,155.18-6.08,11.43-16.83,32.55-55,22.84-75.3-6.34-13.25-27.47-16.85-44.18-17.53-6.59-.06-89.64-1.43-148.11-35.25A156.33,156.33,0,0,0,802.17,1180.89Z"/><path class="cls-2" d="M1451.33,1196s50.14,125.19,63.39,265.81a53.53,53.53,0,0,1,26.53,37.37c4.78,26.78-18.18,46.87-18.18,46.87s-4.89,92-40.71,157.45L1173,1606.69l3.83-61.55S1061,1555.66,976.85,1510.7l-98.53-38.27h0s-101.4-7.92-78.44-110.14,131-72.16,181.75-49.89c25.83,10.8,55.49,7,55.49,7s22.61-59.79,63.92-75.33C1101,1244.05,1310.71,1282.2,1451.33,1196Z"/><g class="cls-6"><path class="cls-1" d="M800.44,1345.76c17.23,31.65,37.13,49,52,59.07,50.15,33.7,93.38,17.22,177.68,49.81,30,11.58,38.91,22.52,55.73,26.7,95,23.62,240.79-13.13,306.3-76.07,0,0-1.81,76.46-29.38,94.13s-12.89,34.26,25.37,33.62,123.72-21,123.72-21,2.72,29.73-14.91,40.7-25.27,5.89-25.27,5.89.64,72-28.06,124.33c0,0-75.48-14.4-90-19.64s-149.76-46.69-149.76-49.88.15-50.17.15-50.17l-19.11-17.11h-43.53s-102.86-1.86-159.21-32.66l-106.42-41.28S770.76,1464.45,800.44,1345.76Z"/></g><path class="cls-1" d="M1482.36,1719.45a15.92,15.92,0,0,1-4.75-.72l-309.42-96.85a15.92,15.92,0,0,1-11.13-16.18l2.73-43.73c-84.3-6.65-148.84-23.65-190.44-37.24-8-2.6,1.28.27-92.27-36.43-55-21.58-67.72-26.1-79.17-41.61-16.94-22.94-21.5-52.51-13.56-87.88,7.84-34.88,25.33-59.39,52-72.87,52.31-26.44,123.5-.49,151.69,11.9,13.54,5.66,29,6.43,38.34,6.26,8.92-19.14,32.07-61,69-74.95a16,16,0,0,1,8.45-.76c2,.37,205.46,36,339.13-45.91a15.91,15.91,0,0,1,23.08,7.64c2.05,5.11,49.4,124.51,63.72,262.59a69.72,69.72,0,0,1,27.1,43.71c4.73,26.49-10.17,47.39-18.37,56.59-1.78,22.18-10.06,99.42-42.22,158.17A15.91,15.91,0,0,1,1482.36,1719.45ZM1189.6,1595.23l284.67,89.1c28.35-60.33,32.86-138.26,32.91-139.09a15.9,15.9,0,0,1,5.41-11.12c.08-.08,16.1-14.73,13-32.1a37.61,37.61,0,0,0-18-26,16.33,16.33,0,0,1-8.7-12.73c-10.06-106.71-42.16-205.52-55.94-244.19-132.49,70.45-308.13,46.48-340,41.36-26.32,12.57-45.58,50.38-51,64.52a16,16,0,0,1-12.84,10.13c-1.38.18-34.22,4.23-63.66-8.08-19-8.35-83.45-33.62-124.78-12.74-18,9.11-29.58,25.94-35.31,51.44-5.81,25.88-3.12,46.69,8,61.86,13,17.68,34.86,24.75,47.16,27.42l122.6,46c78.06,37,181.11,28.29,182.19,28.19a15.93,15.93,0,0,1,17.31,16.84Z"/><path class="cls-1" d="M1045.61,1335.41c-5,0-8.22-.1-9-.13a15.91,15.91,0,0,1,1.11-31.81c1.52.07,152.42,4.41,214.46-63.75a15.91,15.91,0,1,1,23.54,21.42C1212.56,1330.48,1081.53,1335.41,1045.61,1335.41Z"/><path class="cls-1" d="M1173.73,1529.52c42.37-10.27,85.19-25.11,123.64-45.9,39.88-20.74,70.89-51.6,97.25-87.77a1.39,1.39,0,0,1,2.47,1c-4.83,49.29-46.57,85.32-85.34,111-30,19.34-63,33.7-97,44.21a332.41,332.41,0,0,1-34.92,8.78,15.91,15.91,0,0,1-6.1-31.23Z"/><path class="cls-1" d="M1321.51,1584.38a884.29,884.29,0,0,1-146.93-12.24A13.26,13.26,0,1,1,1179,1546c190.42,32.1,338.72-12.12,340.2-12.58a13.26,13.26,0,0,1,7.77,25.36C1522.39,1560.17,1441.53,1584.38,1321.51,1584.38Z"/><path class="cls-1" d="M1320.12,1514.1q-11.74,0-24.18-.42a13.26,13.26,0,0,1,.9-26.5c141.69,4.88,210.24-36.19,210.91-36.61a13.26,13.26,0,0,1,14,22.54C1518.9,1474.87,1454.29,1514.1,1320.12,1514.1Z"/><path class="cls-1" d="M1188.59,1553.54a13.61,13.61,0,0,1-2.45-.22,13.27,13.27,0,0,1-10.6-15.48c19.79-106-51.33-209.76-52-210.79a13.26,13.26,0,1,1,21.77-15.15c3.2,4.61,78.15,114.06,56.35,230.81A13.27,13.27,0,0,1,1188.59,1553.54Z"/><g class="cls-6"><path class="cls-1" d="M1011.93,1225.19s44,80.71,164.85,75.65,176.86-63.29,176.86-63.29S1189.22,1300,1011.93,1225.19Z"/></g><path class="cls-2" d="M776.38,952.82A463.57,463.57,0,0,0,912,1146.15a478.31,478.31,0,0,0,40.36,30.62c6.86,4.68,14,9.19,21.17,13.6a477.27,477.27,0,0,0,201.66,66.73q13.61,1.26,27.18,1.79c165.77,6.24,330.11-73.54,423.08-222.9,137-220,67.21-507.55-155.8-642.29a476.28,476.28,0,0,0-135-55.52c-5.42-1.35-10.9-2.56-16.4-3.64q-22-4.52-44.22-6.92a483.56,483.56,0,0,0-201.59,21.25q-15.36,5-30.38,11.09A473.88,473.88,0,0,0,817.75,548.08C738.93,674.63,728.57,823.51,776.38,952.82Z"/><path class="cls-1" d="M1220.52,1260.76q-9.07,0-18.18-.34c-9-.36-18.22-1-27.27-1.8a480.41,480.41,0,0,1-202.31-66.94c-7.92-4.84-14.87-9.31-21.24-13.66A477.71,477.71,0,0,1,911,1147.31,466.68,466.68,0,0,1,775,953.35C724.9,818,740,670,816.46,547.28a475.51,475.51,0,0,1,225-188.74c9.83-4,20.08-7.72,30.48-11.12a484.79,484.79,0,0,1,202.23-21.31c14.77,1.6,29.69,3.93,44.35,6.93,5.87,1.16,11.26,2.36,16.47,3.66a477.74,477.74,0,0,1,135.42,55.69C1579.1,458,1655.07,561.53,1684.37,683.81c29.06,121.3,8.61,246.67-57.61,353C1540.05,1176.1,1385.65,1260.76,1220.52,1260.76ZM777.81,952.29A463.62,463.62,0,0,0,913,1145a475.38,475.38,0,0,0,40.22,30.52c6.34,4.32,13.24,8.76,21.12,13.57a475.89,475.89,0,0,0,201,66.51c9,.83,18.11,1.43,27.09,1.79,170.75,6.43,332.41-78.71,421.73-222.19C1690,929.56,1710.27,805,1681.4,684.52,1652.3,563,1576.82,460.22,1468.88,395a474.31,474.31,0,0,0-134.57-55.33c-5.17-1.3-10.51-2.48-16.34-3.64-14.58-3-29.4-5.3-44.08-6.89a481.62,481.62,0,0,0-201,21.18c-10.33,3.38-20.52,7.1-30.29,11.05a474.36,474.36,0,0,0-44,20.44A469.54,469.54,0,0,0,819,548.89C743.12,670.79,728.09,817.83,777.81,952.29Z"/><g class="cls-6"><path class="cls-1" d="M1625.47,1036c-93,149.38-257.32,229.17-423.08,222.9q-13.59-.53-27.17-1.79a478.7,478.7,0,0,1-201.68-66.71c-7.2-4.43-14.29-8.93-21.17-13.6A484.29,484.29,0,0,1,912,1146.14,463.81,463.81,0,0,1,748.93,827.48,463.35,463.35,0,0,0,880.7,1010.73a469.43,469.43,0,0,0,40.35,30.64c6.85,4.68,13.94,9.17,21.17,13.6a476.91,476.91,0,0,0,201.65,66.72q13.62,1.26,27.19,1.78c165.77,6.27,330.1-73.52,423.08-222.9a459.87,459.87,0,0,0,68.77-279.47C1715.15,752.74,1706.34,906.14,1625.47,1036Z"/></g><path class="cls-1" d="M1220.52,1271q-9.27,0-18.57-.35c-9.24-.37-18.59-1-27.82-1.83a490.23,490.23,0,0,1-206.65-68.37c-8.12-5-15.21-9.52-21.72-14a490.88,490.88,0,0,1-41.33-31.35A476.85,476.85,0,0,1,765.37,956.9h0c-51.16-138.35-35.7-289.62,42.41-415a485.55,485.55,0,0,1,229.89-192.8c10-4.07,20.52-7.89,31.14-11.36a495.26,495.26,0,0,1,206.5-21.77c15.1,1.64,30.34,4,45.32,7.09,6,1.18,11.51,2.41,16.88,3.75a487.84,487.84,0,0,1,138.23,56.86c111,67.07,188.63,172.82,218.57,297.78,29.71,124,8.8,252.12-58.87,360.78C1546.86,1184.5,1389.16,1271,1220.52,1271ZM787.4,948.75a453.38,453.38,0,0,0,132.21,188.43A466.64,466.64,0,0,0,959,1167c6.22,4.24,13,8.59,20.71,13.31a466,466,0,0,0,196.65,65.06c8.78.8,17.72,1.39,26.53,1.75,167.14,6.32,325.26-77,412.64-217.38,64.32-103.28,84.19-225,56-342.88C1643,568.1,1569.18,467.54,1463.6,403.75a464.72,464.72,0,0,0-131.67-54.15c-5.1-1.27-10.28-2.42-15.94-3.54-14.34-2.93-28.84-5.2-43.2-6.76A471.83,471.83,0,0,0,1076.12,360c-10.11,3.31-20.08,7-29.63,10.82a464.05,464.05,0,0,0-43,20A459.28,459.28,0,0,0,827.72,554.29c-74.23,119.2-88.92,263-40.32,394.46Z"/><path class="cls-1" d="M1220.52,1275.15q-9.35,0-18.72-.35c-9.33-.38-18.75-1-28-1.86a494.56,494.56,0,0,1-208.43-69c-8.19-5-15.33-9.6-21.91-14.08a494.57,494.57,0,0,1-41.66-31.61,481.21,481.21,0,0,1-140.29-200h0c-51.61-139.56-36-292.16,42.78-418.67A490,490,0,0,1,1036.1,345.21c10.14-4.1,20.71-8,31.41-11.46a499.16,499.16,0,0,1,208.25-21.95c15.22,1.65,30.6,4.05,45.7,7.15,6,1.19,11.62,2.43,17.06,3.79a492.12,492.12,0,0,1,139.37,57.33c112,67.66,190.27,174.33,220.47,300.38,30,125.08,8.88,254.34-59.38,364C1549.64,1187.92,1390.59,1275.15,1220.52,1275.15ZM791.31,947.3a449.17,449.17,0,0,0,131,186.7,460.43,460.43,0,0,0,39,29.59c6.16,4.21,12.87,8.52,20.54,13.21a461.79,461.79,0,0,0,194.88,64.46c8.69.8,17.56,1.39,26.3,1.74,165.6,6.24,322.34-76.31,408.93-215.42,63.73-102.33,83.42-223,55.45-339.71-28.2-117.71-101.35-217.34-206-280.55A460.35,460.35,0,0,0,1331,353.65c-5.07-1.26-10.19-2.4-15.78-3.51-14.23-2.91-28.61-5.16-42.83-6.7A467.56,467.56,0,0,0,1077.42,364c-10,3.28-19.91,6.89-29.37,10.72A457.8,457.8,0,0,0,831.26,556.49c-73.55,118.1-88.11,260.55-40,390.81Z"/><path class="cls-1" d="M832.24,1059c246.24,229,640.15,148.17,709-175.54,46.8-220.24-135.8-435.17-353.25-465.66-158.26-22.2-322.71,24.38-425.12,257.08,0,0-29.2,109.89-9.66,188.7s52,152.18,52,152.18Z"/><path class="cls-11" d="M1541.17,883.5c-68.78,323.7-462.71,404.49-708.93,175.55l-5.48-8.77C1121,1147.21,1449,1012.45,1524.7,686.42,1548.23,748.08,1555.61,815.53,1541.17,883.5Z"/><path class="cls-1" d="M1156.43,1253.37a525.15,525.15,0,0,1-119.22-13.78,16.31,16.31,0,0,1-2.37-.75A494.5,494.5,0,0,1,965.32,1204c-8.19-5-15.33-9.6-21.91-14.08a494.57,494.57,0,0,1-41.66-31.61,481.21,481.21,0,0,1-140.29-200h0c-51.61-139.56-36-292.16,42.78-418.67A486.91,486.91,0,0,1,990.55,366.39a16.18,16.18,0,0,1,3-1.22c60.6-17.43,128.42-21.07,201.59-10.81,131.74,18.47,257.66,97,336.82,210,71.37,101.88,97.5,220,73.58,332.46-26,122.36-92.82,220.74-193.19,284.52C1337.8,1228.75,1248.49,1253.37,1156.43,1253.37Zm-110.78-44.49c123.15,28.4,250.54,8.61,349.65-54.38,93-59.09,154.94-150.47,179.13-264.28,22.07-103.77-2.27-213-68.51-307.59-74.19-105.93-192-179.48-315.18-196.76-68.08-9.54-130.92-6.37-186.81,9.44A455,455,0,0,0,831.26,556.49c-73.55,118.1-88.11,260.55-40,390.81h0a449.17,449.17,0,0,0,131,186.7,460.43,460.43,0,0,0,39,29.59c6.16,4.21,12.87,8.52,20.54,13.21A463.12,463.12,0,0,0,1045.65,1208.88Z"/><path class="cls-2" d="M1759.09,863.57c1.09,92.15-53.17,170.26-121.22,174.45s-124.09-67.12-125.18-159.27c0-.58,0-1.19,0-1.77-.4-91.38,53.64-168.53,121.21-172.69,52.57-3.24,98,38.59,116.41,100.26A215.24,215.24,0,0,1,1759.09,863.57Z"/><g class="cls-6"><path class="cls-1" d="M1759.09,863.57c1.09,92.15-53.17,170.26-121.22,174.45s-124.09-67.12-125.18-159.27c0-.58,0-1.19,0-1.77,7.59,9,19.35,17.59,35.08,13.48,27.57-7.21,76.45-69.52,76.45-69.52s54.63-7.47,126.09-16.39A215.24,215.24,0,0,1,1759.09,863.57Z"/></g><path class="cls-1" d="M1632.06,1054.11c-28.54,0-55.59-11.18-78.6-32.56-35.33-32.83-56-84.82-56.67-142.62C1495.6,778.57,1556.68,693.1,1633,688.41c31-1.95,60.56,9.27,85.39,32.34,35.33,32.84,56,84.82,56.67,142.63h0c1.19,100.36-59.89,185.82-136.16,190.52C1636.58,1054,1634.31,1054.11,1632.06,1054.11ZM1639.61,720c-1.57,0-3.13.05-4.7.14-59.61,3.67-107.29,74.72-106.3,158.38.57,48.41,18,93.15,46.51,119.69,18.29,17,39.72,25.23,61.77,23.89,59.6-3.67,107.28-74.72,106.3-158.37h0c-.57-48.42-18-93.16-46.52-119.69C1679.68,728.28,1660,720,1639.61,720Z"/><ellipse class="cls-2" cx="1676.23" cy="881" rx="136.28" ry="92.9" transform="translate(719.41 2515.14) rotate(-87.38)"/><g class="cls-6"><path class="cls-1" d="M1677.28,1017.05c51.39-3.56,92.53-67.35,91.94-142.51a193.93,193.93,0,0,0-1.62-23.81c-13.1,51.92-46.94,90.43-86.89,93.16-45.1,3.08-83.22-40.53-92.72-101.44a199,199,0,0,0-4.78,45C1583.8,962.6,1625.93,1020.61,1677.28,1017.05Z"/></g><path class="cls-1" d="M1672.74,1033.13c-21.29,0-41.56-8.4-58.94-24.49-28.72-26.59-46.1-71.84-46.48-121.06-.67-84.68,46.21-154.3,106.74-158.5,23.33-1.62,45.68,6.78,64.6,24.29,28.72,26.58,46.09,71.84,46.48,121,.67,84.68-46.22,154.31-106.74,158.51C1676.51,1033.06,1674.62,1033.13,1672.74,1033.13Zm6.87-272.42c-1.11,0-2.22,0-3.35.12-42.32,2.93-77.64,60.87-77.12,126.5.32,40.6,13.88,77.22,36.28,97.95,8.58,8,22.61,17.16,40.78,15.9,42.32-2.94,77.63-60.87,77.12-126.51-.32-40.6-13.88-77.21-36.28-97.95C1709,769.27,1696.14,760.71,1679.61,760.71Z"/><g class="cls-12"><path class="cls-2" d="M1269.6,556.13s-184.31-37.27-304.3,55.72l-.38.29c-25.23,19.59-51.71,68.16-63.45,97.62-15.52,39-20.44,68-23.76,93.82-10.06,78.38.1,116.94.1,116.94-39.91-47-59.36-97.16-51.63-162.52.78-6.44,1.82-13.06,3.11-19.81.29-1.56.62-3.1,1-4.64,0,0,0,0,0-.09A438.79,438.79,0,0,1,847,683.06c23.38-58.28,68.16-132.55,149.47-159.53C1148.54,473.07,1277.2,548.75,1269.6,556.13Z"/></g><g class="cls-12"><ellipse class="cls-2" cx="1364.68" cy="769.59" rx="58.86" ry="67.62" transform="translate(-97.43 206.71) rotate(-8.36)"/></g><g class="cls-12"><ellipse class="cls-2" cx="1408.64" cy="898.02" rx="24.3" ry="27.93" transform="translate(-172.58 359.08) rotate(-13.7)"/></g><ellipse class="cls-5" cx="2135" cy="2250.56" rx="8.63" ry="8.4"/><path class="cls-1" d="M1718.44,2269c-23.21-17.38,104.11-86.48,112-41.21S1778.22,2313.8,1718.44,2269Z"/><path class="cls-1" d="M1611.67,2149c-11-8.27,49.51-41.13,53.29-19.6S1640.1,2170.33,1611.67,2149Z"/><path class="cls-1" d="M1973.45,2185.81c-11-8.26,49.51-41.12,53.29-19.6S2001.88,2207.1,1973.45,2185.81Z"/><path class="cls-1" d="M675.21,2106.34s384.15-66.09,364.6-23.07-112.16,60.73,5.67,82,407.76-45.44,387.79.35-31.36,75.17,53.46,87.23S1653.22,2304,1638,2324.52,942.43,2279.86,675.21,2106.34Z"/><ellipse class="cls-4" cx="894.46" cy="2129.9" rx="21.8" ry="22.39" transform="translate(-1406.69 2332.93) rotate(-72.26)"/><ellipse class="cls-3" cx="1324.42" cy="2235.5" rx="10.54" ry="10.83" transform="translate(-1208.21 2816.31) rotate(-72.27)"/><ellipse class="cls-2" cx="991.57" cy="2195.04" rx="8.38" ry="8.61" transform="translate(-1401.17 2471.06) rotate(-72.27)"/><path class="cls-5" d="M1150.64,2234.7a8.61,8.61,0,1,1-5.64-10.6A8.51,8.51,0,0,1,1150.64,2234.7Z"/><path class="cls-1" d="M1605.41,2344.17c-19.18,0-47.06-1.36-88.06-4.83-80.23-6.8-175.75-19.39-269-35.47-151.64-26.15-428.86-84.85-581.84-184.19a15.91,15.91,0,0,1,6-29c.86-.14,86.75-14.87,174.31-25.81,185.43-23.16,197.76-7.18,205.13,2.37a21.74,21.74,0,0,1,2.35,22.64c-8,17.57-24.27,30.57-37.35,41-3.09,2.47-7.09,5.66-10.2,8.44,6.09,2.44,18.1,6.07,41.55,10.3,52.53,9.48,143,.52,222.84-7.39,117.76-11.67,160.26-14,174.66,5.8,5,6.83,5.72,15.56,2.06,24-8,18.38-16.31,37.39-11.51,46,2.64,4.73,13,13.49,52.61,19.13,68.89,9.78,151.41,39.94,164.61,71.59,3.65,8.78,2.63,18-2.83,25.34C1647.13,2338.88,1643.18,2344.17,1605.41,2344.17ZM720.88,2114.89c256.7,139.18,791.5,201.2,894.74,197.59-19.68-14.05-69.78-35.17-131.13-43.89-42.31-6-65.73-16.84-75.93-35.12-11.33-20.3-2.92-43.88,7-67.12-22.72-4.21-90.46,2.49-141.32,7.53-81.9,8.11-174.73,17.31-231.63,7-48.38-8.73-67-17.6-71.11-33.9-4.34-17.17,10.86-29.3,25.56-41,7.79-6.22,16.33-13,22.35-20.27C980.62,2079.85,847.8,2094.59,720.88,2114.89Zm909.65,195.93Z"/><path class="cls-2" d="M600.78,2058.16s53.81-58.85,107.44-40.42,64.13,38.27,119.38-.86,131.74-53.16,164.69-32.91,138.11-10.3,150.83,25.85-62.33,65.19-56.33,78.74,91.83,38,171.31-4.44,250.59-19,245.81,17.66-49.19,57.16,24.19,87.53,148.78-3.57,142.28,37-34,63.17-79.41,48-39.63-34.53-104-33.26-67.9-49.76-65.06-84.6-48.63,59.1-94.8,24.69-228.81,3.92-280.42-17.59-19-76.12-22.4-83.72-21.76-56.28-75.91-35.47-88.15,57.87-145.44,49.7-98.89-26.66-133.15-25S600.78,2058.16,600.78,2058.16Z"/><path class="cls-1" d="M1617.47,2294.9a99,99,0,0,1-31.56-5.57c-18-6-29.09-12.86-38-18.34-14.47-8.92-24-14.8-60.65-14.1-26.59.63-47.26-6.84-61.4-21.89-12.54-13.33-19.27-31.85-20.37-56.23-20.68,17.11-54.71,39.8-87.91,15.06-20.95-15.61-90.39-12.3-146.19-9.64-56.05,2.68-104.46,5-130.84-6-52.33-21.81-38.76-71.64-33.66-90.4.43-1.55,1-3.48,1.31-5-12-26.1-28.78-33.38-54.13-23.64-16.34,6.27-31.06,14.3-45.29,22.06-31.42,17.12-63.9,34.86-108.1,28.53-25.92-3.69-48.59-9.4-68.59-14.43-24-6-44.65-11.25-61.55-10.41-37,1.82-73.62-11.23-75.17-11.78a15.91,15.91,0,0,1-6.34-25.71c2.49-2.72,61.61-66.3,124.35-44.72,11.17,3.83,20.41,7.68,28.57,11.06,30.26,12.59,39.39,16.38,76.44-9.86,59.59-42.23,143-57.55,182.22-33.49,10.22,6.27,38.44,5.52,61.12,4.93,42-1.11,85.32-2.26,96.39,29.2,11.62,33-20.67,58-42,74.47-2.14,1.66-4.59,3.54-6.88,5.38,23.84,8.57,83.88,16.42,141.38-14.3,72.42-38.7,210.11-26.89,252.12,2.16,16.83,11.64,17.86,24.78,17,31.58-1.68,12.86-7,23.75-11.37,32.5-3.68,7.45-7.15,14.5-5.88,17.88.76,2,5.29,9.45,31.74,20.4,31,12.81,62.91,13.13,88.58,13.39s45.77.45,57.07,13.84c5.9,7,8,16.07,6.27,27-4.22,26.3-16,46-34.08,56.93C1644.19,2290.48,1632.78,2294.9,1617.47,2294.9ZM1492.54,2225c41.47,0,56.35,9.18,72.08,18.88,8.29,5.1,16.85,10.38,31.4,15.26,16.43,5.49,29.72,5.28,39.52-.64,12.42-7.52,17.26-23.05,19.13-34.75a13.34,13.34,0,0,0,.18-1.56c-5.25-2.12-20.82-2.27-32.41-2.39-26.92-.27-63.78-.64-100.43-15.81-28.53-11.81-43.75-23.71-49.35-38.59-6.14-16.3.91-30.58,7.12-43.17,3.56-7.22,6.93-14.05,8.15-21.17-13.72-19.13-152.34-40.33-222.33-2.93-66.09,35.31-135.09,27-165.45,16.6-15.21-5.24-24.34-11.69-27.91-19.74-7.37-16.65,8.07-28.56,24.41-41.19,14.12-10.9,35.45-27.37,31.46-38.72-3.38-9.6-43.81-8.53-65.52-7.95-31,.83-60.36,1.6-78.62-9.62-25.16-15.45-94.92-4.69-147.18,32.33-49.11,34.79-70.48,28.49-107,13.29-7.73-3.2-16.48-6.85-26.7-10.36-24.91-8.57-51.18,4.75-69,17.56a153.69,153.69,0,0,0,34.92,2.77c21.65-1,44.44,4.69,70.87,11.34,19.24,4.84,41,10.33,65.31,13.79,33.74,4.81,57.85-8.34,88.38-25,15.14-8.26,30.8-16.79,49.1-23.82,42-16.14,76.9-.53,95.7,42.82l.43,1c3.14,7,1.33,13.66-1.18,22.89-7.51,27.6-7.23,43.32,15.19,52.67,19.78,8.24,69.24,5.88,117.08,3.61,70.27-3.35,136.64-6.52,166.73,15.91,14.76,11,31.16,1.24,56.27-20.62,12-10.41,22.3-19.4,34.62-13.17,7.75,3.92,11.2,11.71,10.26,23.16-2.2,26.92,1.49,45.09,11.3,55.52,7.72,8.21,20.36,12.28,37.59,11.87C1488.67,2225,1490.64,2225,1492.54,2225Zm-482.88-139c0,.09.07.17.1.25Zm-408.88-27.89h0Z"/><path class="cls-3" d="M2686.5,2096.49a10.84,10.84,0,1,1-7.11-13.34A10.7,10.7,0,0,1,2686.5,2096.49Z"/><ellipse class="cls-4" cx="2780.94" cy="2093.19" rx="10.54" ry="10.83" transform="translate(-59.82 4104.45) rotate(-72.27)"/><path class="cls-5" d="M2930.39,1875.93a10.83,10.83,0,1,1-7.11-13.34A10.7,10.7,0,0,1,2930.39,1875.93Z"/><path class="cls-2" d="M2930.39,1949.91a10.83,10.83,0,1,1-7.11-13.33A10.7,10.7,0,0,1,2930.39,1949.91Z"/></g></g></svg>