<svg xmlns="http://www.w3.org/2000/svg" xmlns:xlink="http://www.w3.org/1999/xlink" viewBox="0 0 2730.32 3179.5"><defs><style>.cls-1{mask:url(#mask);filter:url(#luminosity-noclip-3);}.cls-2,.cls-4{mix-blend-mode:multiply;}.cls-2{fill:url(#linear-gradient);}.cls-3{mask:url(#mask-2);filter:url(#luminosity-noclip-4);}.cls-4{fill:url(#linear-gradient-2);}.cls-5{fill:#e81818;}.cls-6{fill:#e7a900;}.cls-7{fill:#fffd01;}.cls-8{fill:#371a45;}.cls-9{fill:#e2e8e8;}.cls-10,.cls-20,.cls-22{opacity:0.7;}.cls-11{fill:#fff;}.cls-12{opacity:0.3;}.cls-13{fill:#e5e5e5;}.cls-14{fill:#c93535;}.cls-15{fill:#d1d1d1;}.cls-16{opacity:0.5;}.cls-17{opacity:0.25;}.cls-18{fill:#22a7f0;}.cls-19{mask:url(#mask-3);}.cls-20{fill:url(#linear-gradient-3);}.cls-21{mask:url(#mask-4);}.cls-22{fill:url(#linear-gradient-4);}.cls-23{fill:#220f2d;}.cls-24{filter:url(#luminosity-noclip-2);}.cls-25{filter:url(#luminosity-noclip);}</style><filter id="luminosity-noclip" x="1546.97" y="-9820.86" width="270.61" height="32766" filterUnits="userSpaceOnUse" color-interpolation-filters="sRGB"><feFlood flood-color="#fff" result="bg"/><feBlend in="SourceGraphic" in2="bg"/></filter><mask id="mask" x="1546.97" y="-9820.86" width="270.61" height="32766" maskUnits="userSpaceOnUse"><g class="cls-25"/></mask><linearGradient id="linear-gradient" x1="2985.66" y1="1373.84" x2="2985.07" y2="1540.83" gradientTransform="matrix(-0.71, 0.71, 0.71, 0.71, 2782.73, -667.74)" gradientUnits="userSpaceOnUse"><stop offset="0" stop-color="#fff"/><stop offset="1"/></linearGradient><filter id="luminosity-noclip-2" x="1476.92" y="-9820.86" width="277.25" height="32766" filterUnits="userSpaceOnUse" color-interpolation-filters="sRGB"><feFlood flood-color="#fff" result="bg"/><feBlend in="SourceGraphic" in2="bg"/></filter><mask id="mask-2" x="1476.92" y="-9820.86" width="277.25" height="32766" maskUnits="userSpaceOnUse"><g class="cls-24"/></mask><linearGradient id="linear-gradient-2" x1="3115.37" y1="1373.51" x2="3114.78" y2="1541.89" xlink:href="#linear-gradient"/><filter id="luminosity-noclip-3" x="1546.97" y="2345.73" width="270.61" height="270.64" filterUnits="userSpaceOnUse" color-interpolation-filters="sRGB"><feFlood flood-color="#fff" result="bg"/><feBlend in="SourceGraphic" in2="bg"/></filter><mask id="mask-3" x="1546.97" y="2345.73" width="270.61" height="270.64" maskUnits="userSpaceOnUse"><g class="cls-1"><path class="cls-2" d="M1547,2377.05l239.32,239.32a170.76,170.76,0,0,0,31.29-86.1L1633,2345.73A171.08,171.08,0,0,0,1547,2377.05Z"/></g></mask><linearGradient id="linear-gradient-3" x1="2985.66" y1="1373.84" x2="2985.07" y2="1540.83" gradientTransform="matrix(-0.71, 0.71, 0.71, 0.71, 2782.73, -667.74)" gradientUnits="userSpaceOnUse"><stop offset="0" stop-color="#fff"/><stop offset="1" stop-color="#fff"/></linearGradient><filter id="luminosity-noclip-4" x="1476.92" y="2409.17" width="277.25" height="277.22" filterUnits="userSpaceOnUse" color-interpolation-filters="sRGB"><feFlood flood-color="#fff" result="bg"/><feBlend in="SourceGraphic" in2="bg"/></filter><mask id="mask-4" x="1476.92" y="2409.17" width="277.25" height="277.22" maskUnits="userSpaceOnUse"><g class="cls-3"><path class="cls-4" d="M1476.92,2490.62l195.77,195.77a170.37,170.37,0,0,0,81.48-35.91l-241.31-241.31A170.73,170.73,0,0,0,1476.92,2490.62Z"/></g></mask><linearGradient id="linear-gradient-4" x1="3115.37" y1="1373.51" x2="3114.78" y2="1541.89" xlink:href="#linear-gradient-3"/></defs><g id="Calque_2" data-name="Calque 2"><g id="Layer_1" data-name="Layer 1"><path class="cls-5" d="M446.1,2951.24s-102.77-93.9-285,116.93a20.62,20.62,0,0,0,5.52,31.53c61.46,34.18,238.22,119.28,307.34,11Z"/><path class="cls-6" d="M450.59,2974.21s-72.93-66.63-202.24,83.5a13.72,13.72,0,0,0,3.67,20.93c42.55,23.81,169,85.43,218.24,8.31Z"/><path class="cls-7" d="M459.78,2991.56s-49.2-45-136.46,56.34A9.27,9.27,0,0,0,325.8,3062c28.71,16.06,114,57.64,147.26,5.6Z"/><path class="cls-8" d="M367,3179.5c-76.61,0-162.4-41.15-207.86-66.44a35.9,35.9,0,0,1-9.66-54.88c78.43-90.72,153-138.76,221.62-142.8,54.29-3.22,84.06,23.44,85.3,24.57a15.27,15.27,0,0,1,4.75,8.66L489,3108.07a15.27,15.27,0,0,1-2.18,10.86C458.17,3163.79,414.34,3179.5,367,3179.5Zm13.17-233.81c-2.75,0-5.59.09-8.54.3-41.1,2.82-109,28.05-199,132.19a5.34,5.34,0,0,0-1.25,4.47,5.25,5.25,0,0,0,2.64,3.69c50.61,28.14,218.54,111.55,283.78,20.91l-25.74-147.46C424.81,2955,407.37,2945.69,380.18,2945.69Z"/><path class="cls-9" d="M572.1,3078.86c-33.43,35.41-79.93,44.27-79.93,44.27s-25.5-29.92-38.87-100.11-.65-107.39-.65-107.39,46.5-8.86,90.6,11.79"/><path class="cls-8" d="M492.17,3139.08a16,16,0,0,1-12.14-5.6c-1.15-1.35-28.4-34-42.4-107.48s-.65-113.85-.07-115.53a16,16,0,0,1,12.1-10.51c2.11-.39,52.12-9.56,100.35,13a15.95,15.95,0,1,1-13.52,28.89c-27.22-12.73-56-12.82-70.83-11.7-2.47,14.32-5.27,44.85,3.31,89.88s22.37,72.34,30,84.8c14.15-4.41,40.93-15.07,61.56-36.93a16,16,0,0,1,23.2,21.91c-36.56,38.71-86.44,48.58-88.54,49A16,16,0,0,1,492.17,3139.08Z"/><path class="cls-5" d="M610.49,3129.87c-81.91-2.64-97.25-95.68-101.4-117.47s-24.09-114,51.11-146.55c76.06-32.92,422-71.55,445.48,52S693.33,3132.57,610.49,3129.87Z"/><g class="cls-10"><path class="cls-11" d="M505.63,2991.8c1.69-33,13.79-70.6,56.34-89,74.14-32.09,404.6-69.58,443.06,42.91a65.65,65.65,0,0,0,.67-27.86c-23.53-123.52-369.44-84.9-445.5-52C500.09,2891.89,500.79,2956,505.63,2991.8Z"/></g><g class="cls-12"><path class="cls-8" d="M605.29,3098.63c-64.61-2.07-87.78-60.35-96.74-95.6,12.78,8.82,28.59,14.73,48.27,15.33,71.47,2.36,331.25-65.22,386.14-163.12,28.1,11.11,49.07,27,58.49,48.87C992.38,3018.64,684.14,3101.22,605.29,3098.63Z"/></g><path class="cls-8" d="M614.45,3145.89c-1.55,0-3,0-4.48-.07-42.24-1.37-96.69-24.79-116.21-128.65l-.68-3.57c-20-103.76,22-145.57,60.78-162.38,68.59-29.69,307.45-58.48,413.5-2.31,30.58,16.19,48.75,38.38,54,65.93s-3.49,54.87-26,81.18C918.83,3085.5,693.52,3145.89,614.45,3145.89Zm174.8-296.84c-91.44,0-186.73,15.86-222.71,31.44-41.39,17.94-55.17,59.51-42.13,127.07l.7,3.72c12.71,67.62,40.8,101.2,85.89,102.65h0c66.23,2.27,290.48-57.23,360.1-138.65,16.12-18.83,22.3-36.66,18.9-54.47s-15.68-32.11-37.58-43.71C913.76,2856.62,852.42,2849.05,789.25,2849.05Z"/><path class="cls-8" d="M736.49,3120.66a12,12,0,0,1-10.55-6.3,465.41,465.41,0,0,1-52.66-276.49c0-.19.05-.38.08-.57a12,12,0,0,1,23.66,3.5A441.62,441.62,0,0,0,747,3103a12,12,0,0,1-10.52,17.64Z"/><path class="cls-5" d="M343,2364s-102.77-93.9-285,116.93a20.61,20.61,0,0,0,5.53,31.52c61.45,34.19,238.21,119.29,307.34,11Z"/><path class="cls-6" d="M347.5,2386.93s-72.93-66.64-202.24,83.5a13.72,13.72,0,0,0,3.67,20.93c42.56,23.81,169,85.43,218.25,8.31Z"/><path class="cls-7" d="M356.7,2404.28s-49.21-45-136.47,56.34a9.25,9.25,0,0,0,2.48,14.12c28.71,16.07,114,57.65,147.26,5.61Z"/><path class="cls-8" d="M263.93,2592.22c-76.62,0-162.41-41.16-207.87-66.44a35.92,35.92,0,0,1-9.66-54.89c78.43-90.71,153-138.76,221.62-142.8,54.26-3.17,84.06,23.44,85.3,24.58a15.24,15.24,0,0,1,4.75,8.66l27.83,159.46a15.27,15.27,0,0,1-2.18,10.86C355.09,2576.51,311.26,2592.22,263.93,2592.22Zm13.16-233.82q-4.12,0-8.53.3c-41.1,2.83-109,28.06-199,132.19a5.32,5.32,0,0,0-1.24,4.48,5.18,5.18,0,0,0,2.62,3.68c50.62,28.15,218.55,111.55,283.79,20.92L329,2372.5C321.73,2367.66,304.29,2358.4,277.09,2358.4Z"/><path class="cls-9" d="M469,2491.58c-33.43,35.41-79.93,44.27-79.93,44.27s-25.5-29.93-38.87-100.11-.65-107.39-.65-107.39,46.5-8.86,90.61,11.78"/><path class="cls-8" d="M389.08,2551.8a15.91,15.91,0,0,1-12.13-5.61c-1.16-1.35-28.41-34-42.41-107.47s-.64-113.85-.07-115.54a16,16,0,0,1,12.11-10.5c2.11-.4,52.12-9.55,100.35,13a16,16,0,0,1-13.52,28.9c-27.23-12.74-56-12.8-70.83-11.71-2.48,14.33-5.28,44.86,3.3,89.89s22.38,72.33,30,84.79c14.15-4.41,40.93-15.06,61.56-36.92a16,16,0,0,1,23.2,21.91c-36.56,38.71-86.44,48.57-88.54,49A15.22,15.22,0,0,1,389.08,2551.8Z"/><path class="cls-5" d="M507.4,2542.59C425.49,2540,410.16,2446.9,406,2425.12s-24.09-113.95,51.1-146.55c76.06-32.92,422-71.55,445.49,52S590.24,2545.28,507.4,2542.59Z"/><g class="cls-10"><path class="cls-11" d="M402.54,2404.52c1.69-33,13.79-70.6,56.34-89,74.14-32.1,404.6-69.58,443.07,42.91a65.82,65.82,0,0,0,.66-27.86c-23.53-123.52-369.43-84.9-445.5-52C397,2304.61,397.71,2368.73,402.54,2404.52Z"/></g><g class="cls-12"><path class="cls-8" d="M502.2,2511.35c-64.61-2.07-87.78-60.35-96.74-95.61,12.78,8.82,28.59,14.73,48.27,15.34C525.2,2433.44,785,2365.86,839.87,2268c28.1,11.12,49.07,27,58.49,48.88C889.29,2431.35,581.05,2513.93,502.2,2511.35Z"/></g><path class="cls-8" d="M511.37,2558.6c-1.56,0-3.05,0-4.49-.07-42.25-1.37-96.7-24.79-116.21-128.66l-.67-3.54c-20-103.76,22-145.58,60.77-162.39,68.58-29.69,307.44-58.48,413.5-2.31,30.58,16.19,48.75,38.37,54,65.92s-3.5,54.88-26,81.19C815.73,2498.22,590.45,2558.59,511.37,2558.6Zm174.79-296.84c-91.44,0-186.72,15.87-222.71,31.45-41.39,17.94-55.18,59.51-42.13,127.07L422,2424c12.7,67.62,40.79,101.2,85.88,102.66h0c66.31,2.23,290.47-57.23,360.1-138.65,16.12-18.84,22.3-36.66,18.91-54.48s-15.69-32.11-37.59-43.7C810.68,2269.34,749.33,2261.76,686.16,2261.76Z"/><path class="cls-8" d="M633.4,2533.38a12,12,0,0,1-10.54-6.3,465.41,465.41,0,0,1-52.69-276.34A12,12,0,0,1,594,2252a11.16,11.16,0,0,1-.08,1.42,441.63,441.63,0,0,0,50,262.35,12,12,0,0,1-4.86,16.2A11.82,11.82,0,0,1,633.4,2533.38Z"/><path class="cls-9" d="M760.34,2971.51l-95.06-2.12a117,117,0,0,1-101.56-63.78h0a702,702,0,0,1-74.8-369.74h0a116.92,116.92,0,0,1,68.79-98.23l86.76-38.9Z"/><path class="cls-9" d="M487.09,2586.71a703.57,703.57,0,0,0,76.61,318.91,117,117,0,0,0,101.57,63.77l95.08,2.12L708,2712.71l-63.53-314-86.79,38.89a116.82,116.82,0,0,0-68.75,98.23Q487.11,2561.33,487.09,2586.71Z"/><g class="cls-12"><path class="cls-11" d="M497.6,2707.76q1.86,10.62,4.08,21.19a702.33,702.33,0,0,1-5.18-149.78,116.91,116.91,0,0,1,68.8-98.26L652.05,2442l-4.31-21.1-3.27-22.19-86.74,38.91a116.9,116.9,0,0,0-68.81,98.23A702.16,702.16,0,0,0,497.6,2707.76Z"/></g><path class="cls-11" d="M2707.66,2327.45c-37.5,75.81-125.51,222.53-298.3,367.29-142,119-341.4,236.65-617.19,312.48-178.88,49.18-337.87,68.38-474.24,70.38-355.73,5.28-557.58-106.14-557.58-106.14-2.77-4.46-5.52-9-8.16-13.52a841,841,0,0,1-117.75-441.2c0-1.52,0-3,.1-4.49a840.3,840.3,0,0,1,9.93-113.49s50-63.38,159.16-142.83q26.8-19.57,58.38-40.08c25-16.18,52.32-32.72,82-49.15,2.8-1.57,5.61-3.1,8.45-4.68,38-20.83,79.82-41.54,125.54-61.4,12.59-5.43,25.52-10.88,38.73-16.21,126.45-51.16,280.46-95.34,464.56-119.62,11.47-1.48,22.9-2.92,34.24-4.12,48.25-5.57,94.9-9.09,140-10.84a1689,1689,0,0,1,178.27,2.13A1511.71,1511.71,0,0,1,2177,1987.41q21.8,5,42.73,10.62c245.28,65,400.36,177.68,469.33,237.2A76.76,76.76,0,0,1,2707.66,2327.45Z"/><path class="cls-13" d="M1177.52,2239.15c2-2,3.93-3.93,5.7-5.89C1180,2236.4,1178.11,2238.45,1177.52,2239.15Z"/><path class="cls-14" d="M2262.93,2801.93c88.17-56.41,161-116.14,220.73-174.32.74-.75,1.45-1.46,2.16-2.12q12.55-12.21,24.32-24.44c.2-.24.43-.47.67-.71,2.67-2.79,5.34-5.54,7.93-8.29l7.82-8.29c2.79-3,5.54-6,8.29-9,4.76-5.22,9.43-10.45,14-15.63,7.19-8.14,14.1-16.19,20.82-24.17,2.24-2.67,4.44-5.3,6.6-7.93q13-15.86,24.79-31.12c2-2.56,3.89-5.11,5.82-7.62,17.17-22.67,32.26-44.32,45.42-64.52q3.24-5,6.36-9.9c2.2-3.45,4.36-6.91,6.45-10.29s4.12-6.72,6.09-10l4.91-8.17c2.39-4,4.67-8,6.87-11.83,9.39-16.46,17.21-31.27,23.62-44.16q-13.15,11.49-26.84,22.95c-112.48,94.21-251.73,187.84-422.91,269.68Q2263.9,2711.69,2262.93,2801.93Z"/><path class="cls-15" d="M2262.93,2801.93c89.23-57.08,162.74-117.59,222.89-176.44,5.74-5.58,11.35-11.2,16.82-16.78,2.75-2.79,5.46-5.58,8.17-8.37l.12-.12,7.81-8.17c5.27-5.54,10.42-11.08,15.44-16.54,4.56-5,9-9.9,13.36-14.81q18.69-21.1,35.21-41.53c1.84-2.28,3.69-4.6,5.5-6.88,21.53-26.91,40.15-52.64,56.14-76.53,1.18-1.73,2.36-3.46,3.46-5.19,1.85-2.75,3.61-5.46,5.38-8.17,4.64-7.15,9-14.14,13.2-20.9,1.06-1.69,2.09-3.38,3.11-5,2-3.34,4-6.64,5.89-9.86.94-1.61,1.89-3.23,2.83-4.8,1.88-3.18,3.69-6.28,5.42-9.35,3.46-6.13,6.76-12.06,9.82-17.68,5.35-9.9,10.06-19.05,14.15-27.34a75,75,0,0,0,6.44-18.78c.2-.91.35-1.85.51-2.75-93.55,51.86-255.26,134.56-467.93,216.68A2027.33,2027.33,0,0,1,2262.93,2801.93Z"/><path class="cls-5" d="M2094.8,1970.91a2029.38,2029.38,0,0,1,168.11,831c272-174,397.83-379.65,444.78-474.44a76.93,76.93,0,0,0-18.66-92.3c-2-1.74-4.1-3.54-6.28-5.36C2599,2159.07,2405,2024.13,2094.8,1970.91Z"/><g class="cls-12"><path class="cls-8" d="M2657.9,2365.24l0,0c-49.32,79-129.65,183.91-253.7,287.85-142,118.93-341.39,236.64-617.2,312.47-178.88,49.19-337.85,68.36-474.22,70.36-355.73,5.31-557.6-106.12-557.6-106.12v0l-95.08-2.12A117,117,0,0,1,558.5,2864a700.4,700.4,0,0,1-46.74-116.54l145.41-29.59c-1.11-4.67-2.22-9.35-3.26-14l219.32-72.76s48.85,112.3-99.14,191.44c116.23,24.22,263,42.44,437.18,39.85,98.88-1.44,206.67-9.7,322.66-27.28-87.51-47-147-139.44-147-245.76,0-154,124.85-278.85,278.86-278.85s278.85,124.85,278.85,278.85A277.59,277.59,0,0,1,1889,2756.39C2226,2658.17,2475.45,2513.33,2657.9,2365.24Z"/></g><g class="cls-16"><path class="cls-11" d="M2681.66,2358.72a76.92,76.92,0,0,0-18.66-92.29c-2-1.75-4.1-3.55-6.28-5.37-79.86-67.45-260-193.18-545.34-250.89q-8.09-19.7-16.58-39.26c310.2,53.22,504.18,188.16,587.95,258.92,2.18,1.82,4.27,3.62,6.28,5.36a76.93,76.93,0,0,1,18.66,92.3c-24.59,49.65-70.9,129.74-148.45,219.74C2621.33,2470.09,2660,2402.55,2681.66,2358.72Z"/></g><path class="cls-8" d="M2262.93,2817.87a15.94,15.94,0,0,1-15.95-16.13c3.11-285.34-53-562.74-166.8-824.49a16,16,0,0,1,17.32-22.08c313.33,53.77,509.3,189,598.22,264.77a98.13,98.13,0,0,1,24.07,119c-52.47,104.39-180.48,305.09-448.26,476.42A16,16,0,0,1,2262.93,2817.87Zm-141.83-826c103.94,248.69,157,511,157.89,780.47,244.6-163.48,362.92-349.53,412.3-447.75a66.3,66.3,0,0,0-16.26-80.39C2591.35,2172.89,2410,2047.44,2121.1,1991.89Z"/><path class="cls-8" d="M1292.5,3093.46c-103.85,0-191.67-9.67-261.08-21.85-177.85-31.21-274.77-83.93-278.81-86.16a16,16,0,0,1-5.86-5.57,856.86,856.86,0,0,1-118.06-583.61,15.85,15.85,0,0,1,3.23-7.41c2.85-3.62,71.67-89.85,223.4-187.73,139.36-89.89,378.07-206.61,723.83-252.12,181.26-23.85,355.66-21.78,518.36,6.17a16,16,0,0,1,11.93,9.36C2225,2230.36,2282,2512.11,2278.88,2801.91a16,16,0,0,1-7.34,13.5c-139,89-298.92,158.68-475.2,207.16C1603,3075.75,1433.05,3093.46,1292.5,3093.46ZM771.59,2959.38c19,9.63,112.45,54.18,267,81.1,159.83,27.85,419.56,42,749.26-48.67,170.11-46.78,324.55-113.59,459.17-198.63,1.89-279.46-53.07-551.2-163.44-808-157.1-26-325.38-27.56-500.3-4.53-339.89,44.73-574.09,159.17-710.7,247.29-131.41,84.77-199.45,161.41-213.07,177.55a825,825,0,0,0,112.05,553.89Z"/><path class="cls-8" d="M760.35,2987.46H760l-95.06-2.12a132.71,132.71,0,0,1-115.42-72.47A718,718,0,0,1,473,2534.72a132.74,132.74,0,0,1,78.17-111.64l86.76-38.9A16,16,0,0,1,651,2413.29l-86.77,38.9a100.84,100.84,0,0,0-59.4,84.83,686,686,0,0,0,73.1,361.35,100.86,100.86,0,0,0,87.71,55.07l95.06,2.12a16,16,0,0,1-.35,31.9Z"/><g class="cls-12"><path class="cls-11" d="M2590.54,2258.06c-54.32-62.61-259.55-156.62-309.44-102.75C2233.65,2206.55,2644.86,2320.68,2590.54,2258.06Z"/></g><circle class="cls-5" cx="1645.06" cy="2513.25" r="275"/><g class="cls-10"><path class="cls-11" d="M1370.08,2500.58q0,12.12,1,24.05c12.17-140.65,130.18-251,273.94-251s261.82,110.36,274,251q1-11.91,1-24.05c0-151.89-123.12-275-275-275S1370.08,2348.69,1370.08,2500.58Z"/></g><g class="cls-17"><path class="cls-8" d="M1370.08,2513.25c0,151.89,123.12,275,275,275s275-123.12,275-275c0-8.47-.39-16.79-1.12-25.07-12.66,140.11-130.47,249.94-273.89,249.94s-261.19-109.83-273.84-249.94C1370.47,2496.46,1370.08,2504.78,1370.08,2513.25Z"/></g><path class="cls-8" d="M1645.06,2801.32c-158.84,0-288.07-129.23-288.07-288.07s129.23-288.07,288.07-288.07,288.07,129.23,288.07,288.07S1803.91,2801.32,1645.06,2801.32Zm0-550c-144.43,0-261.93,117.5-261.93,261.93s117.5,261.93,261.93,261.93S1907,2657.68,1907,2513.25,1789.49,2251.32,1645.06,2251.32Z"/><path class="cls-18" d="M1473.45,2513.27a171.72,171.72,0,0,0,153.2,170.63,174.63,174.63,0,0,0,18.41,1,165.7,165.7,0,0,0,28.43-2.39,171.58,171.58,0,0,0,0-338.44,165.7,165.7,0,0,0-28.43-2.39,177.37,177.37,0,0,0-18.41,1,171.61,171.61,0,0,0-153.2,170.64Z"/><g class="cls-19"><path class="cls-20" d="M1547,2377.05l239.32,239.32a170.76,170.76,0,0,0,31.29-86.1L1633,2345.73A171.08,171.08,0,0,0,1547,2377.05Z"/></g><g class="cls-21"><path class="cls-22" d="M1476.92,2490.62l195.77,195.77a170.37,170.37,0,0,0,81.48-35.91l-241.31-241.31A170.73,170.73,0,0,0,1476.92,2490.62Z"/></g><path class="cls-8" d="M1645.06,2697.93c-101.83,0-184.68-82.85-184.68-184.68s82.85-184.68,184.68-184.68,184.69,82.84,184.69,184.68S1746.9,2697.93,1645.06,2697.93Zm0-343.22c-87.42,0-158.54,71.12-158.54,158.54s71.12,158.54,158.54,158.54,158.54-71.12,158.54-158.54S1732.48,2354.71,1645.06,2354.71Z"/><path class="cls-5" d="M305.38,2666.56s-102.77-93.9-285,116.93A20.6,20.6,0,0,0,25.87,2815c61.45,34.19,238.21,119.29,307.34,11Z"/><path class="cls-6" d="M309.87,2689.52S237,2622.89,107.63,2773A13.72,13.72,0,0,0,111.3,2794c42.56,23.8,169,85.43,218.25,8.31Z"/><path class="cls-7" d="M319.07,2706.87s-49.21-45-136.47,56.35a9.25,9.25,0,0,0,2.48,14.12c28.72,16.06,114,57.65,147.26,5.61Z"/><path class="cls-8" d="M226.3,2894.82c-76.62,0-162.41-41.16-207.86-66.44a35.91,35.91,0,0,1-9.66-54.89c78.42-90.72,153-138.76,221.61-142.8,54.2-3.17,84.06,23.44,85.31,24.57a15.34,15.34,0,0,1,4.74,8.67l27.83,159.46a15.28,15.28,0,0,1-2.17,10.85C317.46,2879.1,273.63,2894.82,226.3,2894.82ZM239.46,2661c-2.74,0-5.59.09-8.53.3-41.1,2.83-109,28.06-199,132.19a5.3,5.3,0,0,0-1.24,4.47,5.18,5.18,0,0,0,2.63,3.69c50.61,28.15,218.54,111.54,283.78,20.91L291.35,2675.1C284.1,2670.26,266.66,2661,239.46,2661Z"/><path class="cls-9" d="M431.38,2794.18c-33.43,35.41-79.92,44.26-79.92,44.26s-25.51-29.92-38.88-100.1-.64-107.39-.64-107.39,46.49-8.86,90.6,11.78"/><path class="cls-8" d="M351.45,2854.4a16,16,0,0,1-12.13-5.61c-1.16-1.35-28.41-34-42.41-107.47s-.64-113.85-.07-115.54A16,16,0,0,1,309,2615.27c2.11-.39,52.12-9.55,100.35,13a16,16,0,0,1-13.52,28.9c-27.23-12.75-56-12.81-70.83-11.71-2.48,14.33-5.28,44.85,3.3,89.88s22.38,72.34,30,84.8c14.15-4.41,40.93-15.06,61.57-36.92a15.95,15.95,0,1,1,23.19,21.9c-36.56,38.72-86.44,48.58-88.54,49A15.94,15.94,0,0,1,351.45,2854.4Z"/><path class="cls-5" d="M469.77,2845.19c-81.91-2.64-97.24-95.69-101.39-117.47s-24.09-113.95,51.11-146.55c76.05-32.92,422-71.55,445.48,52S552.61,2847.88,469.77,2845.19Z"/><g class="cls-10"><path class="cls-11" d="M364.91,2707.12c1.69-33,13.79-70.6,56.34-89,74.14-32.1,404.6-69.58,443.07,42.9a65.93,65.93,0,0,0,.67-27.85c-23.54-123.53-369.44-84.91-445.51-52C359.37,2607.21,360.08,2671.33,364.91,2707.12Z"/></g><g class="cls-12"><path class="cls-8" d="M464.57,2814c-64.6-2.08-87.78-60.36-96.74-95.61,12.78,8.82,28.59,14.73,48.27,15.34,71.47,2.36,331.25-65.22,386.14-163.13,28.1,11.12,49.07,27,58.5,48.87C851.67,2734,543.42,2816.53,464.57,2814Z"/></g><path class="cls-8" d="M473.74,2861.2c-1.56,0-3.05,0-4.49-.07-42.25-1.37-96.7-24.8-116.21-128.66l-.67-3.55c-20-103.76,22-145.57,60.77-162.39,68.59-29.68,307.45-58.48,413.5-2.31,30.58,16.2,48.75,38.38,54,65.93s-3.5,54.88-26,81.19C778.1,2800.82,552.82,2861.19,473.74,2861.2Zm174.79-296.84c-91.44,0-186.72,15.87-222.71,31.45-41.39,17.94-55.17,59.5-42.13,127.06l.71,3.71c12.7,67.63,40.79,101.21,85.88,102.66h0c66.29,2.27,290.47-57.22,360.1-138.64,16.12-18.84,22.3-36.66,18.91-54.48s-15.69-32.11-37.59-43.71C773.05,2571.94,711.7,2564.36,648.53,2564.36Z"/><path class="cls-8" d="M595.77,2836a12,12,0,0,1-10.54-6.29,465.39,465.39,0,0,1-52.67-276.5c0-.19.05-.37.08-.56a12,12,0,0,1,23.67,3.49,441.64,441.64,0,0,0,50,262.23A12,12,0,0,1,595.77,2836Z"/><g class="cls-12"><path class="cls-8" d="M986.79,2137.5c-33.92,15.69-26.55,71.68,5.11,91.55s72.72,13.69,108.75,3.76c74.67-20.59,145.4-54.23,220.74-72.21,111.22-26.54,229.15-18.14,338.84-50.45,51-15,99.06-38.54,146.82-61.94,17.32-8.48,35.15-17.35,47.68-32s18.46-36.78,8.94-53.55c-12.27-21.64-41.83-24.29-66.7-24.37-71.87-.2-144.5-.33-214.49,16-30.51,7.09-60.36,17.28-91.37,21.69-38,5.41-76.83,2-115,6.46-43.59,5.11-85.26,20.36-126.45,35.49-90.43,33.22-182.66,67.45-257.61,128-5.34,4.31-11.86,9-18.43,7.05s-6.37-14.77.4-13.6"/></g><path class="cls-8" d="M1794.81,1119.27a10.89,10.89,0,0,1-10.88-10.57c-2.87-100.62-36.55-186.38-92.41-235.29A10.88,10.88,0,1,1,1705.86,857c60.4,52.88,96.79,144.39,99.83,251a10.88,10.88,0,0,1-10.57,11.19Z"/><path class="cls-11" d="M2097,894.51c-7.48,9.19-13.83,19.27-19.95,29.42-32.89,54.45-62.44,113.6-113.91,134.6-116.9,36.64-247.58,72.78-388.38,108.54L1475.67,1036l-94.93-125.6q283.73-22.54,547-103.95A69.52,69.52,0,0,0,1957,788.61l68.34-69.52a23.24,23.24,0,0,1,17.54-7,14.89,14.89,0,0,1,1.62.12,22.29,22.29,0,0,1,10.13,3.68c6.65,4.48,12.14,11,16.46,19.27,11.72,22.31,15,57.26,9.63,99a6.87,6.87,0,0,1-.08.78,43.17,43.17,0,0,1,22.21,22.78C2107.56,869.41,2106.35,883,2097,894.51Z"/><path class="cls-8" d="M1574.74,1179.77a12.68,12.68,0,0,1-10.13-5l-194-256.67a12.7,12.7,0,0,1,9.12-20.31C1565.8,883,1748.92,848.17,1924,794.33a57.44,57.44,0,0,0,23.94-14.62l68.32-69.51a35.75,35.75,0,0,1,45.45-4.82c27.1,18.3,38.79,62.75,32.51,122.67,11.48,7.78,19.75,19.37,22.75,32.32,3.45,14.9-.15,29.88-10.14,42.16-6.65,8.16-12.38,17.08-18.94,28-3.95,6.54-7.85,13.14-11.75,19.74-29,49.16-59,100-108.23,120.06a9.19,9.19,0,0,1-1,.36c-112.23,35.18-239.49,70.74-389.05,108.73A12.82,12.82,0,0,1,1574.74,1179.77Zm-170-258.64,175,231.56c145.34-37,269.4-71.77,379-106.11,41-17,67.48-61.81,95.48-109.25q5.91-10,11.87-20c6.16-10.2,13-21,21-30.85,6.33-7.78,6.27-15.39,5.11-20.41-1.92-8.3-8.25-15.65-16.93-19.67a12.68,12.68,0,0,1-7.26-13.16c6.85-52.72-1-93.66-20.54-106.84a10.35,10.35,0,0,0-13.13,1.57l-68.32,69.52a82.8,82.8,0,0,1-34.58,21.08C1761.83,870.77,1584.76,905.23,1404.76,921.13Z"/><path class="cls-8" d="M2090.87,836.19l-59,52.26c-3.85,3.46-9.56-1.77-6.45-5.9l46.73-63.49c11.63-14.53,32.19,4.21,18.75,17.13Z"/><g class="cls-17"><path class="cls-8" d="M2097,894.51c-7.48,9.19-13.83,19.27-19.95,29.42-32.89,54.45-62.44,113.6-113.91,134.6-116.9,36.64-247.58,72.78-388.38,108.54L1475.67,1036a150,150,0,0,1,31.61-46.21l12.4-.61c39.33,19.41,82.94,28,126,36.38,20,3.9,40.19,7.84,60.53,7,16.49-.63,32.69-4.36,48.67-8.36a1443.4,1443.4,0,0,0,276.77-99.8c18.84-9,38-18.86,51.86-34.44,8.43-9.46,14.5-20.56,19.36-32.3C2107.56,869.41,2106.35,883,2097,894.51Z"/></g><g class="cls-17"><path class="cls-8" d="M2030.31,883.78c17.65-25,29.73-54.33,32.6-84.84s-3.83-62.2-20.69-87.79c30,13.7,46.56,47.87,48.34,80.83a79.63,79.63,0,0,1-1.67,23.11c-5.66,23.33-25.11,40.35-43.53,55.76Z"/></g><path class="cls-11" d="M1395.11,2083.14a137.54,137.54,0,0,1-7.76,19,48.1,48.1,0,0,1-31.4,25.15c-135.41,34.11-307.63,5.63-307-126.17a99.72,99.72,0,0,1,5.9-32.88l46.71-129.83a87.91,87.91,0,0,0,5.17-31.42c-1-56.39-5.94-117.42-14.5-182.75L1245,1560.68l121.61,132.85,40.14,43.84c-6,94.11-16.59,182.72-53.1,240.94C1384.93,1986.75,1412.65,2028.8,1395.11,2083.14Z"/><path class="cls-8" d="M1250.27,2153c-60.93,0-121.71-12.95-163.13-45.4-33.49-26.24-51.07-63.06-50.85-106.48A110.84,110.84,0,0,1,1043,1964l46.7-129.84a75.37,75.37,0,0,0,4.42-26.92c-1-54.89-5.82-115.89-14.4-181.3a12.69,12.69,0,0,1,7.71-13.37L1240.14,1549a12.71,12.71,0,0,1,14.24,3.15l161.75,176.69a12.71,12.71,0,0,1,3.31,9.37c-5.41,85.73-15.07,172.86-47.61,234,13.9,7.91,25.71,21.09,33,37.34,13.09,29.13,10.92,64-6.12,98.24a60.8,60.8,0,0,1-39.66,31.81A454,454,0,0,1,1250.27,2153Zm-144.18-520.71c7.93,62.71,12.42,121.37,13.37,174.5a100.52,100.52,0,0,1-5.92,36l-46.7,129.84a85.84,85.84,0,0,0-5.15,28.64c-.18,35.79,13.65,64.85,41.11,86.36,52.22,40.91,152.71,51.94,250.07,27.43a35.45,35.45,0,0,0,23.13-18.49c13.58-27.29,15.6-54.46,5.69-76.51-6.72-14.93-18.43-25.93-31.34-29.42a12.7,12.7,0,0,1-7.45-19c34.81-55.49,45.18-142.79,50.84-229.61l-152.08-166.12Z"/><path class="cls-8" d="M1308.94,1890.48c-76.46,0-146.7-22.32-209.63-66.77A12.69,12.69,0,1,1,1114,1803c79.85,56.39,172.59,74.49,275.63,53.78a12.7,12.7,0,0,1,5,24.91A434.58,434.58,0,0,1,1308.94,1890.48Z"/><path class="cls-8" d="M1358.56,1992.73c-39.69,18.22-86.76,19.56-127.09,4.31a5.22,5.22,0,0,1,2.85-10c38.41,8.38,78.55,1.94,111.31-19.08,17.32-9.85,31,16.18,12.93,24.79Z"/><g class="cls-17"><path class="cls-8" d="M1270.56,1999.32c-2.57-.36-5.19-.76-7.85-1.25A47.69,47.69,0,0,1,1270.56,1999.32Z"/></g><g class="cls-17"><path class="cls-8" d="M1366.62,1693.53c-.41,5.57-.91,11.09-1.44,16.6l-7.71-5.62c-34.86-18.74-83.71-3.56-101.82,31.62-7.36,14.19-9.89,30.31-12.36,46.1q-12.69,81.19-25.32,162.34c-1.31,8.33-2.57,17-.14,25.07,5.46,18,25.68,25,44.88,28.43-19.07-1.57-38.86,7.78-49.22,24-11.79,18.38-10.47,44.22,3.14,61.31,13.45,16.92,35.93,23.94,57.4,26.44,41.84,4.85,84.88-5.23,121.08-26.64a137.54,137.54,0,0,1-7.76,19,48.1,48.1,0,0,1-31.4,25.15c-135.41,34.11-307.63,5.63-307-126.17a99.72,99.72,0,0,1,5.9-32.88l46.71-129.83a87.91,87.91,0,0,0,5.17-31.42c-1-56.39-5.94-117.42-14.5-182.75L1245,1560.68Z"/></g><path class="cls-11" d="M1186.66,993.92l5.39,165.15,14.42,443.15c-56.63,47.64-124.11,79.78-217.06,75.5-56.42-4.36-99.07-25.42-129.62-61.25-16.15-18.92-26.42-42.14-30.71-66.64a11.45,11.45,0,0,1-.22-1.14,2519.54,2519.54,0,0,1-34.58-458.84,35.56,35.56,0,0,1,13.65-27.48c47.65-37.3,116.14-61.88,198.25-78.12Z"/><path class="cls-8" d="M1006.09,1690.81c-5.7,0-11.44-.13-17.26-.4-58.83-4.54-105.36-26.63-138.7-65.68-17.4-20.37-29.08-45.94-33.78-73.94a2545.52,2545.52,0,0,1-34.78-461.16,48.11,48.11,0,0,1,18.54-37.26c46.32-36.28,112.92-62.63,203.61-80.58a13.26,13.26,0,0,1,3.14-.23l180.48,9.68a12.71,12.71,0,0,1,12,12.27l19.81,608.3a12.69,12.69,0,0,1-4.52,10.13C1151,1665.51,1084.29,1690.81,1006.09,1690.81Zm1-693.8c-85.89,17.14-148.48,41.8-191.33,75.35A22.84,22.84,0,0,0,807,1090a2521.05,2521.05,0,0,0,34.43,456.55c3.94,23.46,13.64,44.77,28.05,61.65,29.2,34.2,68.77,52.79,120.95,56.82,76.58,3.53,141.47-18.32,203.19-68.64L1174.35,1006Z"/><path class="cls-8" d="M971.44,1662.91c30.58,1.11,30.74-47.77,32.78-71.22,1.77-35.11-.3-70.83-.12-106.23,0-5.21,7.87-6,8.79-.8,6.52,35.52,11.82,70.87,13.32,107.19,2,37.07-4.41,99.61-55.94,96.43-17-1.08-15.78-25.74,1.17-25.37Z"/><g class="cls-17"><path class="cls-8" d="M1192.05,1159.07l14.42,443.15c-56.63,47.64-124.11,79.78-217.06,75.5-56.42-4.36-99.07-25.42-129.62-61.25-16.15-18.92-26.42-42.14-30.71-66.64l3.63-2.19c18.19,27.33,39.33,54.3,68.75,68.91s68.9,13.48,91.14-10.64c22.86-24.7,20.6-62.71,17.64-96.24q-7.79-87.7-9.23-175.88c-.17-9.85-.2-20,3.56-29.17,4.33-10.43,13.13-18.23,21.73-25.55A1328.25,1328.25,0,0,1,1192.05,1159.07Z"/></g><path class="cls-8" d="M934.75,1152.45a12.72,12.72,0,0,1-6.69-1.91c-45.51-28.28-90.64-49.59-134.14-63.34a12.7,12.7,0,0,1,7.65-24.22c45.52,14.39,92.58,36.59,139.9,66a12.7,12.7,0,0,1-6.72,23.48Z"/><path class="cls-11" d="M1120.85,1380.87l-85.71,17.84a17.15,17.15,0,0,0-13.66,15.94c-1.39,28.59-1.18,94.79,28.81,112.73,24.88,14.89,61.22,8,80.29-13,21.33-23.45,15.31-87.62,10.78-119.18A17.17,17.17,0,0,0,1120.85,1380.87Z"/><g class="cls-17"><path class="cls-8" d="M1021.49,1414.66c-1.41,28.58-1.18,94.79,28.8,112.72,24.89,14.89,61.22,8,80.3-13,13.11-14.44,15.88-44.26,15-72.42-2.08,14.39-6.73,26.47-13.37,34.87-38.08,48.11-77.2,2.4-77.2,2.4s-4.06,12.88-8.48,14.16c-18.46,5.34-22.29-54.14-23.56-85A16.53,16.53,0,0,0,1021.49,1414.66Z"/></g><path class="cls-8" d="M1080.9,1544.43a68.72,68.72,0,0,1-35.27-9.26c-33.05-19.78-35-84.27-33.2-121a26.23,26.23,0,0,1,20.86-24.39L1119,1372a26.23,26.23,0,0,1,31.33,22c6.35,44.22,9.24,102.08-13,126.57C1123.17,1536,1101.78,1544.43,1080.9,1544.43Zm43.49-154.86a8.89,8.89,0,0,0-1.69.17h0L1037,1407.59a8.08,8.08,0,0,0-6.45,7.5c-2.66,54.71,6.46,93.77,24.4,104.51,20.6,12.32,52.16,7.14,68.93-11.29,13.28-14.6,16.46-56.39,8.51-111.79a8.11,8.11,0,0,0-8-7Zm-3.54-8.7h0Z"/><path class="cls-8" d="M1092.46,1540.79c-30.32-14.3-42.16-49.62-44.3-80.65-.77-10.17-1.44-20.14.51-30.78a2.16,2.16,0,0,1,4.27.59c-1,9.33.42,19.58,2,29.31,4.34,26.78,15.69,56.77,42.2,67.81,9.77,3,4.85,17.39-4.73,13.72Z"/><path class="cls-11" d="M1864.71,1985.83a102.21,102.21,0,0,1-.15,12.2,55.38,55.38,0,0,1-28.72,44.82c-85.56,46.86-230,73.58-321.56,48.83a72.84,72.84,0,0,1-49.12-44.3c-36.06-94.22-62.14-240.8-138.65-345a32.43,32.43,0,0,0-19.51-12.56,288.92,288.92,0,0,1-65.65-21.8c-47.54-22.66-78-70.61-79-123.26-1-54.88-5.87-111.5-13.91-169.64l0-.33q-8.49-61.23-21.53-124.59c-15.89-77.66-36.45-157.49-60.48-239l82.44-98.41,271.82,8.89,95.62,60.84C1638.39,1116.3,1683.07,1334,1675,1514.05c-1.18,26.6-3.5,52.36-6.92,76.9v0c-.06.41-.12.78-.17,1.19,55.73,89.43,86.29,193,101.48,305.16C1826.54,1910.42,1862.83,1936,1864.71,1985.83Z"/><path class="cls-8" d="M1519.54,979.55c149.74,148.92,186.76,412.31,160.92,614.4l-1.8-8.48c29.23,46.85,51.61,97.65,68.26,149.94s27.76,106.14,35.12,160.22l-9.82-10.76c38.1,8.61,82.06,26.75,98,66.2,14.77,35.16,9.11,82.45-26.7,102.2-37.69,20.66-78.45,34.45-120,44.72-55.15,12.78-112.68,19.61-169.34,13.88-19.33-2.31-40.18-5.16-58.11-13.26a86.11,86.11,0,0,1-43.07-46.9c-6.6-17.68-12.61-35.43-18.15-53.18-22.13-70.88-41.45-141.85-72-207.7-13.24-28.36-28.81-55.86-47.13-81.18-3.78-5.27-10.25-7.09-16.33-8.14-78.14-16.45-140.25-60.64-149.4-144.89-3.29-147.24-29.61-292.86-66.56-435.27q-13.9-53.41-29.46-106.42a13.14,13.14,0,0,1,2.5-12l82.51-98.33a13.1,13.1,0,0,1,10.33-4.62L1421,909c16.82,1.15,15.8,25.5-.83,25.38l-271.83-8.67,10.33-4.61-82.35,98.47,2.5-12.05c49.51,168.63,89.87,342.77,96.07,519.7l.44,14c-.15,37.94,17.15,75.41,46.79,99.15,25.67,20.57,58.49,30.13,90.21,37.28,12,3.06,21.91,11.65,28.17,22,6.31,9.06,13.89,20.28,19.43,29.94,58.07,96.94,79.44,209,117.2,312.82a60.3,60.3,0,0,0,40.8,36.79c12.41,2.69,26.21,6,38.9,6.9,89.1,7.68,181.85-11,262.13-49.11,23.93-9.84,35.57-27.1,32.69-53.26-1.23-45-45.91-65.48-85.24-74a12.84,12.84,0,0,1-9.74-10.74c-7.17-52.91-18-105.29-34.06-155.91s-37.58-99.39-65.52-144.24a12.79,12.79,0,0,1-1.8-8.49c20.13-157.23,2.18-322.38-60.88-468.44-21.57-48.44-48.44-94.38-81.52-136.37a4.5,4.5,0,0,1,6.63-6.05Z"/><path class="cls-8" d="M1781.21,1903.31c-12.94,37.5-51.07,59.85-88.07,65.08-5.4,1-7.48-7-2.3-8.78,16-5.86,31.06-13.91,42.42-24.91a71.11,71.11,0,0,0,21.13-39.27c4.53-20.13,33.88-11.55,26.82,7.88Z"/><path class="cls-8" d="M1471.74,1869.05a414.78,414.78,0,0,1-73.58-6.36,14,14,0,1,1,5-27.51c106.66,19.24,234.7-8.88,334.13-73.4a14,14,0,0,1,15.22,23.45C1669.3,1839.2,1567,1869.05,1471.74,1869.05Z"/><path class="cls-8" d="M1675.05,1629.72c-23.33-38.22-43.12-79.72-78.39-108.5a5.32,5.32,0,0,1,6-8.76c20.35,12.34,37.56,29.47,52.38,47.66s27.88,37.46,41.28,55.73a12.72,12.72,0,1,1-21.27,13.87Z"/><g class="cls-17"><path class="cls-8" d="M1421.27,1329.34c-5.89,24.76-31.81,38.52-55.69,47.3l-.14.06c-28.09,10.27-57.37,18.1-87.3,19.72-43.34,2.33-86-8.38-127.8-21h-.07c-.65-.21-1.3-.38-1.91-.6q-8.49-61.23-21.53-124.59c6.59-18.11,17.08-34.68,32.12-46.53l.13-6.38c14.43-16,37.62-27.16,57.6-19.09,30.17,12.14,31.71,55.62,55.39,77.91,15.58,14.71,38.76,18.09,60.19,16.91a180.44,180.44,0,0,0,80.51-24.16q3.81,24.09,7.59,48.18C1422.07,1307.77,1423.75,1318.78,1421.27,1329.34Z"/></g><g class="cls-17"><path class="cls-8" d="M1864.71,1985.83a102.21,102.21,0,0,1-.15,12.2,55.38,55.38,0,0,1-28.72,44.82c-85.56,46.86-230,73.58-321.56,48.83a72.84,72.84,0,0,1-49.12-44.3c-36.06-94.22-62.14-240.8-138.65-345a32.43,32.43,0,0,0-19.51-12.56,288.92,288.92,0,0,1-65.65-21.8c-47.54-22.66-78-70.61-79-123.26-1-54.88-5.87-111.5-13.91-169.64a12.57,12.57,0,0,0,1.94.26,857.53,857.53,0,0,0,215.24,1.25q35.88-4.23,71.33-11.6c10.55-2.16,22.3-4.37,31.51,1.25,7.5,4.55,11.36,13.24,14.5,21.47a449.6,449.6,0,0,1,21.39,74.64l8.57,10.27c-44.43,10.33-74.18,55.94-78.13,101.4s13.11,90.16,34.67,130.36,48.07,77.86,65.67,119.93c15.72,37.7,24.35,78.87,47.18,112.73,7.74,11.55,17.27,22.21,29.47,28.87,33.4,18.26,74.42,1.9,108.77-14.52-17.2,9.31-36.1,20.7-40.71,39.73-5.32,22,12.8,44.55,34.51,51.23s45.19,1.28,66.55-6.37C1811.49,2025.09,1841.33,2008.27,1864.71,1985.83Z"/></g><g class="cls-17"><path class="cls-8" d="M1675,1514.05c-1.18,26.6-3.5,52.36-6.92,76.9q-13.21-18.15-26.37-36.29c-8.4-11.57-17.09-23.4-29.16-31.07l-7.1-6.84c21.39,7.89,46.57,11.42,66.08-.39C1672.69,1515.63,1673.88,1514.85,1675,1514.05Z"/></g><path class="cls-11" d="M1704.1,1428.69l-238.73,54c-28.25,6.4-56.82-15.58-63.47-48.88l-29.8-149.52c-5.82-29.15,7-57.65,29.31-68.58a44.1,44.1,0,0,1,10-3.55l238.69-54c28.29-6.41,56.85,15.57,63.46,48.87l23.64,118.43,6.21,31.09C1750.09,1389.85,1732.35,1422.28,1704.1,1428.69Z"/><g class="cls-17"><path class="cls-8" d="M1704.1,1428.69l-238.72,54c-28.26,6.4-56.82-15.58-63.47-48.88l-29.81-149.52c-5.81-29.15,7-57.65,29.32-68.58,15.67,7.52,25.63,12.36,25.63,12.36,35.55,117.39,76.52,170.67,203.64,144.45,54.86-11.34,87.41-29,106.54-47.08l6.21,31.09C1750.09,1389.85,1732.35,1422.28,1704.1,1428.69Z"/></g><path class="cls-8" d="M1455.54,1494.7a59.21,59.21,0,0,1-32.27-9.83c-16.26-10.54-27.93-28.36-32-48.89l-29.82-149.55c-7.8-39.09,13.56-77.17,47.61-84.88l238.7-54c15-3.41,30.88-.41,44.53,8.46,16.25,10.55,27.92,28.37,32,48.89l29.82,149.55c7.8,39.1-13.56,77.17-47.61,84.88l-238.71,54A55.23,55.23,0,0,1,1455.54,1494.7ZM1660,1167.94a33.5,33.5,0,0,0-7.4.82l-238.71,54c-22.64,5.13-36.58,31.77-31.06,59.39l29.82,149.55c3,14.8,11.16,27.52,22.52,34.9,8.69,5.63,18.58,7.58,27.87,5.48h0l238.71-54c22.64-5.12,36.57-31.77,31.06-59.39l-29.82-149.55c-3-14.8-11.16-27.52-22.52-34.89A37.62,37.62,0,0,0,1660,1167.94Z"/><path class="cls-11" d="M1713.46,1425.41a40.57,40.57,0,0,1-9.36,3.28l-238.72,54c-20.71,4.67-41.57-5.85-53.86-25a68.44,68.44,0,0,1-9.57-23.9l-13.27-66.43-4.38-21.91-12.2-61.18c-6.65-33.3,11.09-65.73,39.34-72.14l51.59-11.65c-22.72,10.65-35.91,39.42-30,68.87l16.08,80.77,13.73,68.79c6.64,33.26,35.21,55.28,63.47,48.88Z"/><g class="cls-17"><path class="cls-8" d="M1713.46,1425.41a40.57,40.57,0,0,1-9.36,3.28l-238.72,54c-28.26,6.4-56.82-15.58-63.43-48.88l-17.65-88.34c9.12,14.25,23.73,31,41.39,29.07,9.69-1,17.41-11.14,23.37-24.4l13.73,68.79c6.64,33.26,35.21,55.28,63.47,48.88Z"/></g><path class="cls-8" d="M1455.52,1492.89a57.44,57.44,0,0,1-31.25-9.52c-15.86-10.3-27.24-27.7-31.23-47.75l-29.82-149.54c-7.63-38.12,13.11-75.25,46.22-82.77l51.57-11.66a9.07,9.07,0,0,1,5.86,17.06c-19.47,9.14-30,33.93-25,58.92l29.82,149.54c3,15.28,11.53,28.43,23.31,36.07,9.1,5.91,19.48,7.94,29.23,5.74l187.23-42.4a9.07,9.07,0,0,1,6,17,51.29,51.29,0,0,1-11.39,4l-238.66,54A53.51,53.51,0,0,1,1455.52,1492.89Zm-22.6-276.29-19.47,4.4c-23.6,5.36-38.16,33-32.44,61.53l29.82,149.54h0c3,15.27,11.54,28.42,23.31,36.07,9.1,5.9,19.49,7.93,29.23,5.72l22.32-5-.56-.36c-15.86-10.29-27.24-27.7-31.22-47.75l-29.82-149.53C1420.18,1251.6,1423.76,1232,1432.92,1216.6Z"/><path class="cls-18" d="M1542.25,1324.08c1.08,5.54,3.15,51.68,3.15,51.68l-26.8,5.87c-18.46,4-37.79-15.16-43.18-42.89s5.21-53.5,23.66-57.55l26.8-5.88S1540.5,1315.07,1542.25,1324.08Z"/><g class="cls-17"><path class="cls-8" d="M1542.25,1324.08c1.08,5.54,3.15,51.68,3.15,51.68l-26.8,5.87c-18.46,4-37.79-15.16-43.18-42.89s5.21-53.5,23.66-57.55l26.8-5.88S1540.5,1315.07,1542.25,1324.08Z"/></g><path class="cls-8" d="M1513.58,1390.75a36.11,36.11,0,0,1-19.88-6.33c-13-8.55-23-25-26.69-44.05-6.37-32.77,6.91-62.44,30.24-67.55l18.71-4.1c9-2,17.91,3.41,21.28,12.77,7.89,22,12.41,35.73,13.43,41,.24,1.26,1,5.1,2.83,43.09.48,9.87-5.6,18.44-14.45,20.38l-18.62,4.08A31.73,31.73,0,0,1,1513.58,1390.75Zm6-105.29-18.69,4.1c-13.69,3-21.51,24.77-17.08,47.54,2.83,14.59,10,26.92,19.28,33,3.2,2.1,8.17,4.35,13.64,3.16l18.62-4.08c.26-.06,1.08-1,1-2.81-1.68-34.7-2.41-40-2.54-40.66-.8-4.13-5.56-18.49-12.73-38.42C1520.63,1285.94,1519.8,1285.47,1519.61,1285.46Z"/><ellipse class="cls-18" cx="1535.64" cy="1325.53" rx="34.19" ry="51.17" transform="translate(-204.87 283.49) rotate(-9.89)"/><g class="cls-10"><path class="cls-11" d="M1570.34,1328.69c-7.6-22.11-24.35-36.27-40.44-32.74s-26.26,23.66-25,47.22a77.24,77.24,0,0,1-2.74-10.3c-5.36-27.75,5.23-53.51,23.68-57.55s37.77,15.14,43.17,42.88A74.29,74.29,0,0,1,1570.34,1328.69Z"/></g><g class="cls-17"><path class="cls-8" d="M1545.41,1375.74c-18.45,4.08-37.8-15.13-43.2-42.87a75,75,0,0,1-1.28-18.57c8.47,17.8,23.25,28.49,37.47,25.35s23.77-19.1,24.93-39a71.9,71.9,0,0,1,5.73,17.52C1574.46,1345.94,1563.86,1371.7,1545.41,1375.74Z"/></g><path class="cls-8" d="M1540.39,1384.87a36.11,36.11,0,0,1-19.89-6.33c-13-8.55-23-25-26.69-44-6.37-32.78,6.91-62.45,30.24-67.56,8.94-1.94,18.19,0,26.73,5.59,13,8.55,23,25,26.69,44h0c6.37,32.77-6.91,62.44-30.24,67.56A32.27,32.27,0,0,1,1540.39,1384.87Zm-9.57-101.52a14.47,14.47,0,0,0-3.1.33c-13.69,3-21.51,24.77-17.08,47.55,2.83,14.58,10,26.92,19.28,33,3.2,2.11,8.17,4.36,13.64,3.16,13.69-3,21.51-24.77,17.08-47.54-2.83-14.58-10-26.92-19.28-33A19.61,19.61,0,0,0,1530.82,1283.35Z"/><path class="cls-8" d="M1633.59,1452.46a8.57,8.57,0,0,1-8.43-7.06l-16.43-92.06c-1.81-10.14.9-20.49,7.24-27.67l19.88-22.54c3-3.34,4.16-8.56,3.16-13.63l-24.17-123.13a8.57,8.57,0,0,1,16.82-3.3l24.17,123.13c2,10.34-.63,20.91-7.13,28.27L1628.82,1337c-2.87,3.26-4.1,8.36-3.22,13.33l16.44,92.06a8.56,8.56,0,0,1-8.45,10.07Z"/><path class="cls-11" d="M1144.75,1318.3s-20.84,24.73-16.87,57c4.58,37.36,28.33,49,28.33,49s101.79,37,246.62-21.83c0,0,34.73-67.86-19.88-94.2C1383,1308.3,1228.07,1357.53,1144.75,1318.3Z"/><g class="cls-17"><path class="cls-8" d="M1127.89,1375.37c4.58,37.32,28.32,48.94,28.32,48.94s101.77,37,246.63-21.83c0,0,11.41-22.37,10.83-46.34-.52,1.27-.89,1.95-.89,1.95-105.86,43-188.72,34.81-225.64,27.28-25.64-5.23-45.56-26.51-49.17-53.29,0-.36-.1-.74-.14-1.11a10.57,10.57,0,0,1-.15-1.85C1132.07,1339.37,1125.5,1356,1127.89,1375.37Z"/></g><path class="cls-8" d="M1240.75,1446.84c-53.38,0-85.87-11.41-88.26-12.28a10.86,10.86,0,0,1-1.06-.45c-1.19-.58-29.12-14.71-34.36-57.44-4.49-36.61,18.39-64.22,19.36-65.38a10.89,10.89,0,0,1,13-2.83c78.46,36.94,228.75-10.06,230.26-10.53a10.87,10.87,0,0,1,8,.56c16.74,8.08,28,20.31,33.37,36.38,11.21,33.38-7.71,71-8.53,72.59a10.87,10.87,0,0,1-5.59,5.12C1341.09,1439.33,1284,1446.84,1240.75,1446.84Zm-80.13-32.51c8.94,2.94,103.49,31.4,234.11-20.31,3.75-8.82,12.32-32.57,5.65-52.29-3.13-9.25-9.21-16.39-18.52-21.72-25.69,7.67-153.14,42.82-233.19,11.8-5,8.4-12.22,24.07-10,42.21C1142.11,1402,1157.56,1412.52,1160.62,1414.33Z"/><path class="cls-11" d="M1204.7,1247.65c-126.61,129.14-294.26,187.78-480,204.79-63,5.77-125.36-17.73-167.67-64.77a310.15,310.15,0,0,1-39.57-55.36q-4.07-7.27-7.7-14.59c-.74-1.52-1.49-3-2.19-4.51-11.22-23.76-18.75-47.88-21.91-70.45-7.26-52.14,44.17-92.12,92.56-71.43,21.06,9,41.4,24.7,62.08,39.26,197.45-10.5,336.17-93,427.06-234.22l106.36,210.08Z"/><path class="cls-8" d="M1078,983.2c-97.09,154.5-257.85,231.86-437,240a12.47,12.47,0,0,1-7.94-2.29c-21.52-14.41-40.64-29.7-63-38-33.42-13.12-71.46,14.53-70.27,50.15,3.86,42.59,23,82.81,47.27,117.65,43.74,65.49,116.14,96.89,193.94,84.66,15-1.38,35.47-4.26,50.42-6.31,100-15,198.4-45.4,286.18-96,44.25-24.87,85.38-54.76,124.13-88.36a4.2,4.2,0,0,1,6,5.87c-44.54,53.44-101.39,96.84-162.93,129.52C967.37,1420.81,882,1444.8,796,1459c-15.36,2.13-36.33,5.29-51.78,6.74-89.52,14-171.65-22.16-222-97.49-27.36-39.86-49-86.19-52-135.08-.55-42.53,36.19-80.83,78.9-81.1,38.19-1,70.48,28.57,98.48,48.24l-7.94-2.28c41.53-2.38,82.81-8,123-18,80.18-19.58,155.59-58.31,215.55-115.23a507.71,507.71,0,0,0,78.6-95.26c9-13.54,30-.84,21.24,13.67Z"/><path class="cls-11" d="M732.42,1301.15c-12.35-75.32-35-115.71-58.5-124.38-12.74-4.7-26.23,5.41-26.14,19,.13,22-1.9,42.37-9.12,58.94-13.92,12.25-32.28,33.42-32.17,62.67Z"/><path class="cls-8" d="M602.45,1317.38c-3.31-26.46,10-53.11,27.86-72.16l-3.23,4.43c6.25-15.67,7.53-34.63,7.55-53.76a34.53,34.53,0,0,1,2.24-12.12c5.89-15.73,24.79-25.25,40.85-19.14,20,7.69,32.16,27.34,40.35,45.25,12.69,28.52,18.39,59.73,18.81,90.54a4.57,4.57,0,0,1-8.91,1.46c-6.37-19.05-12.15-37.87-19.05-55.92-8.15-20.08-17.06-43.17-35.28-55.26-2.24-1.3-4.23-2.36-6.59-2.2-3.3.25-6.29,3.81-6.13,7.24a209.43,209.43,0,0,1-1.79,31.71c-1.54,11-4.17,22.42-9.31,33.17a9.81,9.81,0,0,1-2.83,3.57c-9.16,6.2-17.54,13.56-24,22.43a65.5,65.5,0,0,0-12.43,30.81c-.52,4.65-7.61,4.64-8.07,0Z"/><path class="cls-8" d="M972.3,1410.46a12.63,12.63,0,0,1-12.52-11.08c-8.87-72.1-52.4-192.71-117.66-222.63a12.63,12.63,0,0,1,10.52-23c74.83,34.31,122.36,162.46,132.21,242.5a12.62,12.62,0,0,1-11,14.07A11.89,11.89,0,0,1,972.3,1410.46Z"/><g class="cls-17"><path class="cls-8" d="M515.75,1308.31c.07,6,.39,11.84,1,17.73-2.33-2.77-4.66-5.55-7-8.32-1.08-1.29-2.13-2.62-3.21-3.91l1-.6Z"/></g><g class="cls-17"><path class="cls-8" d="M1204.7,1247.65c-126.61,129.14-294.26,187.78-480,204.79-63,5.77-125.36-17.73-167.67-64.77a310.15,310.15,0,0,1-39.57-55.36c-.27-2.09-.51-4.18-.74-6.27,16.48,19.46,34.17,38.1,56.49,50.08,15.91,8.55,33.65,13.33,51.47,16.27,87.38,14.38,175.49-14.63,258.62-45.05,90.62-33.14,182.52-69.66,254.79-133.58,10.87-9.6,22.85-20.25,35.63-27.31Z"/></g><path class="cls-11" d="M1635,590.32a504.07,504.07,0,0,1-100.19,236.46,519.83,519.83,0,0,1-35.94,41.75c-6.24,6.54-12.74,13-19.42,19.29a519.09,519.09,0,0,1-199.23,116.88q-14.17,4.44-28.5,8.1c-174.85,44.4-367.76-3-500.64-140.66C555.31,669.42,564,347.75,770.48,153.68A517.85,517.85,0,0,1,901.38,63.9c5.46-2.67,11-5.2,16.62-7.61q22.39-9.82,45.44-17.42a525.61,525.61,0,0,1,219.19-23.32q17.47,1.85,34.84,4.86a515.91,515.91,0,0,1,51.58,11.77,510.1,510.1,0,0,1,229.8,137.18C1611.48,286,1656.41,441.92,1635,590.32Z"/><path class="cls-8" d="M1123,1030.17c-139.28,0-274.72-55.52-372.84-157.15-94.54-97.89-144.81-226.43-141.54-361.94,3.31-136.6,60.47-263.85,161-358.32a518.62,518.62,0,0,1,131.23-90c5.16-2.53,10.76-5.1,16.65-7.64C932.37,48.6,947.7,42.73,963,37.66a526.86,526.86,0,0,1,219.73-23.38c11.75,1.24,23.5,2.88,34.92,4.88A518.9,518.9,0,0,1,1269.39,31a513.4,513.4,0,0,1,230.37,137.53c109.14,113,158.89,266.8,136.52,422a507.06,507.06,0,0,1-100.45,237,519.58,519.58,0,0,1-36,41.86c-5.74,6-12.1,12.35-19.45,19.33a520.54,520.54,0,0,1-199.73,117.17c-9.43,3-19,5.68-28.56,8.12A524.05,524.05,0,0,1,1123,1030.17ZM1127.41,13.9A525,525,0,0,0,963.83,40.07c-15.26,5-30.51,10.89-45.32,17.38-5.86,2.52-11.43,5.08-16.56,7.6a516.15,516.15,0,0,0-130.6,89.56c-100,94-156.88,220.62-160.16,356.53C607.93,646,657.94,773.85,752,871.26c127.75,132.32,319.11,186.09,499.42,140.31,9.48-2.43,19-5.15,28.43-8.08a519.2,519.2,0,0,0,198.75-116.6c7.31-6.95,13.65-13.24,19.36-19.24A520.14,520.14,0,0,0,1533.82,826a504.63,504.63,0,0,0,100-235.86l1.25.18-1.25-.18c22.25-154.43-27.25-307.48-135.83-419.89A510.93,510.93,0,0,0,1268.7,33.4a516.68,516.68,0,0,0-51.45-11.74c-11.36-2-23.06-3.62-34.75-4.85A522.16,522.16,0,0,0,1127.41,13.9Z"/><g class="cls-17"><path class="cls-8" d="M751.1,872.13c132.87,137.66,325.81,185.08,500.65,140.66q14.32-3.66,28.48-8.09a520.64,520.64,0,0,0,199.26-116.87c6.64-6.36,13.16-12.75,19.41-19.28a525.22,525.22,0,0,0,35.92-41.78,504.31,504.31,0,0,0,100.85-376,503.87,503.87,0,0,1-98.38,224.87,512.27,512.27,0,0,1-35.93,41.77c-6.22,6.54-12.73,12.93-19.41,19.29a518.71,518.71,0,0,1-199.22,116.87q-14.2,4.44-28.52,8.09c-174.83,44.41-367.74-3-500.65-140.66C676,640.72,630.59,541.76,616.79,439.5,591.22,591.37,635.53,752.48,751.1,872.13Z"/></g><path class="cls-8" d="M1123,1038.68c-141.58,0-279.24-56.43-379-159.74C647.92,779.39,596.8,648.68,600.13,510.87,603.49,372,661.6,242.6,763.78,146.55A527.37,527.37,0,0,1,897.16,55.07c5.21-2.55,11-5.18,17-7.77,15.07-6.61,30.64-12.58,46.24-17.72a535.45,535.45,0,0,1,223.3-23.76c11.93,1.25,23.88,2.92,35.48,4.95a530.14,530.14,0,0,1,52.57,12,521.9,521.9,0,0,1,234.17,139.8c111,114.9,161.57,271.32,138.82,429.16h0a515.65,515.65,0,0,1-102.14,241A529.31,529.31,0,0,1,1506,875.3c-5.82,6.11-12.28,12.53-19.73,19.61a528.94,528.94,0,0,1-203,119.12c-9.6,3-19.35,5.78-29,8.26A532.9,532.9,0,0,1,1123,1038.68Zm4.38-1016.26A515.94,515.94,0,0,0,966.5,48.17c-15,4.95-30,10.7-44.57,17.09-5.79,2.48-11.23,5-16.23,7.43a507.75,507.75,0,0,0-128.52,88.13C678.86,253.24,622.93,377.73,619.7,511.34c-3.2,132.53,46,258.25,138.44,354,125.63,130.13,313.85,183,491.2,138,9.31-2.39,18.74-5.07,28-8a510.61,510.61,0,0,0,195.45-114.68c7.18-6.81,13.42-13,19-18.9a510.65,510.65,0,0,0,35.28-41,495.94,495.94,0,0,0,98.26-231.87c21.88-151.8-26.79-302.25-133.53-412.76A502.42,502.42,0,0,0,1266.4,41.6a508.38,508.38,0,0,0-50.63-11.55c-11.16-1.95-22.66-3.56-34.16-4.77A513.34,513.34,0,0,0,1127.41,22.42ZM1635,590.32h0Z"/><path class="cls-8" d="M1123,1041.51c-142.35,0-280.75-56.73-381-160.6C645.34,780.81,594,649.37,597.29,510.8c3.38-139.65,61.81-269.74,164.54-366.32a530.38,530.38,0,0,1,134.11-92C901.16,50,907,47.3,913,44.69c15.13-6.63,30.79-12.64,46.47-17.81A538.23,538.23,0,0,1,1184,3c12,1.26,24,2.94,35.68,5A532.11,532.11,0,0,1,1272.49,20a524.75,524.75,0,0,1,235.45,140.56c111.58,115.53,162.46,272.82,139.58,431.53h0a518.42,518.42,0,0,1-102.7,242.37A533.19,533.19,0,0,1,1508,877.27c-5.84,6.13-12.34,12.59-19.83,19.7a531.64,531.64,0,0,1-204.12,119.77c-9.66,3-19.46,5.81-29.17,8.3A536.23,536.23,0,0,1,1123,1041.51Zm4.37-1016.25a512.94,512.94,0,0,0-160,25.6c-14.92,4.92-29.84,10.64-44.32,17-5.76,2.48-11.16,5-16.12,7.39a504.9,504.9,0,0,0-127.83,87.65c-97.76,91.9-153.37,215.68-156.58,348.52-3.19,131.77,45.7,256.76,137.64,352,124.93,129.4,312.09,182,488.45,137.2,9.27-2.38,18.65-5,27.84-7.92a507.83,507.83,0,0,0,194.36-114c7.13-6.78,13.33-12.94,18.91-18.8a508.61,508.61,0,0,0,35.1-40.76,493.26,493.26,0,0,0,97.69-230.54c21.75-150.93-26.64-300.51-132.76-410.39a499.52,499.52,0,0,0-224.14-133.8,505.55,505.55,0,0,0-50.35-11.48c-11.1-2-22.53-3.54-34-4.74A510.48,510.48,0,0,0,1127.41,25.26ZM1635,590.32h0Z"/><path class="cls-8" d="M1599.82,716c-209.68,299.54-646.95,303.35-793.83-25.2-99.93-223.52,45.28-493.65,269.56-575.61,163.23-59.64,348.7-47.57,510.6,176.54,0,0,56.08,110.2,53.25,198.45s-20.67,173.68-20.67,173.68Z"/><path class="cls-23" d="M806,690.79c146.88,328.54,584.15,324.72,793.83,25.21l3.82-10.58c-290.79,170.08-670.23,101.48-825-227.94C767.66,548.4,775.18,621.81,806,690.79Z"/><path class="cls-8" d="M1184.7,1004c-59.33,0-117.73-10-172.26-30.24C892.39,929.29,799.85,840.74,744.85,717.74c-50.52-113-49.62-243.17,2.55-366.56,57.94-137,172.94-248.24,307.62-297.46,74.85-27.34,147.17-38.82,214.9-34.14a12.86,12.86,0,0,1,2.54.44,524.79,524.79,0,0,1,235.48,140.57c111.58,115.53,162.46,272.82,139.58,431.53h0a518.42,518.42,0,0,1-102.7,242.37A533.19,533.19,0,0,1,1508,877.27c-5.84,6.13-12.34,12.59-19.83,19.7a532.23,532.23,0,0,1-65.46,52.47,13.23,13.23,0,0,1-1.71,1C1345.39,986,1264.22,1004,1184.7,1004Zm55.43-960.23c-56,0-115.26,11.27-176.44,33.63C935.47,124.29,825.92,230.3,770.66,361c-49.41,116.86-50.39,239.89-2.76,346.41C820.07,824.1,907.67,908,1021.22,950.13c121,44.85,262.42,36.79,388.12-22.14a506.24,506.24,0,0,0,61.49-49.37c7.13-6.78,13.33-12.94,18.91-18.8a508.61,508.61,0,0,0,35.1-40.76,493.3,493.3,0,0,0,97.69-230.54h0c21.75-150.93-26.64-300.51-132.76-410.39A499.59,499.59,0,0,0,1266.88,44.68Q1253.63,43.81,1240.13,43.81ZM1635,590.32h0Z"/><path class="cls-8" d="M1187.92,946.53q-21.95,0-43.93-2.09C989.44,929.69,863.74,838.36,799.14,693.85c-44.51-99.57-43.69-214.33,2.31-323.13,51.16-121,152.66-219.15,271.53-262.58,204.63-74.77,379.34-14.5,519.25,179.19a7,7,0,0,1,.6,1c2.33,4.57,56.92,112.94,54.07,202.09-2.82,87.89-20.65,174.11-20.83,175a7.38,7.38,0,0,1-.29,1l-18.91,52.15a7.77,7.77,0,0,1-.9,1.74C1506.42,862.5,1349.3,946.53,1187.92,946.53Zm47.5-854.25q-75.26,0-157.3,30c-115,42-213.29,137.11-262.85,254.33C770.9,481.49,770,592,812.84,687.73c62.33,139.43,183.55,227.55,332.57,241.78,170.7,16.29,342.17-66.84,447.7-217l18.38-50.7c1.47-7.21,17.75-88.83,20.42-171.87,2.63-82.36-48.15-186.17-52.2-194.31C1481.78,160.26,1366.42,92.28,1235.42,92.28ZM1599.82,716h0Z"/><path class="cls-11" d="M583.89,749.22C613.33,845,695.44,907.92,767.3,889.69S873.54,779,844.1,683.21c-.17-.6-.39-1.23-.59-1.83-29.9-94.77-111.46-156.74-182.82-138.63-55.51,14.08-88.65,72.46-87.3,142.44A234.63,234.63,0,0,0,583.89,749.22Z"/><g class="cls-17"><path class="cls-8" d="M583.89,749.22C613.33,845,695.44,907.92,767.3,889.69S873.54,779,844.1,683.21c-.17-.6-.39-1.23-.59-1.83-4.88,11.83-14.2,24.63-31.87,25.6-30.93,1.67-102.22-46.64-102.22-46.64s-59.06,10.39-136,24.85A234.63,234.63,0,0,0,583.89,749.22Z"/></g><path class="cls-8" d="M742.24,905.4c-70.33,0-142.81-62.58-170.43-152.46-18.09-58.88-14.09-118.23,11-162.84,17.41-31,43.27-51.59,74.77-59.58,78.16-19.84,167.25,47,198.59,149,18.09,58.88,14.09,118.23-11,162.84-17.41,31-43.27,51.59-74.77,59.59A114.37,114.37,0,0,1,742.24,905.4Zm-56-353.19A91.72,91.72,0,0,0,663.78,555c-24.63,6.26-45,22.67-59,47.48-21.39,38-24.7,91.53-8.87,143C623.39,834.84,698.86,894,764.19,877.44c24.63-6.25,45-22.67,59-47.48,21.39-38.05,24.7-91.53,8.87-143.05C807.69,607.72,745.58,552.21,686.29,552.21Z"/><ellipse class="cls-11" cx="677.13" cy="743.22" rx="109.06" ry="144.27" transform="translate(-233.49 317.01) rotate(-22.58)"/><path class="cls-8" d="M700.07,884.2c-2.87,0-5.77-.14-8.71-.4-35.44-3.2-70.35-25.56-95.77-61.34-45.61-64.19-46.25-152-1.44-195.68,18.63-18.17,42.42-26.55,68.75-24.14,35.45,3.2,70.35,25.56,95.78,61.34,45.6,64.19,46.25,152,1.43,195.68A84.16,84.16,0,0,1,700.07,884.2ZM654.22,604.88A81.61,81.61,0,0,0,596,628.67c-43.93,42.84-43.14,129.09,1.74,192.26,25,35.15,59.19,57.1,93.86,60.24,25.54,2.31,48.61-5.79,66.67-23.41,43.92-42.83,43.14-129.08-1.75-192.25-25-35.15-59.18-57.11-93.85-60.24Q658.4,604.88,654.22,604.88Z"/><g class="cls-17"><path class="cls-8" d="M793.71,771.69c-1.32-27.28-10.24-54.28-24.3-77.9-2.31,62.5-47.43,101.39-105.27,88.14-37.37-8.55-71.46-36.95-93.2-73.51-.17,3.94-.12,8,.07,12.15,3.39,69.49,56,137.26,117.49,151.37S797.09,841.14,793.71,771.69Z"/></g><path class="cls-8" d="M702.58,895.69c-55.46,0-114.22-52.93-137.6-128-15.55-49.88-12.72-101.13,7.59-137.09C585.7,607.36,605,592,628.45,586.28,689.12,571.36,759.78,627.73,786,711.87,801.54,761.76,798.71,813,778.41,849c-13.14,23.25-32.46,38.59-55.89,44.34A83.4,83.4,0,0,1,702.58,895.69ZM649.15,609.05a61.53,61.53,0,0,0-14.68,1.75C618,614.85,604.18,626,594.55,643c-16.93,30-19,73.8-5.47,117.16h0c22.33,71.64,79.48,120.35,127.42,108.59,16.49-4,30.29-15.2,39.92-32.24,16.94-30,19-73.8,5.47-117.17C741.81,654.94,693.53,609.05,649.15,609.05Z"/><g class="cls-16"><path class="cls-11" d="M991.24,249.51s218.59-64.64,381.06,13.5l.51.25a212.25,212.25,0,0,1,84.14,73.1c27.72,41.38,40.66,73.94,50.92,103,31.18,88.51,29,135.82,29,135.82,34.65-64.51,44.76-127.59,19.53-201.58q-3.77-10.92-8.54-22.23-1.1-2.6-2.28-5.14s0-.07-.06-.1a520.05,520.05,0,0,0-32-54.36c-41.65-61.87-112.11-137-213.25-148.08C1111.16,123,980.58,242.84,991.24,249.51Z"/></g><g class="cls-16"><ellipse class="cls-11" cx="906.1" cy="521.88" rx="68.89" ry="79.13" transform="translate(-31.99 59.97) rotate(-3.73)"/></g><g class="cls-16"><ellipse class="cls-11" cx="916.66" cy="665.26" rx="32.69" ry="28.43" transform="translate(225.96 1562.9) rotate(-88.39)"/></g></g></g></svg>