<svg id="Layer_1" data-name="Layer 1" xmlns="http://www.w3.org/2000/svg" xmlns:xlink="http://www.w3.org/1999/xlink" viewBox="0 0 4000 4000"><defs><style>.cls-1{mask:url(#mask);filter:url(#luminosity-noclip-2);}.cls-2{mix-blend-mode:multiply;fill:url(#linear-gradient);}.cls-3{opacity:0.2;}.cls-4{fill:#371a45;}.cls-5{opacity:0.7;}.cls-6{fill:#ffd243;}.cls-7{fill:#fcac38;}.cls-8{opacity:0.6;}.cls-9{fill:#fff;}.cls-10{opacity:0.25;}.cls-11{opacity:0.35;}.cls-12{opacity:0.5;}.cls-13{fill:#111a28;}.cls-14{mask:url(#mask-2);}.cls-15{fill:url(#linear-gradient-2);}.cls-16{fill:#c0becc;}.cls-17{fill:#db2c2c;}.cls-18{fill:#22a7f0;}.cls-19{filter:url(#luminosity-noclip);}</style><filter id="luminosity-noclip" x="1234.63" y="-10192" width="1539.46" height="32766" filterUnits="userSpaceOnUse" color-interpolation-filters="sRGB"><feFlood flood-color="#fff" result="bg"/><feBlend in="SourceGraphic" in2="bg"/></filter><mask id="mask" x="1234.63" y="-10192" width="1539.46" height="32766" maskUnits="userSpaceOnUse"><g class="cls-19"/></mask><linearGradient id="linear-gradient" x1="2004.34" y1="1607.62" x2="1998.68" y2="2916.66" gradientUnits="userSpaceOnUse"><stop offset="0"/><stop offset="0.93" stop-color="#fff"/></linearGradient><filter id="luminosity-noclip-2" x="1234.63" y="1591.59" width="1539.46" height="737.13" filterUnits="userSpaceOnUse" color-interpolation-filters="sRGB"><feFlood flood-color="#fff" result="bg"/><feBlend in="SourceGraphic" in2="bg"/></filter><mask id="mask-2" x="1234.63" y="1591.59" width="1539.46" height="737.13" maskUnits="userSpaceOnUse"><g class="cls-1"><polygon class="cls-2" points="1460.86 2303.19 1234.63 1591.59 2774.09 1612.43 2617.73 2328.72 1460.86 2303.19"/></g></mask><linearGradient id="linear-gradient-2" x1="2004.34" y1="1607.62" x2="1998.68" y2="2916.66" gradientUnits="userSpaceOnUse"><stop offset="0" stop-color="#fff"/><stop offset="0.93" stop-color="#cdeeff"/></linearGradient></defs><g class="cls-3"><ellipse class="cls-4" cx="2044.78" cy="3537.67" rx="954.44" ry="172.27"/></g><g class="cls-5"><path class="cls-6" d="M3160.91,2064a1226.54,1226.54,0,0,1-271.72,402.23c-483.06,476.37-1260.76,470.94-1737.14-12.06-379.3-384.61-453.13-956.08-223.62-1413.46A1227.89,1227.89,0,0,1,1164.11,717c153.65-151.48,337.06-254.25,531.1-308.34,31.2-8.79,62.75-16.27,94.45-22.46a1232.82,1232.82,0,0,1,516.59,9.18c1.48.37,3,.68,4.47,1.05,10.38,2.44,20.71,5,31.06,7.77q30.79,8.13,61.11,17.85a1229.87,1229.87,0,0,1,498.34,307.07c7.67,7.82,15.27,15.63,22.69,23.65,4.51,4.78,8.92,9.66,13.27,14.52C3264.76,1128.36,3338.7,1636.44,3160.91,2064Z"/><path class="cls-7" d="M888.06,1130.21c-5.16,12.74-10.11,25.62-14.84,38.44A374.31,374.31,0,0,1,888.06,1130.21Z"/><path class="cls-7" d="M3107.68,2050.31q-20.22,44.05-44.25,86.71a1172.25,1172.25,0,0,1-198.92,259.86c-462,455.5-1205.6,450.36-1661.12-11.54C941.67,2120,832,1761.54,873.76,1418.15,1058.79,2069,2539.19,2803.56,3107.68,2050.31Z"/><path class="cls-7" d="M950.87,1119.32c-4.93,12.11-9.64,24.36-14.09,36.58A353.47,353.47,0,0,1,950.87,1119.32Z"/><path class="cls-7" d="M3107.68,2050.31q-20.22,44.05-44.25,86.71a1172.25,1172.25,0,0,1-198.92,259.86c-462,455.5-1205.6,450.36-1661.12-11.54C941.67,2120,832,1761.54,873.76,1418.15,1058.79,2069,2539.19,2803.56,3107.68,2050.31Z"/><path class="cls-7" d="M2705.84,1931c-74.29,134.2-64.3,263.37,22.3,288.52s223.77-57.26,298.06-191.46,57.56-269.35-29-294.5S2780.12,1796.84,2705.84,1931Z"/><path class="cls-4" d="M2669,1816.27c-79.26,92.37-111.29,223.37-79.74,340.48,10.89,38,31.07,73.09,65.09,96.76a7.71,7.71,0,0,1-6.31,13.86c-22.41-6.27-42.94-19.87-59.64-36.79-108.31-117.65-67.23-349,68.62-428.93,9.33-5.39,19.15,6.59,12,14.62Z"/><ellipse class="cls-7" cx="1698.03" cy="730.16" rx="104.13" ry="122.08" transform="translate(613.18 2226.67) rotate(-77.33)"/><ellipse class="cls-6" cx="1714.17" cy="771.35" rx="91.73" ry="74.01" transform="translate(-49.34 120.67) rotate(-3.97)"/><path class="cls-4" d="M1669.4,841.15c-113-18.4-158.66-157.21-51-218.72,87.75-49.82,224.34,12.82,215.82,121a98.4,98.4,0,0,1-24.92,56.43c-4.52,5.14-9.92,9.32-15,13.62a4.64,4.64,0,0,1-6.11-7c17.07-17.82,27.18-41,26.71-64.19-.5-72.88-84.1-118.93-150-104.13-75.94,15-105.93,93.88-52.81,152.67,15.64,17.7,36.78,30.88,60.12,39.13,6.61,2.27,4.07,12.26-2.78,11.17Z"/><path class="cls-4" d="M1870.29,703.62c35.49,81.06-16.56,167.83-97,194.57-76.69,26.87-168.46,5-223.11-55.44-36.42-38.68-54.36-97.58-36.4-148.39a4.65,4.65,0,0,1,9,2.33,140.45,140.45,0,0,0,7,70.39c34.2,89.12,145.6,131.84,233.61,102.28,38.26-11.94,72-39.09,88.8-75.77,11.81-27.05,14.3-56.7,7.18-86.3-1.62-6.71,8.12-10,10.91-3.67Z"/><path class="cls-4" d="M1301.22,907.39c106.28,45.71,156.18,165,135.44,275.53-22.39,127.18-125.15,234.94-249.92,266.08a302.36,302.36,0,0,1-81,9.11,265.7,265.7,0,0,1-79.52-14.7c-5.53-2-3.2-10.26,2.62-8.9,4.56.8,14.75,2.84,19.07,3.62,3.86.27,15.14,1.85,19.19,2.24l12.85.59a296.55,296.55,0,0,0,112.63-18.1c153.59-53.15,264.86-234.71,201.22-392.58-19-47.06-53.69-86.47-97.77-112.63-6.12-3.45-1.41-13.17,5.22-10.26Z"/><ellipse class="cls-7" cx="1142.89" cy="1167.18" rx="211.81" ry="175.55" transform="translate(-410.64 1672.19) rotate(-63.61)"/><path class="cls-6" d="M1086,1338.9c59.72,18.28,132.61-4.64,184-64,68.4-79.08,72.79-192.89,9.81-254.24a130.61,130.61,0,0,0-29.08-21.47c-49.25,5-99.72,31.12-139,76.41C1042.35,1155.92,1032.77,1268.78,1086,1338.9Z"/><path class="cls-4" d="M1002.66,1046.3c84.61-102.91,258.3-108.19,315.41,25.42,58.18,146.7-91,311.91-241.84,281.63-41.29-7.63-79.71-31.81-102.89-66.86a153.25,153.25,0,0,1-23.19-56.76,4.64,4.64,0,0,1,9-2.27,151.54,151.54,0,0,0,26.28,50.22c93.06,112.16,270.53,37.49,306.62-88.57,36.82-120.9-60.61-219.64-182.37-189.43-36.51,8.63-70.48,28.14-98.61,54.49-5.2,5-13-2.38-8.4-7.87Z"/><path class="cls-4" d="M2558.77,1522.33c-10.51,152.83-132.79,284.33-283,313-202.94,43.11-413.39-92.76-469.74-289.56-13.59-47.32-18.8-96.81-13.79-144.81a10.2,10.2,0,0,1,20.31.2c4.87,45.51,15.7,89.48,33.44,130.26,86.77,204.7,338.68,314.7,535.48,193.17,74.77-46,127.79-121.64,152.48-206.66,4.18-14.34,25.83-10.58,24.81,4.45Z"/><ellipse class="cls-7" cx="2177.9" cy="1430.02" rx="246.24" ry="270.08" transform="translate(724.34 3592.29) rotate(-89.38)"/><path class="cls-6" d="M1946.25,1432.9c-1.71,87.23,52,173.14,143.16,214.09,121.4,54.47,263.32,8.56,317-102.54a203.39,203.39,0,0,0,16.33-48.19c-23.39-62.79-73.18-117.64-142.73-148.91C2156.71,1292,2014.16,1330.65,1946.25,1432.9Z"/><path class="cls-4" d="M2280.34,1185.85c107.55,41.62,179.81,161.67,167.46,277.32-9.9,125.2-116.61,225.88-242.05,229.3-188.08,7.43-337.24-181.32-279.67-361.62,17.5-54,55-102.68,104.64-130.07a10.19,10.19,0,0,1,11.41,16.8,221.63,221.63,0,0,0-48.63,56.56c-78.14,129.63-1.58,302.86,141.65,342.64,116.84,33.75,235.31-40.12,252.86-160.93,15.19-97.21-35.52-195.09-119-247.47-12.9-8.18-2.89-28,11.31-22.53Z"/><path class="cls-6" d="M1316.16,1896.18c-64,12.93-119.81,42.83-160,90.13-72.75,85.7-73.59,203.72-21.48,323.11,34.19,78.33,92.85,155,172.84,218.42,201.92,160,463.27,174.67,583.75,32.75,44.83-52.81,63.84-119.86,59.63-191.49-7.1-120.86-132.4-193.37-259.18-293.84"/><path class="cls-4" d="M1160.59,1990c-66.59,82.5-61.3,196.76-23,290.76,77.25,189.65,264.52,332.31,466.63,361.48,88.09,11.58,184.28-1.45,255.14-58.43a248.34,248.34,0,0,0,28.41-26.27,4.64,4.64,0,0,1,7,6,259.35,259.35,0,0,1-27.38,29.67c-70.94,64.93-172.85,84.44-266.17,74.63C1363.55,2642,1134,2451.31,1091.67,2211.66c-13.81-80.13,3.32-168.61,60.15-229.07,5.1-5.21,13.18,1.6,8.77,7.44Z"/><ellipse class="cls-7" cx="1524.45" cy="2271.44" rx="257.53" ry="354.35" transform="translate(-1208.06 2400.81) rotate(-58.84)"/><ellipse class="cls-6" cx="1520.46" cy="2345.19" rx="189.4" ry="300.38" transform="translate(-1256.73 2659.76) rotate(-63.51)"/><path class="cls-4" d="M1681.1,2554.36c99.51-22.23,164.4-104.22,155.82-206.87-17.16-188.06-211.74-345.52-395-355.86-95.07-5.9-191.78,37-220,133.67-26.59,93.46,14.41,193.74,72.43,267.3a507.87,507.87,0,0,0,68.22,70.29,4.64,4.64,0,0,1-5.84,7.21c-13.26-10.14-26.38-20.56-38.66-32-37-34.32-68.9-74.54-92.1-119.54-48.52-91-55.15-214.36,23.86-291.11,76.89-76,197.08-78.77,294.76-48.18,129.77,41.56,243.91,138.9,295.13,266.16,25.27,63.8,32.4,138.55,3.48,202.65-21.51,47.87-62.39,85.18-110.8,104a252.08,252.08,0,0,1-49.07,13.49,5.76,5.76,0,0,1-2.28-11.28Z"/><path class="cls-6" d="M2665.41,1076.37c49.35-15.09,90.93-42.9,118.87-83.18,50.63-73,42.23-165.86-7.93-255.76-32.9-59-84.93-114.78-152.7-158.49-171.09-110.33-377.76-101.78-461.6,19.09-31.2,45-41,99.17-32.19,155.17,14.87,94.51,85.39,189.81,192.82,259.08"/><path class="cls-4" d="M2779.55,989.91c44.68-69.72,31.56-158.37-5.8-228.49-75.4-141.88-232.23-238.89-392.26-247-79.77-3.36-165.1,20.7-215.63,86.23a4.64,4.64,0,0,1-7.62-5.28c22.58-36.72,58-64.8,97.46-82,232.66-97.32,564.75,106.92,573.12,361.44,0,21.8-3,43.72-9.75,64.45A188.74,188.74,0,0,1,2789,996.47a5.76,5.76,0,0,1-9.46-6.56Z"/><ellipse class="cls-7" cx="2472.77" cy="797.25" rx="203.5" ry="280" transform="translate(686.08 2683.5) rotate(-64.42)"/><ellipse class="cls-6" cx="2470.24" cy="738.94" rx="149.66" ry="237.36" transform="translate(898.15 2782.63) rotate(-69.08)"/><path class="cls-4" d="M2328.2,587.93C2253,613.26,2208.87,682.16,2223.78,761,2255,925.5,2473,1052.79,2630.34,992.78c89.1-35.7,111-128.88,75.49-212.63-24.39-59.32-68.92-108.16-121-145a4.64,4.64,0,0,1,5-7.79c11.29,6.87,22.5,14,33.14,22,53.62,40.39,98.16,95.22,116.26,160.91,25.15,86.59-13,174.66-97.62,209.65-103.46,42.36-223.57,8.54-310.89-54.47-86.09-62.31-159.44-174-124.48-283.28a159.32,159.32,0,0,1,46.45-68.24c20.73-17.92,45.82-30.06,72.07-36.93,7.16-1.82,10.2,8.62,3.37,11Z"/><ellipse class="cls-6" cx="2834.81" cy="1959.32" rx="238.39" ry="124.27" transform="translate(-397.82 3153.13) rotate(-54.92)"/><path class="cls-4" d="M3070.42,1836.55c-18.85-76.18-85.48-103.92-157.35-81.7-108.52,34.42-194.69,138.23-229.92,244.3-19.32,60.39-25.61,141.6,27.69,185.69,34.91,28,84.4,26.24,125.83,12.34,67.37-22.64,122.9-70,167.34-125.24,3.61-4.58,10.7.53,7.52,5.42-26.83,40.72-60.8,77.33-101.32,106a299.06,299.06,0,0,1-66,35.35c-79.06,31.3-167.36,9.88-195.85-77.4-29.7-99,16-205.38,76.11-283.11,60-74.94,157.52-147.73,258.81-130.71,38.68,7.18,72.8,34.18,87.91,70.43a157.3,157.3,0,0,1,10.45,36.25,5.75,5.75,0,0,1-11.26,2.34Z"/><g class="cls-8"><path class="cls-9" d="M2881.47,1009c-35.92,144.21,162.75,329.29,144.61,726.15-7.69,168.34,173,26.53,133.34-305C3122.64,1122.75,2906.79,907.31,2881.47,1009Z"/></g><g class="cls-8"><path class="cls-9" d="M2588.59,714.06c20.84,51.51,119.76,96.24,193.47,184.19,78.8,94,165.2,58.55,58.17-123.33C2726.14,581,2549.3,617,2588.59,714.06Z"/></g><path class="cls-4" d="M2026.9,2841.05c-3,0-5.94,0-8.93,0C1684.25,2838.7,1371.39,2706.56,1137,2469c-376.16-381.44-467.57-959.21-227.45-1437.73A1248.8,1248.8,0,0,1,1149.3,702C1300.15,553.27,1487,444.82,1689.55,388.34c31.43-8.85,63.77-16.54,96.07-22.84,172.58-33.81,354.28-30.58,525.42,9.34l2.11.49c.88.2,1.77.4,2.65.62,11.14,2.63,21.51,5.22,31.43,7.88,20.29,5.35,41.19,11.46,62.08,18.13a1235.81,1235.81,0,0,1,392.88,210,1251.67,1251.67,0,0,1,114.06,102.33c7.53,7.69,15.48,15.84,23.15,24.14,4.49,4.75,9,9.77,13.51,14.77a1248.18,1248.18,0,0,1-48.92,1728C2668.49,2713.45,2357.28,2841.05,2026.9,2841.05Zm-.53-2456.55a1211.53,1211.53,0,0,0-232.66,22.41c-31.19,6.08-62.4,13.5-92.78,22.06-195.76,54.57-376.25,159.35-522,303a1206.62,1206.62,0,0,0-231.63,318.12c-232,462.35-143.69,1020.63,219.78,1389.19,467.44,473.93,1233.34,479.25,1707.3,11.84a1205.19,1205.19,0,0,0,267.06-395.31l19.48,8.1-19.48-8.1c178.77-429.88,92.47-930.11-219.86-1274.4-4.32-4.82-8.61-9.57-13-14.2-7.45-8.06-15.15-16-22.42-23.38A1208.51,1208.51,0,0,0,2776,645a1193.62,1193.62,0,0,0-379.53-202.9c-20.18-6.44-40.39-12.35-60-17.54-9.58-2.56-19.54-5.05-30.51-7.64l-2-.48c-.9-.2-1.79-.4-2.68-.63A1212.54,1212.54,0,0,0,2026.37,384.5Z"/></g><path class="cls-9" d="M2580.09,3109.88H1432.91L1452.55,2165c0-79.69,61.18-144.29,136.65-144.29h873.88c75.47,0,136.65,64.6,136.65,144.29Z"/><g class="cls-3"><path class="cls-4" d="M2580.09,3109.88H1432.91L1452.55,2165c0-79.69,61.18-144.29,136.65-144.29h873.88c75.47,0,136.65,64.6,136.65,144.29Z"/></g><path class="cls-4" d="M2580.09,3128.63H1432.91a18.75,18.75,0,0,1-18.74-19.14l19.64-944.88c0-89.51,69.7-162.65,155.39-162.65h873.88c85.69,0,155.4,73.14,155.4,163l-19.64,945.27A18.76,18.76,0,0,1,2580.09,3128.63Zm-1128-37.5H2561.73L2581,2164.61c0-68.83-52.89-125.15-117.9-125.15H1589.2c-65,0-117.9,56.32-117.9,125.54Z"/><path class="cls-9" d="M2906.16,2655.58a174.21,174.21,0,0,1-2.25,19.73c-9.7,57.1-47.34,112.08-100.92,141.47-83.91,46.08-191.91,25.18-254.68-51.19v216.85c143.11,32.53,249.19,115.88,285,210.66v.05q2.88,7.45,5.06,15c.47,1.59.94,3.18,1.36,4.78.94,3.47,1.78,7,2.53,10.5.33,1.64.66,3.33,1,5s.61,3.47.89,5.21c0,0,0,.14,0,.23.33,2.06.61,4.13.85,6.19.19,1.36.33,2.76.47,4.17.09.85.18,1.64.28,2.44s.14,1.69.18,2.48c.1,1.22.19,2.44.24,3.66.23,3.8.33,7.59.33,11.39,0,1.92,0,3.84-.14,5.81-.1,1.78-.19,3.57-.28,5.35-.15,2.06-.29,4.12-.52,6.14-.14,1.64-.33,3.23-.56,4.83-.1,1-.24,2-.42,3s-.29,1.92-.43,2.86-.28,2-.51,3c-.28,1.6-.56,3.14-.89,4.69-.42,2.06-.89,4.08-1.36,6.14s-1,4.08-1.6,6.09-1.17,4.08-1.78,6.15q-2.88,9.13-6.75,18.23-1.76,4-3.65,8c-1.6,3.37-3.33,6.7-5.16,10-2.2,4-4.5,7.92-7,11.86-1.79,2.81-3.61,5.57-5.58,8.34a246.68,246.68,0,0,1-16.13,20.86c-1.64,1.88-3.33,3.8-5.06,5.72-3.47,3.8-7.08,7.55-10.88,11.3s-7.68,7.4-11.81,11.06-8.44,7.31-12.89,10.92q-10.05,8-21.23,15.89c-1.88,1.31-3.8,2.58-5.72,3.89s-3.89,2.58-5.86,3.85-3.94,2.53-6,3.79a521.08,521.08,0,0,1-58.41,31.55c-2.39,1.13-4.78,2.2-7.22,3.28s-5.06,2.25-7.64,3.38-5.16,2.25-7.78,3.33c-3.47,1.5-7,3-10.6,4.35-6.42,2.54-12.94,5.07-19.64,7.51-1.83.7-3.7,1.35-5.53,2.06-1,.33-2.06.7-3.09,1.08-3.94,1.35-7.93,2.76-12,4.12-2.34.8-4.68,1.55-7.08,2.34-9.79,3.24-19.92,6.33-30.32,9.33-5.25,1.55-10.64,3.05-16.08,4.5q-12.24,3.32-25,6.47c-2.58.61-5.16,1.27-7.79,1.88-12.32,2.9-25,5.72-38.06,8.34q-14.62,3-29.86,5.72c-5.11.94-10.31,1.83-15.56,2.72-4.13.65-8.3,1.36-12.52,2q-25.17,4-52,7.36c-127.93,36.19-246.71,45.61-339.57-20.76-1.13.94-2.3,1.87-3.47,2.81-3.52,2.77-7.08,5.39-10.73,7.92-4.83,3.33-9.85,6.38-15,9.24-2.58,1.4-5.15,2.76-7.78,4.08-3.28,1.59-6.61,3.14-10,4.59-1.69.75-3.38,1.45-5.11,2.11-5.44,2.15-11,4.12-16.74,5.81l-3.42,1c-2.11.6-4.27,1.21-6.42,1.73-2.77.7-5.53,1.36-8.35,2-2.2.47-4.45.94-6.75,1.31-1.45.28-3,.56-4.45.8-4.78.79-9.66,1.45-14.58,2-1.83.24-3.65.38-5.53.57-1.17.09-2.39.23-3.61.28-1.45.14-2.91.23-4.41.33-2.62.18-5.29.32-8,.42-41.4,1.64-82.18-8.63-119.44-26.67-50-24.19-108-38.63-171.85-46.18-67.13-8-132.33-29-189.33-65.34-6.47-4.13-12.71-8.3-18.75-12.57-1.83-1.26-3.61-2.57-5.39-3.89-2.21-1.54-4.36-3.14-6.47-4.78s-4.13-3.14-6.14-4.73c-.85-.66-1.69-1.31-2.53-2-2.63-2.06-5.25-4.22-7.79-6.33-2.86-2.39-5.67-4.78-8.39-7.21-2.06-1.79-4.08-3.61-6-5.49s-3.94-3.66-5.86-5.58a1.87,1.87,0,0,1-.57-.51c-1.07-1-2.15-2-3.18-3.1-2.53-2.43-5-4.92-7.36-7.45a320.45,320.45,0,0,1-21.94-25.45c-1.64-2.07-3.23-4.13-4.74-6.19-.46-.61-.93-1.22-1.31-1.83-1.59-2.11-3.14-4.27-4.59-6.42a10.42,10.42,0,0,1-.85-1.27c-1.54-2.15-3-4.36-4.35-6.56a13.45,13.45,0,0,1-1.32-2c-1.5-2.29-2.9-4.59-4.26-6.93-1.69-2.77-3.24-5.53-4.78-8.3-1-1.83-2-3.66-3-5.53-1.32-2.53-2.63-5.06-3.85-7.6-2.62-5.34-5-10.73-7.12-16.07s-4.18-10.74-5.91-16.18-3.33-10.73-4.69-16.12a221.66,221.66,0,0,1-6.42-72.33c0-.66.09-1.31.14-2,.24-2.57.47-5.15.8-7.73.37-2.91.8-5.77,1.26-8.63s1-5.67,1.55-8.48,1.27-5.58,1.92-8.39,1.46-5.53,2.3-8.25,1.64-5.44,2.58-8.11v-.05c32.2-94.27,131.86-162.61,274.08-147.61V2773.38c-67.45,39.42-128,58-169.5,67.36a.2.2,0,0,1-.14,0c-48.8,11.07-91.55,20.21-144.24,6.71a223,223,0,0,1-33.94-11.63,242.9,242.9,0,0,1-55.17-33.14,1023.66,1023.66,0,0,0,73.13-101.34c16.59-26.21,33-54.94,48.75-86.16a1018.61,1018.61,0,0,0,65.67-165c92.2-198.66,252.1-306.52,463.13-345.66l578.4-36.52a968.26,968.26,0,0,1,399.43,290.21q20.89,25.46,43,49.79c47.11,52.26,73.54,102,88.64,136.87C2895.94,2586.34,2908.32,2615.83,2906.16,2655.58Z"/><g class="cls-3"><path class="cls-4" d="M2549.83,2806.66l-7.67-79.25a55.25,55.25,0,0,0-55-49.93h-69.06v-34.56a101.94,101.94,0,0,0-101.94-102H1749.46a101.94,101.94,0,0,0-101.94,102v34.56h-62.15a55.25,55.25,0,0,0-55,49.93l-7.67,79.25a28.74,28.74,0,0,0,28.61,31.52h96.19V2928A101.94,101.94,0,0,0,1749.46,3030h566.71A101.94,101.94,0,0,0,2418.11,2928v-89.86h103.1A28.75,28.75,0,0,0,2549.83,2806.66Z"/></g><path class="cls-4" d="M1542,2434l7.31,345a23.49,23.49,0,1,1-46.82-2.19L1542,2434Z"/><path class="cls-4" d="M2487.49,2402.87c50.3,115.63,79,240.69,89.36,366.7a23.48,23.48,0,1,1-46.8,3.95c5-124.66-7.07-250.24-42.56-370.65Z"/><g class="cls-3"><path class="cls-4" d="M1516.36,2636.41V2774.7a458.81,458.81,0,0,1-169.5,67.36.2.2,0,0,1-.14,0,438,438,0,0,1-86.4,6.71,442.45,442.45,0,0,1-91.78-11.63,242.45,242.45,0,0,1-55.17-33.14,1022.73,1022.73,0,0,0,73.12-101.35,439.43,439.43,0,0,0,73.83,7.83C1388.76,2713.24,1481.53,2659.19,1516.36,2636.41Z"/><path class="cls-4" d="M2343.75,3436.46c-127.92,36.19-246.68,45.61-339.55-20.74-36.75,30.58-82.21,44.93-134.27,47-41.39,1.63-82.17-8.62-119.44-26.68-49.93-24.19-107.92-38.61-171.86-46.18-67.12-7.95-132.29-29-189.3-65.32-79.83-50.82-127.11-113.35-147.07-175.85-33.51,98.13,6.08,224.39,147.07,314.15,57,36.3,122.18,57.37,189.3,65.32,63.94,7.57,121.93,22,171.86,46.18,37.27,18.05,78,28.31,119.44,26.68,52.06-2,97.52-16.4,134.27-47,92.87,66.34,211.63,56.92,339.55,20.73,423.45-52.86,541.6-230.9,485.11-380.35C2786.68,3301.24,2639.94,3399.48,2343.75,3436.46Z"/><path class="cls-4" d="M2899.48,2676.63c-9.7,57.1-47.35,112.08-100.92,141.47-83.91,46.08-191.91,25.17-254.68-51.19V2649.35c14,14.2,96.89,95.67,217.64,81.28,56.86-6.8,101.68-32.44,133.88-58.55C2896.76,2673.58,2898.12,2675.13,2899.48,2676.63Z"/></g><path class="cls-4" d="M2169.19,3621.88c-64.26,0-117.71-14.82-164.26-44.72-36.36,26.18-81.45,40.49-134.26,42.57-42.62,1.72-85.79-7.93-128.35-28.54-45.59-22.09-99.85-36.62-165.89-44.44-73.5-8.7-139.84-31.62-197.17-68.13C1244,3392.51,1183.45,3260,1225,3141.11c36.86-105.55,142.64-167,272.63-160.33V2806.44a611.11,611.11,0,0,1-146.76,53.95c-46.66,10.56-94.9,21.47-153,6.58-34.54-8.86-66.88-25.09-96.11-48.23a18.76,18.76,0,0,1-2.87-26.58,997.64,997.64,0,0,0,184.08-346,19,19,0,0,1,1-2.51c90.23-194.4,250.61-314.26,476.72-356.23a16.91,16.91,0,0,1,2.24-.27l578.42-36.53a18.46,18.46,0,0,1,8,1.24,987.65,987.65,0,0,1,407.17,295.82c12.33,15.09,26.2,31.16,42.4,49.11,38.85,43.08,69.79,90.85,91.94,142,17.95,41.44,32.13,74.16,29.68,119.14-3.92,71.82-48.22,141.16-112.86,176.64-79.09,43.42-175.77,32.8-244.95-22.82V2969c180,46,304.57,172.7,298,305.45-2.59,52.13-27,128.59-128.31,196.84-89.06,60-218.52,101-384.81,121.88C2279.69,3612.26,2220.93,3621.88,2169.19,3621.88Zm-165-86.61a18.76,18.76,0,0,1,10.9,3.49c75.92,54.24,175.71,59.76,323.55,17.95a17.55,17.55,0,0,1,2.78-.56c294.64-36.79,474.72-142.79,481.71-283.55,5.88-118.09-113.32-231.87-283.42-270.54a18.74,18.74,0,0,1-14.59-18.29V2766.92a18.75,18.75,0,0,1,33.23-11.91c57,69.3,154.19,88.92,231.17,46.66,52.72-29,90.28-87.54,93.46-145.81,1.88-34.46-8.36-60-26.64-102.18-20.53-47.39-49.26-91.72-85.38-131.77-16.61-18.41-30.87-34.94-43.59-50.51a950.2,950.2,0,0,0-387.89-283.09l-573.15,36.19c-215.4,40.26-361.93,149.45-447.87,333.74a1035,1035,0,0,1-178.19,342.24,216.29,216.29,0,0,0,66.87,30.16c49.34,12.66,89.23,3.63,135.42-6.82a578.77,578.77,0,0,0,164.32-65.32,18.75,18.75,0,0,1,28.22,16.19v226.36a18.75,18.75,0,0,1-20.72,18.65c-121.48-12.83-221.16,39.71-254,133.78-35.58,101.88,19,217.09,139,293.51,52.54,33.45,113.58,54.48,181.44,62.52,70.25,8.32,128.42,24,177.83,47.93,36.95,17.89,74.13,26.22,110.52,24.82,50.68-2,90.91-16,123-42.66A18.71,18.71,0,0,1,2004.2,3535.27Z"/><path class="cls-4" d="M2543.88,3073.63c-33.85,15.53-69.72,22.81-105.8,30a1064.42,1064.42,0,0,0-103.45,27.1c-68.33,21.42-133.79,49.79-198.72,80.3-6.34,3.66-14.35,3.39-19.82-1.11-53.44-38-155.09-86.87-208.79-30.68-46.63,57.85-5.12,161.39,24,221.53,24.71,49.6,55,96.87,88,142.25a18.73,18.73,0,1,1-30.29,22c-33.86-46.62-65.23-95.41-91.27-147.67-31.66-66.55-61.89-143.14-42.46-218.35,27.53-93.38,129-95.85,204.29-63.22,27.95,11.46,53.85,26.51,78.07,43.49l-19.81-1.1a733.82,733.82,0,0,1,98.55-52.42c82-36.74,242-84.41,327.46-52.13Z"/><path class="cls-4" d="M1501.35,3118.56c37-19.08,82-6.85,113.55,17.92l-8.66-5,268.47,68.92c23.68,6.79,15,41.74-9.32,36.32l-268.48-68.92a17,17,0,0,1-8.67-5c-18.65-29.45-51-49.38-86.89-44.29Z"/><path class="cls-4" d="M2140.79,3196.69c-14.2,59.64-7.69,123.23,13.75,181.07a352.11,352.11,0,0,1-34.26-88.5,315.38,315.38,0,0,1-7.3-96.77,14.11,14.11,0,1,1,27.81,4.2Z"/><path class="cls-4" d="M1516.34,3535.49a18.76,18.76,0,0,1-18.4-15.24c-26.71-139.83,2.25-264.69,88.54-381.72a18.75,18.75,0,0,1,30.18,22.26c-79.74,108.14-106.52,223.43-81.88,352.43a18.76,18.76,0,0,1-14.9,21.94A19.52,19.52,0,0,1,1516.34,3535.49Z"/><path class="cls-4" d="M2526.5,3558.48h-.44a18.75,18.75,0,0,1-18.32-19.17c4.54-198.55-41.55-339.14-140.92-429.82a18.75,18.75,0,1,1,25.28-27.7c107.85,98.41,157.94,248.35,153.13,458.38A18.75,18.75,0,0,1,2526.5,3558.48Z"/><g class="cls-3"><path class="cls-4" d="M1516.5,3073.58c736.41-8.84,936.29-2.18,936.63,8.21.17,5.25-50.75,8.44-135.83,34A1033.58,1033.58,0,0,0,2139,3188.07c-66.09-64.7-152.15-77.05-212-45.26-23.85,12.68-43.32,36.71-57,75.77-63.62-4-163.59-19.86-265.66-80.55A568.57,568.57,0,0,1,1516.5,3073.58Z"/></g><path class="cls-4" d="M2600.37,2422.47c66.44,13.72,142.29,54.35,177.31,114.35,4.08,5.23-1.46,12.1-7.17,8.3-54.74-41.36-117.94-68.61-182.86-87.37-24.52-8.91-12.59-42.9,12.72-35.28Z"/><g class="cls-3"><path class="cls-4" d="M2502.8,2145.86c-124.26,126.75-299,205.65-492.53,205.65-173.46,0-331.88-63.45-452.31-167.91,64.08-35.41,136.24-59.88,215.61-74.6L2352,2072.51C2404.82,2093.71,2455.57,2117.61,2502.8,2145.86Z"/></g><path class="cls-9" d="M2673.89,1360h13.58a131.72,131.72,0,0,1,131.72,131.72v159.74a131.72,131.72,0,0,1-131.72,131.72h-13.58a12.56,12.56,0,0,1-12.56-12.56V1372.54A12.56,12.56,0,0,1,2673.89,1360Z" transform="translate(6.28 -10.9) rotate(0.23)"/><path class="cls-4" d="M2687.17,1786.88h-.55l-13.59-.06a16.47,16.47,0,0,1-16.42-16.55l1.58-398.06a16.51,16.51,0,0,1,16.49-16.42h.07l13.58.06A135.65,135.65,0,0,1,2823.44,1492l-.64,159.74a135.65,135.65,0,0,1-135.63,135.11Zm-12.49-423.22a8.62,8.62,0,0,0-8.62,8.58l-1.59,398.06a8.62,8.62,0,0,0,8.59,8.66l13.58,0h.53a127.78,127.78,0,0,0,127.77-127.27l.63-159.74a127.78,127.78,0,0,0-127.27-128.29l-13.59,0Z"/><g class="cls-10"><path class="cls-4" d="M2819.17,1576.08l-.24,63.28a144.18,144.18,0,0,1-144.71,143.56,13.76,13.76,0,0,1-13.69-13.82l.39-105.19a13.75,13.75,0,0,0,12.47,8.2h9.38A144,144,0,0,0,2819.17,1576.08Z"/></g><path class="cls-4" d="M2687.17,1804.83h-.63l-13.58,0a34.45,34.45,0,0,1-34.31-34.59l1.59-398a34.45,34.45,0,0,1,34.44-34.31h.14l13.58.06a153.59,153.59,0,0,1,153,154.22l-.63,159.73a153.59,153.59,0,0,1-153.59,153Zm-4.7-43.79h4.7A109.83,109.83,0,0,0,2797,1651.66l.63-159.73a109.8,109.8,0,0,0-109.38-110.26l-4.25,0Z"/><path class="cls-9" d="M1237.42,1354.27H1251A131.72,131.72,0,0,1,1382.72,1486v159.74A131.72,131.72,0,0,1,1251,1777.44h-13.58a12.56,12.56,0,0,1-12.56-12.56V1366.82a12.56,12.56,0,0,1,12.56-12.56Z" transform="translate(2601.34 3136.89) rotate(-179.77)"/><path class="cls-4" d="M1369.38,1781.63h-.07l-13.58-.05a135.65,135.65,0,0,1-135.11-136.19l.63-159.73a135.66,135.66,0,0,1,136.19-135.11l13.58,0a16.49,16.49,0,0,1,16.43,16.56l-1.59,398a16.47,16.47,0,0,1-16.48,16.42Zm-12.49-423.22a127.79,127.79,0,0,0-127.77,127.28l-.64,159.73a127.78,127.78,0,0,0,127.28,128.29l13.58.06h0a8.62,8.62,0,0,0,8.62-8.59l1.58-398a8.63,8.63,0,0,0-8.58-8.66l-13.59-.06Z"/><g class="cls-10"><path class="cls-4" d="M1382.4,1654.24,1382,1764a13.76,13.76,0,0,1-13.82,13.69A144.06,144.06,0,0,1,1224.61,1633l.23-56.86a144.14,144.14,0,0,0,131,85.17l14.44.06A13.89,13.89,0,0,0,1382.4,1654.24Z"/></g><path class="cls-4" d="M1369.38,1799.59h-.15l-13.57,0c-84.7-.34-153.33-69.52-153-154.22l.64-159.74a153.6,153.6,0,0,1,153.58-153h.63l13.59.06a34.43,34.43,0,0,1,34.3,34.58l-1.58,398a34.45,34.45,0,0,1-34.44,34.31Zm0-43.78Zm-12.52-379.44a109.82,109.82,0,0,0-109.81,109.39l-.64,159.73a109.84,109.84,0,0,0,109.39,110.27h4.25l1.51-379.38-4.25,0Z"/><circle class="cls-9" cx="2022.11" cy="1568.71" r="674.3"/><path class="cls-4" d="M2023.18,2247q-25.85,0-51.87-1.95c-180.65-13.57-345.21-96.67-463.35-234s-175.74-312.45-162.17-493.11,96.67-345.21,234-463.35,312.44-175.75,493.11-162.17,345.21,96.67,463.35,234,175.74,312.46,162.17,493.11-96.67,345.21-234,463.36C2340.28,2189.66,2185.24,2247,2023.18,2247Zm-2.12-1348.67c-160.2,0-313.42,56.65-436.13,162.21-135.75,116.78-217.89,279.42-231.3,458s43.51,351.65,160.29,487.4,279.42,217.88,458,231.29,351.65-43.51,487.39-160.29,217.89-279.42,231.3-458-43.51-351.65-160.29-487.39-279.42-217.89-458-231.3Q2046.61,898.3,2021.06,898.31Z"/><g class="cls-11"><path class="cls-4" d="M2695.06,1525.66a669.45,669.45,0,0,1-.54,93.57c-27.94,371.34-351.58,649.76-722.93,621.91s-649.76-351.58-621.91-722.93c.8-10.68,1.85-21.35,3.15-31.84,20.75,330.73,282.67,603.83,622.45,629.36C2336,2142.79,2651.55,1881,2695.06,1525.66Z"/></g><path class="cls-4" d="M2023.2,2264.94q-26.52,0-53.23-2c-185.44-13.93-354.35-99.23-475.63-240.21S1314,1702,1327.88,1516.57c28.75-382.8,363.62-670.82,746.37-642.09s670.84,363.58,642.09,746.38c-13.93,185.43-99.24,354.34-240.21,475.62C2348.71,2206.1,2189.56,2264.94,2023.2,2264.94Zm-1.56-1348.66c-337.75,0-624.4,261.37-650.1,603.57-13.06,173.77,42.34,342.23,156,474.33s271.94,212,445.71,225.11,342.23-42.35,474.34-156,212.05-271.94,225.1-445.71c27-358.73-243-672.5-601.71-699.44C2054.44,916.9,2038,916.28,2021.64,916.28Z"/><path class="cls-4" d="M2691.06,1636.33c-7.89,131.71-58,251.43-137.16,348.22-59.37,72.57-292.68,191.81-571.1,177.63-258.16-13.14-484.68-164.78-534.95-243.92-67.06-105.56-102.49-230.4-94.59-362.12,20.89-348.55,329-475.09,698.45-452.95S2712,1287.77,2691.06,1636.33Z"/><g class="cls-12"><ellipse class="cls-9" cx="2476.5" cy="1575.95" rx="119.33" ry="86.47" transform="translate(358.85 3608.73) rotate(-76.3)"/></g><g class="cls-12"><ellipse class="cls-9" cx="2356.63" cy="1805.56" rx="54.77" ry="47" transform="translate(-190.81 3330.14) rotate(-68.36)"/></g><g class="cls-11"><path class="cls-13" d="M2580.45,1303.36c77.1,82.93,119,193,110.61,333-7.9,131.74-58,251.45-137.14,348.24-59.39,72.57-292.72,191.8-571.14,177.65-98.31-5-192-30.07-273.15-63.63,342.61,10.09,626.89-136.38,700.52-226.38,100.51-122.85,164.07-274.82,174.06-441.95A682.87,682.87,0,0,0,2580.45,1303.36Z"/></g><path class="cls-4" d="M2651.79,1349.09a21.72,21.72,0,0,1-15-5.95l-2-1.92-1.57-2.46c-103-164.47-315.31-268-582.38-284-268.49-16.11-491.57,64.26-612,220.45l-1.42,1.67a21.89,21.89,0,0,1-32.86-28.9c129.47-167.53,365.89-253.87,648.86-236.92,281.14,16.85,505.84,127.66,616.59,304a21.91,21.91,0,0,1-18.26,34Z"/><g class="cls-12"><path class="cls-9" d="M1491.05,1772.5s-87.34-350.32,106.18-476.23,460.1-109.39,452.84-92.66c0,0-299.44,53.76-428.91,280.18C1521.32,1658.38,1491.05,1772.5,1491.05,1772.5Z"/></g><g class="cls-14"><polygon class="cls-15" points="1460.86 2303.19 1234.63 1591.59 2774.09 1612.43 2617.73 2328.72 1460.86 2303.19"/></g><rect class="cls-16" x="1508.11" y="2976.73" width="1065.04" height="101.26" rx="26.95"/><g class="cls-3"><path class="cls-4" d="M2568.87,2988.34v12.95c0,14.56-11.07,26.47-24.6,26.47H1528.43a24.2,24.2,0,0,1-20.32-11.61v35.37c0,14.56,11.07,26.47,24.59,26.47H2548.55c13.53,0,24.6-11.91,24.6-26.47V3003.2A27.71,27.71,0,0,0,2568.87,2988.34Z"/></g><path class="cls-16" d="M2644.92,2351.81l-52.14,556.62a73.29,73.29,0,0,1-21,45.19l-23.27,23.11H1532.7l-23.26-23.11a73.19,73.19,0,0,1-21-45.19l-52.14-556.62a84.52,84.52,0,0,1,2.82-32.12c7.4-24.35,24.59-37.7,48-44,1.07-.27,2.1-.55,3.17-.78a107.84,107.84,0,0,1,23.7-2.39H2567.2a104.06,104.06,0,0,1,26.86,3.17c23.44,6.31,40.63,19.66,48,44a9.74,9.74,0,0,1,.3,1.15A84.73,84.73,0,0,1,2644.92,2351.81Z"/><g class="cls-5"><path class="cls-9" d="M1523.45,2947.55l-52.14-556.61a84.76,84.76,0,0,1,2.82-32.13c7.4-24.35,24.6-37.7,48-44,1.07-.28,2.09-.55,3.16-.78a107.91,107.91,0,0,1,23.7-2.4H2602.17a103.66,103.66,0,0,1,26.87,3.18,89.81,89.81,0,0,1,13,4.64c-7.44-24.19-24.59-37.48-48-43.77a104.06,104.06,0,0,0-26.86-3.17H1514.06a107.84,107.84,0,0,0-23.7,2.39c-1.07.23-2.1.51-3.17.78-23.44,6.31-40.63,19.66-48,44a84.52,84.52,0,0,0-2.82,32.12l52.14,556.62a73.19,73.19,0,0,0,21,45.19l22.67,22.52A75.29,75.29,0,0,1,1523.45,2947.55Z"/></g><path class="cls-4" d="M2546.19,3096.74H1535.06a45.75,45.75,0,0,1-45.7-45.7v-47.35a45.75,45.75,0,0,1,45.7-45.71H2546.19a45.76,45.76,0,0,1,45.71,45.71V3051A45.76,45.76,0,0,1,2546.19,3096.74ZM1535.06,2995.48a8.32,8.32,0,0,0-8.2,8.21V3051a8.31,8.31,0,0,0,8.2,8.2H2546.19a8.31,8.31,0,0,0,8.21-8.2v-47.35a8.32,8.32,0,0,0-8.21-8.21Z"/><path class="cls-4" d="M2548.55,2995.48H1532.7a18.74,18.74,0,0,1-13.21-5.45l-23.27-23.1a92.06,92.06,0,0,1-26.4-56.74l-52.13-556.65a101.87,101.87,0,0,1,3.54-39.29c8.85-29.11,29.42-48.17,61.13-56.66a121,121,0,0,1,31.68-3.83H2567.21a121.1,121.1,0,0,1,31.69,3.83c31.7,8.49,52.27,27.55,61.12,56.66a101.87,101.87,0,0,1,3.55,39.29l-52.13,556.65a92,92,0,0,1-26.41,56.73L2561.76,2990A18.74,18.74,0,0,1,2548.55,2995.48ZM1540.43,2958H2540.82l17.78-17.66a54.46,54.46,0,0,0,15.5-33.63l52.13-556.64a64.51,64.51,0,0,0-2.09-24.89c-5-16.56-15.81-26.23-34.94-31.35a84.52,84.52,0,0,0-22-2.55H1514a84.39,84.39,0,0,0-22,2.55c-19.14,5.12-29.91,14.79-35,31.35a64.71,64.71,0,0,0-2.08,24.89l52.12,556.64a54.51,54.51,0,0,0,15.5,33.63Z"/><g class="cls-3"><path class="cls-4" d="M2644.92,2351.81l-52.14,556.62a73.29,73.29,0,0,1-21,45.19l-23.27,23.11H1532.7l-23.26-23.11a73.19,73.19,0,0,1-21-45.19l-52.14-556.62a84.52,84.52,0,0,1,2.82-32.12c7.4-24.35,24.59-37.7,48-44,1.07-.27,2.1-.55,3.17-.78l19.63,2.9c-30.11,5.71-36.74,48.61-35.63,81.52a2582.9,2582.9,0,0,0,25,282.56c8.13,56.29,19.25,114.93,53,158.75,48.63,63.1,130.84,79.76,206.08,92.38,154.49,25.91,318.18,50.72,462.63-13.58,76.73-34.2,142.6-91.6,202-154,105.74-110.79,198-249.75,219.21-404.63A84.73,84.73,0,0,1,2644.92,2351.81Z"/></g><path class="cls-4" d="M2670.16,2858.4a18.76,18.76,0,0,1-15.9-28.66c60-96.43,80.93-222.11,53.31-320.19a18.75,18.75,0,1,1,36.09-10.17c30.81,109.42,8.76,243.6-57.56,350.17A18.74,18.74,0,0,1,2670.16,2858.4Z"/><path class="cls-4" d="M1461.3,2720.44a18.69,18.69,0,0,1-13.06-5.29c-62.14-60.33-133.44-81-218-63.09a18.75,18.75,0,0,1-7.76-36.69c96.34-20.36,181.08,4.15,251.87,72.87a18.75,18.75,0,0,1-13.07,32.2Z"/><ellipse class="cls-16" cx="1230.56" cy="2949.35" rx="202.35" ry="180.47"/><g class="cls-3"><ellipse cx="1230.56" cy="2904.04" rx="202.35" ry="180.47"/></g><path class="cls-9" d="M2011.45,2825.08c-11.33,0-20-8.89-20.67-21.12-.78-14-1.46-28.13-2.14-42.23l-.44-9.18h-.58c-9.1,0-14.56-5.53-18.3-10.34-2.26-2.94-4.52-5.88-6.81-8.88-2,1.52-4,3-6,4.45a20.69,20.69,0,0,1-12.13,4,21.35,21.35,0,0,1-11.11-3.21,19.84,19.84,0,0,1-9.26-22.75,26.33,26.33,0,0,1,7.47-11.75c1.73-1.58,3.5-3,5.28-4.4-1.1-1.44-2.2-2.87-3.28-4.31l-.61-.83c-.18-.26-.37-.53-.58-.78-6.66-7.05-9.23-15-7.59-22.76l-47.32-15.32c-7.76-2.62-13.26-8-15.18-14.81s0-14.13,5.08-20.26c12.33-14.8,29.3-33.58,51.13-47.33,19.93-12.51,39.28-18.59,59.18-18.59,1.45,0,2.92,0,4.39.1a73.9,73.9,0,0,1,23.77,4.83l3.21-3.05c6.5-6.19,13.22-12.59,20.5-18.42,24.37-19.63,53.19-30.64,88.09-33.65,5.77-.5,11.65-.74,17.47-.74a220.57,220.57,0,0,1,55.06,7.2,57.82,57.82,0,0,1,7.43,2.57c.93.38,1.87.75,2.81,1.09A10.48,10.48,0,0,1,2205,2518c.53.67,2.32,3.06,2.73,3.57a10.43,10.43,0,0,1,2.07,4.52c2.3,11.9,1,23.1-.23,33.94l-.18,1.6c-3.47,30.58-12.78,58.24-27.69,82.23a149.09,149.09,0,0,1-45.4,46.82c-4,2.62-8.11,5.14-12.19,7.64-2.44,1.51-4.89,3-7.33,4.56,2.59,24.46-5,47.16-23.09,69.36-12.24,14.93-28.09,27.56-48.49,38.65-7.24,3.93-14.83,7.76-23.23,11.72a24.4,24.4,0,0,1-10.51,2.48Zm19.91-55a132,132,0,0,0,23.32-17.81c9.38-9.24,15.23-18.12,18.35-27.86l-43.15,16.77Q2030.63,2755.49,2031.36,2770.11Zm10.76-145.28a20.45,20.45,0,0,1,13.06,4.72,20.89,20.89,0,0,1,7.87,16.59,21.78,21.78,0,0,1-8.89,16.94q-17.55,13.5-35.28,27l-22.13,16.94c41-12.57,71.77-25.2,99.11-40.63,13.52-7.63,23.86-15,32.53-23.2,10.52-10,19.13-22.62,26.23-38.45-1.8-2.3-3.6-4.66-5.39-7l-3.43-4.47c-11.57-15.17-23.1-30.26-34.74-45.33a128.94,128.94,0,0,0-28.6,7.58c-14.06,5.45-27.15,14.48-42.47,29.28a303.79,303.79,0,0,0-37.83,43.76c-9.79,13.79-19.37,28.12-28.63,42l-1.59,2.36,18.72-14.34q18.94-14.53,37.93-29A22.4,22.4,0,0,1,2042.12,2624.83Zm-95.95,8.82q13.57-18.45,26.91-36.63a48.29,48.29,0,0,0-8.64,1.53c-17.43,4.79-31.57,15-44,26.71Zm221-75.17c.41-3.08.73-6.11,1-9.13l-8.74-1.06Z"/><path class="cls-4" d="M2199,2560.44c1.22-10.7,2.63-21.51.54-32.38-.94-1.19-1.8-2.39-2.73-3.58-3.1-1.11-6.11-2.57-9.33-3.38a204.17,204.17,0,0,0-69-6.17c-30.45,2.63-58.41,12-82.44,31.39-8.7,7-16.64,14.87-24.76,22.52-2.18,2.07-3.86,2.94-6.92,1.54a62.34,62.34,0,0,0-22.82-5.13c-21.11-.95-40,5.87-57.52,16.9-19,12-34.4,28-48.69,45.2-6.09,7.27-3.72,15.38,5.34,18.44l17.15,5.56q20.54,6.66,41,13.26a4.15,4.15,0,0,1-.06.85,4.34,4.34,0,0,1-.41.84c-5.7,7.33-4.32,14.11,1.69,20.47a28.4,28.4,0,0,1,1.77,2.32c3.15,4.13,6.36,8.32,9.7,12.63-4.55,3.51-9,6.5-13,10.11a16.18,16.18,0,0,0-4.52,7.07c-1.28,4.23.91,8.54,4.67,10.76a10.1,10.1,0,0,0,11.8-.37c4.7-3.35,9.2-7,14-10.64,4.52,6,8.81,11.6,13.1,17.16,4.94,6.35,8.33,7.43,16,5.32,1.4-.44,2.77-.73,4.41-1.13.12,1.63.24,2.94.31,4.17,1,19.76,1.87,39.54,3,59.24.5,9.34,7.88,13.75,16.31,9.74,7.62-3.59,15.23-7.4,22.7-11.44,17.21-9.36,32.87-20.83,45.37-36.08,15.64-19.19,24.29-40.61,20.25-65.93a3.9,3.9,0,0,1,1.52-3.22c7.68-4.95,15.56-9.58,23.24-14.56a138.07,138.07,0,0,0,42.23-43.59C2187.66,2614.46,2195.85,2588.26,2199,2560.44Zm-248.89,85.48-49.06-16c17.41-18.49,35.82-34.64,60.62-41.46,10.72-2.95,23.11-2.7,30.41.27C1978.2,2607.7,1964.29,2626.65,1950.11,2645.92Zm133,81.28c-4,12.82-11.7,23.26-21.15,32.58-11.74,11.44-25.42,20-40.2,27.76q-1.33-27.24-2.7-53.34l66.18-25.71C2086.1,2714.54,2085.06,2721,2083.12,2727.2Zm82.54-121.62c-7.19,17-16.63,32.44-30.09,45.24-10.39,9.82-22.17,17.7-34.57,24.7-33.64,19-69.7,32.09-106.56,43.16-1.8.52-2.9.42-4.09-1.23-2.57-3.66-5.45-7.18-8.18-10.79a5,5,0,0,1-.5-1.18c.94-.76,1.95-1.51,3-2.29,21-16.15,42.17-32.24,63.21-48.43,6.08-4.61,6.35-12.55.72-17.13-3.94-3.21-9.11-3.17-13.65.24q-19,14.49-37.91,29c-9.42,7.2-18.76,14.38-28.55,21.88-3.36-4.38-6.6-8.39-9.52-12.6-.5-.76,0-2.66.69-3.6,11.21-16.73,22.33-33.55,34-50a313.75,313.75,0,0,1,39.11-45.24c13.53-13.08,28.2-24.62,45.94-31.5a136.39,136.39,0,0,1,35.21-8.73c1.1-.16,2.7.94,3.48,2,12.32,15.93,24.5,31.88,36.7,47.87,3.67,4.75,7.28,9.61,11.06,14.31A3.79,3.79,0,0,1,2165.66,2605.58Zm7.31-22.28c-12.18-15.94-24.06-31.45-36-47,0-.36.12-.77.18-1.16,13.86,1.66,27.75,3.36,41.79,5.05A190.83,190.83,0,0,1,2173,2583.3Z"/><path class="cls-9" d="M2165.13,2601.23c-3.78-4.7-7.39-9.56-11.06-14.31-12.2-16-24.38-31.94-36.7-47.87-.78-1-2.38-2.12-3.48-2a136.39,136.39,0,0,0-35.21,8.73c-17.74,6.88-32.41,18.42-45.94,31.5a313.75,313.75,0,0,0-39.11,45.24c-11.67,16.45-22.79,33.27-34,50-.68.94-1.19,2.84-.69,3.6,2.92,4.21,6.16,8.22,9.52,12.6,9.79-7.5,19.13-14.68,28.55-21.88q18.95-14.53,37.91-29c4.54-3.41,9.71-3.45,13.65-.24,5.63,4.58,5.36,12.52-.72,17.13-21,16.19-42.18,32.28-63.21,48.43-1,.78-2,1.53-3,2.29a5,5,0,0,0,.5,1.18c2.73,3.61,5.61,7.13,8.18,10.79,1.19,1.65,2.29,1.75,4.09,1.23,36.86-11.07,72.92-24.17,106.56-43.16,12.4-7,24.18-14.88,34.57-24.7,13.46-12.8,22.9-28.26,30.09-45.24A3.79,3.79,0,0,0,2165.13,2601.23Zm-36.92,24.35a36.25,36.25,0,1,1-44.08-57.57c15.64-12,38.41-8.94,50.6,6.91S2143.85,2613.75,2128.21,2625.58Z"/><path class="cls-17" d="M2173,2583.29c-12.19-15.92-24.07-31.45-36-47,0-.37.12-.76.17-1.16,13.86,1.68,27.76,3.37,41.81,5.05A190.26,190.26,0,0,1,2173,2583.29Z"/><path class="cls-17" d="M1992.1,2588.76c-13.91,18.93-27.82,37.89-42,57.18-15.84-5.18-32.24-10.51-49.07-16,17.42-18.52,35.82-34.67,60.63-41.47C1972.39,2585.52,1984.76,2585.78,1992.1,2588.76Z"/><path class="cls-17" d="M2062,2759.78c-11.74,11.45-25.4,20-40.19,27.76q-1.35-27.23-2.69-53.34c22.35-8.68,44.2-17.16,66.2-25.73.84,6.07-.22,12.47-2.15,18.74C2079.11,2740,2071.43,2750.47,2062,2759.78Z"/><path class="cls-4" d="M2134.73,2574.92c-12.19-15.85-35-19-50.6-6.91a36.25,36.25,0,1,0,44.08,57.57C2143.85,2613.75,2146.79,2590.67,2134.73,2574.92Zm-17.36,37.28a19.07,19.07,0,1,1,3.91-26.92A19.2,19.2,0,0,1,2117.37,2612.2Z"/><path class="cls-18" d="M2117.36,2612.2a19.07,19.07,0,1,1,3.91-26.93A19.19,19.19,0,0,1,2117.36,2612.2Z"/><path class="cls-4" d="M1230.56,3148.58c-121.91,0-221.1-89.37-221.1-199.23s99.19-199.22,221.1-199.22,221.1,89.37,221.1,199.22S1352.48,3148.58,1230.56,3148.58Zm0-360.95c-101.24,0-183.6,72.55-183.6,161.72s82.36,161.73,183.6,161.73,183.6-72.55,183.6-161.73S1331.8,2787.63,1230.56,2787.63Z"/><path class="cls-4" d="M1063.25,3069.6a18.75,18.75,0,0,1-12.46-32.77c118.16-104.88,252.82-104.65,360.22.64a18.75,18.75,0,1,1-26.25,26.77c-93.13-91.28-205.78-91.06-309.07.64A18.66,18.66,0,0,1,1063.25,3069.6Z"/><path class="cls-4" d="M1230.57,3148.58h-.46a18.75,18.75,0,0,1-18.29-19.2l3.73-153.1a18.75,18.75,0,1,1,37.49.91l-3.73,153.1A18.76,18.76,0,0,1,1230.57,3148.58Z"/><path class="cls-9" d="M1082.31,2763c107.92-99.29,288.29-52.59,350.6,66.83l25.88,67.3c8,20.94-3.93,45-25.9,49.52-1.19.24-2.39.45-3.62.61-22.66,3-44.11-11-52.71-32.14-12.16-29.9-26.86-55.29-47.19-70.64a20,20,0,0,0-26.18,2c-26.78,26.91-26.16,66-7.79,113,5.33,26.64-2.13,46.41-14.92,57.43-18.37,15.82-47,9-57.7-12.74-21.24-43.25-4.75-92.39-38.06-119.71-1-.81-2-1.57-3-2.27-15.49-10.6-36.49-8.31-50.56,4.12a247.06,247.06,0,0,0-22.46,22.58c-24.16,27.66-26.54,42.94-42,47.32-20.14,5.69-61.19-8.7-59.31-33.53,2.83-37.21,14.53-69.67,32.27-103.19C1050.73,2798.52,1064.82,2779.07,1082.31,2763Z"/><g class="cls-3"><path d="M1293.14,2953.4a45.08,45.08,0,0,1-8.15,8.6c-19.68,15.82-50.38,9-61.82-12.74-22.75-43.25-5.09-92.39-40.78-119.71-1.06-.81-2.14-1.57-3.24-2.27-16.6-10.6-39.09-8.31-54.16,4.12a255.55,255.55,0,0,0-24.07,22.59c-25.89,27.65-28.44,42.94-45,47.31-11.84,3.12-30.42.19-44.45-7.19a221.76,221.76,0,0,0-4.09,28.6c-1.88,24.83,39.17,39.22,59.31,33.53,15.49-4.38,17.87-19.66,42-47.32a247.06,247.06,0,0,1,22.46-22.58c14.07-12.43,35.06-14.72,50.55-4.12,1,.7,2,1.46,3,2.27,33.31,27.32,16.82,76.46,38.06,119.71,10.68,21.76,39.33,28.56,57.7,12.74,12.79-11,20.25-30.79,14.92-57.43C1294.6,2957.45,1293.87,2955.43,1293.14,2953.4Z"/><path d="M1455.83,2889.41a38.86,38.86,0,0,1-7.54,2.29c-1.27.24-2.56.45-3.88.61a54.82,54.82,0,0,1-56.47-32.14c-13-29.9-28.78-55.29-50.56-70.64a22.56,22.56,0,0,0-28.05,2c-20.57,19.29-26,44.89-20.19,75.14a69.74,69.74,0,0,1,14-20.2,20,20,0,0,1,26.18-2c20.33,15.35,35,40.74,47.19,70.64,8.6,21.17,30,35.12,52.71,32.14,1.23-.16,2.43-.37,3.62-.61,22-4.54,33.95-28.58,25.9-49.52Z"/></g><path class="cls-4" d="M1257.11,3044.36a57.19,57.19,0,0,1-51.17-31.89c-10.41-21.22-12.91-42.94-15.12-62.11-2.88-25.07-5.29-41-18-51.37-.57-.47-1.15-.9-1.74-1.31-8-5.46-19.56-4.33-27.53,2.71a229.69,229.69,0,0,0-20.76,20.87,252.62,252.62,0,0,0-19.15,25.2c-8.56,12.51-16,23.32-31.91,27.83-19.73,5.58-47.9-1.09-65.51-15.49-12.41-10.15-18.65-23.47-17.59-37.51,2.8-36.78,13.4-70.87,34.4-110.54,12.81-24.2,28.48-44.92,46.57-61.56h0c52.17-48,124.79-68.07,199.24-55,78.84,13.78,146.39,61.26,180.69,127a17.69,17.69,0,0,1,.87,1.94l25.88,67.3a56.49,56.49,0,0,1-3.17,47.44,54,54,0,0,1-36.44,27.17c-1.61.34-3.24.6-4.9.83-30.68,4.06-60.51-13.92-72.59-43.66-12.52-30.78-26-51.3-41.11-62.74a1.29,1.29,0,0,0-1.6.27c-19.3,19.39-20.48,49.81-3.61,93a19.14,19.14,0,0,1,.92,3.14c6.19,31-1.49,58.44-21.08,75.32A54.29,54.29,0,0,1,1257.11,3044.36Zm-97.62-187.7a57.8,57.8,0,0,1,32.8,10.09q2.2,1.52,4.32,3.24c25.08,20.58,28.47,50.06,31.47,76.08,2,16.95,4,34.47,11.53,49.87a19.43,19.43,0,0,0,13.67,10.52,17.27,17.27,0,0,0,15-3.73c8.78-7.56,12-21.37,9.06-38-21.82-56.9-17.59-101.12,12.6-131.45a38.88,38.88,0,0,1,50.77-3.74c21,15.85,37.91,40.81,53.26,78.55,5.66,13.94,19.19,22.39,32.89,20.61.73-.1,1.51-.23,2.28-.38a16.49,16.49,0,0,0,11.11-8.43,19.07,19.07,0,0,0,1.08-16l-25.48-66.26c-28.69-54.18-87.37-94.94-153.41-106.49-62.87-11-123.89,5.67-167.4,45.7-15,13.75-28,31.08-38.82,51.5-18.46,34.89-27.76,64.45-30.14,95.85-.16,2.05,2.7,4.62,3.93,5.63,9.15,7.48,25.2,10.21,31.58,8.43,2.53-.72,4.54-3.25,11.16-12.92a285.06,285.06,0,0,1,21.85-28.69,267.64,267.64,0,0,1,24.16-24.3A61.67,61.67,0,0,1,1159.49,2856.66Z"/></svg>