<svg id="Layer_1" data-name="Layer 1" xmlns="http://www.w3.org/2000/svg" xmlns:xlink="http://www.w3.org/1999/xlink" viewBox="0 0 4000 4000"><defs><style>.cls-1{mask:url(#mask);filter:url(#luminosity-noclip-3);}.cls-2,.cls-4{mix-blend-mode:multiply;}.cls-2,.cls-7{fill:url(#linear-gradient);}.cls-3{mask:url(#mask-2);filter:url(#luminosity-noclip-4);}.cls-4,.cls-9{fill:url(#linear-gradient-2);}.cls-5{fill:#5e189b;}.cls-6{mask:url(#mask-3);}.cls-7,.cls-9{opacity:0.3;}.cls-8{mask:url(#mask-4);}.cls-10{fill:#371a45;}.cls-11{fill:#0af;}.cls-12{fill:#0689ea;}.cls-13{fill:#0077e2;}.cls-14{fill:#69dcff;}.cls-15{fill:#ff9100;}.cls-16{fill:#caf8ff;}.cls-17{fill:#ffec90;}.cls-18{opacity:0.41;}.cls-19{fill:#fff;}.cls-20{fill:#e6f7ff;}.cls-21{opacity:0.7;}.cls-22{fill:#e8e8e8;}.cls-23{fill:#e5e5e5;}.cls-24{fill:#371944;}.cls-25{fill:#220f2d;}.cls-26{opacity:0.5;}.cls-27{fill:#22a7f0;}.cls-28{fill:#1675db;}.cls-29{fill:#0098ff;}.cls-30{fill:#acf962;}.cls-31{fill:#8de233;}.cls-32{fill:none;}.cls-33{fill:#ffd243;}.cls-34{fill:#fcac38;}.cls-35{fill:#ff8a3b;}.cls-36{opacity:0.6;}.cls-37{filter:url(#luminosity-noclip-2);}.cls-38{filter:url(#luminosity-noclip);}</style><filter id="luminosity-noclip" x="672.57" y="-10192" width="2817.57" height="32766" filterUnits="userSpaceOnUse" color-interpolation-filters="sRGB"><feFlood flood-color="#fff" result="bg"/><feBlend in="SourceGraphic" in2="bg"/></filter><mask id="mask" x="672.57" y="-10192" width="2817.57" height="32766" maskUnits="userSpaceOnUse"><g class="cls-38"/></mask><linearGradient id="linear-gradient" x1="2151.2" y1="1371.27" x2="1996.77" y2="3230.05" gradientUnits="userSpaceOnUse"><stop offset="0" stop-color="#fff"/><stop offset="1"/></linearGradient><filter id="luminosity-noclip-2" x="489.53" y="-10192" width="3051.59" height="32766" filterUnits="userSpaceOnUse" color-interpolation-filters="sRGB"><feFlood flood-color="#fff" result="bg"/><feBlend in="SourceGraphic" in2="bg"/></filter><mask id="mask-2" x="489.53" y="-10192" width="3051.59" height="32766" maskUnits="userSpaceOnUse"><g class="cls-37"/></mask><linearGradient id="linear-gradient-2" x1="1823.94" y1="1814.59" x2="2435.91" y2="4445.49" xlink:href="#linear-gradient"/><filter id="luminosity-noclip-3" x="672.57" y="1391.47" width="2817.57" height="1238.24" filterUnits="userSpaceOnUse" color-interpolation-filters="sRGB"><feFlood flood-color="#fff" result="bg"/><feBlend in="SourceGraphic" in2="bg"/></filter><mask id="mask-3" x="672.57" y="1391.47" width="2817.57" height="1238.24" maskUnits="userSpaceOnUse"><g class="cls-1"><path class="cls-2" d="M3490.14,1850.77c-248.14,37.9-632.25,127.54-980.52,338.13-573.8,347-728.87,467.69-859.77,435.92-129.14-31.34-54.64-237.65-243.41-203.34-133.11,24.21-403.1,160.49-733.87,151.6,26.65-49.6,48.2-99.59,57.23-153.27,5-29.44,7.21-61,7.86-93.95C1165.39,2249.94,1346.42,1841.2,1571,1786c289.78-71.19-21.73,373.62,371.68,149.92,292.26-166.13,634.62-412.21,925.77-544.48,80.37,37.25,147.18,93.53,198.54,158.65C3173.75,1685.41,3285,1684,3408.16,1772.53,3439.89,1795.33,3467.68,1820.65,3490.14,1850.77Z"/></g></mask><filter id="luminosity-noclip-4" x="489.53" y="2181.16" width="3051.59" height="1318.76" filterUnits="userSpaceOnUse" color-interpolation-filters="sRGB"><feFlood flood-color="#fff" result="bg"/><feBlend in="SourceGraphic" in2="bg"/></filter><mask id="mask-4" x="489.53" y="2181.16" width="3051.59" height="1318.76" maskUnits="userSpaceOnUse"><g class="cls-3"><path class="cls-4" d="M3538.49,2196.18c-15.83,86.63-31.31,164.07-13.31,270C2780,2565.88,2136.64,3273.55,1923.92,3313c-287.72,53.38-388.07-138.41-576.85-104.09-105.42,19.18-369.31,165.48-581.81,291-188-121.29-260.3-283.79-273.08-411.79a521.27,521.27,0,0,1-2.51-64.29c347.92,123.84,641.59-42.24,912-108.63,289.78-71.18,420.68,19.07,667.6-40.68,411.71-99.59,1114.62-596.75,1471.81-693.37Q3539.86,2188.59,3538.49,2196.18Z"/></g></mask></defs><path class="cls-5" d="M492.2,3088.13c21.93,219.74,219.18,541.26,876.7,581.29s748.36-271.27,1081.25-276.35,426.57,199.39,787.75,160.09c400.37-43.57,492-548.57,345.6-897-92.06-219.1-68.92-329-45-460,42.76-234.18-19.95-344.38-130.32-423.65-123.2-88.48-234.43-87.11-341.16-222.42S2786.85,1317.59,2563.87,1350s-80.16,123.64-470.48-9.44c-535.21-182.49-654.65-7.71-835.08,98.58-207.09,122-391.15,139.73-487.85,362.55-80,184.4-10.64,440-40.66,618.13C693.93,2632.61,462.18,2787.33,492.2,3088.13Z"/><g class="cls-6"><path class="cls-7" d="M3490.14,1850.77c-248.14,37.9-632.25,127.54-980.52,338.13-573.8,347-728.87,467.69-859.77,435.92-129.14-31.34-54.64-237.65-243.41-203.34-133.11,24.21-403.1,160.49-733.87,151.6,26.65-49.6,48.2-99.59,57.23-153.27,5-29.44,7.21-61,7.86-93.95C1165.39,2249.94,1346.42,1841.2,1571,1786c289.78-71.19-21.73,373.62,371.68,149.92,292.26-166.13,634.62-412.21,925.77-544.48,80.37,37.25,147.18,93.53,198.54,158.65C3173.75,1685.41,3285,1684,3408.16,1772.53,3439.89,1795.33,3467.68,1820.65,3490.14,1850.77Z"/></g><g class="cls-8"><path class="cls-9" d="M3538.49,2196.18c-15.83,86.63-31.31,164.07-13.31,270C2780,2565.88,2136.64,3273.55,1923.92,3313c-287.72,53.38-388.07-138.41-576.85-104.09-105.42,19.18-369.31,165.48-581.81,291-188-121.29-260.3-283.79-273.08-411.79a521.27,521.27,0,0,1-2.51-64.29c347.92,123.84,641.59-42.24,912-108.63,289.78-71.18,420.68,19.07,667.6-40.68,411.71-99.59,1114.62-596.75,1471.81-693.37Q3539.86,2188.59,3538.49,2196.18Z"/></g><path class="cls-10" d="M1480.44,3688.75q-53.46,0-112.51-3.53c-297.56-18.11-528.34-94.46-685.93-226.93-160.3-134.76-197.6-288.78-205.56-368.59-18.61-186.39,61.84-320.52,132.81-438.86,46.88-78.15,91.15-152,104.92-233.66,11.62-68.9,8-149.87,4.15-235.59-6-133.48-12.18-271.51,37.6-386.21,72.43-166.9,192.24-222.55,331-287,52.56-24.41,106.91-49.66,163.36-82.91,26-15.33,50.35-31.83,76.1-49.3,151.41-102.7,308-208.89,772.15-50.62,254.89,86.91,275.25,76.55,324.44,51.53,26.29-13.37,62.3-31.68,138.63-42.77,202.67-29.44,391.41,45.63,517.88,206,64,81.16,130.22,111.58,200.32,143.77,44.16,20.28,89.82,41.26,137.64,75.6,134.4,96.53,175.27,227.92,136.66,439.35l-1.6,8.71c-22.83,124.7-42.55,232.4,45.63,442.27,97.09,231.09,88.06,512.31-22.48,699.8-75.23,127.6-191.42,203.37-336,219.1-197.13,21.48-318.15-29-435.16-77.85-99.53-41.52-202.46-84.28-354.07-82.15-129.06,2-220.9,51.49-327.23,108.81C1980.29,3594.74,1805.94,3688.75,1480.44,3688.75ZM1697.83,1277.1c-169,0-262.3,63.31-353.67,125.29-25,17-50.91,34.53-77.81,50.38-57.77,34-112.84,59.61-166.09,84.34C961.91,1601.37,852.63,1652.13,785,1808c-46.87,108-40.85,242.3-35,372.19,3.92,87.46,7.62,170-4.55,242.27-14.77,87.58-60.54,163.89-109,244.68-71.79,119.71-146,243.48-128.46,419.44,7.49,75,42.71,219.94,194.44,347.49,152.26,128,376.82,201.87,667.45,219.56,390.44,23.75,575.21-75.87,738.25-163.77,110-59.3,205-110.52,341.8-112.61,158.06-2.48,264.24,41.82,366.76,84.6,118.53,49.45,230.46,96.16,419.52,75.59,134.25-14.61,242.18-85.05,312.13-203.69,105.71-179.31,114-449.15,20.57-671.46-91.83-218.57-71.33-330.57-47.58-460.24l1.59-8.7c45.25-247.77-32.85-342.49-124-407.94-45.34-32.56-89.59-52.89-132.38-72.54-73.66-33.84-143.23-65.79-212-152.94-119.27-151.22-297.3-222-488.42-194.25-71.18,10.34-103.14,26.6-128.83,39.66-57.63,29.32-81.5,41.44-349.05-49.79C1922.17,1298.9,1797,1277.1,1697.83,1277.1Z"/><path class="cls-11" d="M2050.94,2405a260.49,260.49,0,0,1-10.79,30.49c-54.24-1.25-148.68-18.7-253.72-48.72S1592,2321.6,1545.29,2294a259.64,259.64,0,0,1,7-31.59c.14-.5.28-1,.43-1.47q2-6.95,4.4-13.67A259.48,259.48,0,0,1,1570,2216.9c.19-.39.39-.79.6-1.18a256.11,256.11,0,0,1,25.57-40.43A259.49,259.49,0,0,1,2059.4,2305a256.59,256.59,0,0,1,.85,48.05c-.09,1.31-.2,2.61-.32,3.91a258.1,258.1,0,0,1-5.09,32.61q-1.34,6-3,12.1C2051.56,2402.75,2051.26,2403.85,2050.94,2405Z"/><path class="cls-12" d="M1983.42,2518.64a259.53,259.53,0,0,1-433.95-124c58.86,28.93,131.63,56.79,211.92,79.73S1918.16,2512.09,1983.42,2518.64Z"/><path class="cls-12" d="M2040.15,2435.43c-54.23-1.24-148.68-18.69-253.71-48.72S1592,2321.59,1545.28,2294a263.94,263.94,0,0,1,7-31.59l.42-1.47q2-6.94,4.41-13.66a261,261,0,0,1,12.9-30.38c.2-.39.4-.79.61-1.17a259.56,259.56,0,0,1,259.47-139.85c-88.43,5.45-251.17,119.79-124.54,250,76.36,78.52,299.85,98.9,337.47,102C2040.67,2434.9,2043,2428.73,2040.15,2435.43Z"/><path class="cls-13" d="M1761.39,2474.33c80.28,23,156.77,37.76,222,44.31a258.48,258.48,0,0,1-24,20.81c-51.24-3.85-126-18.35-207.64-41.68-78.17-22.35-146.74-48.25-192.39-71.32a259.45,259.45,0,0,1-9.94-31.85C1608.33,2423.53,1681.1,2451.39,1761.39,2474.33Z"/><path class="cls-13" d="M2051.85,2401.65c-.29,1.1-.59,2.2-.91,3.3a260.49,260.49,0,0,1-10.79,30.49c-54.24-1.25-148.68-18.7-253.72-48.72S1592,2321.6,1545.29,2294a259.64,259.64,0,0,1,7-31.59c.14-.5.28-1,.43-1.47,42.3,28.51,132.3,65.43,239.38,96C1903.35,2388.79,2002.61,2405.06,2051.85,2401.65Z"/><path class="cls-13" d="M1590.17,2181.65l12-12.73c25.78,24.25,115.29,61.63,217.68,90.89,122.15,34.92,211.64,45,236.91,36.85l5.34,16.64c-33.43,10.74-132.72-4-247.05-36.68C1708.56,2246.19,1618.2,2208,1590.17,2181.65Z"/><path class="cls-13" d="M1657.08,2122.73l9.22-14.85c34.14,21.2,102,47.71,177.17,69.19,78.73,22.5,152,35.85,191.3,34.84l.45,17.47c-40.92,1.06-116.23-12.54-196.55-35.5C1762.08,2172,1692.5,2144.73,1657.08,2122.73Z"/><path class="cls-13" d="M1564.89,2222.36l11.37-13.28c30.82,26.38,123.57,64.69,230.81,95.34,112.48,32.16,215.75,48.65,251.13,40.11l4.11,17c-38.62,9.31-143.13-6.88-260-40.3C1691.12,2289.47,1598,2250.66,1564.89,2222.36Z"/><path class="cls-13" d="M1575.19,2468.21l2.57-3.52,1-4.28.89.2.74.54c28.39,20.76,93.38,47.5,165.58,68.14,72.6,20.75,139.94,32.13,175.77,29.71l.59,8.72c-36.76,2.49-105.26-9-178.76-30C1669.3,2516.47,1604.8,2489.85,1575.19,2468.21Z"/><path class="cls-10" d="M1801.33,2608.79a275,275,0,0,1-267.26-210.46l-8-32.86,30.36,14.93c60.14,29.55,132.51,56.77,209.28,78.71s152.59,37.08,219.26,43.77l33.65,3.38-24.13,23.68A276,276,0,0,1,1801.33,2608.79ZM1575.6,2424.33a243.5,243.5,0,0,0,369.94,105.73c-59.11-8.11-123.53-21.93-188.51-40.5S1630.07,2448.68,1575.6,2424.33Z"/><path class="cls-14" d="M2182.31,2480.71c-10.44,36.53-88.66,49-198.89,37.93-65.26-6.55-141.75-21.36-222-44.31s-153.06-50.8-211.92-79.73c-99.43-48.85-159.24-100.77-148.8-137.3,9.49-33.18,74.85-46.5,169.31-40.4a259.48,259.48,0,0,0-12.91,30.37c-27.14-.48-43.84,3.23-46.24,11.62-2.44,8.54,10.29,20.82,34.46,35.11,46.7,27.6,136.11,62.7,241.14,92.72s199.48,47.47,253.72,48.72c28.06.64,45.36-3.06,47.8-11.6,2.39-8.37-9.83-20.36-33.11-34.29a258.1,258.1,0,0,0,5.09-32.61C2143.35,2401.69,2191.79,2447.54,2182.31,2480.71Z"/><path class="cls-14" d="M1558.59,2243c-.51,1.41-1,2.82-1.52,4.25-27.14-.5-43.85,3.2-46.24,11.59-2.45,8.56,10.3,20.84,34.46,35.12,31,18.3,80.76,39.92,141.44,61.16a37.83,37.83,0,0,0-9.56,11.2c-23.22-8.43-45.25-17.17-65.66-26-88.74-38.5-125.12-70.13-121.38-83.24C1492.31,2249.44,1511.48,2241.8,1558.59,2243Z"/><path class="cls-15" d="M1561.54,2229l-.12,3.54c-23.81-1.14-43.35-.66-59.12,1C1516.33,2229.64,1536,2228.16,1561.54,2229Z"/><path class="cls-15" d="M1561.31,2236.05l.11-3.52c.42,0,.87,0,1.32.07Z"/><path class="cls-14" d="M1502.3,2233.51c-14.65,4-23.14,10.54-25.77,19.71-2.54,8.94,1.3,18.46,9.58,28.17,21.61,25.32,73.39,51.82,119.76,71.92,21,9.11,43.66,18.07,67.54,26.75-.26,7.35,2,15.2,6.48,23.46-35.44-12.65-68.74-26.18-98.84-40.15-107.28-49.82-139.32-88.49-134.19-106.47C1449.71,2246.92,1466.21,2237.22,1502.3,2233.51Z"/><path class="cls-14" d="M1756.45,2472.91c-78.34-22.65-149.32-50-207-78.31-99.42-48.85-159.24-100.78-148.79-137.32,9.48-33.16,74.85-46.47,169.31-40.38q-2.18,4.33-4.19,8.79l.38-7.1c-55.28-3-123.24.53-132.9,34.42-3.75,13.11,2.11,26.93,13.79,40.61,27.49,32.19,87,63.55,128,82.58,36,16.71,76.44,32.76,119.53,47.47C1708.87,2439.39,1729.89,2456.06,1756.45,2472.91Z"/><path class="cls-16" d="M1673.41,2380.06c-23.88-8.68-46.56-17.64-67.54-26.75-46.37-20.1-98.15-46.6-119.76-71.92-8.28-9.71-12.12-19.23-9.58-28.17,2.63-9.17,11.12-15.74,25.77-19.71,15.77-1.64,35.31-2.12,59.12-1l-.11,3.52c-.93,2.32-1.83,4.64-2.72,7-47.11-1.24-66.28,6.4-68.46,14.06-3.74,13.11,32.64,44.74,121.38,83.24,20.41,8.85,42.44,17.59,65.66,26a30.12,30.12,0,0,0-2.61,6.31A30.46,30.46,0,0,0,1673.41,2380.06Z"/><path class="cls-17" d="M1561.42,2232.53c-23.81-1.14-43.35-.66-59.12,1,14-3.87,33.72-5.35,59.24-4.52Z"/><path class="cls-17" d="M1561.31,2236.05l-.23,7.06c-.83,0-1.67-.06-2.49-.07C1559.48,2240.69,1560.38,2238.37,1561.31,2236.05Z"/><path class="cls-16" d="M1957.37,2453.8c-54.1-8.07-115.92-21.79-178.76-39.76-36.54-10.45-72-21.91-105.2-34a30.46,30.46,0,0,1,1.15-7.39,30.12,30.12,0,0,1,2.61-6.31c33.14,12.11,68.71,23.62,105.33,34.09,62.26,17.78,123.46,31.39,176.94,39.34,95.69,14.2,143.29,6.56,147-6.51,2.23-7.83-10.47-24.88-52.85-49.35l5.32-9.21,1.77-3.06c22.21,12.83,38.18,24.53,48.07,35.24,10.2,11.08,13.9,21.11,11.3,30.26C2110.84,2469.49,2026.49,2464.05,1957.37,2453.8Z"/><path class="cls-16" d="M1694.62,2423.67c-43.09-14.71-83.57-30.76-119.53-47.47-41-19-100.54-50.39-128-82.58-11.68-13.68-17.54-27.5-13.79-40.61,9.66-33.89,77.62-37.42,132.9-34.42l-.38,7.1c-1.06,2.3-2.08,4.59-3,6.91-.45,0-.9-.07-1.32-.07l.12-3.54c-25.52-.83-45.21.65-59.24,4.52-36.09,3.71-52.59,13.41-55.44,23.39-5.13,18,26.91,56.65,134.19,106.47,30.1,14,63.4,27.5,98.84,40.15A105.93,105.93,0,0,0,1694.62,2423.67Z"/><path class="cls-14" d="M1561.54,2229l-.12,3.54c-23.81-1.14-43.35-.66-59.12,1C1516.33,2229.64,1536,2228.16,1561.54,2229Z"/><path class="cls-17" d="M1565.79,2225.69l-.39,7c-.9,0-1.79-.09-2.66-.12C1563.71,2230.28,1564.73,2228,1565.79,2225.69Z"/><path class="cls-16" d="M1971.39,2489.48c-61.4-7.51-131.32-22.19-202.21-42.46-25.47-7.26-50.42-15.09-74.56-23.35a105.93,105.93,0,0,1-14.73-20.15c29.79,10.67,61.1,20.71,93.2,29.9,70.17,20.07,139.34,34.59,200,42,117.42,14.39,165.06-1.51,170.21-19.47,2.84-10-6-26.89-34.54-49.07-12.57-9.76-29-20.53-49.84-32.18l-3.49-1.94,6.82-12.39c48.52,26.65,104.33,65.58,94.66,99.45C2144.35,2503.87,2035.3,2497.31,1971.39,2489.48Z"/><path class="cls-10" d="M2055,2538.33c-26.19,0-51.9-1.8-73.2-3.94-68.52-6.88-146.25-22.38-224.8-44.83s-152.75-50.38-214.55-80.75c-66-32.43-174.2-95.82-157-155.87,14.81-51.79,109.09-56.8,185.57-51.84l23.87,1.54L1584.14,2224a243.76,243.76,0,0,0-12.12,28.52l-3.79,10.79-11.44-.2c-12.94-.25-21,.59-25.94,1.49,3.82,3.51,10.59,8.73,22.51,15.77,47,27.78,138,62.7,237.43,91.12s195.14,46.86,249.73,48.12c13.81.31,22.32-.53,27.41-1.48-3.69-3.37-10.11-8.34-21.23-15l-9.81-5.87,2.48-11.15a244.22,244.22,0,0,0,4.78-30.62l2.18-23.83,21.1,11.32c67.53,36.22,144.92,90.28,130.12,142.07h0C2185.38,2527.64,2118.82,2538.33,2055,2538.33Zm-527-307c-71.14,0-107.55,14.2-112.16,30.34-6,21,35.43,67.09,140.55,118.75,60.14,29.55,132.51,56.77,209.28,78.71s152.59,37.08,219.26,43.77c116.55,11.71,176.08-5.54,182.08-26.52,4.93-17.28-22.26-52-92.61-93.13,18,12.15,33.75,27.35,28.71,45-6.17,21.6-37.14,23.69-63.39,23.08-58-1.33-154.31-19.77-257.72-49.33s-194.93-64.81-244.85-94.31c-22.62-13.38-47.8-31.51-41.63-53.09,5-17.63,26.47-22.21,48.18-23Q1535.65,2231.31,1528.07,2231.31Zm654.24,249.4h0Z"/><g class="cls-18"><path class="cls-19" d="M2039.62,2436.16q-9.46-.21-20.51-1.09,3.84-10.16,6.89-20.78c.31-1.1.61-2.2.91-3.3q1.66-6,3-12.1a260.09,260.09,0,0,0,5.1-32.6c.12-1.31.22-2.61.31-3.91a255,255,0,0,0-.85-48.06,259.45,259.45,0,0,0-331.7-219.91,259.29,259.29,0,0,1,357,259.34c-.08,1.31-.2,2.61-.32,3.92a257.79,257.79,0,0,1-5.09,32.59q-1.35,6.07-3,12.1c-.29,1.11-.59,2.21-.92,3.31A259.31,259.31,0,0,1,2039.62,2436.16Z"/></g><path class="cls-10" d="M2050.53,2451.52l-10.75-.25c-58-1.33-154.3-19.77-257.71-49.33s-194.93-64.81-244.85-94.31l-9.24-5.46,1.65-10.6a277.67,277.67,0,0,1,7.37-33.51c1.55-5.42,3.28-10.82,5.12-16.06a279.24,279.24,0,0,1,13.69-32.2c59.25-117.82,194.42-177,321.41-140.69s210.47,157.95,198.5,289.27a277.16,277.16,0,0,1-5.41,34.6c-1.2,5.42-2.59,10.92-4.14,16.32h0a276.64,276.64,0,0,1-11.43,32.34Zm-487.68-165.76c49.13,26.81,134.83,59.12,227.94,85.73s182.93,44.48,238.8,47.68c2.27-6.09,4.32-12.3,6.11-18.57,1.37-4.78,2.6-9.65,3.66-14.46a243.3,243.3,0,0,0,4.79-30.64c10.59-116.18-63.28-223.83-175.65-255.94s-232,20.22-284.36,124.45a242.9,242.9,0,0,0-12.12,28.51c-1.64,4.65-3.17,9.44-4.54,14.24C1565.69,2273,1564.14,2279.38,1562.85,2285.76ZM2050.94,2405h0Z"/><path class="cls-20" d="M1554,2781.86V1892H1328.26l-134.65,318.48-182.77,432.23L952,2781.86V2970h395.08v238.92H1554V2970h97.86V2781.86Zm-206.92,0h-207l39.45-99.76,105.66-267,58.1-146.88h3.76Z"/><polygon class="cls-19" points="1553.99 1911.5 1553.99 2192.17 1347.07 2363.81 1347.07 2268.24 1343.31 2268.24 1285.21 2415.13 1010.84 2642.69 1193.61 2210.47 1553.99 1911.5"/><polygon class="cls-19" points="1140.1 2781.86 1309.17 2781.86 1082.36 2969.97 951.99 2969.97 951.99 2870.88 1179.55 2682.09 1140.1 2781.86"/><polygon class="cls-19" points="1553.99 2371.53 1553.99 2578.77 1347.07 2750.41 1347.07 2543.17 1553.99 2371.53"/><path class="cls-20" d="M2360,2119.42q-16.52-98-74.21-159.72a243.87,243.87,0,0,0-34.22-30.38q-76.33-56.13-199-56.15-152.37,0-233.3,86.53t-80.86,244.59v692.33q0,126.9,52.19,207.72a259.41,259.41,0,0,0,28.67,36.83q80.91,86.55,233.3,86.53t233.27-86.53q80.89-86.49,80.9-244.55V2204.29A506.35,506.35,0,0,0,2360,2119.42ZM2159.8,2909.77q0,129.8-107.25,129.82-77.64,0-99.08-68.08-8.15-25.89-8.16-61.74V2191.1c0-4.2.08-8.32.28-12.28q4.92-117.5,107-117.5a138.5,138.5,0,0,1,32.72,3.6q74.49,18,74.53,126.18Z"/><g class="cls-21"><path class="cls-19" d="M1738.39,2347.77l207.2-168.95c-.2,4-.28,8.08-.28,12.28v266.45l-206.92,168.71Z"/></g><g class="cls-21"><path class="cls-19" d="M2159.8,2282.66V2191.1q0-108.24-74.53-126.18l166.33-135.6a243.87,243.87,0,0,1,34.22,30.38q57.67,61.72,74.21,159.72Z"/></g><g class="cls-21"><path class="cls-19" d="M1945.31,2909.77q0,35.82,8.16,61.74l-162.89,132.83q-52.21-80.79-52.19-207.72v-28.19l206.92-168.71Z"/></g><g class="cls-21"><polygon class="cls-19" points="2366.72 2356.16 2366.72 2634.61 2159.8 2803.32 2159.8 2524.83 2366.72 2356.16"/></g><path class="cls-10" d="M1554,3224.75h-207a15.84,15.84,0,0,1-15.84-15.84V2985.82H952A15.84,15.84,0,0,1,936.14,2970V2781.85a15.7,15.7,0,0,1,1.25-6.16l376.26-889.87a15.85,15.85,0,0,1,14.6-9.67H1554a15.84,15.84,0,0,1,15.84,15.83v874h82a15.84,15.84,0,0,1,15.84,15.83V2970a15.84,15.84,0,0,1-15.84,15.84h-82v223.09A15.84,15.84,0,0,1,1554,3224.75Zm-191.1-31.67h175.25V2970a15.84,15.84,0,0,1,15.85-15.83h82V2797.69h-82a15.85,15.85,0,0,1-15.85-15.84v-874h-199.4L967.83,2785.06v169.09h379.23a15.84,15.84,0,0,1,15.85,15.83Zm-15.85-395.39H1140.12a15.83,15.83,0,0,1-14.74-21.66l203.18-513.6a15.84,15.84,0,0,1,14.74-10h3.76a15.85,15.85,0,0,1,15.85,15.84v513.6A15.85,15.85,0,0,1,1347.06,2797.69ZM1163.42,2766h167.8V2341.86Z"/><path class="cls-20" d="M3059,2781.86V1892H2833.29l-134.65,318.48-182.77,432.23L2457,2781.86V2970H2852.1v238.92H3059V2970h97.86V2781.86Zm-206.92,0h-207l39.45-99.76,105.66-267,58.1-146.88h3.76Z"/><polygon class="cls-19" points="3059.02 1911.5 3059.02 2192.17 2852.1 2363.81 2852.1 2268.24 2848.34 2268.24 2790.24 2415.13 2515.87 2642.69 2698.64 2210.47 3059.02 1911.5"/><polygon class="cls-19" points="2645.13 2781.86 2814.2 2781.86 2587.39 2969.97 2457.02 2969.97 2457.02 2870.88 2684.58 2682.09 2645.13 2781.86"/><polygon class="cls-19" points="3059.02 2371.53 3059.02 2578.77 2852.1 2750.41 2852.1 2543.17 3059.02 2371.53"/><path class="cls-10" d="M3059,3224.75H2852.09a15.84,15.84,0,0,1-15.84-15.84V2985.82H2457a15.84,15.84,0,0,1-15.85-15.84V2781.85a15.7,15.7,0,0,1,1.25-6.16l376.26-889.87a15.85,15.85,0,0,1,14.6-9.67H3059a15.84,15.84,0,0,1,15.84,15.83v874h82a15.84,15.84,0,0,1,15.85,15.83V2970a15.84,15.84,0,0,1-15.85,15.84h-82v223.09A15.84,15.84,0,0,1,3059,3224.75Zm-191.1-31.67h175.25V2970a15.84,15.84,0,0,1,15.85-15.83h82V2797.69h-82a15.85,15.85,0,0,1-15.85-15.84v-874H2843.78l-370.92,877.24v169.09h379.23a15.84,15.84,0,0,1,15.85,15.83Zm-15.85-395.39h-207a15.83,15.83,0,0,1-14.73-21.66l203.18-513.6a15.85,15.85,0,0,1,14.74-10h3.76a15.85,15.85,0,0,1,15.85,15.84v513.6A15.85,15.85,0,0,1,2852.09,2797.69ZM2668.45,2766h167.8V2341.87Z"/><path class="cls-10" d="M2052.55,3243.56c-105.71,0-188.09-30.81-244.86-91.56h0c-56.51-60.42-85.17-146.35-85.17-255.39V2204.28c0-109,28.65-194.92,85.16-255.38,56.8-60.76,139.19-91.56,244.87-91.56s188,30.8,244.86,91.56c56.51,60.48,85.16,146.41,85.16,255.38v692.33c0,109-28.65,194.93-85.16,255.38C2240.62,3212.75,2158.23,3243.56,2052.55,3243.56Zm0-1354.55c-96.55,0-171.15,27.42-221.71,81.51-50.84,54.4-76.63,133-76.63,233.76v692.33c0,100.75,25.78,179.4,76.63,233.76h0c50.53,54.08,125.12,81.51,221.7,81.51s171.14-27.43,221.7-81.52c50.85-54.39,76.63-133,76.63-233.76V2204.28c0-100.69-25.78-179.34-76.63-233.76C2223.67,1916.43,2149.08,1889,2052.55,1889Zm0,1166.41c-56.15,0-123.08-25.26-123.08-145.64V2191.11c0-120.37,66.93-145.64,123.08-145.64s123.08,25.27,123.08,145.64v718.67C2175.63,3030.16,2108.7,3055.42,2052.55,3055.42Zm0-978.28c-39.24,0-91.39,11.82-91.39,114v718.67c0,102.16,52.15,114,91.39,114s91.39-11.81,91.39-114V2191.11C2143.94,2089,2091.78,2077.14,2052.55,2077.14Z"/><path class="cls-19" d="M1936.6,1441s-289.12,286.68-334.26,346.46c-39,51.71-79.29,104.52-160.79,104.52-23.59,0-24.7-3-38-5-11,4.51-28.12,7-38.52,5-16.37-3.09-29.38-19.66-27.85-40.54,1.63-22.31,16.47-25.7,29.32-43.58,24.31-33.84,33.56-82.63,58.31-133.85,93.77-198.94,266.47-380,402.61-487.36"/><path class="cls-19" d="M1936.58,1441s-289.09,286.69-334.24,346.48c-39,51.7-79.3,104.51-160.79,104.51-23.6,0-24.7-3-38-5-11.06,4.5-28.1,7-38.51,5-16.36-3.09-29.4-19.68-27.87-40.53,1.64-22.35,16.47-25.7,29.32-43.58,24.32-33.86,33.55-82.67,58.33-133.87,61.09-129.6,155.68-251.62,251.85-350.6,51.43-53,103.29-99.36,150.76-136.77l183,55.63Z"/><path class="cls-19" d="M2010.51,1242.27,1936.58,1441s-2.63,2.59-7.4,7.36c-45.45,45.18-286,285-326.84,339.12-39,51.7-79.3,104.51-160.79,104.51-23.6,0-24.7-3-38-5-11.06,4.5-28.1,7-38.51,5-16.36-3.09-29.4-19.68-27.87-40.53.61-8,2.89-13.65,6.21-18.34,5.87-8.32,14.87-13.81,23.11-25.24,24.32-33.86,33.55-82.67,58.33-133.87,61.09-129.6,155.68-251.62,251.85-350.6,51.43-53,103.29-99.36,150.76-136.77Z"/><path class="cls-22" d="M1929.18,1448.36c-45.45,45.18-286,285-326.84,339.12-39,51.7-79.3,104.51-160.79,104.51-23.6,0-24.7-3-38-5-11.06,4.5-28.1,7-38.51,5-16.36-3.09-29.4-19.68-27.87-40.53.61-8,2.89-13.65,6.21-18.34,3.2,13.72,10.68,31.41,27.8,32,41.29,1.26,81.71-47.93,81.71-47.93s16.47,37.14,38.2-42.4c8.66-31.76,32.18,24.48,83.24-47.35,109.43-154,283-229.77,249.32-335.92C1881.26,1384.57,1912.71,1410.84,1929.18,1448.36Z"/><path class="cls-22" d="M1888.2,1328.25c-89.91,15.86-165.83,5.61-211.5-4.84,51.43-53,103.29-99.36,150.76-136.77l245.2-26.64Z"/><path class="cls-22" d="M2268.91,961.72c-6.67,39.46-18.64,83.88-39.61,127.81L2124.14,989.29S2183.39,972.55,2268.91,961.72Z"/><path class="cls-22" d="M2257.82,1012.28c-22.65,83-71.11,176.19-172.65,239.6-85.22,53.23-168.45,75.46-239.87,82.17l195-310.26Z"/><path class="cls-10" d="M1373.46,1908.51a61.37,61.37,0,0,1-11.35-1c-25.24-4.77-42.74-29.38-40.7-57.26,1.52-20.75,11.81-30.59,20.89-39.26a86.44,86.44,0,0,0,11.35-12.39c12.93-18,21.42-41.29,31.25-68.27,7-19.31,15-41.21,25.67-63.24,119.57-253.7,341.8-441.41,407.06-492.9a15.84,15.84,0,1,1,19.64,24.86c-131.66,103.86-305.37,285-398.09,481.67-10,20.74-17.38,40.93-24.5,60.45-10.19,28-19.81,54.37-35.28,75.89a116.31,116.31,0,0,1-15.2,16.82c-7.46,7.13-10.56,10.09-11.19,18.69-1,13.44,7,22.31,15,23.82,7,1.31,21.07-.65,29.6-4.12a15.72,15.72,0,0,1,8.39-1c4.91.75,8.39,1.61,11.46,2.37,5.54,1.38,9.92,2.47,24.1,2.47,74,0,110-47.71,148.14-98.23,45.3-60,323.91-336.42,335.74-348.16a15.84,15.84,0,0,1,22.33,22.48c-2.88,2.86-288.83,286.56-332.77,344.76-39.23,51.94-83.68,110.82-173.44,110.82-18.06,0-25-1.73-31.74-3.4-1.58-.39-3.1-.77-4.8-1.12A105.35,105.35,0,0,1,1373.46,1908.51Z"/><path class="cls-10" d="M1773,1599.44c-141.78,0-207.32-156.14-208-157.79a11.88,11.88,0,0,1,22-9h0c.64,1.57,65.7,155.78,203.27,142.17a11.88,11.88,0,1,1,2.34,23.64Q1782.63,1599.45,1773,1599.44Z"/><path class="cls-19" d="M1486.45,1757c14,17.69-19.92,119.23,29.65,124.36,41.2,4.26,49.56-38.49,46.29-74,.1-5.44,29.12-27.14,29.12-54.28,0,0-3.31-18.53-17.15-25.61C1519.91,1699.53,1486.45,1757,1486.45,1757Z"/><path class="cls-10" d="M1486.45,1757c20.57,17.69,1.91,112.11,34.28,108.85,7.78,0,14-2,18.88-8.78,8.92-12.64,10.93-32.4,11.39-48.7a13,13,0,0,1,1.09-6.14c1.56-3.5,4-5.87,6.49-8.19,5.43-4.92,11.89-10.4,16.89-15.56,6.85-7.09,13-14.93,16-25.44a38.3,38.3,0,0,1,.66,16.71c-2.12,13.92-10,26.32-17.52,37.79-.7,1.27-1.7,2.51-1.87,3.54.14-.16,0,.07.38-.56a8.5,8.5,0,0,0,.61-4.24,125.09,125.09,0,0,1,2,32.91c-1.38,18.88-8.47,39-25.44,50.15-25.44,16.5-64.21,7.88-72.07-23.34-7.54-26.93-.52-54,5-79.89,1.71-9.64,5.74-19.32,3.14-29.11Z"/><path class="cls-19" d="M2034.93,1658.31s-107.45,286.2,17.62,385.29c84.21,66.73,248.8,26.88,248.8,26.88s-13.18,73.53,53.55,89.73c44.38,10.78,97.44,1.2,136.63-76.89,17.63-35.14,44.48-137.9-4.45-194.19-39-44.83-120.35-47.61-120.35-47.61s43.77-103,43.77-151.56"/><path class="cls-19" d="M2514.88,1973.39c.76,44.54-12.92,89.11-23.37,109.93-39.16,78.09-92.24,87.66-136.62,76.9-66.72-16.2-53.53-89.75-53.53-89.75s-164.6,39.84-248.83-26.88c-125.06-99.1-17.61-385.29-17.61-385.29l246.65,20.78,128.91,10.86c0,48.62-43.77,151.57-43.77,151.57s81.41,2.78,120.38,47.62C2507,1912.08,2514.39,1942.74,2514.88,1973.39Z"/><path class="cls-22" d="M2326.79,2063.05s-7.13,48.59,33.38,60.82c48.95,14.78,94.09-44.33,96.85-77.21,1.36-16.21-41.62-18.73-74.05-21.58C2373.32,2024.23,2326.79,2063.05,2326.79,2063.05Z"/><path class="cls-22" d="M2514.88,1973.39c-73.82-80.49-261.64-18.53-265.22-17.35,78.09-120.06-52-144.35-52-144.35l60.66-80.57,23.26-52,128.91,10.86c0,48.62-43.77,151.57-43.77,151.57s81.41,2.78,120.38,47.62C2507,1912.08,2514.39,1942.74,2514.88,1973.39Z"/><path class="cls-10" d="M2384.25,2179.72a140.33,140.33,0,0,1-33.09-4.12c-50.88-12.35-65.62-53.69-66.84-85.51-48.54,8.62-169.9,22.76-241.62-34.08-132.58-105.06-27.16-391.14-22.6-403.27a15.84,15.84,0,0,1,29.67,11.12c-1,2.76-101.94,276.56,12.62,367.34,77.26,61.21,233.66,24.27,235.23,23.89a15.85,15.85,0,0,1,19.33,18.19c-1,6-8.64,59.32,41.69,71.55,50.55,12.27,89.39-10.17,118.72-68.61,14.79-29.47,41.74-126.11-2.24-176.71-33.89-39-108.21-42.14-108.95-42.16a15.85,15.85,0,0,1-14-22c11.83-27.82,42.52-108.17,42.52-145.37a15.85,15.85,0,0,1,31.69,0c0,38.22-24,104.76-37,137.92,29,4.2,79.65,16.29,109.69,50.86,53.54,61.6,27,171.16,6.65,211.68C2470.55,2160.44,2424.4,2179.72,2384.25,2179.72Z"/><path class="cls-10" d="M2258.31,1948.79c30.08-23.15,56.91-51.17,77.47-82.92a230.72,230.72,0,0,0,17.12-32.07l27.66,15.44c-31,43.57-74.76,76.24-122.25,99.55Z"/><path class="cls-10" d="M2402.61,2009.49c-27.05,30.35-60.09,55-95.15,75.61l-12.21-29.23c37.66-10.21,74.53-25,107.36-46.38Z"/><path class="cls-19" d="M2011.18,1026.39l41.21,77.1,21,39.29,361.92,677.37s44.78-27.3,101.89-68.73c11.18-8.11,22.83-16.75,34.7-25.83,88.52-67.65,189.66-159.8,202.49-235.32,19.16-112.93-192.22-472-338.06-575.19-66.83-47.34-218.84,9.56-321.78,57.9-11.52,5.38-22.42,10.68-32.5,15.73C2039.47,1009.89,2011.18,1026.39,2011.18,1026.39Z"/><path class="cls-23" d="M2052.39,1103.49l21,39.29,287.37,537.84,74.55,139.53,2.7-1.67c.5-.33,1.1-.7,1.73-1.08s1.06-.68,1.63-1,.86-.54,1.3-.79c.16-.12.37-.22.53-.34.8-.5,1.7-1.06,2.62-1.67a4.58,4.58,0,0,0,.64-.39c.76-.49,1.55-1,2.42-1.53,1.16-.73,2.35-1.51,3.6-2.32.89-.59,1.86-1.18,2.81-1.81l3-1.94c1.29-.83,2.63-1.73,4-2.6,2.79-1.85,5.76-3.78,8.87-5.86,2.77-1.79,5.66-3.72,8.66-5.75,3.47-2.33,7.11-4.75,10.86-7.31,13.87-9.43,29.63-20.41,46.48-32.63,3.28-2.38,6.61-4.82,10-7.28,2.34-1.71,4.73-3.5,7.12-5.28,5.78-4.29,11.69-8.74,17.61-13.27,88.55-67.66,189.66-159.8,202.45-235.31,15.81-93-124.7-352.86-256.29-499.37,94.88,139.72,171.75,304.51,159.83,374.6-5.88,34.66-92.94-38.94-119.44-86.09-68.34-121.61-220.3-223.27-385.39-248.61C2168.74,1030.15,2109.3,1077,2052.39,1103.49Z"/><path class="cls-10" d="M2429.19,1842.41l-439.17-822,13.18-7.69c3.3-1.92,81.91-47.58,175-84.79,128.8-51.48,218.73-60.17,267.29-25.8,152.15,107.71,364.66,472.13,344.51,590.79-24.26,142.89-333.32,332.75-346.46,340.76Zm-396.77-809.9,408.81,765.19c61-39,298.38-197.4,317.51-310.07,8.14-48-33.15-158.08-105.19-280.58C2579.71,1081.5,2493,974.57,2427.15,928,2351,874,2128,978.91,2032.42,1032.51Z"/><path class="cls-19" d="M2649.19,1181.35c-29.2-3.7-154.8,74.91-154.8,74.91a36.06,36.06,0,0,0-11.8,42.53c22.78,55.68,82,181.4,155,188.89,60.6,6.22,109-43.37,121.65-92.36,9.87-38.22-11.66-84.66-37.4-128.43C2694,1219.45,2672,1184.24,2649.19,1181.35Z"/><path class="cls-19" d="M2721.85,1266.89c13.3,22.56,25.42,45.86,32.68,68.36,6.9,21.12,9.49,41.56,4.7,60.07-12.65,49-61,98.58-121.64,92.35-57.25-5.87-106.08-84.55-135.43-145a.11.11,0,0,0,0-.08c-8.05-16.58-14.62-31.82-19.52-43.78a36,36,0,0,1,11.8-42.52s125.6-78.64,154.82-74.92C2672,1184.25,2694,1219.45,2721.85,1266.89Z"/><path class="cls-23" d="M2754.53,1335.25c6.9,21.12,9.49,41.56,4.7,60.07-12.65,49-61,98.58-121.64,92.35-57.25-5.87-106.08-84.55-135.43-145,1.73,2.16,44.88,57,61,40.57,12.72-12.92,2.45-48.77,1.86-50.9,2.77,3.6,87.11,112.58,146.18,66.73C2737.77,1378.44,2749.93,1355.86,2754.53,1335.25Z"/><path class="cls-10" d="M2647.8,1504a115.24,115.24,0,0,1-11.82-.6c-78.81-8.09-139.12-127.94-168.05-198.65a51.89,51.89,0,0,1,17-61.2l1.08-.75c39.2-24.54,133.86-81.15,165.2-77.2h0c29.74,3.77,51.69,37.74,84.32,93.22,25.89,44,50.78,95.15,39.08,140.42C2760.79,1452.65,2710.47,1504,2647.8,1504Zm-144.37-234.75a20.24,20.24,0,0,0-6.17,23.51c44,107.56,97.08,174.52,141.95,179.13,51.17,5.2,93.38-36.84,104.68-80.57,8.87-34.3-14.43-80.25-35.71-116.45-18.79-32-44.52-75.71-61-77.84-.23,0-.49,0-.76,0C2630,1197,2560.05,1233.91,2503.43,1269.29Zm143.81-72.22h0Zm0,0"/><path class="cls-10" d="M2745.72,1451.88c-20.88,18-51.78,16.59-75.18,6.5-43.26-19.06-70.06-57.85-92.42-96.65-10.52-19.14-21.12-38.8-26.27-60.12,7.42,20.45,19.94,38.54,32.39,56.2,12.83,17.49,26.17,34.47,41.77,48.77,24.83,23.42,70.62,50.67,100.35,25.11,13.8-14.8,34.75,6.94,19.36,20.19Z"/><path class="cls-10" d="M2234.71,1021.48c57.95-48,116.3-96.06,185.31-127.94,21-8,31.88,23.27,10.33,30-69.58,21-133.8,60.1-195.64,98Z"/><path class="cls-19" d="M1806.16,1396.37c39.66,15.6,131.25,182.05,184.93,299.16,86.74,168.87,355.55,121.63,423.72,72.41,279.36-112.23,249.73-317.68,167.42-447.87-119.56-189.08-311.37-308.48-311.37-308.48l-230.57,12.2Z"/><path class="cls-19" d="M2414.79,1768c-57.69,41.6-259,81.83-372.13-9a193.7,193.7,0,0,1-51.59-63.37c-15.52-33.94-34.28-72-54-109.36-48.39-91.54-102.76-178.74-130.94-189.84l234.15-372.56,230.57-12.2s132.57,82.51,246,219a856.79,856.79,0,0,1,65.39,89.46,409.12,409.12,0,0,1,30.42,57.84C2666.82,1505.25,2655.54,1671.22,2414.79,1768Z"/><path class="cls-19" d="M2414.79,1768c-57.69,41.6-259,81.83-372.13-9a193.7,193.7,0,0,1-51.59-63.37c-15.52-33.94-34.28-72-54-109.36-48.39-91.54-102.76-178.74-130.94-189.84l234.15-372.56,230.57-12.2s132.57,82.51,246,219a856.79,856.79,0,0,1,65.39,89.46,409.12,409.12,0,0,1,30.42,57.84C2666.82,1505.25,2655.54,1671.22,2414.79,1768Z"/><path class="cls-19" d="M2414.79,1768c-57.69,41.6-259,81.83-372.13-9a192.94,192.94,0,0,1-15.1-13.46c-.46-.46-.92-.88-1.38-1.34-.26-.26-.57-.57-.83-.87-1.19-1.18-2.33-2.37-3.47-3.63-.35-.38-.69-.76-1.07-1.14-1.41-1.56-2.82-3.13-4.2-4.77-.26-.26-.49-.57-.76-.87-1.22-1.45-2.4-2.9-3.62-4.43-1.56-1.94-3-3.92-4.58-5.94-.61-.88-1.25-1.76-1.86-2.63-2.56-3.59-5-7.32-7.36-11.18-1.22-2-2.44-4.11-3.63-6.21-1.29-2.25-2.51-4.58-3.73-6.9-15.52-33.94-34.28-72-54-109.36-48.39-91.54-102.76-178.74-130.94-189.84l234.15-372.56,230.57-12.2s132.57,82.51,246,219a856.79,856.79,0,0,1,65.39,89.46,409.12,409.12,0,0,1,30.42,57.84C2666.82,1505.25,2655.54,1671.22,2414.79,1768Z"/><path class="cls-22" d="M2422.42,1494.27s5.86,78.87-8.45,102.23c-15.19,24.78-294.48,136.07-348.21,156.51a1.69,1.69,0,0,1-.26.11,37.09,37.09,0,0,1-37.94-7.66c-.46-.46-.92-.88-1.38-1.34-.26-.26-.57-.57-.83-.87-1.19-1.18-2.33-2.37-3.47-3.63-.35-.38-.69-.76-1.07-1.14-1.41-1.56-2.82-3.13-4.2-4.77-.26-.26-.49-.57-.76-.87-1.22-1.45-2.44-2.94-3.62-4.43-1.56-1.94-3-3.92-4.58-5.94-.61-.88-1.25-1.76-1.86-2.63-2.56-3.59-5-7.32-7.36-11.18-1.22-2-2.44-4.11-3.63-6.21-1.29-2.25-2.51-4.58-3.73-6.9-15.52-33.94-34.28-72-54-109.36l134.4-142.44s154.91-45.35,293-114.68c24.84-12.48,34.3-102.42-21.2-134.49,61.38-57.39,151.06,56.6,173.55,36a856.79,856.79,0,0,1,65.39,89.46,409.12,409.12,0,0,1,30.42,57.84C2550.15,1459.45,2422.42,1494.27,2422.42,1494.27Z"/><path class="cls-22" d="M2622.86,1363.18c-3.16,5.07-6.59,10-10.22,14.72-43,56.12-116.94,90.13-158.84,105.84l74.62-231.86C2570.05,1287,2600.48,1324.78,2622.86,1363.18Z"/><path class="cls-22" d="M2628.12,1354.07c-36.18,67.1-118.35,107.79-167.19,127l79.69-231.17A364.57,364.57,0,0,1,2628.12,1354.07Z"/><path class="cls-22" d="M2257.82,1012.28c-22.65,83-71.11,176.19-172.65,239.6-85.22,53.23-168.45,75.46-239.87,82.17l195-310.26Z"/><path class="cls-10" d="M2176.54,1810.9c50.91-2.1,100.84-9,149.63-23,28.72-7.83,58.06-19,82.36-35.52,165.85-66.07,262.77-193.22,185.25-370.56-64.26-136.49-207.9-271.54-332.28-355.19l10.29,2.65-115.32,5.4-115.34,5a15.84,15.84,0,0,1-1.68-31.63l115.22-7.23,115.25-6.81a17.32,17.32,0,0,1,10.29,2.65c18.65,11.78,35.75,23.85,53,36.53,85.53,63.44,163.47,137.52,227.66,222.77,52.86,69.5,96,149.93,97,239.66,3.31,145.44-111.67,240.37-236.77,288-53.6,35.56-168.21,50.71-244.54,27.36Z"/><path class="cls-10" d="M1806.16,1396.37c17.87,6.14,30.94,21.56,43.63,34.86a529,529,0,0,1,34.8,43.85c43.13,60.61,79.08,125.65,111,192.67,7.75,16.92,14.6,31.07,23.57,46.71,8.8,16.21,18.39,30.82,27.38,47.51-29.31-7.38-52.73-29.31-67.3-55.11-20.18-41.53-39.49-83-60.39-124.17-16.38-32.71-33-65.29-50.58-97.33-8.79-16-17.82-31.9-27.5-47.33-10-15-19.25-31.5-34.64-41.66Z"/><path class="cls-19" d="M2124.13,989.3s229.66-64.78,437.09-22c236.29,139.25-98.84,254.07-98.84,254.07s-110.54-26.53-123.58-27.44Z"/><path class="cls-19" d="M2525.67,1194.23a572.48,572.48,0,0,1-63.29,27.19s-110.54-26.54-123.58-27.46L2124.14,989.29s229.65-64.78,437.07-22C2728.4,1065.85,2609.52,1152.17,2525.67,1194.23Z"/><path class="cls-22" d="M2525.67,1194.23a572.48,572.48,0,0,1-63.29,27.19s-110.54-26.54-123.58-27.46c54.56-8.54,110.5-112.13,177-131.77C2541.69,1054.56,2534.86,1132.61,2525.67,1194.23Z"/><path class="cls-22" d="M2268.91,961.72c-6.67,39.46-18.64,83.88-39.61,127.81L2124.14,989.29S2183.39,972.55,2268.91,961.72Z"/><path class="cls-10" d="M2119.82,974.06c108.59-27.71,220.83-41.07,332.85-36,38.82,2.62,78.84,5.3,116.6,15.63,29.77,17.91,58.4,38.12,77.89,68.6,46.24,74.48-28.78,139.07-88.79,172.36a582.74,582.74,0,0,1-90.84,41.73c-2.2,1.51-6.45.39-8.85.42-4.52-.34-10.72-3.44-15.06-4.9l-14.9-5.62-29.86-11.13c-17.56-6.48-42.4-15.87-60.06-21.19,18.43.25,45.2,3,63.83,4.77,10.58,1.06,37.51,3.76,47.72,4.84,4.59.65,11.45.68,15.73,2.44l-8.83.42a555.24,555.24,0,0,0,85.35-39.25c26-15.09,52.25-33,70.61-56.32,45.52-55.09-13.5-102.73-60-129.89l4.85,1.87a716.28,716.28,0,0,0-106.95-13.15,942.8,942.8,0,0,0-108.42.94A1191.79,1191.79,0,0,0,2181,992.3c-17.79,3.64-35.85,7.72-52.9,12.33-20.12,4.92-28.5-24.43-8.27-30.57Z"/><path class="cls-19" d="M1287.1,1162.82c36.76,47.19,79.63,87.24,114.24,89.8,24.86,1.83,150.64-69.06,150.64-69.06l-280.74-269.5s-7,7-16.38,17.62c-19.54,22-49.62,59.6-49,81.47C1206.42,1036.92,1242.23,1105.18,1287.1,1162.82Z"/><path class="cls-22" d="M1287.1,1162.82c36.76,47.19,79.63,87.24,114.24,89.8,24.86,1.83,150.64-69.06,150.64-69.06l-280.74-269.5s-7,7-16.38,17.62a661.63,661.63,0,0,0,75.38,180.5C1359.09,1159.67,1327.79,1181.75,1287.1,1162.82Z"/><path class="cls-24" d="M1401.75,1268.45c-.55,0-1.08,0-1.59,0-87.33-6.47-208.89-205-210.19-254.82-1-37.3,58.16-98.73,70-110.66l11-11,307.37,295-18.57,10.46C1521.44,1219,1430.45,1268.45,1401.75,1268.45Zm-130-332c-26,28.27-50.43,62.36-50.07,76.26.38,14.32,24.21,67,66.34,124.88,43.7,60,86.51,97.1,114.51,99.17,12.47,0,70.08-27.77,123-56.68Z"/><circle class="cls-19" cx="1728.48" cy="812.72" r="517.64"/><path class="cls-22" d="M2227.21,673.74c59.91,214.48-24.3,451.55-222.24,576.6-241.69,152.69-561.42,80.53-714.11-161.16A515.17,515.17,0,0,1,1211.53,785c175,194.4,558.77,188.82,894.63-23.36A1149.93,1149.93,0,0,0,2227.21,673.74Z"/><path class="cls-10" d="M1729.51,1346.39A537.73,537.73,0,0,1,1611,1333.11c-139-31.37-257.47-115-333.58-235.47C1120.34,849,1194.85,518.81,1443.54,361.7,1564,285.59,1706.92,261,1845.92,292.32s257.48,115,333.58,235.47c157.11,248.69,82.61,578.83-166.09,735.94C1927.07,1318.28,1829.2,1346.39,1729.51,1346.39Zm-2-1035.66c-93.77,0-185.81,26.44-267,77.74-233.92,147.79-304,458.33-156.22,692.26,71.59,113.32,183,192,313.76,221.48s265.16,6.34,378.47-65.25c233.93-147.78,304-458.33,156.23-692.26h0c-71.59-113.32-183-192-313.77-221.48A505.8,505.8,0,0,0,1727.5,310.73Z"/><path class="cls-10" d="M1728.79,1346.3a532.68,532.68,0,0,1-446.67-241.4c-1.57-2.4-3.15-4.83-4.67-7.24a533.48,533.48,0,0,1,166.09-736C1564,285.59,1706.91,261,1845.92,292.32s257.49,115,333.6,235.47c157.11,248.7,82.6,578.84-166.09,736a531.55,531.55,0,0,1-284.64,82.55Zm-1.28-1035.58c-93.77,0-185.82,26.44-267,77.75a501.81,501.81,0,0,0-156.22,692.27c1.43,2.28,2.93,4.58,4.41,6.84A501.36,501.36,0,0,0,1996.49,1237c233.94-147.79,304-458.34,156.23-692.28h0c-71.59-113.33-183-192-313.78-221.49A505.85,505.85,0,0,0,1727.51,310.72Z"/><path class="cls-10" d="M1728.79,1342.34a530,530,0,0,1-369.91-150.28,423.38,423.38,0,0,1-71-85.23c-1-1.55-1.86-3-2.7-4.41-1.48-2.28-3-4.59-4.43-6.88a530.36,530.36,0,0,1-62-426.38,12,12,0,0,1,.61-1.68c44.4-97.87,117.09-180.7,210.24-239.55,120.14-75.9,260.76-103.53,395.95-77.84,135.48,25.76,249.3,102,320.46,214.65h0c146.76,232.3,64.16,548.9-184.12,705.75a567.58,567.58,0,0,1-136.69,62.91,13.2,13.2,0,0,1-1.35.32A529.05,529.05,0,0,1,1728.79,1342.34Zm93-20.3h0ZM1241.42,676.46a506.57,506.57,0,0,0,59.48,406.4c1.44,2.29,2.95,4.61,4.44,6.88.14.22.27.44.4.67.7,1.23,1.44,2.4,2.2,3.6a400.64,400.64,0,0,0,67.3,80.82,506.51,506.51,0,0,0,443.68,135.65,543.57,543.57,0,0,0,130.3-60.07c237.21-149.86,316.49-451.76,176.72-673h0c-67.61-107-175.86-179.47-304.8-204-129.24-24.58-263.78,1.91-378.81,74.58C1353.38,504.2,1283.92,583.19,1241.42,676.46Z"/><path class="cls-10" d="M2093.55,597.89c129.64,205.22,56.66,484.13-163,622.91-186.21,117.64-418.09,96.85-563.34-37.24a411.39,411.39,0,0,1-69.2-83.07c-.9-1.41-1.77-2.8-2.59-4.26-126-204.78-52.53-480.79,165.63-618.61C1680.71,338.84,1963.91,392.68,2093.55,597.89Z"/><path class="cls-25" d="M2093.55,597.89c129.64,205.22,56.66,484.13-163,622.91-165.22,104.38-366.37,99.78-511.08,3.73C1551,1258.18,1699.53,1238,1828,1156.8c227.52-143.74,309.6-426.46,192.93-645.09A410.79,410.79,0,0,1,2093.55,597.89Z"/><g class="cls-26"><path class="cls-19" d="M1707.45,521.45c13.13,37-83.64,61.09-207.51,186.51-86.5,87.59-91.17,227.06-148,222.58s-41.2-176.25,33.42-282C1500.21,485.75,1694.32,484.4,1707.45,521.45Z"/></g><g class="cls-26"><ellipse class="cls-19" cx="1979.44" cy="764.58" rx="59.13" ry="78.6" transform="translate(-142.52 759.49) rotate(-20.98)"/></g><g class="cls-26"><ellipse class="cls-19" cx="2032.79" cy="910.34" rx="29.27" ry="33.65" transform="translate(-29.77 69.62) rotate(-1.95)"/></g><path class="cls-19" d="M2146.29,464.75l88,184,54.8,114.61-58,40.62-5.49,3.83c-28.34,12.85-86.1-49.49-128.94-139.1-1-2-1.94-4.1-2.88-6.13-40.48-87.2-51-166.76-23.31-179.27l6.53-1.61Z"/><path class="cls-22" d="M2234.27,648.74l54.8,114.61-58,40.62-5.49,3.83c-28.34,12.85-86.1-49.49-128.94-139.1-1-2-1.94-4.1-2.88-6.13l-2.27-12.37s29,32.19,49.32,27.2c21.56-5.24,8-56.58,8-56.58Z"/><path class="cls-10" d="M2217.45,825.37c-43.47,0-98.74-73.8-135.09-149.83s-51.56-148.06-38.65-183.37c5.15-14.06,13.82-20.44,20.2-23.32a15.89,15.89,0,0,1,2.77-1l75.86-18.53a15.84,15.84,0,0,1,18.05,8.56l142.79,298.61a15.82,15.82,0,0,1-5.21,19.8l-63.47,44.44a15.63,15.63,0,0,1-2.58,1.47A35.27,35.27,0,0,1,2217.45,825.37ZM2076.3,498.15a12.74,12.74,0,0,0-2.82,4.89c-8.28,22.67,1.92,84.5,37.47,158.84,45.62,95.41,94.53,134.61,107.22,131.8L2269,758.1,2137.55,483.2Z"/><path class="cls-19" d="M2254.22,571.48a.23.23,0,0,0,0,.11c3.7,6.83,7.26,13.87,10.74,21.15,39.42,82.43,50.25,158.84,24.1,170.61-25.33,11.44-76.26-42.29-115.32-121.08-1.12-2.24-2.23-4.56-3.33-6.87C2131,553,2120.21,476.54,2146.29,464.75,2170.1,454,2216.32,500.67,2254.22,571.48Z"/><path class="cls-22" d="M2254.23,571.59c3.7,6.83,7.26,13.87,10.74,21.15,39.42,82.43,50.25,158.84,24.1,170.61-25.33,11.44-76.26-42.29-115.32-121.08,26.16,22.21,75.88,59.43,89.52,33.42C2271.21,660.46,2263,611.5,2254.23,571.59Z"/><path class="cls-10" d="M2281.7,780.75c-40.64,0-91.94-68.19-125.56-138.52s-47.59-136.92-35.6-169.72c4.88-13.35,13.17-19.43,19.25-22.18,42.17-19,101.88,56.92,139.48,135.56,33.62,70.3,47.59,136.92,35.6,169.71C2310,769,2301.7,775,2295.62,777.79A33.49,33.49,0,0,1,2281.7,780.75Zm-127-301.9a4.36,4.36,0,0,0-1.81.34c-.48.22-1.55,1.52-2.54,4.2-7.53,20.6,1.88,77.09,34.43,145.18,42,87.89,88.11,124.69,97.84,120.36.48-.22,1.55-1.52,2.53-4.2,7.54-20.61-1.87-77.1-34.42-145.18h0C2210.85,516.26,2167.29,478.85,2154.65,478.85Z"/><path class="cls-19" d="M2367.18,1753s62.34,174.87,201.19,227c104.45,39.23,200.22-31.23,200.22-31.23s18.49,52.59,65.87,65c43.12,11.25,106.51-17.34,114.67-70.15,11-71.25-44.68-222.18-126.11-245.51-31.29-9-82.75-.46-121.54,9.85-26.22-86.2,14.72-297.69-173.06-456.08Z"/><path class="cls-22" d="M2622.86,1363.18c-3.16,5.07-6.59,10-10.22,14.72-43,56.12-116.94,90.13-158.84,105.84l74.62-231.86C2570.05,1287,2600.48,1324.78,2622.86,1363.18Z"/><path class="cls-22" d="M2893.81,1755.45s-.08,0-.12,0c-153.43-73.05-209.63,48-209.63,48s11.44-65.2,12.89-115.19a169.25,169.25,0,0,0,4.53,19.75c38.78-10.29,90.25-18.8,121.56-9.84C2849.92,1705.8,2874,1727.42,2893.81,1755.45Z"/><path class="cls-22" d="M2790.53,1930s25.9,51,66.75,50.4c20.65-.32,49.93-12.39,49.88-55,0-34.22-7.94-65.39-20.81-65.39s-29.07,26-51.89,0C2822,1902.24,2790.53,1930,2790.53,1930Z"/><path class="cls-22" d="M2827.77,1878.87c-4.92,19-29.55,48.77-57,75.31-1.48-3.36-2.21-5.38-2.21-5.38s-95.78,70.46-200.21,31.23a234.56,234.56,0,0,1-24.86-11c.8-12.55,6.1-28.87,26.84-38.63,68.94-32.41,127.27,24.29,227.82-46.25C2822.5,1867.09,2832.38,1861.07,2827.77,1878.87Z"/><path class="cls-22" d="M2540.62,1249.86a364.57,364.57,0,0,1,87.5,104.21"/><path class="cls-10" d="M2367.18,1753c41.54,52,70.06,106.6,117.65,150.76,72.74,69.18,155.21,89.11,247.94,46.2a247.56,247.56,0,0,0,26.42-13.92l24.35,7.5c8.44,21.06,24.28,42,45,51.36,29.42,13.81,72.3-.11,92.72-26.06,22.66-29,12.17-72.06,4.51-105.45-13.55-48.76-37.24-100.21-75.9-133-19.61-16.57-40.54-21.58-66.34-20.11-25.78,1.1-52.41,6.24-78.24,13a15.61,15.61,0,0,1-18.93-10.78c-6.51-22.65-8.32-44.09-10.37-65.25-8-126.37-25.93-243.94-114.19-341.08-13.54-15.21-28.47-29.15-43.9-42.53-15.21-13.62,4.25-37.4,20.78-23.92,33.1,28.16,62.66,60.63,86.55,97,60.84,90.75,75.55,201.58,82.33,307.67,1.9,20.52,4,41.12,9.12,58.85l-19.23-10.69c27.53-7.16,55.45-12.68,84.88-14,14.72-.48,29.95-.09,46.1,4.51,15.76,4.7,29.58,13,41.45,22.69,45.73,39.11,70.56,93.29,86.51,149.37C2973,1919,2976.24,1984,2909,2018.46c-65.9,33.68-129.57,2-155.34-64.41l24.34,7.5c-79.39,58.53-181.74,68.14-265,11.73-68.63-44.83-139.8-136.93-145.79-220.28Z"/><path class="cls-19" d="M2116.75,1578.73s-127.57,99.84-193.85,51.15c-62.91-46.22-19-104-19-104s68,5.93,153.65-50.86"/><path class="cls-22" d="M2116.74,1578.73s-127.56,99.83-193.83,51.13c-17.3-12.7-26.54-26.28-30.77-39.31,66.58,46.84,192.74-51.92,192.74-51.92L2051,1479.29c2.15-1.35,4.37-2.76,6.56-4.23Z"/><path class="cls-10" d="M1967.12,1658.94c-19.27,0-37.72-4.63-53.6-16.3-22.9-16.82-36.21-37.1-39.54-60.26-5.19-35.94,16.44-64.83,17.36-66a15.91,15.91,0,0,1,14-6.19c.57.06,64.18,4.36,143.51-48.27a15.84,15.84,0,1,1,17.53,26.38c-70.85,47-130.6,53.22-153.68,53.66-4.06,7.65-9.54,21.31-7.31,36.21,2.15,14.34,11.21,27.46,26.91,39,46.32,34,141.81-25.18,174.7-50.86a15.84,15.84,0,0,1,19.54,24.94C2122.12,1594.65,2038.92,1658.94,1967.12,1658.94Z"/><path class="cls-19" d="M1967.43,1454.53c58.36-33,176.68-80.21,277.27-131.11a57.64,57.64,0,0,1,77.85,26.34l58.56,121.78c10.59,23.81,3.54,63.85-12.53,98.26-78.82,54.77-186.46,60-291.81,89.27a57.82,57.82,0,0,1-66.07-27.49l-86.1-85.12C1920.6,1525.7,1934.1,1473.38,1967.43,1454.53Z"/><path class="cls-19" d="M1967.43,1454.53c58.36-33,176.68-80.21,277.27-131.11a57.64,57.64,0,0,1,77.85,26.34l58.56,121.78c10.59,23.81,3.25,70.81-6.2,98.26-78.83,54.77-192.79,60-298.14,89.27a57.82,57.82,0,0,1-66.07-27.49l-86.1-85.12C1920.6,1525.7,1934.1,1473.38,1967.43,1454.53Z"/><path class="cls-19" d="M2374.91,1569.8c-32.41,22.49-70.77,36.64-112,47.51-59.06,15.63-124.07,24.51-186.11,41.75a57.79,57.79,0,0,1-66.08-27.49l-86.09-85.11c-4-20.78,9.49-73.09,42.82-91.92,58.37-33,176.69-80.23,277.27-131.13a57.67,57.67,0,0,1,77.86,26.35l23.22,48.27,35.31,73.51C2391.69,1495.33,2384.37,1542.35,2374.91,1569.8Z"/><path class="cls-22" d="M2374.91,1569.8c-32.41,22.49-70.77,36.64-112,47.51-18.76-76.68-42.44-171.66-42.44-171.66L2345.78,1398l35.31,73.51C2391.69,1495.33,2384.37,1542.35,2374.91,1569.8Z"/><path class="cls-10" d="M2061.06,1677.06a73.36,73.36,0,0,1-63-35.71l-84.59-83.64a15.71,15.71,0,0,1-4.42-8.26c-4.72-24.51,8.85-85.09,50.58-108.7h0c31.17-17.63,77.44-38.48,131-62.62,46.54-21,99.27-44.73,146.91-68.84a73.5,73.5,0,0,1,99.27,33.56l58.58,121.83c13.49,30.3,4.07,82.49-5.5,110.27a15.89,15.89,0,0,1-5.94,7.85c-56.89,39.53-128.4,53.93-204.11,69.17-32.68,6.57-66.47,13.37-98.83,22.36A74.64,74.64,0,0,1,2061.06,1677.06Zm-121.31-137.9,82.1,81.16a16.21,16.21,0,0,1,2.7,3.57,41.88,41.88,0,0,0,48,19.92c33.47-9.29,67.82-16.2,101-22.89,70.38-14.17,137-27.57,187.94-61.19,8.47-27.47,12.46-65.22,5.1-81.76l-58.35-121.35a41.79,41.79,0,0,0-56.42-19.07c-48.27,24.43-101.36,48.35-148.19,69.45-52.86,23.82-98.52,44.4-128.43,61.31h0C1950.64,1482.22,1939.36,1521.56,1939.75,1539.16Zm27.68-84.63h0Z"/><path class="cls-19" d="M1946.69,1510.7c60.61-25.81,185.68-80.54,304.93-141.86a36.4,36.4,0,0,1,49.35,16.54l74,152.55a36.41,36.41,0,0,1-14.88,47.63c-57.91,32.57-191.07,102.8-312.87,133.24a36.4,36.4,0,0,1-40.61-17.66l-77.46-139.21A36.42,36.42,0,0,1,1946.69,1510.7Z"/><path class="cls-19" d="M2360.08,1585.56c-57.91,32.56-191.09,102.79-312.88,133.25a36.42,36.42,0,0,1-40.62-17.68l-4.68-8.38-72.77-130.81a36.44,36.44,0,0,1,17.56-51.23c60.62-25.81,185.7-80.54,304.95-141.88A36.38,36.38,0,0,1,2301,1385.4l38.91,80.19,0,.07L2375,1538A36.42,36.42,0,0,1,2360.08,1585.56Z"/><path class="cls-22" d="M2360.08,1585.56c-57.91,32.56-191.09,102.79-312.88,133.25a36.42,36.42,0,0,1-40.62-17.68l-4.68-8.38c15.48,3.54,32.63,4.9,45.38-1.22,41.41-19.85,4.24-74.25,4.24-74.25l75.42-63.82s47.26,82.19,132.88,40.65c102.74-49.86,80.94-125.61,80.08-128.45L2375,1538A36.42,36.42,0,0,1,2360.08,1585.56Z"/><path class="cls-10" d="M2038.46,1735.72a52.42,52.42,0,0,1-45.71-26.88l-77.46-139.22a52.23,52.23,0,0,1,25.19-73.48c62.93-26.81,186.1-80.81,303.89-141.38a52.23,52.23,0,0,1,70.86,23.71l74,152.56a52.3,52.3,0,0,1-21.35,68.33c-53.53,30.1-191.56,103.5-316.81,134.81A52.21,52.21,0,0,1,2038.46,1735.72Zm229.7-355.07a20.16,20.16,0,0,0-9.28,2.27c-118.68,61-242.65,115.38-306,142.35h0a20.58,20.58,0,0,0-9.91,29l77.46,139.21a20.57,20.57,0,0,0,22.91,10c121.52-30.37,256.54-102.21,309-131.68a20.61,20.61,0,0,0,8.39-26.92l-74-152.55a20.69,20.69,0,0,0-18.55-11.64Zm-321.47,130h0Z"/><path class="cls-19" d="M2381.57,1465.6s-20.69.56-41.29-19.83c-30.15-29.82-5.18-76.82-5.18-76.82s128.63-69.47,160.59-126.67c0,0,84.65-3.26,58,92.82C2516.58,1405.77,2381.57,1465.6,2381.57,1465.6Z"/><path class="cls-22" d="M2553.73,1335.09c-37.13,70.69-172.16,130.49-172.16,130.49s-20.69.56-41.29-19.81a49.16,49.16,0,0,1-11.2-16.91c16.67,11.56,31,11.19,31,11.19s135-59.84,172.16-130.5c7.09-25.66,6.26-44.28,1.2-57.68C2551.83,1262.77,2567.36,1285.91,2553.73,1335.09Z"/><path class="cls-10" d="M2381.39,1481.44c-4.79,0-28.83-1.23-52.27-24.42-38.07-37.67-9.26-93.15-8-95.5a15.8,15.8,0,0,1,6.46-6.5c34.65-18.73,129.93-76.88,154.28-120.46a15.86,15.86,0,0,1,13.23-8.1c1.69-.1,41.84-1.27,64.79,27.7,16.09,20.3,19.16,49,9.14,85.16a16.37,16.37,0,0,1-1.24,3.15c-39.27,74.69-174.06,135.07-179.77,137.61a15.9,15.9,0,0,1-6,1.35Zm.18-15.84h0Zm-34.24-85.3c-4.18,10.08-13.06,37.24,4.09,54.22,11.38,11.25,22.33,14.2,27.28,15,21-9.78,128.26-62,160.22-120.28,6.64-25,5.37-43.57-3.79-55.26-8.38-10.69-22.29-14.18-31-15.31C2467.92,1311.12,2370.26,1367.51,2347.33,1380.3Z"/><path class="cls-27" d="M2122.33,1564.11q8.61,17.25,2.11,34c-4.09,10.6-14,29.07-14,29.07l-92.38-36.24s8.6-20.28,13.44-30.25c5.33-11,13.46-18.67,25.79-23C2081.62,1529,2110.73,1540.87,2122.33,1564.11Z"/><g class="cls-21"><path class="cls-19" d="M2124.85,1570.06c-13.71-17.77-38.66-25.94-60-18.38-12.33,4.38-20.46,12-25.82,23-2.67,5.48-6.47,14.12-9.34,20.76l-11.62-4.56s8.59-20.26,13.42-30.23c5.33-11,13.46-18.65,25.79-23,24.3-8.62,53.43,3.22,65,26.46A47,47,0,0,1,2124.85,1570.06Z"/></g><path class="cls-10" d="M2110.47,1639.06a11.8,11.8,0,0,1-4.34-.82L2013.75,1602a11.88,11.88,0,0,1-6.6-15.69c.36-.84,8.77-20.67,13.68-30.79,6.91-14.24,17.54-23.75,32.51-29.06,29.75-10.55,65.45,4,79.62,32.36,7.25,14.51,8.11,29.17,2.57,43.56-4.3,11.16-14.16,29.63-14.58,30.41A11.88,11.88,0,0,1,2110.47,1639.06Zm-76.61-54.69,71,27.84c2.95-5.85,6.52-13.22,8.5-18.37,3.14-8.13,2.61-15.9-1.64-24.42h0c-9-18-31.63-27.24-50.4-20.59-9,3.21-14.92,8.46-19.08,17C2039.88,1570.69,2036.58,1578.14,2033.86,1584.37Z"/><ellipse class="cls-27" cx="2063.96" cy="1609.9" rx="43.91" ry="49.64" transform="translate(-239.97 2852.33) rotate(-66.29)"/><path class="cls-28" d="M2085,1652c-24.31,8.62-53.4-3.23-65-26.47-.41-.82-.79-1.7-1.17-2.53,14.11,11.24,33.77,15.42,51,9.31,23.41-8.3,33.83-32.58,24.2-55.13a50.94,50.94,0,0,1,14,17.13C2119.57,1617.55,2109.27,1643.38,2085,1652Z"/><path class="cls-10" d="M2068.63,1666.62c-24.17,0-48.26-13.69-59.3-35.8-7.19-14.39-8-30.1-2.3-44.24s17-24.65,31.94-29.95c29.72-10.56,65.45,4,79.62,32.36,7.19,14.39,8,30.1,2.3,44.24s-17,24.65-31.94,30A60.54,60.54,0,0,1,2068.63,1666.62Zm-8.9-89.77a38.3,38.3,0,0,0-12.81,2.16c-8.43,3-14.77,8.84-17.84,16.45s-2.59,16.53,1.51,24.75c9,18,31.62,27.25,50.41,20.59,8.43-3,14.77-8.84,17.84-16.45s2.59-16.54-1.51-24.75C2090.31,1585.55,2075,1576.85,2059.73,1576.85Z"/><path class="cls-10" d="M2304.16,1627.59a11.88,11.88,0,0,1-10.34-6l-26.1-45.77a89,89,0,0,0-49.17-40.41,112.74,112.74,0,0,1-62.57-51.67l-29.58-52.53a11.88,11.88,0,0,1,20.71-11.65l29.59,52.53a89.06,89.06,0,0,0,49.4,40.8,112.73,112.73,0,0,1,62.28,51.18l26.1,45.77a11.89,11.89,0,0,1-10.32,17.76Z"/><path class="cls-19" d="M2542.89,1039.74s-149.13,111.1-185.92,256.19c-15.62,77.66,9.64,143.55,90.54,154.93,0,0,83,26.7,127.94,8.37,37-15.08,41.55-68.18,6.34-78,7.63-14.33,12.81-28.75,11.12-47.76,0,0,193.16-47.2,157.61-219.69-18.38-89.15-131.9-133.62-189.3-146.41"/><path class="cls-19" d="M2592.89,1333.44c1.72,19-3.47,33.44-11.09,47.77,35.19,9.84,30.62,63-6.37,78a85.15,85.15,0,0,1-20.21,5.18c-45.79,6.37-107.71-13.53-107.71-13.53-80.91-11.41-106.15-77.29-90.56-155,36.8-145.08,186-256.19,186-256.19l18.3-72.4c48.69,10.86,137.68,44.45,174.82,108.78a125.09,125.09,0,0,1,14.49,37.63C2786.05,1286.23,2592.89,1333.44,2592.89,1333.44Z"/><path class="cls-22" d="M2592.89,1333.44c1.72,19-3.47,33.44-11.09,47.77,35.19,9.84,30.62,63-6.37,78a85.15,85.15,0,0,1-20.21,5.18c14.3-8.69,30.31-22.27,29.17-39-2.06-29.86-50.48-15.1-50.48-15.1s42.17-44.84,23.56-121.44c0,0,218.06-31.92,178.56-212.72a125.09,125.09,0,0,1,14.49,37.63C2786.05,1286.23,2592.89,1333.44,2592.89,1333.44Z"/><path class="cls-10" d="M2542.89,1039.74c-68.42,76.91-145.93,165.5-170.36,266.75-7.11,37.36-4.12,81.27,25.43,107.12,14.26,12.61,33.9,19,54.06,22.06a352.47,352.47,0,0,0,54.18,12c25.11,2.45,51.23,6,71.77-8.15,13.16-9.92,18.9-37.63-.67-43.12a16,16,0,0,1-9.5-22.62c6.9-12.79,10.64-24.72,9.33-38.92a15.89,15.89,0,0,1,12-16.78c59.79-17.31,121.61-55.61,142.46-116.82,10-29.25,9.34-62.58,1.28-92.6-8.89-30.15-30.12-54-55.61-72.9-34.81-25.5-77.15-43-119.74-53a15.84,15.84,0,0,1,7.13-30.86,389.22,389.22,0,0,1,68.42,22.57c44.63,19.77,87.63,47.28,114.42,90,26.14,43.41,29.54,98.76,14.13,146.87-22.26,66.23-83.74,109.54-147,131.9-5.87,2-11.31,3.82-18,5.55l12-16.78c2.16,19.12-3.74,40.35-12.91,56.59l-9.72-22.68c28.79,7,41.86,40.51,33,66.53-6.85,24.49-29.4,42.24-54,46.31-38.77,8.14-93.51-3.88-119.67-12.25-87-11.38-120.08-85.26-106.73-165.73,21.58-107.6,110.09-208.92,204.32-261.07Z"/><path class="cls-19" d="M2693.23,1658.83s2.29,81.33-9.15,144.56"/><path class="cls-10" d="M2709.07,1658.38c-4.53,48.95-11.56,97.82-25,145,2.89-48.17-.7-96.48-6.69-144.12l31.68-.89Z"/><path class="cls-10" d="M2759.5,1935.82c23.45-12.43,45.09-30.09,61.11-51.54a126.25,126.25,0,0,0,13.85-24.23,130.36,130.36,0,0,1-6.85,27.93c-10.67,28-28.24,52.9-49.93,73.79l-18.18-26Z"/><path class="cls-10" d="M2745.5,1227.75a12.14,12.14,0,0,1-2.16-.2,11.88,11.88,0,0,1-9.55-13.82c10.05-54.88-16.29-104.86-68.75-130.44-50.66-24.71-133.44-27-200,47.75a11.88,11.88,0,0,1-17.76-15.79c70.55-79.28,165.43-83.9,228.16-53.31,61.51,30,93.58,91.25,81.71,156.07A11.9,11.9,0,0,1,2745.5,1227.75Z"/><path class="cls-10" d="M2697.66,1729.54c25.86,81.39,35.08,281-91.58,272.26l2.78-23.59c11.31,1.57,22.43.46,32.42-3.72,53.19-25.31,58.15-113.48,56.14-165.61a402,402,0,0,0-11.22-76.2l11.46-3.14Z"/><path class="cls-10" d="M2338.76,1888.5c-11.82,57.61-49.6,107.56-99.29,138.25-49.74,30.47-109.32,41.71-166.95,41.95l.28-23.75c27.38.84,54.79-.89,81.46-6.15C2235.17,2024.55,2307,1968,2327,1886.53l11.72,2Z"/><path class="cls-10" d="M2422.42,1397.48c12.09,22,31.12,41.82,54.95,50.08,7.37,2.86,15.23,3.48,22.71,3.92L2497,1475c-37.72-8.64-64.63-41.62-74.53-77.54Z"/><path class="cls-10" d="M2544.67,1403.51c13.39-15.07,29.66-32.47,32-52.61l29.57,11.37c-14.4,22.07-38.53,32.25-61.56,41.24Z"/><path class="cls-10" d="M1379.67,1876.59c35.3-5,63.16-36.84,76-69.7a130.84,130.84,0,0,1-19.3,56.92c-12.07,18.83-27,34.89-49.31,43.57l-7.41-30.79Z"/><path class="cls-11" d="M3463.89,3332c-76.06,76.07-199.4,76.07-275.47,0q-5.4-5.39-10.28-11.1a193.22,193.22,0,0,1-25-37.1h0a194.68,194.68,0,0,1,7.49-192.23q4.61-7.44,10-14.53a195.33,195.33,0,0,1,138.5-76.81c6.48-.56,13-.8,19.48-.73a195.11,195.11,0,0,1,45.68,6l2.7.71a193.52,193.52,0,0,1,54.13,23.91h0A194.66,194.66,0,0,1,3463.89,3332Z"/><path class="cls-29" d="M3499.43,3194.27a173.27,173.27,0,0,1-346.54,0s77.58,63.23,173.27,63.23S3499.43,3194.27,3499.43,3194.27Z"/><path class="cls-29" d="M3152.89,3194.27s35.26,28.74,87.57,47.47c-5.9,11.14-11.56,22.88-17.2,34.29-2.67,5.37-6.35,8.87-10.55,10.62-6.11,2.54-9.86,7.66-13.16,12.33-1.52,2.13-3,4.44-4.29,6.71-.24.4-.49.81-.76,1.21A172.47,172.47,0,0,1,3152.89,3194.27Z"/><path class="cls-29" d="M3443.36,3240.3c4.36,5.73,2,12-3.19,15.52s-10.58,6.91-15.6,10.48a63.92,63.92,0,0,0-22.84,29.22c-3.91,10.4-11.16,19.71-20,27.1-9.09,7.59-17.4,16.28-27,23.4-8,6-16.69,11.81-27.26,14.62-4.74,1.28-9.25,1.19-12.85-1.4-3.44-2.47-4.11-6.62-1.79-12.41a78.26,78.26,0,0,1,4.08-8.76,47.66,47.66,0,0,0,5.64-19.67c1.14-16,5.84-30.83,12.39-45.33a59.23,59.23,0,0,0,4.79-16c35.92-2.2,68.79-12.8,95.22-24.66a35.42,35.42,0,0,0,2.58,2.63c.39.34.75.78,1.11,1.15a1,1,0,0,1,.89.83A9.46,9.46,0,0,1,3443.36,3240.3Z"/><path class="cls-29" d="M3467.47,3215.67a18.61,18.61,0,0,1-2.76,12.19,16.91,16.91,0,0,1-6.51,6.47,7.81,7.81,0,0,1-3.82,1.55,6,6,0,0,1-4.75.69c-4.77.07-8.56-2.1-11.62-5.54C3449.11,3225.91,3459,3220.61,3467.47,3215.67Z"/><path class="cls-29" d="M3499.43,3194.27a173.59,173.59,0,0,1-6.6,47.52,96.87,96.87,0,0,0-8.61-24.46,74.88,74.88,0,0,0-5.2-8.73A239.24,239.24,0,0,0,3499.43,3194.27Z"/><path class="cls-30" d="M3165,3143.41c-2.1,2.12-4.16,1.16-6.16.22a11.64,11.64,0,0,1-5.88-6c-1.47-3.42-3.11-6.83-3.59-10.52a21.55,21.55,0,0,0-2.85-8.2,194,194,0,0,1,14.12-27.35c.41.17.82.32,1.24.48,4.21,1.64,5.4,5.09,3.34,10-.76,1.79-1.86,3.51-2.81,5.25-1,1.91-.92,3.06,1.08,3.8,4.42,1.62,5.6,4,4.72,8.46-.07.37-.16.74-.24,1.12,0,0,0,0,0,0a49.9,49.9,0,0,0-1.45,8.46c.33,2,.68,4.09,1,6.15A9,9,0,0,1,3165,3143.41Z"/><path class="cls-30" d="M3298.4,3040.45c-2.92,6.87-9.17,13.63-17.83,15.35a31.19,31.19,0,0,1-12.62-.46c-9.85-2.14-19.87,2-27.24,6-11.72,6.36-23.47,12.73-35.25,19-3.67,2-6.62,4.49-8,8.43a19,19,0,0,1-1.18,2.45c-1.82,3.64-4.32,6.48-8.3,7s-6.59-1.32-8-4.53c-1.05-2.38-1.14-5.17-1.77-7.67-1.14-4.53-3.26-8-7.66-9a195.33,195.33,0,0,1,138.5-76.81c-1.52,1-3.06,2-4.58,3a37.07,37.07,0,0,0-4.28,3.42c-3.25,3-4.28,5.09-3.46,7.68s2,4.85,2.89,7.47A26.46,26.46,0,0,1,3298.4,3040.45Z"/><path class="cls-30" d="M3374.23,3005.47c-.24.16-.48.3-.72.45-.69.48-1.38,1-2.08,1.43-7.27,4.06-14.35,7.13-23.58,7.7-4.32.28-8.81,2.06-13.27,6.66-3.92,4-8,6.89-11.79,5.44-4-1.5-4.95-5.42-3.65-10.69.85-3.5,2.87-6.95,5.11-10.41,1.41-2.19,2.95-4.36,4.3-6.56A195.11,195.11,0,0,1,3374.23,3005.47Z"/><path class="cls-30" d="M3502.42,3277.32c-3.48.48-6.18-1.51-7.36-5.65a22.5,22.5,0,0,1-.45-7.07,94,94,0,0,0-10.39-47.27,79.08,79.08,0,0,0-18.62-23.8c-1.09-1-2.23-2.14-3.65-1s-1.45,3.17-1.35,5a10.57,10.57,0,0,0,1.22,4.42c.9,1.74,1.82,3.51,2.77,5.15,4,6.79,4,14.65.11,20.68a16.76,16.76,0,0,1-6.49,6.48,8,8,0,0,1-3.84,1.56,5.88,5.88,0,0,1-4.74.67c-5.66.1-9.93-2.95-13.24-7.55-6.37-8.86-7-19.89-7-29.36,0-3,.29-6.08-.53-8.87-.44-1.53-.89-3.48-2.61-3.1s-1.88,2.5-2.06,4.22c-1.42,14.08.51,31.16,13.4,43.14.39.36.76.79,1.12,1.17a1,1,0,0,1,.88.83,9.3,9.3,0,0,1,3.82,3.26c4.35,5.74,2,12-3.19,15.53s-10.59,6.89-15.6,10.46a63.9,63.9,0,0,0-22.84,29.24c-3.91,10.39-11.17,19.7-20,27.08-9.09,7.6-17.4,16.29-27,23.41-8,6-16.69,11.81-27.25,14.63-4.75,1.27-9.25,1.18-12.86-1.42-3.45-2.47-4.11-6.61-1.78-12.4a76.43,76.43,0,0,1,4.07-8.75,47.86,47.86,0,0,0,5.64-19.68c1.15-16,5.84-30.84,12.4-45.32,5.33-11.8,6.78-23.9,4.29-37.42a69.77,69.77,0,0,0-2.68-9.58c-1.87-5.63-5.54-8.52-10.55-9.44-23.87-4.36-25.15-26.66-22.89-41.56,3.42-22.63,24.44-54.21,51.11-58.48,14.88-2.38,26.21,1.93,36.07,13.24,6.66,7.67,12.81,16.2,21.84,21.75a34.31,34.31,0,0,0,13.43,5,3.27,3.27,0,0,0,.76.08c2.12-.19,4.73-.07,5.56-3.16.73-2.74-1.54-4-3.05-4.92-7.07-4.44-7.85-12.1-6.94-18.48.52-3.64-.72-6.21-3-7.22-7.82-3.44-13.29-8.27-19.27-14.43-7.12-7.34-16.45-5.7-23.18-2.58-4.24,2-10.62,5.15-16.29,4.87a14.11,14.11,0,0,1-9.3-3.76c-6.88-6.67-2.65-17.5,2.72-22.61a38,38,0,0,1,12.5-7.73c9.52-3.76,15.61-10.94,20.6-18.41,4-5.9,8-12.51,13.4-17.35,7.2-6.41,16.33-12.15,28.5-11.14.83.07,1.67.18,2.49.31,0,0,0,0,0,0a195.07,195.07,0,0,1,71.36,247.22Z"/><path class="cls-30" d="M3181.55,3318.85a14.18,14.18,0,0,0-3.41,2.05,193.22,193.22,0,0,1-25-37.1h0l.09-.84c.79-7.41,1.65-14.92,2.75-22.33.68-4.51,1.23-9.09,1.59-13.8a28.54,28.54,0,0,0-2.14-14c-3.85-8.91-8.22-18.09-10.45-27-2.78-11.05-2.54-21,2.67-30.42,4.55-8.27,10.62-16.88,15.48-25.18,3.71-6.38,11.69-12.09,21.34-8.19,18.14,7.35,27.64,22.55,33.06,37.47,2,5.45,3.18,11.54,5.06,16.8s4.77,10.82,10.58,14.55c4.1,2.62,8,5.8,10.36,11.09a18.68,18.68,0,0,1-.57,15.18c-6.81,12.46-13.26,25.87-19.68,38.88-2.65,5.37-6.33,8.87-10.54,10.61-6.12,2.55-9.87,7.66-13.17,12.33-1.5,2.13-2.95,4.44-4.28,6.71C3192.13,3310.94,3187.82,3316.15,3181.55,3318.85Z"/><path class="cls-31" d="M3443.36,3240.3c4.36,5.73,2,12-3.19,15.52s-10.58,6.91-15.6,10.48a63.92,63.92,0,0,0-22.84,29.22c-3.91,10.4-11.16,19.71-20,27.1-9.09,7.59-17.4,16.28-27,23.4-8,6-16.69,11.81-27.26,14.62-4.74,1.28-9.25,1.19-12.85-1.4-3.44-2.47-4.11-6.62-1.79-12.41a78.26,78.26,0,0,1,4.08-8.76,47.66,47.66,0,0,0,5.64-19.67c1.14-16,5.84-30.83,12.39-45.33a59.23,59.23,0,0,0,4.79-16c35.92-2.2,68.79-12.8,95.22-24.66a35.42,35.42,0,0,0,2.58,2.63c.39.34.75.78,1.11,1.15a1,1,0,0,1,.89.83A9.46,9.46,0,0,1,3443.36,3240.3Z"/><path class="cls-31" d="M3467.47,3215.67a18.61,18.61,0,0,1-2.76,12.19,16.91,16.91,0,0,1-6.51,6.47,7.81,7.81,0,0,1-3.82,1.55,6,6,0,0,1-4.75.69c-4.77.07-8.56-2.1-11.62-5.54C3449.11,3225.91,3459,3220.61,3467.47,3215.67Z"/><path class="cls-31" d="M3499.43,3194.27a173.59,173.59,0,0,1-6.6,47.52,96.87,96.87,0,0,0-8.61-24.46,74.88,74.88,0,0,0-5.2-8.73A239.24,239.24,0,0,0,3499.43,3194.27Z"/><path class="cls-31" d="M3240.46,3241.74c-5.9,11.14-11.56,22.88-17.2,34.29-2.67,5.37-6.35,8.87-10.55,10.62-6.11,2.54-9.86,7.66-13.16,12.33-1.52,2.13-3,4.44-4.29,6.71-.24.4-.49.81-.76,1.21a172.47,172.47,0,0,1-41.61-112.63S3188.15,3223,3240.46,3241.74Z"/><circle class="cls-32" cx="3326.16" cy="3194.27" r="194.79"/><path class="cls-10" d="M3326.16,3404.89a209.26,209.26,0,0,1-148.94-61.69c-82.13-82.12-82.13-215.74,0-297.86a210.64,210.64,0,0,1,297.88,0c82.12,82.12,82.12,215.74,0,297.86A209.26,209.26,0,0,1,3326.16,3404.89Zm0-389.57a177.79,177.79,0,0,0-126.53,52.4c-69.78,69.78-69.78,183.32,0,253.09a178.94,178.94,0,0,0,253,0c69.78-69.78,69.78-183.32,0-253.1A177.77,177.77,0,0,0,3326.16,3015.32Z"/><polygon class="cls-19" points="2980.59 1661.21 2956.1 1666.79 2950.52 1705.5 2944.94 1666.79 2920.45 1661.21 2944.94 1655.63 2950.52 1616.93 2956.1 1655.63 2980.59 1661.21"/><polygon class="cls-19" points="1866.31 1775.39 1841.81 1780.97 1836.23 1819.68 1830.65 1780.97 1806.16 1775.39 1830.65 1769.81 1836.23 1731.11 1841.81 1769.81 1866.31 1775.39"/><polygon class="cls-19" points="955.2 1965.12 928.6 1971.19 922.54 2013.22 916.48 1971.19 889.88 1965.12 916.48 1959.06 922.54 1917.03 928.6 1959.06 955.2 1965.12"/><polygon class="cls-19" points="1213.17 1673.72 1196.06 1677.62 1192.17 1704.65 1188.27 1677.62 1171.17 1673.72 1188.27 1669.83 1192.17 1642.8 1196.06 1669.83 1213.17 1673.72"/><polygon class="cls-19" points="1325.98 2661.84 1301.49 2667.42 1295.9 2706.12 1290.32 2667.42 1265.83 2661.84 1290.32 2656.25 1295.9 2617.55 1301.49 2656.25 1325.98 2661.84"/><polygon class="cls-19" points="1213.12 3027.53 1196.06 3031.42 1192.17 3058.39 1188.28 3031.42 1171.21 3027.53 1188.28 3023.64 1192.17 2996.68 1196.06 3023.64 1213.12 3027.53"/><polygon class="cls-19" points="943.72 2519.59 926.65 2523.48 922.76 2550.45 918.88 2523.48 901.81 2519.59 918.88 2515.7 922.76 2488.74 926.65 2515.7 943.72 2519.59"/><polygon class="cls-19" points="688.22 2964.61 654.17 2972.37 646.41 3026.17 638.66 2972.37 604.61 2964.61 638.66 2956.85 646.41 2903.05 654.17 2956.85 688.22 2964.61"/><polygon class="cls-19" points="1419.53 3499.92 1395.04 3505.5 1389.46 3544.2 1383.88 3505.5 1359.39 3499.92 1383.88 3494.34 1389.46 3455.63 1395.04 3494.34 1419.53 3499.92"/><polygon class="cls-19" points="3050.75 3389.06 3033.97 3392.88 3030.15 3419.39 3026.33 3392.88 3009.55 3389.06 3026.33 3385.24 3030.15 3358.72 3033.97 3385.24 3050.75 3389.06"/><polygon class="cls-19" points="2614.44 3155.05 2589.95 3160.63 2584.37 3199.33 2578.79 3160.63 2554.3 3155.05 2578.79 3149.47 2584.37 3110.76 2589.95 3149.47 2614.44 3155.05"/><polygon class="cls-19" points="2159.78 3341.75 2135.29 3347.33 2129.71 3386.03 2124.13 3347.33 2099.64 3341.75 2124.13 3336.17 2129.71 3297.46 2135.29 3336.17 2159.78 3341.75"/><polygon class="cls-19" points="3373.31 2814.59 3348.82 2820.17 3343.24 2858.88 3337.66 2820.17 3313.17 2814.59 3337.66 2809.01 3343.24 2770.31 3348.82 2809.01 3373.31 2814.59"/><polygon class="cls-19" points="3285.21 2211.79 3250.21 2219.77 3242.23 2275.09 3234.26 2219.77 3199.25 2211.79 3234.26 2203.82 3242.23 2148.5 3250.21 2203.82 3285.21 2211.79"/><polygon class="cls-19" points="2528.32 2303.27 2508.95 2307.69 2504.53 2338.3 2500.12 2307.69 2480.75 2303.27 2500.12 2298.86 2504.53 2268.25 2508.95 2298.86 2528.32 2303.27"/><polygon class="cls-19" points="2076.59 2849.6 2047.03 2856.33 2040.29 2903.05 2033.56 2856.33 2003.99 2849.6 2033.56 2842.86 2040.29 2796.14 2047.03 2842.86 2076.59 2849.6"/><path class="cls-33" d="M1092.71,3240a163.36,163.36,0,1,1-248.94-156.4c3.65-2.29,7.4-4.42,11.21-6.4a164,164,0,0,1,66.26-18.15l.61,0c1.42-.08,2.83-.14,4.25-.17q4.24-.12,8.47,0a163.75,163.75,0,0,1,75.08,20.54c1.27.71,2.53,1.42,3.78,2.17.75.44,1.5.9,2.23,1.36A163.34,163.34,0,0,1,1092.71,3240Z"/><path class="cls-34" d="M1092.71,3240.05a163.37,163.37,0,1,1-324.48-38.25,163.36,163.36,0,0,0,321.23,16.68,158.73,158.73,0,0,0,3-16.58A163.84,163.84,0,0,1,1092.71,3240.05Z"/><path class="cls-34" d="M1029.67,3240.1c-4.46,19.9,1.65,36,13.64,36s26.41-15.68,30.87-35.58-2.73-36.52-14.72-36.49S1034.13,3220.19,1029.67,3240.1Z"/><path class="cls-35" d="M1020.85,3227c-7.48,18.5-5.42,46.67,14.33,56.06a1.2,1.2,0,0,1-.33,2.33c-26.58-2.46-33.26-43-16.42-60a1.49,1.49,0,0,1,2.42,1.65Z"/><path class="cls-34" d="M855.7,3110.72c-9,.36-16,6.86-15.77,14.5s7.71,13.55,16.67,13.18,16-6.86,15.77-14.51S864.66,3110.35,855.7,3110.72Z"/><ellipse class="cls-33" cx="859.75" cy="3129.21" rx="12.2" ry="9.84" transform="translate(-1032.8 493.04) rotate(-20.31)"/><path class="cls-35" d="M856.65,3139.76c-11.39,2-23.59-9.76-17.92-21.18,4.95-10.66,20.1-13.48,29.21-6.63,6.25,4.19,8.4,13.67,3.59,19.63a.6.6,0,0,1-1-.64c7.05-13.69-11.07-23.59-22.09-17-13.92,7.48-6.38,24.18,8.15,24.32a.73.73,0,0,1,.06,1.46Z"/><path class="cls-35" d="M877.11,3114.75c10.46,12.49-.52,30.11-14.89,32.75-10.37,2.4-22.52-1.19-28.25-10.54a18.64,18.64,0,0,1-2.64-10.08.59.59,0,0,1,1.18,0c4.94,30,57.71,18.13,43.4-11.26a.74.74,0,0,1,1.2-.84Z"/><path class="cls-35" d="M812.28,3161.33c21.53,1.24,34,26.32,28.31,45.81-4.37,19.44-23.15,36.22-43.49,34.13a1.19,1.19,0,0,1,0-2.36c36.62-3.53,53.46-61.13,14.63-74.7a1.48,1.48,0,0,1,.54-2.88Z"/><ellipse class="cls-34" cx="801.66" cy="3201.09" rx="28.16" ry="23.34" transform="translate(-2490.21 3431.73) rotate(-79.95)"/><path class="cls-33" d="M800.83,3225.13c8.3.1,16.75-5.55,21.09-15.05,5.77-12.65,2.07-27.34-8.26-32.81a17.46,17.46,0,0,0-4.52-1.65,28.71,28.71,0,0,0-14.87,15C788.41,3203.41,791.41,3218.17,800.83,3225.13Z"/><path class="cls-35" d="M778.62,3190.6c6.07-17.4,30.88-25.15,43.29-9.38,11.76,14.87,3.73,38.4-13,45.32-10.6,5.08-25.28,1.13-30-10a1.19,1.19,0,0,1,2-1.18,19.21,19.21,0,0,0,25.13,5.34c11.95-6.35,18-23.5,9.7-34.72-9.2-11.9-27-6.35-34.55,5.92a1.48,1.48,0,0,1-2.62-1.32Z"/><path class="cls-35" d="M995.41,3193.47c8.26,56.3-65.41,75.68-94.68,30.9a52.57,52.57,0,0,1-7.3-17.79,1.18,1.18,0,0,1,.94-1.39,1.19,1.19,0,0,1,1.33.75,56.37,56.37,0,0,0,22.15,27.26c31.91,21,75.8.2,74.64-39.42a1.48,1.48,0,0,1,2.92-.31Z"/><ellipse class="cls-34" cx="943.57" cy="3195.91" rx="35.91" ry="32.74" transform="translate(-830.44 375.08) rotate(-15.72)"/><path class="cls-33" d="M914.11,3205c3,11.19,13.11,20.15,26.28,22,17.53,2.41,33.92-8.76,36.62-24.94a27.53,27.53,0,0,0,.28-6.76,35.52,35.52,0,0,0-23.79-13.66C935.7,3179.1,919,3189.36,914.11,3205Z"/><path class="cls-35" d="M947.47,3161.13c35.6,4,44.68,54.17,9.28,66.68-32.47,11.38-64.36-28.88-40.41-55.54a1.19,1.19,0,0,1,1.82,1.51c-8,11.2-6.42,26.74,2,36.42,12,15.23,38,16.11,48.1-1.09,10.56-17.29-1.8-40.3-21.32-45.09a1.48,1.48,0,0,1,.53-2.89Z"/><path class="cls-33" d="M834,3305.12c-6.08,13.65-1.77,28.74,9.35,42a76.91,76.91,0,0,0,30.22,21.4c31.75,12.87,65.65,5,75.71-17.65,0,0,16.41-38.65-30.79-62.35C858.17,3258.26,834,3305.12,834,3305.12Z"/><path class="cls-35" d="M835.8,3305.91c-7.76,26.84,18.07,49.27,40.83,58.14,23.29,9.18,56.35,9.81,71.21-13.79a1.58,1.58,0,0,1,2.17-.59,1.61,1.61,0,0,1,.72,1.87,36.4,36.4,0,0,1-13.35,17.71c-37.5,25.19-99.11,1.8-108.81-42.78a33.45,33.45,0,0,1,3.63-22.15,2,2,0,0,1,3.6,1.59Z"/><ellipse class="cls-34" cx="891.66" cy="3327.72" rx="34.25" ry="47.12" transform="translate(-2553.44 3338.62) rotate(-75.18)"/><ellipse class="cls-33" cx="893.91" cy="3337.28" rx="25.19" ry="39.94" transform="translate(-2548.71 3628.7) rotate(-79.84)"/><path class="cls-35" d="M921.67,3356.9c25.19-16.22,6.91-45.69-15.11-54.36-18.76-9.45-54.15-8.47-56.28,17.83-.08,16.25,14.16,29.78,28.24,36.94a1.59,1.59,0,0,1-1.19,2.93c-47.51-14.83-49.29-73.06,6-73.77,19.15.49,37.9,9,49.78,24.4,13.21,16,10.88,41.34-9.65,49.51a2,2,0,0,1-1.83-3.48Z"/><path class="cls-33" d="M992.54,3132.55a29.11,29.11,0,0,0,12.06-15.06c3.73-11.21-.82-22.74-10.58-32.34a60.9,60.9,0,0,0-25.41-14.51c-26-7.68-52,1.14-58.19,19.7-2.3,6.91-1.52,14.19,1.7,21,5.43,11.5,18,21,34.29,25.84"/><path class="cls-35" d="M1003.21,3117c5-32.72-40.76-50.71-67.5-44.07-10,2.25-19.73,8-24.17,17.76a1.19,1.19,0,0,1-2.24-.75c14.4-42.38,86.91-28.45,97.77,10.36A26.74,26.74,0,0,1,1006,3118a1.47,1.47,0,0,1-2.77-.95Z"/><ellipse class="cls-34" cx="957.52" cy="3104.14" rx="27.06" ry="37.23" transform="translate(-2260.08 3550.85) rotate(-80.76)"/><ellipse class="cls-33" cx="955.02" cy="3096.79" rx="19.9" ry="31.56" transform="translate(-2208.11 3801.64) rotate(-85.42)"/><path class="cls-35" d="M931.63,3083.42c-18.75,14.49-2,36.88,16,41.89,15.65,6.07,43.52,2.44,43.2-18.59-1.17-12.89-13.6-22.38-25.26-26.92a1.18,1.18,0,0,1,.67-2.26c22.62,3.74,43.94,31.33,22.24,50-23.14,18.78-70.25,4-70.6-28.2A22.81,22.81,0,0,1,930,3081a1.47,1.47,0,0,1,1.61,2.44Z"/><ellipse class="cls-33" cx="1047.19" cy="3238.88" rx="31.7" ry="16.52" transform="matrix(0.32, -0.95, 0.95, 0.32, -2356.42, 3189.86)"/><path class="cls-35" d="M1072,3214.73c-12.53-18.16-32.82,3.1-37.19,17.57-5.57,12.81-7.07,41.2,13,39.07,11.48-2.67,19.72-14.15,24.63-24.63a1.18,1.18,0,0,1,2.22.78c-3.62,19.09-29.36,44.31-45.93,22.54-14.36-22.23,1.55-63.8,28.57-67.6a17.42,17.42,0,0,1,17.31,10.89,1.48,1.48,0,0,1-2.59,1.38Z"/><g class="cls-36"><path class="cls-19" d="M1008.81,3132.41c.81,19.75,33.09,35.93,45.62,87.25,5.31,21.77,23.07-3.09,5.6-43.91C1043.84,3137.91,1008.24,3118.49,1008.81,3132.41Z"/></g><g class="cls-36"><path class="cls-19" d="M960.41,3105.74c4.59,5.79,18.88,7.8,31.58,16.26,13.57,9.05,23.27,1.3,2.81-17.91C973,3083.62,951.76,3094.82,960.41,3105.74Z"/></g><path class="cls-10" d="M930.06,3393.52a171.31,171.31,0,0,1-90.48-316.6c3.76-2.35,7.72-4.62,11.75-6.71a173,173,0,0,1,69.47-19l.86-.05c1.25-.07,2.75-.13,4.25-.17,2.94-.08,5.9-.08,8.85,0a169.54,169.54,0,0,1,59.8,12.48,171.78,171.78,0,0,1,18.93,9.06c1.37.77,2.7,1.52,4,2.3.73.43,1.54.92,2.33,1.41a171.88,171.88,0,0,1,80.76,164.68,169.19,169.19,0,0,1-3.41,20,171.69,171.69,0,0,1-167.12,132.67Zm-8.82-334.43.44,7.91a157,157,0,0,0-63,17.27c-3.65,1.89-7.24,3.94-10.65,6.08a155.41,155.41,0,1,0,236.86,148.82h0a156,156,0,0,0-73.31-149.47c-.71-.44-1.4-.87-2.1-1.27-1.26-.76-2.46-1.43-3.66-2.11a156,156,0,0,0-17.17-8.2,153.57,153.57,0,0,0-54.23-11.33c-2.67-.06-5.36-.06-8,0-1.38,0-2.71.09-4,.16Z"/></svg>