<svg xmlns="http://www.w3.org/2000/svg" viewBox="0 0 11636.4 2702.6"><defs><style>.cls-1{fill:#2c2451;}.cls-2{fill:#fff;}.cls-3{fill:#ffe448;}.cls-4{fill:#ff5a5a;}.cls-5{fill:#3ecdff;}.cls-6{opacity:0.3;}.cls-7{fill:#371a45;}.cls-8{fill:#db1947;}.cls-9{opacity:0.4;}.cls-10{fill:#dda55b;}.cls-11{fill:#ffdb23;}.cls-12{fill:#220f2d;}.cls-13{opacity:0.5;}</style></defs><g id="Calque_2" data-name="Calque 2"><g id="Layer_1" data-name="Layer 1"><path class="cls-1" d="M10986.45,1920.21s154.21-28.9,193.67,0,60.23,57.79,130.85,48.16,168.23-36.12,172.38,16.86-37.38,48.16-105.92,60.2-70.61,55.39-24.92,67.43,213.92,31.3,245.07,72.24,51.92,65-87.23,103.55-195.23-19.26-257.53-2.41-83.08,34.21-147.46,31.56-141.21-41.19-158.88,9.38,46.72,57.8,140.18,57.8,182.77,7.22,166.16,36.12-97.62,67.43-218.08,50.57-224.3-57.8-346.84-36.12-180.69,40.94-255.46,24.08-105.92,25.08-168.23,16.15-155.76-21-137.07,22.38,153.69,16.86,168.23,55.39-60.23,81.87-108,65-64.39,17.11-147.46,3.74-97.62-44.68-193.15-25.42-255.46,52.41-324,28.62-243,17.14-280.38-40.66,24.92-45.75,147.46-55.39,168.23-57.79,78.92-74.65-321.92-4.81-423.68-36.12-205.62-96.32-236.77-67.43,109,81.88,103.28,106-92.9,60.2-209.2-2.41-93.46-86.69-182.77-89.1-108-41-182.77-95.13-141.22-.3-166.15-110.32,236.77-139,236.77-139Z"/><path class="cls-1" d="M10559.13,2566.79s102.81-34.92,143.31-37.33,88.27,38.53,143.3,37.33,89.31,30.1,31.16,55.39-140.19-3.28-235.73,11.61-150.57-15.22-144.34-35.69S10559.13,2566.79,10559.13,2566.79Z"/><path class="cls-1" d="M9588.25,2649.68c-27.63,0-52-2.65-70.71-9.14-24.41-8.48-68.1-7.78-110.36-7.1-74.1,1.22-150.75,2.43-178.16-39.94-8.46-13.08-18.7-32.42-10-49.32,11.44-22.28,44.22-23.84,103.73-26.68,19.42-.93,41.44-2,65.86-3.9,72.7-5.71,104.52-23.69,110.26-31.33-2.52-2.23-10.62-7.59-33-11.82-35.74-6.75-97.35-8.78-162.58-10.93-94.28-3.11-201.13-6.64-262.83-25.62C9005,2423,8969,2408,8937.17,2394.69c-45.33-18.94-101.4-42.35-116.69-32.79,5.73,9.8,35.14,28.65,51.43,39.09,34.94,22.39,60.19,38.57,55.17,59.88-2.92,12.42-14.65,23.81-33,32.08-40.66,18.3-114.33,21.57-199.2-24.13-46.12-24.82-71-43.83-89.19-57.71-27.57-21.06-36.86-28.15-86.47-29.49-72.88-2-103.44-27.17-145.72-62-13.14-10.84-28-23.12-45.95-36.11-25.72-18.64-50.24-23-73.94-27.21-39.67-7.06-80.7-14.35-98.4-92.47-5.16-22.79-.74-44.22,13.12-63.69,52.24-73.35,229.88-93.8,237.42-94.64l1.13-.08,2577.82-101c29.41-5.45,162.59-27.94,204.86,3,6.53,4.79,12.47,9.49,18.21,14,29.17,23.11,48.45,38.38,101.08,31.19,11.24-1.53,23.05-3.48,35.56-5.54,56.42-9.31,109.71-18.09,137.76,3.87,10.09,7.92,16,19.35,17.08,33,4.62,59-38,65.11-87.4,72.21-10,1.44-20.38,2.94-31.64,4.91-30.66,5.39-42.48,16.85-42.73,22.81-.18,4.08,6.47,10.23,19.11,13.56,10.59,2.79,29.12,6.17,50.58,10.08,96.2,17.56,177.89,34.78,203.1,67.92l1.31,1.72c15.62,20.49,30.36,39.85,22.81,62.28-8.38,24.89-42,43-119.76,64.52-87.36,24.19-143.05,12.13-187.8,2.44-27.2-5.9-48.69-10.56-69.83-4.82-17.93,4.85-32.62,9.84-45.59,14.24-32.6,11.09-58.35,19.84-106.68,17.85-20.64-.85-41.72-5-62.1-9-49.84-9.86-74.08-12.31-81.09,7.78-4,11.39-1,15.56-.05,16.94,14,19.69,91.93,19.69,125.2,19.69,142.59,0,171.28,16.37,180.55,32.39,4.93,8.53,4.72,18.33-.6,27.58-20.14,35-106.08,76.33-234.07,58.4-35.78-5-70.18-12.12-103.44-19-79.6-16.46-154.78-32-238.43-17.21-24.81,4.39-47.36,8.75-67.25,12.6-79.29,15.35-131.68,25.49-194.48,11.33-36.64-8.25-61.26-1-87.32,6.77-23.51,7-47.81,14.17-79.67,9.62-25.15-3.61-54.06-7.52-78.78-8.32-31.7-1-40.64,3.84-42.51,5.2a14.21,14.21,0,0,0,1.09,3.44c5.88,13.63,46.27,17.46,75.76,20.26,42.26,4,82.18,7.8,92.75,35.81,6.88,18.23,1.16,38.56-15.7,55.79-24.86,25.41-73.74,43.53-112.49,29.85-18.59-6.56-30.79-3.75-49.25.52-21.93,5.07-49.23,11.36-95.44,3.93-29.8-4.8-51.1-11.79-69.89-18-34.26-11.24-59-19.36-117.59-7.56l-6.58,1.33C9768.58,2628.91,9665.67,2649.67,9588.25,2649.68Zm-145.77-48.44c33.31,0,63.46,1.58,85.5,9.24,62.89,21.82,217-9.27,309-27.85l6.59-1.34c66.81-13.47,97.86-3.28,133.81,8.53,18.53,6.09,37.7,12.38,65,16.78,40.07,6.44,63,1.16,83.22-3.52,20.41-4.71,39.68-9.16,67,.48,25.19,8.87,61.94-4.52,79.16-22.1,4.6-4.71,11.85-13.86,8.66-22.29-3.56-9.44-45.72-13.45-66-15.37-43.57-4.13-88.63-8.41-102-39.34-7.64-17.71-1.74-29.56,2.46-35.06,18-23.54,67.14-21.45,151.48-9.37,25,3.58,44-2.07,66.1-8.61,27.49-8.16,58.64-17.39,103.37-7.31,56.3,12.68,103.4,3.57,181.43-11.54,20-3.87,42.69-8.26,67.76-12.69,89.67-15.86,167.75.29,250.42,17.39,32.76,6.77,66.64,13.78,101.4,18.64,110.15,15.42,183.35-17.73,200.27-40-8.27-4.56-39.35-15-150.56-15-80.84,0-131.49-5.42-151.15-33.1-8.92-12.58-10.28-28-4.05-45.86,16.9-48.36,70.25-37.8,117.31-28.5,19.2,3.79,39.06,7.72,57.24,8.47,42.39,1.75,63.37-5.39,95.13-16.18,13.41-4.55,28.62-9.72,47.52-14.84,28.63-7.74,54.69-2.09,84.88,4.44,41.33,9,92.77,20.1,172.57-2s95.75-37.07,98.09-44c2.16-6.43-8.07-19.86-18-32.85l-1.32-1.73c-19.79-26-126.28-45.44-183.5-55.88-23-4.2-41.19-7.51-53-10.62-27.28-7.19-43.68-24.69-42.8-45.67,1.08-25.67,26.88-45.41,69-52.81,11.74-2.06,22.82-3.66,32.6-5.07,53.85-7.75,62.34-11,60.21-38.22-.49-6.18-2.79-8.77-5-10.48-17-13.34-70.21-4.57-113,2.47-12.17,2-24.75,4.08-36.43,5.68-66.07,9-94.76-13.72-125.14-37.78-5.51-4.37-11.21-8.88-17.26-13.31-23.37-17.13-120.12-8.68-181.33,2.8a16.5,16.5,0,0,1-2.31.26l-2578.41,101c-47.89,5.4-178.09,30.33-214.45,81.41-8.5,11.94-11.12,24.43-8,38.19,13,57.52,35.58,61.53,72.93,68.17,24.68,4.39,55.41,9.85,87,32.77,18.73,13.57,34,26.19,47.53,37.33,40.15,33.12,64.39,53.11,126.33,54.78,57.47,1.56,73.7,12.17,104.93,36,17.33,13.23,41.06,31.35,85,55,86.31,46.46,146.78,31.78,163.26,26.17,11.61-3.94,17.95-8.43,20.93-11.26-7-7.17-26.12-19.44-39.38-27.94-40.25-25.79-64.82-43-66.75-64.65-.79-8.76,2.59-17.12,9.5-23.53,28-26,82.72-3.19,151.94,25.72,32.64,13.63,66.39,27.72,100.32,38.16,57.64,17.73,162.24,21.18,254.53,24.23,66.49,2.19,129.29,4.27,167.43,11.47,50.72,9.57,60.4,29.28,59.6,44.13-2,37.76-73.77,56.79-140.22,62-24.91,2-47.19,3-66.84,4-32.71,1.56-69.69,3.32-76.74,9.37.1,1.48,1,6.43,8.23,17.55,17.82,27.55,88.53,26.41,150.93,25.42C9418.85,2601.43,9430.86,2601.24,9442.48,2601.24Zm1544-681h0Z"/><path class="cls-1" d="M10591.93,2653.7c-52,0-87.94-14-102.84-31.17-10.52-12.12-9.21-23.41-7.49-29.07,8-26.27,53.17-38.06,73.44-42.08,11.54-3.89,106-35.39,146.45-37.8,22.77-1.31,45.33,7.92,69.22,17.74,24.07,9.9,48.9,20.16,74.69,19.56,41-.85,71.94,13.81,77,36.61,2.41,11,.54,32-39.11,49.28-35,15.23-75.07,13-121.43,10.43-35.72-2-76.2-4.24-118.19,2.31A336.43,336.43,0,0,1,10591.93,2653.7Zm-79-52.14c6.71,8.35,47.39,28.71,125.79,16.5,45.32-7,87.57-4.7,124.85-2.64,42.33,2.37,78.87,4.4,107-7.84,15.31-6.65,19.46-12,20.43-13.62-2.87-4-18.11-11.78-44.89-11.26-32.34.62-61.65-11.33-87.48-21.94-20.43-8.4-39.71-16.33-55.23-15.41-31.44,1.87-111.09,27-139.13,36.51a14.94,14.94,0,0,1-2.09.55h0C10541,2586.54,10518.42,2595.43,10512.93,2601.56Zm46.2-34.77h0Z"/><path class="cls-2" d="M11062.32,2059.92c6.7,35.13,5.89,70.83,3.89,106.33-.82,11.82-1.89,23.63-3.89,35.45a2.69,2.69,0,0,1-5.31,0c-2-11.82-3.07-23.63-3.89-35.45a576.21,576.21,0,0,1-.53-70.89c.84-11.81,2-23.63,4.42-35.44.5-2.81,4.83-2.81,5.31,0Z"/><path class="cls-2" d="M11000.3,2128.16c29.41-6.7,59.49-5.94,89.34-3.9a257.5,257.5,0,0,1,29.78,3.9,2.7,2.7,0,0,1,0,5.3,257.5,257.5,0,0,1-29.78,3.9,398.72,398.72,0,0,1-59.56.52,187.68,187.68,0,0,1-29.78-4.42,2.75,2.75,0,0,1,0-5.3Z"/><path class="cls-2" d="M10558.42,2290.66c6.68,25,6,50.72,3.9,76.21a190.7,190.7,0,0,1-3.9,25.41,2.72,2.72,0,0,1-5.3,0,187.5,187.5,0,0,1-3.9-25.41,289.36,289.36,0,0,1-.53-50.81,139,139,0,0,1,4.43-25.4,2.78,2.78,0,0,1,5.3,0Z"/><path class="cls-2" d="M10513.22,2338.81c20.84-6.65,42.59-6,64-3.89a135.32,135.32,0,0,1,21.34,3.89,2.76,2.76,0,0,1,0,5.31,135.32,135.32,0,0,1-21.34,3.89,204.43,204.43,0,0,1-42.69.53,99.47,99.47,0,0,1-21.34-4.42,2.83,2.83,0,0,1,0-5.31Z"/><path class="cls-2" d="M9699.35,2453.21c6.68,25,5.95,50.72,3.9,76.21a187.12,187.12,0,0,1-3.9,25.4,2.72,2.72,0,0,1-5.3,0,190.31,190.31,0,0,1-3.9-25.4,290.34,290.34,0,0,1-.52-50.81,138.12,138.12,0,0,1,4.42-25.4,2.78,2.78,0,0,1,5.3,0Z"/><path class="cls-2" d="M9654.15,2501.36c20.85-6.65,42.59-6,64-3.89a135.44,135.44,0,0,1,21.35,3.89,2.76,2.76,0,0,1,0,5.31,135.44,135.44,0,0,1-21.35,3.89,204.35,204.35,0,0,1-42.68.53,99.56,99.56,0,0,1-21.35-4.42,2.83,2.83,0,0,1,0-5.31Z"/><ellipse class="cls-3" cx="9208.24" cy="2364.13" rx="17.72" ry="20.55"/><ellipse class="cls-3" cx="8936.73" cy="2236.28" rx="17.72" ry="20.55"/><ellipse class="cls-3" cx="10811.55" cy="2353.75" rx="17.72" ry="20.55"/><ellipse class="cls-3" cx="11180.15" cy="2059.92" rx="35.45" ry="41.1"/><ellipse class="cls-3" cx="9909.09" cy="2465.03" rx="35.45" ry="41.1"/><ellipse class="cls-3" cx="8353.01" cy="2136.98" rx="26.48" ry="30.7"/><ellipse class="cls-4" cx="11180.15" cy="2201.7" rx="22.82" ry="26.46"/><ellipse class="cls-4" cx="8694.1" cy="2317.12" rx="22.82" ry="26.46"/><ellipse class="cls-4" cx="10395.08" cy="2353.75" rx="22.82" ry="26.46"/><ellipse class="cls-4" cx="9593.4" cy="2438.57" rx="22.82" ry="26.46"/><ellipse class="cls-5" cx="10745.08" cy="2583.57" rx="17.72" ry="20.55"/><ellipse class="cls-5" cx="10704.81" cy="2290.66" rx="17.72" ry="20.55"/><ellipse class="cls-5" cx="10013.88" cy="2412.11" rx="17.72" ry="20.55"/><ellipse class="cls-5" cx="10013.88" cy="2529.36" rx="17.72" ry="20.55"/><ellipse class="cls-5" cx="10311.01" cy="2380.21" rx="17.72" ry="20.55"/><ellipse class="cls-5" cx="8805.26" cy="2290.66" rx="17.72" ry="20.55"/><ellipse class="cls-5" cx="8640.67" cy="2130.91" rx="17.72" ry="20.55"/><ellipse class="cls-5" cx="9054.49" cy="2343.58" rx="17.72" ry="20.55"/><ellipse class="cls-5" cx="10905.51" cy="2101.02" rx="17.72" ry="20.55"/><ellipse class="cls-2" cx="10650.26" cy="2570.46" rx="17.72" ry="20.55"/><ellipse class="cls-2" cx="11101.69" cy="2432.66" rx="17.72" ry="20.55"/><ellipse class="cls-2" cx="9556.72" cy="2549.91" rx="17.72" ry="20.55"/><ellipse class="cls-2" cx="8418.58" cy="2236.28" rx="17.72" ry="20.55"/><ellipse class="cls-2" cx="9776.87" cy="2400.76" rx="17.72" ry="20.55"/><ellipse class="cls-2" cx="9703.72" cy="2287.64" rx="17.72" ry="20.55"/><ellipse class="cls-2" cx="9415.68" cy="2380.21" rx="17.72" ry="20.55"/><ellipse class="cls-2" cx="10162.45" cy="2380.21" rx="17.72" ry="20.55"/><ellipse class="cls-2" cx="10870.06" cy="2201.36" rx="17.72" ry="20.55"/><ellipse class="cls-5" cx="11339.08" cy="2180.81" rx="17.72" ry="20.55"/><ellipse class="cls-5" cx="11000.3" cy="2018.82" rx="17.72" ry="20.55"/><path class="cls-2" d="M9068.15,2088.45s-540.35-733.72-529.61-758.82,968.19-179.11,968.19-179.11,341.54-533.31,375.44-538.59S10284.31,1196,10284.31,1196s862.07,104.14,864,116.36-411.29,764.88-457.52,802.3-600.77,170.7-862.3,164.38S9091.33,2120,9068.15,2088.45Z"/><g class="cls-6"><polygon class="cls-7" points="8613.39 1356.61 9458.03 1225.19 9248.75 1546.08 9234.97 1567.21 9220.52 1567.5 8613.39 1356.61"/></g><g class="cls-6"><polygon class="cls-7" points="10320.23 1255.25 11080.63 1340.24 10496.88 1540.28 10486.32 1529.05 10320.23 1255.25"/></g><g class="cls-6"><path class="cls-7" d="M9304.57,1599.4l580.24-924.88,548,890.74s-559,166.39-590.77,171.1-54.06,7.56-54.06,7.56l-37.69-4.22Z"/></g><g class="cls-6"><path class="cls-7" d="M9794.83,2104c311.78,16.41,762.57-507.54,762.57-507.54l457-155-380.87,697.37s-514.65,136.86-763.84,140.18-810.36-175-810.36-175L9018,2020S9483.05,2087.56,9794.83,2104Z"/></g><g class="cls-6"><polygon class="cls-7" points="9579.13 1925.97 9774.43 1812.91 9992.72 1925.18 9778.03 1748.73 9579.13 1925.97"/></g><path class="cls-7" d="M9845.83,2295.2c-6.09,0-12-.07-17.75-.21-250.92-6.06-741.63-154.74-772.76-197.12-2-2.67-137-186.06-268.93-370.15-77.74-108.43-139.23-195.9-182.79-260-86.81-127.73-84-134.34-79.69-144.36,4.21-9.85,7-16.36,167.36-47.93,80.87-15.92,192.8-36.26,332.68-60.46,215.22-37.23,431.89-72.36,473.23-79,17.66-27.48,93.32-145,171.33-261.58,183.13-273.78,200-276.41,211.22-278.15,14.68-2.28,31.31-4.88,229.53,297.07,84,127.93,165.67,257.84,184.5,287.88,40.07,4.86,233,28.31,423.84,52.7,125.34,16,225.3,29.28,297.11,39.45,42.74,6,75.9,11.06,98.55,14.9,38.34,6.48,48.64,8.22,50.74,21.75,1.06,6.78,1.54,9.87-65.89,135.24-41.39,77-94.85,174.16-146.65,266.68-99.19,177.12-223.19,392.93-250.69,415.19C10649.07,2168.91,10107.05,2295.19,9845.83,2295.2Zm-765.15-216.56c31.9,30.49,489.14,178.28,748.16,184.53,112.07,2.75,297.35-21.15,508.24-65.46,199-41.8,327.45-82.26,343.67-95.38,12.9-10.45,82.73-120.29,237-395.5,98.14-175,184.57-335.18,208.67-384.06-89.67-17.37-540.12-74.21-844.07-110.93a16,16,0,0,1-11.59-7.37C10142.47,999.06,9929.6,671.07,9883,630.35c-43.36,40.17-242.41,340.61-362.9,528.75a15.9,15.9,0,0,1-10.87,7.13c-348,56-869,144.76-951.24,171.52C8596.44,1412.55,8892.48,1823.07,9080.68,2078.64Zm.29.39h0Zm0-.07,0,0ZM9878.44,627Z"/><path class="cls-7" d="M9782.33,1760.69c-99.12,0-1202.26-399.1-1249.21-416.1a15.91,15.91,0,0,1,10.83-29.92c318.29,115.27,1160.56,414.2,1238.21,414.2h.2c92.62-.62,1147.08-334.92,1359.36-431a15.91,15.91,0,1,1,13.12,29c-109.2,49.41-443.11,162-725.59,251.68-276.58,87.8-591.7,181.74-646.68,182.11Z"/><path class="cls-7" d="M10493.76,1557.2a15.91,15.91,0,0,1-13.62-7.66l-209.43-345.25a15.91,15.91,0,0,1,27.2-16.5L10507.35,1533a15.92,15.92,0,0,1-5.36,21.86A15.74,15.74,0,0,1,10493.76,1557.2Z"/><path class="cls-7" d="M9230.49,1590a15.92,15.92,0,0,1-13.32-24.61l276.23-423.54a15.91,15.91,0,0,1,26.66,17.38l-276.23,423.54A15.91,15.91,0,0,1,9230.49,1590Z"/><path class="cls-7" d="M9563.21,1933c48.7-52.62,102.32-103.23,155-151.81,17.79-16.22,35.63-32.4,53.76-48.25a15.64,15.64,0,0,1,20.8-.19c40,34.54,79.64,69.38,118.6,105s77.71,71.71,115,109.23c4.38,4.46-1.63,11.89-6.91,8-85.24-62.56-166.76-129.91-247.29-198.34l20.81-.2c-35.72,32.32-72.22,63.74-109.13,94.69-13.77,11.54-41.94,34.52-56,45.7-19,14.91-37.92,29.84-57.56,44-5,3.64-11.41-3.18-7.06-7.92Z"/><path class="cls-7" d="M9898.07,611.26c3.22,60,4.88,120.11,5.72,180.2-.19,60.45,4.68,120.43-5.12,180.66a1.37,1.37,0,0,1-2.65.12c-7.77-29.75-11.2-59.68-13.51-89.66-7.21-89.88-13.47-179.85-16.24-270,0-20.57,30.06-22,31.8-1.34Z"/><path class="cls-7" d="M9239.29,2144.35c35.89-14.28,74-30,109.46-45.94,37.29-15.83,69.71-37.08,108.48-50.84a1.4,1.4,0,0,1,1.61,2.11c-24.76,34-62.32,53-97.45,73.83-35.88,19.74-72.45,37-111.23,50.76-19.7,6.35-30.1-22.12-10.87-29.92Z"/><path class="cls-7" d="M10391.75,2210.3c-45-20.61-87.62-45.1-129.39-71.27-41.16-27.17-84.14-51.72-117.26-89.31a1.39,1.39,0,0,1,1.51-2.19c23.84,8.33,45.14,20,66.25,32,63,35.77,127.68,69.56,192.29,101.9,18.52,9.35,5.8,37-13.4,28.87Z"/><path class="cls-2" d="M10533.07,1590.1c-110,0-199.17,96.24-199.17,215s89.17,215,199.17,215,199.18-96.24,199.18-215S10643.08,1590.1,10533.07,1590.1Zm0,318.44c-52.94,0-95.86-46.33-95.86-103.47s42.92-103.47,95.86-103.47,95.87,46.33,95.87,103.47S10586,1908.54,10533.07,1908.54Z"/><path class="cls-8" d="M10577,1713.06s47.93-36.13,47.89-98.84c0,0-41.5-35.28-119.94-22.53s-125,74.62-125,74.62,69.29,16.33,87.9,63C10467.8,1729.32,10525.93,1683.72,10577,1713.06Z"/><g class="cls-9"><path class="cls-2" d="M10343.87,1758.46s72.29-135.84,189.2-134.88,174.63,78,174.63,78-52.23-124.9-190.81-111.5S10346.74,1727.85,10343.87,1758.46Z"/></g><path class="cls-8" d="M10600.94,1873.66s58,15.41,81.6,73.51c0,0-25.15,48.33-102.61,66.06s-143.9-22-143.9-22,58-41.23,57.68-91.48C10493.71,1899.73,10564.73,1920.06,10600.94,1873.66Z"/><path class="cls-7" d="M10533.07,2036c-118.6,0-215.09-103.58-215.09-230.89s96.49-230.89,215.09-230.89,215.1,103.58,215.1,230.89S10651.67,2036,10533.07,2036Zm0-429.95c-101,0-183.26,89.3-183.26,199.06s82.21,199.06,183.26,199.06,183.27-89.3,183.27-199.06S10634.13,1606,10533.07,1606Z"/><path class="cls-7" d="M10533.07,1924.45c-61.63,0-111.77-53.56-111.77-119.38s50.14-119.38,111.77-119.38,111.78,53.55,111.78,119.38S10594.71,1924.45,10533.07,1924.45Zm0-206.94c-44.08,0-79.95,39.28-79.95,87.56s35.87,87.55,79.95,87.55,80-39.28,80-87.55S10577.16,1717.51,10533.07,1717.51Z"/><g class="cls-6"><path class="cls-7" d="M10533.07,1676.67c-52.94,0-95.86,41-95.86,91.62a87.88,87.88,0,0,0,1.79,17.5c8.56-42.22,47.4-74.11,94.07-74.11s85.52,31.89,94.07,74.11a87.89,87.89,0,0,0,1.8-17.5C10628.94,1717.69,10586,1676.67,10533.07,1676.67Z"/><path class="cls-7" d="M10533.07,1980.5c-103.82,0-189-85.75-198.3-195.2-.55,6.51-.87,13.1-.87,19.77,0,118.73,89.17,215,199.17,215s199.18-96.24,199.18-215c0-6.67-.32-13.26-.87-19.77C10722.13,1894.75,10636.9,1980.5,10533.07,1980.5Z"/></g><path class="cls-10" d="M10525.79,1590.27v-65.54s-8.14-34.44-45.12-36.35-33.93,67.94-33.93,67.94l33.93-15,.71,55.15Z"/><path class="cls-7" d="M10481.38,1612.35a15.92,15.92,0,0,1-15.91-15.71l-.4-31-11.88,5.26a15.91,15.91,0,0,1-22.34-13.84c-.23-5.19-1.6-51.33,20.25-73a39,39,0,0,1,30.39-11.53c38.68,2,56,32.65,59.78,48.58a15.58,15.58,0,0,1,.43,3.66v65.54A15.91,15.91,0,0,1,10528,1606l-44.42,6.17A16.08,16.08,0,0,1,10481.38,1612.35Zm44.41-22.08h0Zm-45.12-64.9a15.92,15.92,0,0,1,15.91,15.71l.47,37.11,12.82-1.78V1527c-1.75-5.24-8.9-21.61-30-22.7a7.5,7.5,0,0,0-6.33,2.34c-4.62,4.59-7.62,14.29-9.29,24.56l10-4.43A16,16,0,0,1,10480.67,1525.37Z"/><path class="cls-2" d="M9922.33,53.94A38,38,0,1,0,9860,83.17v535h48.63v-535A38,38,0,0,0,9922.33,53.94Z"/><path class="cls-11" d="M9882.17,1695.32s37.93-286,59-569.17-24.87-508-24.87-508h-63.14V1722.11S9883.47,1721.15,9882.17,1695.32Z"/><g class="cls-6"><path class="cls-7" d="M9896.2,17.84a37.89,37.89,0,0,1-10,45.5v535H9860v19.82h48.63v-535a38,38,0,0,0-12.42-65.33Z"/></g><g class="cls-6"><path class="cls-7" d="M9916.27,618.19h-32.81c12.11,86.47,28.61,251.56,14.35,443.49-12.76,171.65-31.72,344.33-44.68,453.73v206.7s30.34-1,29-26.79c0,0,37.93-286,59-569.17S9916.27,618.19,9916.27,618.19Z"/></g><path class="cls-7" d="M9853.13,1738a15.91,15.91,0,0,1-15.91-15.91V618.19a15.91,15.91,0,0,1,15.91-15.91h63.14A15.91,15.91,0,0,1,9931.86,615c.47,2.27,46.12,230.22,25.15,512.31-20.12,270.68-56.09,547.42-58.89,568.79.17,10.54-3.23,19.89-9.91,27.13-12.62,13.7-32.36,14.7-34.57,14.77ZM9869.05,634.1V1672.71c9-70.51,38.66-311.47,56.22-547.74,17.84-240-13.18-439.66-22.23-490.87Z"/><path class="cls-7" d="M9908.62,634.1H9860a15.91,15.91,0,0,1-15.91-15.91V89.87a53.93,53.93,0,1,1,80.45,0V618.19A15.91,15.91,0,0,1,9908.62,634.1Zm-32.72-31.82h16.8V83.17a15.91,15.91,0,0,1,5.73-12.23,22.11,22.11,0,1,0-28.26,0,15.87,15.87,0,0,1,5.73,12.23Z"/><path class="cls-2" d="M9627,1176.93s97.92,10.28,125,28.47,61.85,188.08,71.74,318.3-145.19,142-145.19,142l-71.7,5.45-36.62-482.29Z"/><g class="cls-6"><path class="cls-7" d="M9598.42,1187.2s116.8,28.51,132.84,34.29,47.72,161,53.15,232.46,14,101.16-6.35,137.12-49.25,61.65-49.25,61.65a150.31,150.31,0,0,1-50.34,13l-71.7,5.45s-36.16-476.25-36.28-477.76S9598.42,1187.2,9598.42,1187.2Z"/></g><path class="cls-7" d="M9606.77,1684.39a13.27,13.27,0,0,1-13.23-12.26l-36.61-482.29a13.25,13.25,0,0,1,10.5-14l56.81-11.9a13.18,13.18,0,0,1,4.11-.21c10.36,1.08,102,11.18,131,30.65,36.93,24.84,69.63,223.86,77.56,328.29,8.61,113.46-99.2,151.8-157.4,156.22l-71.71,5.44C9607.44,1684.37,9607.1,1684.39,9606.77,1684.39Zm-22.52-485L9619,1656.9l58.48-4.44c5.77-.45,141.72-12.46,133-127.76-10.66-140.47-46.75-295.28-65.91-308.3-17.36-11.68-80-22-116.88-26.06Z"/><path class="cls-7" d="M9756.07,1218c-20.82,7.83-42.58,12.7-64.4,16.94-7.28,1.49-14.86,2.08-23.58-.77a1.37,1.37,0,0,1-.87-1.73c5.1-7.67,11.93-11.83,18.69-15,20.07-9.55,40.47-18.56,61.87-24.63a13.28,13.28,0,0,1,8.29,25.19Z"/><path class="cls-2" d="M9860,128.41s63-41.13,117.5-26.78,80.36,54.52,183.67,62.17,141.58,0,141.58,0-21,64.1-14.35,96.62,24.87,79.4,14.35,110a623.91,623.91,0,0,0-17.22,61.22s-82.27,54.53-180.8,20.09-152.1-60.26-171.23-59.31-73.5,15.31-73.5,15.31v-35.4l66.8-30.61s16.27-143.49,6.7-170.27-73.5-8.61-73.5-8.61Z"/><path class="cls-7" d="M10172.21,479.14a219.4,219.4,0,0,1-72.74-12.38c-38.55-13.47-70.2-25.61-95.63-35.37-32.86-12.6-61.41-23.52-69.55-23.07-14.33.72-55.56,10.93-70.24,14.8a15.91,15.91,0,0,1-20-15.38v-35.4a15.91,15.91,0,0,1,9.28-14.46L9912,331c7.21-66.56,11.52-140.25,6.54-154.21-2-5.45-29.08-5.79-54.17,1.34a15.91,15.91,0,0,1-20.26-15.3V128.41a15.91,15.91,0,0,1,7.21-13.32c2.81-1.84,69.57-44.82,130.25-28.85,21.31,5.6,38.06,14.53,55.8,24,30.48,16.24,62,33,125,37.7,98.82,7.32,137,.33,137.34.26a15.94,15.94,0,0,1,18.18,20.57c-5.49,16.73-18.67,65.23-13.89,88.45,1.52,7.38,3.72,15.76,6.05,24.63,8.13,30.91,17.33,65.94,7.77,93.76-10.08,29.33-16.66,59.16-16.73,59.46a15.92,15.92,0,0,1-6.75,9.86C10291.57,446.73,10241.62,479.14,10172.21,479.14ZM9934.54,376.49c15,0,37.56,8.64,80.7,25.19,25.23,9.68,56.63,21.73,94.73,35,76.13,26.61,142.87-5,161.58-15.3,2.61-10.94,8.32-33.41,16.14-56.16,6.43-18.71-1.47-48.8-8.45-75.33-2.44-9.3-4.74-18.08-6.44-26.3-4.83-23.46,2.13-58.42,8.1-81.57-22.38,1.41-61,2.05-120.92-2.39-69.69-5.16-105.77-24.39-137.61-41.36-16.75-8.93-31.21-16.64-48.93-21.3-37.05-9.76-80.61,11.12-97.54,20.49V143c24.79-4.11,62.47-5.21,72.58,23.07,10.28,28.81-3.09,152.85-5.88,177.42a15.9,15.9,0,0,1-9.18,12.68l-57.52,26.36v4.75c18.18-4.4,43.81-10.12,56.79-10.77C9933.3,376.51,9933.92,376.49,9934.54,376.49Z"/><path class="cls-2" d="M9180.49,1221s-83.87-.36-140.51-33.11-140-35.38-181.77,22.74,77.72,129.4,186.38,141,166.63-8.15,166.63-8.15S9299.26,1225.66,9180.49,1221Z"/><g class="cls-6"><path class="cls-7" d="M9090.91,1298.34c-96.08-10.26-200.49-67.17-194.58-120.38a105,105,0,0,0-38.12,32.71c-41.73,58.12,77.72,129.4,186.38,141s166.63-8.15,166.63-8.15,16.87-22.59,25.88-48.38C9211.46,1300.1,9162.06,1305.94,9090.91,1298.34Z"/></g><path class="cls-7" d="M9110.81,1371.26a638.46,638.46,0,0,1-67.91-3.76c-80.43-8.59-178.5-50.7-203.38-106.3-9.34-20.87-7.35-41.55,5.77-59.81,47.6-66.29,139.94-63.5,202.66-27.23,52.2,30.18,131.82,31,132.62,31h.54c37.12,1.44,61.32,13.44,71.92,35.66,20.76,43.49-23.9,105.35-29.06,112.25a15.83,15.83,0,0,1-7.62,5.54C9214.42,1359.25,9178.21,1371.26,9110.81,1371.26Zm-155.54-190.37c-33,0-64.53,11.76-84.13,39.06-6.4,8.91-7.22,17.88-2.58,28.25,17.2,38.42,100.25,79.38,177.72,87.66,86.33,9.22,139.74-2,155.18-6.08,11.43-16.83,32.55-55,22.84-75.3-6.34-13.25-27.46-16.85-44.18-17.53-6.58-.06-89.64-1.43-148.1-35.25A156.35,156.35,0,0,0,8955.27,1180.89Z"/><path class="cls-2" d="M9604.42,1196s50.14,125.19,63.4,265.81a53.5,53.5,0,0,1,26.52,37.37c4.78,26.78-18.18,46.87-18.18,46.87s-4.89,92-40.71,157.45L9326,1606.69l3.83-61.55s-115.74,10.52-199.93-34.44l-98.53-38.27h0s-101.4-7.92-78.44-110.14,131.06-72.16,181.76-49.89c25.83,10.8,55.48,7,55.48,7s22.61-59.79,63.92-75.33C9254.13,1244.05,9463.8,1282.2,9604.42,1196Z"/><g class="cls-6"><path class="cls-7" d="M8953.53,1345.76c17.23,31.65,37.13,49,52.06,59.07,50.15,33.7,93.37,17.22,177.67,49.81,30,11.58,38.91,22.52,55.74,26.7,95,23.62,240.79-13.13,306.29-76.07,0,0-1.81,76.46-29.37,94.13s-12.9,34.26,25.36,33.62S9665,1512,9665,1512s2.72,29.73-14.9,40.7-25.27,5.89-25.27,5.89.63,72-28.06,124.33c0,0-75.49-14.4-90-19.64S9357,1616.56,9357,1613.37s.14-50.17.14-50.17L9338,1546.09h-43.53s-102.86-1.86-159.21-32.66l-106.41-41.28S8923.85,1464.45,8953.53,1345.76Z"/></g><path class="cls-7" d="M9635.45,1719.45a15.92,15.92,0,0,1-4.75-.72l-309.41-96.85a15.91,15.91,0,0,1-11.13-16.18l2.72-43.73c-84.29-6.65-148.84-23.65-190.43-37.24-8-2.6,1.27.27-92.28-36.43-55-21.58-67.72-26.1-79.17-41.61-16.94-22.94-21.5-52.51-13.55-87.88,7.83-34.88,25.33-59.39,52-72.87,52.3-26.44,123.5-.49,151.68,11.9,13.54,5.66,29,6.43,38.34,6.26,8.92-19.14,32.07-61,69.05-74.95a16,16,0,0,1,8.45-.76c2,.37,205.46,36,339.14-45.91a15.91,15.91,0,0,1,23.08,7.64c2,5.11,49.39,124.51,63.71,262.59a69.68,69.68,0,0,1,27.1,43.71c4.73,26.49-10.16,47.39-18.37,56.59-1.78,22.18-10.06,99.42-42.22,158.17A15.91,15.91,0,0,1,9635.45,1719.45ZM9342.7,1595.23l284.66,89.1c28.35-60.33,32.87-138.26,32.92-139.09a15.9,15.9,0,0,1,5.41-11.12c.08-.08,16.09-14.73,13-32.1a37.61,37.61,0,0,0-18-26,16.33,16.33,0,0,1-8.7-12.73c-10-106.71-42.16-205.52-55.94-244.19-132.49,70.45-308.13,46.48-340,41.36-26.32,12.57-45.57,50.38-51,64.52a16,16,0,0,1-12.84,10.13c-1.38.18-34.22,4.23-63.65-8.08-19-8.35-83.45-33.62-124.79-12.74-18,9.11-29.57,25.94-35.3,51.44-5.81,25.88-3.13,46.69,8,61.86,13,17.68,34.87,24.75,47.16,27.42l122.61,46c78,37,181.11,28.29,182.18,28.19a15.93,15.93,0,0,1,17.32,16.84Z"/><path class="cls-7" d="M9198.71,1335.41c-5.06,0-8.22-.1-9.06-.13a15.91,15.91,0,0,1,1.11-31.81c1.52.07,152.43,4.41,214.46-63.75a15.91,15.91,0,0,1,23.54,21.42C9365.65,1330.48,9234.63,1335.41,9198.71,1335.41Z"/><path class="cls-7" d="M9326.83,1529.52c42.37-10.27,85.18-25.11,123.63-45.9,39.88-20.74,70.89-51.6,97.26-87.77a1.39,1.39,0,0,1,2.46,1c-4.82,49.29-46.57,85.32-85.34,111-30,19.34-63,33.7-97,44.21a332.41,332.41,0,0,1-34.92,8.78,15.91,15.91,0,0,1-6.09-31.23Z"/><path class="cls-7" d="M9474.6,1584.38a884.37,884.37,0,0,1-146.93-12.24,13.26,13.26,0,0,1,4.41-26.15c190.42,32.1,338.73-12.12,340.2-12.58a13.26,13.26,0,0,1,7.77,25.36C9675.48,1560.17,9594.62,1584.38,9474.6,1584.38Z"/><path class="cls-7" d="M9473.21,1514.1q-11.73,0-24.18-.42a13.26,13.26,0,0,1,.9-26.5c141.69,4.88,210.24-36.19,210.91-36.61a13.26,13.26,0,0,1,14,22.54C9672,1474.87,9607.38,1514.1,9473.21,1514.1Z"/><path class="cls-7" d="M9341.68,1553.54a13.61,13.61,0,0,1-2.45-.22,13.27,13.27,0,0,1-10.6-15.48c19.79-106-51.33-209.76-52-210.79a13.26,13.26,0,1,1,21.77-15.15c3.2,4.61,78.15,114.06,56.35,230.81A13.26,13.26,0,0,1,9341.68,1553.54Z"/><g class="cls-6"><path class="cls-7" d="M9165,1225.19s44,80.71,164.85,75.65,176.86-63.29,176.86-63.29S9342.31,1300,9165,1225.19Z"/></g><path class="cls-2" d="M8929.48,952.82a463.55,463.55,0,0,0,135.63,193.33,478.31,478.31,0,0,0,40.36,30.62c6.87,4.68,14,9.19,21.17,13.6a477.38,477.38,0,0,0,201.66,66.73q13.61,1.26,27.19,1.79c165.77,6.24,330.1-73.54,423.07-222.9,137-220,67.21-507.55-155.8-642.29a476.28,476.28,0,0,0-135-55.52c-5.42-1.35-10.9-2.56-16.4-3.64q-22-4.52-44.21-6.92a483.51,483.51,0,0,0-201.59,21.25q-15.36,5-30.39,11.09a474.05,474.05,0,0,0-224.33,188.12C8892,674.63,8881.66,823.51,8929.48,952.82Z"/><path class="cls-7" d="M9373.61,1260.76q-9.06,0-18.18-.34c-9.05-.36-18.22-1-27.26-1.8a480.25,480.25,0,0,1-202.31-66.94c-7.93-4.84-14.87-9.31-21.25-13.66a477.71,477.71,0,0,1-40.48-30.71,466.66,466.66,0,0,1-136.08-194C8878,818,8893.12,670,8969.55,547.28A475.68,475.68,0,0,1,9194.6,358.54c9.83-4,20.09-7.72,30.48-11.12a484.79,484.79,0,0,1,202.23-21.31c14.77,1.6,29.7,3.93,44.36,6.93,5.87,1.16,11.25,2.36,16.46,3.66a477.62,477.62,0,0,1,135.42,55.69C9732.2,458,9808.17,561.53,9837.46,683.81c29.07,121.3,8.61,246.67-57.6,353C9693.14,1176.1,9538.74,1260.76,9373.61,1260.76Zm-442.7-308.47A463.6,463.6,0,0,0,9066.1,1145a475.52,475.52,0,0,0,40.23,30.52c6.33,4.32,13.24,8.76,21.11,13.57a475.89,475.89,0,0,0,201,66.51c9,.83,18.11,1.43,27.1,1.79,170.74,6.43,332.4-78.71,421.72-222.19,65.78-105.62,86.1-230.16,57.23-350.66C9805.39,563,9729.92,460.22,9622,395a474.25,474.25,0,0,0-134.56-55.33c-5.18-1.3-10.52-2.48-16.34-3.64-14.58-3-29.41-5.3-44.09-6.89A481.62,481.62,0,0,0,9226,350.32c-10.33,3.38-20.52,7.1-30.29,11.05a475.57,475.57,0,0,0-44,20.44,469.44,469.44,0,0,0-179.63,167.08C8896.21,670.79,8881.19,817.83,8930.91,952.29Z"/><g class="cls-6"><path class="cls-7" d="M9778.56,1036c-93,149.38-257.32,229.17-423.08,222.9q-13.59-.53-27.17-1.79a478.7,478.7,0,0,1-201.68-66.71c-7.2-4.43-14.28-8.93-21.16-13.6a481,481,0,0,1-40.35-30.64A463.78,463.78,0,0,1,8902,827.48a463.35,463.35,0,0,0,131.77,183.25,472.56,472.56,0,0,0,40.35,30.64c6.85,4.68,13.94,9.17,21.17,13.6A476.91,476.91,0,0,0,9297,1121.69q13.62,1.26,27.2,1.78c165.76,6.27,330.09-73.52,423.08-222.9A459.94,459.94,0,0,0,9816,621.1C9868.24,752.74,9859.44,906.14,9778.56,1036Z"/></g><path class="cls-7" d="M9373.61,1271q-9.26,0-18.56-.35c-9.25-.37-18.6-1-27.82-1.83a490.38,490.38,0,0,1-206.66-68.37c-8.12-5-15.2-9.52-21.72-14a490.74,490.74,0,0,1-41.32-31.35A477,477,0,0,1,8918.46,956.9h0c-51.16-138.35-35.7-289.62,42.41-415a485.55,485.55,0,0,1,229.89-192.8c10-4.07,20.53-7.89,31.14-11.36a495.33,495.33,0,0,1,206.51-21.77c15.09,1.64,30.33,4,45.31,7.09,6,1.18,11.52,2.41,16.89,3.75a487.66,487.66,0,0,1,138.22,56.86c111,67.07,188.63,172.82,218.57,297.78,29.71,124,8.81,252.12-58.86,360.78C9700,1184.5,9542.25,1271,9373.61,1271ZM8940.49,948.75a453.47,453.47,0,0,0,132.21,188.43,466.64,466.64,0,0,0,39.36,29.86c6.22,4.24,13,8.59,20.71,13.31a466,466,0,0,0,196.65,65.06c8.78.8,17.72,1.39,26.54,1.75,167.13,6.32,325.25-77,412.63-217.38,64.32-103.28,84.19-225,56-342.88-28.46-118.8-102.28-219.36-207.86-283.15A464.6,464.6,0,0,0,9485,349.6c-5.1-1.27-10.28-2.42-15.94-3.54-14.33-2.93-28.84-5.2-43.19-6.76A471.78,471.78,0,0,0,9229.22,360c-10.12,3.31-20.09,7-29.64,10.82a464.05,464.05,0,0,0-43,20,459.25,459.25,0,0,0-175.74,163.45c-74.24,119.2-88.93,263-40.33,394.46Z"/><path class="cls-7" d="M9373.61,1275.15q-9.35,0-18.72-.35c-9.33-.38-18.75-1-28-1.86a494.41,494.41,0,0,1-208.42-69c-8.2-5-15.34-9.6-21.91-14.08a494.71,494.71,0,0,1-41.67-31.61,481.21,481.21,0,0,1-140.29-200h0c-51.6-139.56-36-292.16,42.79-418.67A489.81,489.81,0,0,1,9189.2,345.21c10.14-4.1,20.7-8,31.41-11.46a499.09,499.09,0,0,1,208.24-21.95c15.23,1.65,30.6,4.05,45.7,7.15,6,1.19,11.63,2.43,17.07,3.79A492.18,492.18,0,0,1,9631,380.07c112,67.66,190.27,174.33,220.47,300.38,30,125.08,8.88,254.34-59.38,364C9702.73,1187.92,9543.68,1275.15,9373.61,1275.15ZM8944.4,947.3a449.26,449.26,0,0,0,131,186.7,460.43,460.43,0,0,0,39,29.59c6.17,4.21,12.87,8.52,20.54,13.21a463.66,463.66,0,0,0,65,32.55,460.67,460.67,0,0,0,129.92,31.91c8.69.8,17.56,1.39,26.3,1.74,165.61,6.24,322.34-76.31,408.94-215.42,63.72-102.33,83.41-223,55.44-339.71-28.2-117.71-101.35-217.34-206-280.55a460.53,460.53,0,0,0-130.49-53.67c-5.07-1.26-10.19-2.4-15.78-3.51-14.23-2.91-28.61-5.16-42.83-6.7A467.56,467.56,0,0,0,9230.51,364c-10,3.28-19.9,6.89-29.37,10.72a457.8,457.8,0,0,0-216.79,181.78c-73.55,118.1-88.11,260.55-40,390.81Z"/><path class="cls-7" d="M8985.33,1059c246.24,229,640.15,148.17,709-175.54,46.81-220.24-135.8-435.17-353.25-465.66-158.26-22.2-322.71,24.38-425.11,257.08,0,0-29.2,109.89-9.67,188.7s52,152.18,52,152.18Z"/><path class="cls-12" d="M9694.27,883.5c-68.79,323.7-462.71,404.49-708.94,175.55l-5.47-8.77c294.23,96.93,622.2-37.83,697.93-363.86C9701.32,748.08,9708.7,815.53,9694.27,883.5Z"/><path class="cls-7" d="M9309.53,1253.37a525.23,525.23,0,0,1-119.23-13.78,16.58,16.58,0,0,1-2.36-.75,493.42,493.42,0,0,1-69.52-34.85c-8.2-5-15.34-9.6-21.91-14.08a494.71,494.71,0,0,1-41.67-31.61,481.21,481.21,0,0,1-140.29-200h0c-51.6-139.56-36-292.16,42.79-418.67a486.88,486.88,0,0,1,186.3-173.28,16.18,16.18,0,0,1,3-1.22c60.6-17.43,128.43-21.07,201.6-10.81,131.74,18.47,257.65,97,336.82,210,71.36,101.88,97.49,220,73.58,332.46-26,122.36-92.83,220.74-193.2,284.52C9490.89,1228.75,9401.58,1253.37,9309.53,1253.37Zm-110.78-44.49c123.14,28.4,250.53,8.61,349.64-54.38,93-59.09,154.94-150.47,179.14-264.28,22.06-103.77-2.27-213-68.52-307.59-74.19-105.93-192-179.48-315.17-196.76-68.09-9.54-130.93-6.37-186.81,9.44a455.06,455.06,0,0,0-172.68,161.18c-73.55,118.1-88.11,260.55-40,390.81h0a449.26,449.26,0,0,0,131,186.7,460.43,460.43,0,0,0,39,29.59c6.17,4.21,12.87,8.52,20.54,13.21A462.67,462.67,0,0,0,9198.75,1208.88Z"/><path class="cls-2" d="M9912.18,863.57C9913.27,955.72,9859,1033.83,9791,1038s-124.09-67.12-125.18-159.27c0-.58,0-1.19,0-1.77-.4-91.38,53.65-168.53,121.22-172.69,52.56-3.24,98,38.59,116.41,100.26A215.63,215.63,0,0,1,9912.18,863.57Z"/><g class="cls-6"><path class="cls-7" d="M9912.18,863.57C9913.27,955.72,9859,1033.83,9791,1038s-124.09-67.12-125.18-159.27c0-.58,0-1.19,0-1.77,7.6,9,19.35,17.59,35.09,13.48,27.56-7.21,76.44-69.52,76.44-69.52s54.64-7.47,126.1-16.39A215.63,215.63,0,0,1,9912.18,863.57Z"/></g><path class="cls-7" d="M9785.15,1054.11c-28.54,0-55.59-11.18-78.6-32.56-35.33-32.83-56-84.82-56.67-142.62-1.19-100.36,59.89-185.83,136.16-190.52,31-1.95,60.56,9.27,85.39,32.34,35.33,32.84,56,84.82,56.68,142.63h0c1.18,100.36-59.9,185.82-136.17,190.52Q9788.54,1054.11,9785.15,1054.11ZM9792.7,720c-1.57,0-3.13.05-4.7.14-59.6,3.67-107.29,74.72-106.3,158.38.57,48.41,18,93.15,46.52,119.69,18.29,17,39.71,25.23,61.77,23.89,59.6-3.67,107.28-74.72,106.3-158.37h0c-.58-48.42-18-93.16-46.53-119.69C9832.78,728.28,9813.14,720,9792.7,720Z"/><ellipse class="cls-2" cx="9829.32" cy="881" rx="136.28" ry="92.9" transform="translate(8499.23 10659.68) rotate(-87.38)"/><g class="cls-6"><path class="cls-7" d="M9830.38,1017.05c51.38-3.56,92.53-67.35,91.94-142.51a195.92,195.92,0,0,0-1.62-23.81c-13.11,51.92-47,90.43-86.89,93.16-45.11,3.08-83.22-40.53-92.73-101.44a199,199,0,0,0-4.77,45C9736.9,962.6,9779,1020.61,9830.38,1017.05Z"/></g><path class="cls-7" d="M9825.83,1033.13c-21.28,0-41.56-8.4-58.94-24.49-28.72-26.59-46.09-71.84-46.48-121.06-.67-84.68,46.22-154.3,106.74-158.5,23.33-1.62,45.68,6.78,64.6,24.29,28.72,26.58,46.1,71.84,46.48,121,.67,84.68-46.21,154.31-106.74,158.51C9829.6,1033.06,9827.71,1033.13,9825.83,1033.13Zm6.87-272.42c-1.1,0-2.21,0-3.35.12-42.32,2.93-77.63,60.87-77.12,126.5.32,40.6,13.88,77.22,36.28,97.95,8.58,8,22.61,17.16,40.78,15.9,42.32-2.94,77.64-60.87,77.12-126.51-.32-40.6-13.88-77.21-36.28-97.95C9862.08,769.27,9849.23,760.71,9832.7,760.71Z"/><g class="cls-13"><path class="cls-2" d="M9422.69,556.13s-184.31-37.27-304.29,55.72l-.38.29c-25.24,19.59-51.71,68.16-63.45,97.62-15.53,39-20.44,68-23.76,93.82-10.07,78.38.09,116.94.09,116.94-39.91-47-59.35-97.16-51.63-162.52.78-6.44,1.83-13.06,3.12-19.81.29-1.56.61-3.1,1-4.64,0,0,0,0,0-.09a438.49,438.49,0,0,1,16.74-50.4c23.39-58.28,68.16-132.55,149.47-159.53C9301.63,473.07,9430.3,548.75,9422.69,556.13Z"/></g><g class="cls-13"><ellipse class="cls-2" cx="9517.77" cy="769.59" rx="58.86" ry="67.62" transform="translate(-10.71 1392.73) rotate(-8.36)"/></g><g class="cls-13"><ellipse class="cls-2" cx="9561.74" cy="898.02" rx="24.3" ry="27.93" transform="translate(59.28 2289.62) rotate(-13.7)"/></g><ellipse class="cls-5" cx="10288.09" cy="2250.56" rx="8.63" ry="8.4"/><path class="cls-7" d="M9871.53,2269c-23.21-17.38,104.11-86.48,112-41.21S9931.31,2313.8,9871.53,2269Z"/><path class="cls-7" d="M9764.77,2149c-11-8.27,49.5-41.13,53.28-19.6S9793.19,2170.33,9764.77,2149Z"/><path class="cls-7" d="M10126.55,2185.81c-11-8.26,49.51-41.12,53.28-19.6S10155,2207.1,10126.55,2185.81Z"/><path class="cls-1" d="M8828.3,2106.34s384.16-66.09,364.61-23.07-112.17,60.73,5.66,82,407.76-45.44,387.79.35-31.36,75.17,53.46,87.23,166.5,51.19,151.25,71.68S9095.53,2279.86,8828.3,2106.34Z"/><ellipse class="cls-4" cx="9047.55" cy="2129.9" rx="21.8" ry="22.39" transform="translate(4262.45 10098.43) rotate(-72.26)"/><ellipse class="cls-3" cx="9477.52" cy="2235.5" rx="10.54" ry="10.83" transform="translate(4462.23 10582.22) rotate(-72.27)"/><ellipse class="cls-2" cx="9144.66" cy="2195.04" rx="8.38" ry="8.61" transform="translate(4269.05 10236.9) rotate(-72.27)"/><path class="cls-5" d="M9303.74,2234.7a8.61,8.61,0,1,1-5.65-10.6A8.51,8.51,0,0,1,9303.74,2234.7Z"/><path class="cls-1" d="M9758.5,2344.17c-19.17,0-47.06-1.36-88.06-4.83-80.23-6.8-175.75-19.39-269-35.47-151.63-26.15-428.86-84.85-581.84-184.19a15.91,15.91,0,0,1,6-29c.86-.14,86.75-14.87,174.31-25.81,185.43-23.16,197.76-7.18,205.14,2.37a21.74,21.74,0,0,1,2.34,22.64c-8,17.57-24.26,30.57-37.34,41-3.1,2.47-7.1,5.66-10.21,8.44,6.09,2.44,18.1,6.07,41.56,10.3,52.53,9.48,143,.52,222.83-7.39,117.77-11.67,160.27-14,174.66,5.8,5,6.83,5.72,15.56,2.06,24-8,18.38-16.31,37.39-11.51,46,2.64,4.73,13,13.49,52.62,19.13,68.88,9.78,151.4,39.94,164.6,71.59,3.66,8.78,2.63,18-2.82,25.34C9800.22,2338.88,9796.27,2344.17,9758.5,2344.17ZM8874,2114.89c256.7,139.18,791.5,201.2,894.73,197.59-19.68-14.05-69.78-35.17-131.13-43.89-42.31-6-65.72-16.84-75.92-35.12-11.34-20.3-2.92-43.88,7-67.12-22.73-4.21-90.47,2.49-141.33,7.53-81.9,8.11-174.73,17.31-231.63,7-48.38-8.73-67-17.6-71.11-33.9-4.34-17.17,10.86-29.3,25.56-41,7.8-6.22,16.33-13,22.35-20.27C9133.71,2079.85,9000.9,2094.59,8874,2114.89Zm909.64,195.93Z"/><path class="cls-2" d="M8753.88,2058.16s53.81-58.85,107.43-40.42,64.14,38.27,119.38-.86,131.74-53.16,164.7-32.91,138.1-10.3,150.82,25.85-62.33,65.19-56.32,78.74,91.82,38,171.3-4.44,250.59-19,245.81,17.66-49.19,57.16,24.19,87.53,148.79-3.57,142.29,37-34,63.17-79.42,48-39.62-34.53-104-33.26-67.9-49.76-65-84.6-48.63,59.1-94.81,24.69-228.81,3.92-280.42-17.59-19-76.12-22.4-83.72-21.76-56.28-75.91-35.47-88.14,57.87-145.43,49.7-98.9-26.66-133.16-25S8753.88,2058.16,8753.88,2058.16Z"/><path class="cls-1" d="M9770.56,2294.9a99.07,99.07,0,0,1-31.56-5.57c-18-6-29.09-12.86-38-18.34-14.46-8.92-24-14.8-60.64-14.1-26.59.63-47.26-6.84-61.41-21.89-12.53-13.33-19.27-31.85-20.36-56.23-20.69,17.11-54.71,39.8-87.92,15.06-20.94-15.61-90.38-12.3-146.19-9.64-56,2.68-104.45,5-130.84-6-52.33-21.81-38.76-71.64-33.66-90.4.43-1.55,1-3.48,1.32-5-12-26.1-28.79-33.38-54.14-23.64-16.34,6.27-31,14.3-45.29,22.06-31.41,17.12-63.89,34.86-108.1,28.53-25.91-3.69-48.59-9.4-68.59-14.43-24-6-44.64-11.25-61.54-10.41-37,1.82-73.63-11.23-75.17-11.78a15.92,15.92,0,0,1-6.35-25.71c2.49-2.72,61.61-66.3,124.35-44.72,11.17,3.83,20.42,7.68,28.57,11.06,30.26,12.59,39.4,16.38,76.44-9.86,59.6-42.23,143.05-57.55,182.22-33.49,10.22,6.27,38.44,5.52,61.13,4.93,42-1.11,85.31-2.26,96.38,29.2,11.63,33-20.66,58-42,74.47-2.14,1.66-4.59,3.54-6.88,5.38,23.84,8.57,83.89,16.42,141.38-14.3,72.42-38.7,210.11-26.89,252.12,2.16,16.83,11.64,17.86,24.78,17,31.58-1.67,12.86-7.05,23.75-11.36,32.5-3.68,7.45-7.16,14.5-5.89,17.88.76,2,5.3,9.45,31.75,20.4,30.95,12.81,62.9,13.13,88.57,13.39s45.77.45,57.07,13.84c5.9,7,8,16.07,6.27,27-4.22,26.3-16,46-34.08,56.93C9797.28,2290.48,9785.87,2294.9,9770.56,2294.9ZM9645.64,2225c41.46,0,56.35,9.18,72.07,18.88,8.29,5.1,16.86,10.38,31.4,15.26,16.43,5.49,29.72,5.28,39.52-.64,12.42-7.52,17.26-23.05,19.14-34.75a15.42,15.42,0,0,0,.17-1.56c-5.25-2.12-20.81-2.27-32.41-2.39-26.91-.27-63.77-.64-100.43-15.81-28.53-11.81-43.75-23.71-49.35-38.59-6.14-16.3.91-30.58,7.13-43.17,3.55-7.22,6.93-14.05,8.14-21.17-13.72-19.13-152.33-40.33-222.33-2.93-66.08,35.31-135.09,27-165.45,16.6-15.21-5.24-24.34-11.69-27.9-19.74-7.38-16.65,8.06-28.56,24.4-41.19,14.12-10.9,35.45-27.37,31.46-38.72-3.38-9.6-43.81-8.53-65.52-7.95-31,.83-60.36,1.6-78.62-9.62-25.15-15.45-94.91-4.69-147.17,32.33-49.12,34.79-70.48,28.49-107,13.29-7.72-3.2-16.48-6.85-26.7-10.36-24.91-8.57-51.18,4.75-69,17.56a153.73,153.73,0,0,0,34.93,2.77c21.65-1,44.44,4.69,70.86,11.34,19.24,4.84,41.05,10.33,65.32,13.79,33.74,4.81,57.85-8.34,88.37-25,15.14-8.26,30.8-16.79,49.11-23.82,42-16.14,76.89-.53,95.69,42.82l.43,1c3.15,7,1.33,13.66-1.18,22.89-7.51,27.6-7.22,43.32,15.2,52.67,19.77,8.24,69.24,5.88,117.08,3.61,70.26-3.35,136.63-6.52,166.72,15.91,14.76,11,31.17,1.24,56.28-20.62,12-10.41,22.29-19.4,34.61-13.17,7.75,3.92,11.2,11.71,10.27,23.16-2.21,26.92,1.49,45.09,11.29,55.52,7.72,8.21,20.37,12.28,37.59,11.87C9641.76,2225,9643.73,2225,9645.64,2225Zm-482.89-139c0,.09.07.17.11.25Zm-408.87-27.89h0Z"/><path class="cls-3" d="M10839.59,2096.49a10.83,10.83,0,1,1-7.11-13.34A10.69,10.69,0,0,1,10839.59,2096.49Z"/><ellipse class="cls-4" cx="10934.04" cy="2093.19" rx="10.54" ry="10.83" transform="translate(5609.97 11870.15) rotate(-72.27)"/><path class="cls-5" d="M11083.48,1875.93a10.83,10.83,0,1,1-7.1-13.34A10.69,10.69,0,0,1,11083.48,1875.93Z"/><path class="cls-2" d="M11083.48,1949.91a10.83,10.83,0,1,1-7.1-13.33A10.69,10.69,0,0,1,11083.48,1949.91Z"/><path class="cls-2" d="M8734.6,2086.18c-3.46,25.11-2.11,50.83.08,76.26.82,8.44,1.8,16.88,3.38,25.3.27,1.46,1.25,2.33,2.19,2a2.45,2.45,0,0,0,1.23-2.07c1-8.5,1.41-17,1.66-25.47a448.4,448.4,0,0,0-1.39-50.79,208.85,208.85,0,0,0-3.72-25.3c-.52-2.59-3.09-2.47-3.43.12Z"/><path class="cls-2" d="M8765.43,2133.32c-13.69-6.19-27.7-5-41.48-2.49a60.59,60.59,0,0,0-13.65,4.36c-.93.45-1.43,2-1.11,3.44a2.49,2.49,0,0,0,1.29,1.86,60.62,60.62,0,0,0,13.92,3.43,85.92,85.92,0,0,0,27.58-.41c4.47-1.13,19.47-4.15,13.45-10.19Z"/><ellipse class="cls-2" cx="8656.48" cy="2231.54" rx="11.45" ry="20.55" transform="translate(-70.88 295.69) rotate(-1.95)"/><path class="cls-1" d="M6829.71,1946.36s-100.55-25.49-125,4.26-36.92,59.08-82.84,51-109.85-32.41-110.73,20.63,25.78,47.32,70.44,57.85,47.47,53.8,18.38,66.84-137.05,36-155.77,77.58-31.31,66.13,59.84,101.58,125.39-23.55,166.19-8.07,54.8,32.36,96.28,28.3,89.77-44.27,102.9,5.88-28.2,58.79-88.54,60.85-117.76,11.23-106,39.75,65.32,65.24,142.52,45.75,142.85-62.69,222.7-43.72,118.06,36.94,165.76,18.45,69.24,22.75,109.16,12.45,99.86-24.38,89.26,19.35-98.65,20.23-106.73,59.05,41.67,80.51,71.94,62.61,42.15,15.69,95.34.5,61.5-46.8,123.84-29.64,166.71,46.77,210.16,21.48,157.47,11.79,179.64-46.79-17.65-45.19-97.09-52.12-110.58-54.07-53.5-72.87,207.68-11.89,272.33-45.41,129.47-100.79,150.57-72.6-67.56,84.23-63.08,108.17,62,58.13,135-7,57.39-88.7,115-93.07,68.33-43.32,114.76-99.09,91.18-3.4,103.53-113.9-157.6-133.71-157.6-133.71Z"/><path class="cls-1" d="M7127.6,2583.18s-67.57-32.63-93.8-34.15-55.68,40.45-91.25,40.45-56.64,32.05-18.23,56,90.4-6.35,152.59,6.42,96.7-18.52,92-38.84S7127.6,2583.18,7127.6,2583.18Z"/><path class="cls-1" d="M7757.26,2644.69c17.84-.6,33.48-3.78,45.34-10.68,15.47-9,43.7-9.27,71-9.52,47.89-.41,97.41-.89,113.67-43.84,5-13.25,11-32.81,4.79-49.51-8.15-22-29.36-22.85-67.88-24.38-12.57-.5-26.82-1.07-42.66-2.45-47.12-4.12-68.28-21.38-72.25-28.9,1.56-2.27,6.6-7.81,20.93-12.53,22.85-7.53,62.56-10.92,104.6-14.5,60.76-5.18,129.63-11.06,168.82-31.38,22.5-11.66,45.25-27.49,65.32-41.45,28.62-19.93,64-44.55,74.22-35.33-3.37,9.92-21.71,29.4-31.87,40.19-21.8,23.14-37.55,39.87-33.59,61.06,2.31,12.34,10.27,23.47,22.42,31.33,26.87,17.4,74.55,19,127.79-28.49,28.94-25.82,44.36-45.36,55.62-59.64,17.09-21.65,22.84-28.94,54.83-31.37,47-3.56,65.86-29.42,92-65.21,8.11-11.13,17.31-23.73,28.44-37.1,16-19.19,31.65-24.08,46.81-28.82,25.38-7.92,51.62-16.12,60.39-94.58,2.55-22.89-1-44.21-10.64-63.37-36.22-72.16-151.61-88.69-156.5-89.36-.25,0-.49,0-.74-.06l-1667.78-44.32c-19.17-4.8-105.92-24.35-132.16,7.52-4.06,4.92-7.73,9.75-11.28,14.43-18.05,23.74-30,39.42-64.2,33.39-7.31-1.28-15-3-23.15-4.75-36.74-8.07-71.45-15.67-88.81,6.89-6.25,8.13-9.67,19.69-9.9,33.41-1,59,26.76,64.23,58.88,70.25,6.52,1.21,13.26,2.48,20.59,4.21,20,4.71,28,15.9,28.37,21.85.25,4.08-3.83,10.37-11.88,14-6.74,3-18.59,6.8-32.31,11.18-61.52,19.66-113.67,38.67-128.82,72.34l-.79,1.75c-9.38,20.82-18.25,40.49-12.61,62.75,6.26,24.68,28.55,42,79.52,61.85,57.22,22.26,92.77,9,121.33-1.69,17.37-6.49,31.08-11.62,44.92-6.35,11.74,4.45,21.4,9.12,29.92,13.23,21.43,10.37,38.35,18.54,69.49,15.49,13.29-1.3,26.76-5.93,39.78-10.41,31.85-10.94,47.41-13.93,52.63,6,2.95,11.3,1.18,15.53.6,16.92-8.36,20-58.68,21.71-80.16,22.44-92.06,3.13-110,20.13-115.47,36.34a39.54,39.54,0,0,0,1.32,27.55c14.2,34.57,71.09,73.95,153.12,53.22,22.93-5.79,44.89-13.66,66.13-21.26,50.84-18.2,98.85-35.4,153.36-22.44,16.17,3.84,30.87,7.71,43.85,11.11,51.71,13.61,85.88,22.59,125.94,7.06,23.38-9,39.52-2.3,56.61,4.85,15.42,6.45,31.36,13.11,51.77,7.86,16.12-4.16,34.65-8.71,50.58-10,20.43-1.66,26.37,2.94,27.62,4.26a19.81,19.81,0,0,1-.58,3.47c-3.34,13.75-29.28,18.46-48.23,21.91-27.15,4.93-52.79,9.6-58.66,37.83-3.82,18.37.56,38.56,12,55.41,16.92,24.84,49.09,41.89,73.64,27.36,11.78-7,19.75-4.42,31.82-.56,14.33,4.58,32.17,10.27,61.75,1.83,19.08-5.45,32.59-12.91,44.52-19.49,21.73-12,37.43-20.65,75.66-10.14l4.29,1.18C7640.12,2627.9,7707.27,2646.39,7757.26,2644.69Zm92.47-51.61c-21.51.73-40.92,3-54.9,11.11-39.86,23.2-140.4-4.49-200.47-21l-4.3-1.19c-43.6-12-63.29-1.13-86.1,11.46-11.76,6.49-23.92,13.2-41.41,18.2-25.66,7.32-40.63,2.54-53.85-1.69s-25.94-8.28-43.25,2c-16,9.42-40.14-3.15-51.86-20.35-3.13-4.6-8.11-13.59-6.34-22.09,2-9.51,29.06-14.44,42.07-16.8,28-5.09,56.94-10.36,64.5-41.56,4.33-17.87.12-29.59-2.78-35-12.43-23.14-44.08-20-98.12-6-16,4.13-28.5-1.1-43-7.16-18-7.55-38.45-16.09-67-5-35.92,13.92-66.64,5.84-117.53-7.54-13.05-3.43-27.84-7.31-44.18-11.19-58.43-13.88-108.3,4-161.09,22.87-20.92,7.5-42.56,15.25-64.83,20.87-70.59,17.83-119-13.7-130.67-35.63,5.19-4.74,24.9-15.83,96.7-18.27,52.2-1.78,84.71-8.3,96.46-36.4,5.34-12.77,5.69-28.21,1.06-45.92-12.56-48-46.64-36.24-76.71-25.91-12.27,4.21-25,8.57-36.67,9.72-27.31,2.69-41.1-4-62-14.08-8.82-4.25-18.81-9.09-31.19-13.78-18.74-7.11-35.38-.89-54.65,6.3-26.38,9.86-59.21,22.13-111.48,1.79s-63.09-35-64.83-41.82c-1.62-6.38,4.53-20,10.48-33.22l.79-1.76c11.9-26.43,80-48.19,116.57-59.88,14.72-4.7,26.34-8.42,33.84-11.78,17.37-7.78,27.37-25.63,26.08-46.58-1.56-25.63-18.89-44.79-46.36-51.27-7.65-1.8-14.86-3.15-21.22-4.35-35-6.56-40.62-9.6-40.17-36.87.1-6.19,1.5-8.83,2.86-10.59,10.53-13.7,45.17-6.11,73,0,7.93,1.74,16.12,3.54,23.72,4.87,43,7.55,60.71-15.79,79.51-40.5,3.4-4.49,6.93-9.12,10.69-13.69,14.51-17.62,77.25-11.3,117.17-1.18a6.46,6.46,0,0,0,1.5.21L8498,2006.6c31.1,4.35,116,26.4,141.23,76.65,5.89,11.75,8,24.17,6.46,38-6.46,57.78-20.88,62.28-44.77,69.74-15.79,4.93-35.44,11.06-55.08,34.66-11.63,14-21.08,26.93-29.42,38.36-24.8,34-39.76,54.49-79.7,57.52-37,2.82-47.17,13.78-66.52,38.3-10.74,13.6-25.44,32.24-53,56.82-54.15,48.33-93.69,35-104.51,29.75-7.63-3.69-11.88-8-13.9-10.8,4.25-7.31,16.2-20,24.47-28.78,25.11-26.66,40.39-44.41,40.9-66.08a37.45,37.45,0,0,0-6.93-23.31c-19-25.39-53.52-1.37-97.23,29-20.61,14.34-41.92,29.17-63.47,40.35-36.61,19-104,24.73-163.51,29.8-42.85,3.66-83.33,7.11-107.71,15.15-32.42,10.68-38,30.59-37,45.41,2.6,37.69,49.56,55.14,92.64,58.9,16.15,1.41,30.57,2,43.29,2.49,21.17.84,45.11,1.79,49.87,7.68,0,1.48-.46,6.45-4.72,17.72-10.57,27.93-56.26,28.34-96.58,28.72C7865,2592.75,7857.23,2592.82,7849.73,2593.08Zm-1020-646.71h0Z"/><path class="cls-1" d="M7109.38,2670.77c33.54-1.14,56.3-15.93,65.33-33.41a42.65,42.65,0,0,0,3.85-29.22c-6.06-26.09-35.63-36.88-48.84-40.45-7.59-3.63-69.68-33-95.85-34.56-14.74-.81-29,8.92-44.08,19.26s-30.89,21.22-47.56,21.19c-26.5,0-46,15.38-48.44,38.27-1.18,11.05.74,32,26.93,48.4,23.14,14.45,48.91,11.34,78.76,7.75,23-2.77,49-5.91,76.38-.29A143,143,0,0,0,7109.38,2670.77Zm49.23-53.85c-4,8.49-29.62,29.73-80.66,19.25-29.49-6.05-56.69-2.77-80.69.11-27.25,3.29-50.77,6.13-69.34-5.48-10.11-6.32-13-11.55-13.66-13.18,1.72-4,11.3-12.16,28.6-12.23,20.9-.1,39.43-12.68,55.74-23.85,12.91-8.84,25.08-17.19,35.13-16.62,20.37,1.19,72.65,24.54,91.07,33.44a8.07,8.07,0,0,0,1.37.5h0C7140,2602.52,7154.86,2610.91,7158.61,2616.92Zm-31-33.73h0Z"/><path class="cls-1" d="M6785.48,2087.66c-3.13,35.26-1.4,70.92,1.1,106.36.94,11.79,2,23.58,3.72,35.34.21,1.46,1.14,2.41,2.08,2.13a2.43,2.43,0,0,0,1.35-2.25c.89-11.85,1.18-23.68,1.31-35.51.19-23.64-.39-47.27-2.07-70.86-.95-11.79-2.07-23.57-4.06-35.33-.42-2.79-3.21-2.69-3.43.12Z"/><path class="cls-1" d="M6827.84,2154.5c-19.21-6.05-38.61-4.63-57.81-1.93a111.12,111.12,0,0,0-19.09,4.54c-.94.33-1.5,1.78-1.26,3.24a2.43,2.43,0,0,0,1.44,2.07,111.06,111.06,0,0,0,19.35,3.23,166.18,166.18,0,0,0,38.48-.78,82.37,82.37,0,0,0,19.07-5.07c1.73-.64,1.58-4.8-.18-5.3Z"/><ellipse class="cls-1" cx="6709.4" cy="2090.25" rx="22.9" ry="41.1" transform="translate(-67.21 229.39) rotate(-1.95)"/><ellipse class="cls-1" cx="6714.23" cy="2231.95" rx="14.74" ry="26.46" transform="translate(-72.02 229.64) rotate(-1.95)"/><ellipse class="cls-1" cx="7024.15" cy="2310.41" rx="11.45" ry="20.55" transform="translate(-74.51 240.22) rotate(-1.95)"/><ellipse class="cls-1" cx="6888.12" cy="2125.29" rx="11.45" ry="20.55" transform="matrix(1, -0.03, 0.03, 1, -68.29, 235.49)"/><ellipse class="cls-1" cx="6772.73" cy="2461.05" rx="11.45" ry="20.55" transform="translate(-79.78 231.76) rotate(-1.95)"/><ellipse class="cls-1" cx="6914.42" cy="2224.8" rx="11.45" ry="20.55" transform="translate(-71.66 236.44) rotate(-1.95)"/><ellipse class="cls-1" cx="6610.9" cy="2214.57" rx="11.45" ry="20.55" transform="translate(-71.49 226.12) rotate(-1.95)"/><ellipse class="cls-1" cx="6824.12" cy="2045.22" rx="11.45" ry="20.55" transform="translate(-65.61 233.28) rotate(-1.95)"/><path class="cls-1" d="M6610.56,1938.69s155.07-23.86,193.57,6.31,58.32,59.72,129.21,52.39,169.31-30.63,171.74,22.46-38.93,46.92-107.82,56.72-72.38,53.06-27.11,66.58,212.79,38.26,242.6,80.19,49.78,66.67-90.56,100.65-194.49-25.61-257.32-10.79-84.14,31.49-148.4,26.74-139.8-45.76-159.1,4.21,44.82,59.29,138.23,62.33S6878,2419.65,6860.48,2448s-99.75,64.21-219.6,43.45-222.3-65.07-345.48-47.39-181.93,35-256.11,15.75-106.68,21.63-168.66,10.67-155-26-137.73,17.91,153.06,21.84,166.33,60.83-62.86,79.87-110,61.47-64.91,15-147.51-1.06-96.11-47.83-192.22-31.69-257,44.07-324.75,18.06-243.43,9.22-278.91-49.76,26.39-44.92,149.18-50.56,170-52.29,81.31-72-321.59-15.29-422.29-49.89-202.37-103-234.44-75.1,106.23,85.38,99.78,109.26-94.81,57.15-209-9.21-90.59-89.69-179.77-95-106.61-44.47-179.57-101-141.15-4.89-162.48-115.66,241.17-131.21,241.17-131.21Z"/><path class="cls-1" d="M6162.43,2571s103.89-31.56,144.44-32.64,87,41.38,142,42,88.28,33,29.33,56.37-140-7.84-236,3.93-150-20.11-143.1-40.37S6162.43,2571,6162.43,2571Z"/><path class="cls-1" d="M5189.36,2622.28c-27.62-.9-51.89-4.34-70.37-11.43-24.13-9.28-67.82-10-110.07-10.69-74.11-1.2-150.75-2.48-176.77-45.72-8-13.35-17.63-33-8.41-49.62,12.16-21.89,45-22.39,104.54-23.29,19.45-.3,41.49-.63,66-1.76,72.84-3.34,105.23-20.27,111.22-27.73-2.45-2.3-10.37-7.92-32.64-12.88-35.5-7.91-97-11.94-162.13-16.22-94.13-6.17-200.82-13.18-261.87-34.15-35-12-70.56-28.26-101.9-42.56-44.68-20.4-100-45.62-115.56-36.56,5.42,10,34.19,29.78,50.14,40.74,34.19,23.51,58.9,40.5,53.19,61.64-3.33,12.32-15.42,23.32-34.06,31-41.23,17-115,17.84-198.31-30.59-45.29-26.32-69.55-46.12-87.26-60.59-26.88-22-35.93-29.33-85.47-32.29-72.78-4.33-102.5-30.52-143.62-66.76-12.78-11.26-27.26-24-44.75-37.58-25.1-19.47-49.46-24.62-73-29.6-39.42-8.35-80.19-17-95.33-95.63-4.42-22.95.69-44.22,15.18-63.23,54.6-71.61,232.81-86.27,240.37-86.86.38,0,.75,0,1.13,0l2579.75-17.08c29.57-4.49,163.41-22.63,204.65,9.68,6.37,5,12.15,9.89,17.74,14.63,28.41,24.05,47.18,39.93,100,34.46,11.29-1.16,23.16-2.73,35.72-4.38,56.7-7.47,110.25-14.51,137.56,8.35,9.84,8.24,15.37,19.86,16,33.59,2.7,59.08-40.12,63.83-89.7,69.33-10.06,1.11-20.47,2.27-31.78,3.88-30.82,4.38-43,15.45-43.46,21.4-.3,4.08,6.14,10.43,18.67,14.18,10.49,3.13,28.9,7.11,50.22,11.72,95.58,20.68,176.67,40.55,200.79,74.49l1.25,1.76c14.94,21,29.05,40.82,20.77,63-9.19,24.6-43.34,41.59-121.8,60.59-88.1,21.34-143.37,7.47-187.78-3.68-27-6.77-48.32-12.13-69.63-7.09-18.08,4.27-32.93,8.78-46,12.76-32.94,10-59,17.93-107.2,14.36-20.6-1.52-41.53-6.37-61.77-11.06-49.49-11.48-73.64-14.72-81.31,5.14-4.34,11.25-1.52,15.52-.59,16.92,13.34,20.14,91.23,22.68,124.49,23.76,142.51,4.64,170.66,21.94,179.4,38.25,4.65,8.68,4.12,18.47-1.5,27.54-21.27,34.36-108.51,72.84-235.84,50.75-35.6-6.16-69.75-14.39-102.77-22.35-79-19-153.66-37-237.74-25-24.94,3.58-47.62,7.2-67.63,10.4-79.75,12.77-132.43,21.2-194.74,5-36.35-9.44-61.2-2.94-87.5,3.93-23.72,6.2-48.25,12.61-79.93,7-25-4.43-53.8-9.28-78.47-10.88-31.66-2-40.75,2.51-42.66,3.81a14.2,14.2,0,0,0,1,3.48c5.44,13.81,45.68,19,75.06,22.71,42.11,5.38,81.88,10.47,91.54,38.81,6.28,18.45-.1,38.58-17.5,55.24-25.68,24.59-75.12,41.12-113.41,26.18-18.36-7.16-30.65-4.74-49.24-1.08-22.08,4.35-49.57,9.75-95.52.82-29.63-5.77-50.69-13.45-69.27-20.23-33.87-12.35-58.34-21.27-117.27-11.39l-6.63,1.12C5370.27,2607.39,5266.74,2624.79,5189.36,2622.28Zm-144.12-53.16c33.3,1.08,63.38,3.65,85.16,12,62.15,23.86,217.16-2.2,309.79-17.78l6.62-1.12c67.22-11.3,97.92-.1,133.46,12.88,18.33,6.68,37.28,13.6,64.44,18.88,39.84,7.75,62.93,3.21,83.29-.81,20.55-4,40-7.86,67,2.66,24.88,9.69,62.05-2.5,79.83-19.51,4.75-4.55,12.29-13.46,9.38-22-3.25-9.55-45.26-14.92-65.44-17.5-43.42-5.55-88.32-11.29-100.64-42.64-7.06-17.95-.78-29.61,3.6-35,18.77-22.95,67.8-19.25,151.71-4.43,24.83,4.38,44.07-.64,66.34-6.47,27.74-7.25,59.18-15.47,103.55-3.94,55.86,14.51,103.23,6.93,181.72-5.62,20.12-3.22,42.93-6.87,68.13-10.49,90.13-12.92,167.65,5.75,249.72,25.53,32.52,7.84,66.16,15.95,100.74,21.94,109.59,19,183.83-11.76,201.47-33.52-8.12-4.82-38.84-16.24-150-19.86-80.81-2.63-131.25-9.69-150-38-8.52-12.86-9.38-28.32-2.56-46,18.46-47.79,71.43-35.5,118.18-24.68,19.06,4.42,38.78,9,56.93,10.33,42.31,3.14,63.51-3.32,95.6-13.07,13.56-4.11,28.92-8.79,48-13.28,28.86-6.81,54.73-.32,84.69,7.2,41,10.3,92.06,23.11,172.54,3.61s96.91-33.93,99.47-40.79c2.38-6.36-7.41-20.1-16.88-33.41l-1.26-1.77c-18.94-26.64-124.74-49.53-181.58-61.82-22.87-4.95-40.93-8.85-52.6-12.34-27-8.07-42.85-26.1-41.29-47,1.91-25.62,28.34-44.51,70.71-50.54,11.8-1.68,22.93-2.91,32.75-4,54.07-6,62.66-9,61.42-36.24-.29-6.2-2.51-8.86-4.64-10.65-16.58-13.88-70-6.85-113-1.2-12.23,1.61-24.87,3.28-36.59,4.49-66.33,6.85-94.27-16.79-123.85-41.83-5.36-4.54-10.91-9.24-16.81-13.87-22.81-17.87-119.78-12.57-181.33-3.1a16.37,16.37,0,0,1-2.32.19l-2580.33,17.08c-48,3.84-179,24.51-217,74.39-8.88,11.65-11.9,24.05-9.23,37.9,11.15,57.92,33.55,62.66,70.67,70.51,24.53,5.19,55.06,11.65,85.93,35.59,18.28,14.17,33.16,27.28,46.29,38.86,39,34.41,62.62,55.18,124.48,58.86,57.38,3.42,73.26,14.56,103.7,39.41,16.89,13.79,40,32.68,83.12,57.72,84.75,49.25,145.67,36.55,162.31,31.48,11.73-3.57,18.22-7.84,21.29-10.58-6.73-7.39-25.47-20.27-38.45-29.2-39.38-27.09-63.39-45.09-64.61-66.79-.5-8.79,3.14-17,10.26-23.21,28.87-25.1,82.78-.49,151,30.65,32.18,14.69,65.45,29.87,99,41.41,57,19.59,161.47,26.45,253.61,32.5,66.38,4.35,129.07,8.47,167,16.91,50.37,11.21,59.41,31.23,58.13,46.05-3.27,37.67-75.59,54.36-142.17,57.42-25,1.14-47.26,1.48-66.93,1.78-32.75.5-69.76,1.05-77,6.87,0,1.48.83,6.46,7.65,17.81,16.92,28.11,87.62,29.27,150,30.31C5021.62,2568.54,5033.63,2568.74,5045.24,2569.12ZM6610.56,1938.7h0Z"/><path class="cls-1" d="M6192.37,2659c-51.92-1.69-87.43-16.86-101.76-34.5-10.13-12.46-8.44-23.7-6.54-29.3,8.85-26,54.38-36.31,74.77-39.67,11.66-3.51,107.14-31.92,147.6-33,22.81-.57,45,9.39,68.61,20,23.73,10.67,48.22,21.74,74,22,41,.48,71.46,16.14,75.71,39.09,2.06,11.08-.49,32-40.68,48-35.52,14.08-75.46,10.55-121.71,6.47-35.63-3.15-76-6.71-118.2-1.54A337.42,337.42,0,0,1,6192.37,2659Zm-77.25-54.68c6.43,8.56,46.43,30.23,125.19,20.58,45.52-5.57,87.67-1.84,124.87,1.43,42.22,3.74,78.68,7,107.18-4.36,15.51-6.15,19.83-11.33,20.86-12.95-2.74-4.08-17.73-12.36-44.5-12.71-32.34-.44-61.26-13.33-86.72-24.78-20.15-9-39.16-17.61-54.7-17.2-31.49.85-111.92,23.36-140.25,32a16.79,16.79,0,0,1-2.1.48h0C6143.63,2590.17,6120.8,2598.33,6115.12,2604.28Zm47.31-33.25h0Z"/><ellipse class="cls-1" cx="3971.46" cy="2069.65" rx="30.7" ry="26.48" transform="translate(1773.67 5971.66) rotate(-88.14)"/><ellipse class="cls-1" cx="4259.17" cy="2072.94" rx="20.55" ry="17.72" transform="translate(2048.7 6262.39) rotate(-88.13)"/><ellipse class="cls-1" cx="4033.76" cy="2171.04" rx="20.55" ry="17.72" transform="translate(1732.63 6132.02) rotate(-88.14)"/><path class="cls-1" d="M808.65,1982.59s-195.84-21.25-244.53,9.57-73.79,60.73-163.33,54.59S187,2019,183.8,2072.11s49.08,46.28,136.09,54.93,91.33,51.85,34.11,66.14S85.12,2235,47.39,2277.48s-63,67.54,114.18,99.16,245.75-28.9,325.08-15.13,106.23,30.08,187.42,24.24,176.69-48.13,201,1.53S818.3,2447.34,700.3,2452s-230.49,16.25-208.38,44.3,125.89,62.55,277.33,39.76,281-68.84,436.52-53.23,229.74,32,323.48,11.44,134.73,19.83,213,7.83,195.85-28.65,174,15.58-193.4,24.44-210.25,63.66,79.25,78.84,138.91,59.63,82,13.93,186.33-3.54,121.5-49.47,242.88-34.94,324.6,39.75,410.21,12.58,307.48,5.12,352.42-54.48-33.25-44.49-188.35-48.06-214.67-49.44-102.57-70.69,406.28-20.72,533.55-57,255.84-106.41,296.31-79.08-134.37,87.2-126.27,111,119.65,55.57,264.06-12.74,114.61-91.24,227.28-98.06,134.76-46.28,227-104.1,178.31-7.27,205.48-118.43-304.38-127.19-304.38-127.19Z"/><path class="cls-1" d="M1373.48,2607.57s-131.17-29.82-182.4-30.22-109.94,42.86-179.48,44.38-111.58,34.49-37.17,56.88,176.88-10.2,298.09-.05,189.52-22.64,180.86-42.79S1373.48,2607.57,1373.48,2607.57Z"/><path class="cls-1" d="M2602.58,2642.42c34.9-1.37,65.57-5.22,88.92-12.62,30.5-9.69,85.69-11.14,139.07-12.55,93.62-2.45,190.44-5,223.39-48.72,10.17-13.48,22.34-33.32,10.72-49.77-15.32-21.7-56.76-21.64-132-21.54-24.56,0-52.4.07-83.31-.64-92-2.12-132.89-18.51-140.44-25.86,3.1-2.35,13.11-8.11,41.25-13.44,44.87-8.51,122.58-13.59,204.85-19,118.92-7.77,253.7-16.57,330.86-38.58,44.28-12.64,89.19-29.46,128.8-44.29,56.5-21.16,126.37-47.32,146.06-38.52-6.86,10.07-43.25,30.36-63.41,41.59-43.25,24.1-74.49,41.52-67.32,62.56,4.18,12.27,19.43,23.07,43,30.43,52.05,16.28,145.21,15.9,250.58-34,57.26-27.09,87.94-47.31,110.35-62.08,34-22.41,45.44-29.95,108-33.74,91.95-5.56,129.54-32.25,181.57-69.2,16.16-11.48,34.48-24.49,56.61-38.35,31.74-19.9,62.52-25.46,92.29-30.85,49.82-9,101.33-18.32,120.62-97.26,5.63-23-.78-44.22-19.05-63-68.83-70.71-293.92-82.37-303.47-82.83-.48,0-.95,0-1.43,0L810.28,1966.66c-37.34-4-206.38-19.88-258.53,13.14-8.07,5.11-15.38,10.1-22.45,14.93-35.93,24.53-59.68,40.74-126.41,36.16-14.25-1-29.24-2.34-45.11-3.78-71.61-6.51-139.24-12.65-173.79,10.68-12.44,8.4-19.45,20.12-20.27,33.87-3.53,59.14,50.55,63.17,113.17,67.83,12.71.94,25.85,1.92,40.14,3.34,38.93,3.87,54.3,14.74,54.85,20.68.38,4.07-7.77,10.54-23.6,14.5-13.27,3.31-36.53,7.6-63.47,12.57C164,2212.88,61.56,2234.12,31,2268.48l-1.59,1.78c-18.91,21.25-36.77,41.32-26.36,63.37,11.56,24.45,54.66,40.86,153.74,58.55,111.25,19.86,181.1,5.05,237.21-6.85,34.12-7.23,61.07-12.95,88-8.26,22.83,3.95,41.58,8.22,58.13,12,41.59,9.46,74.44,16.94,135.39,12.56,26-1.87,52.48-7.08,78.06-12.11,62.54-12.32,93-16,102.69,3.77,5.47,11.18,1.89,15.5.72,16.92-16.89,20.37-115.3,24.22-157.31,25.87-180,7-215.62,24.82-226.7,41.28-5.89,8.77-5.25,18.54,1.84,27.53,26.8,34,136.93,71,297.83,46.78,45-6.76,88.13-15.57,129.86-24.09,99.85-20.38,194.17-39.64,300.37-29,31.5,3.16,60.14,6.41,85.4,9.27,100.72,11.42,167.26,19,246,1.71,45.94-10,77.31-4,110.52,2.46,30,5.8,60.93,11.79,101,5.67,31.63-4.85,68-10.19,99.15-12.2,40-2.54,51.47,1.82,53.88,3.09a12,12,0,0,1-1.24,3.49c-6.89,13.91-57.73,19.73-94.86,24-53.2,6.09-103.46,11.85-115.71,40.36-8,18.56,0,38.59,22,55,32.39,24.16,94.81,39.86,143.2,24.27,23.22-7.47,38.73-5.26,62.2-1.91,27.89,4,62.61,8.92,120.67-.79,37.44-6.27,64.06-14.31,87.54-21.41,42.81-12.92,73.75-22.26,148.17-13.36l8.37,1C2374.08,2630.57,2504.83,2646.24,2602.58,2642.42Zm182.17-55.61c-42.06,1.65-80.07,4.72-107.6,13.46-78.55,24.92-274.32,1.46-391.29-12.56l-8.38-1c-84.88-10.16-123.68,1.56-168.61,15.13-23.16,7-47.12,14.24-81.44,20-50.34,8.41-79.49,4.27-105.22.59-26-3.69-50.46-7.19-84.58,3.79-31.45,10.11-78.38-1.45-100.81-18.18-6-4.47-15.49-13.25-11.8-21.84,4.13-9.61,57.2-15.69,82.7-18.61,54.86-6.29,111.59-12.79,127.22-44.35,9-18.08,1-29.63-4.48-34.91-23.67-22.64-85.61-18.12-191.63-1.88-31.38,4.81-55.67.11-83.8-5.34-35-6.79-74.72-14.48-130.8-2.2-70.59,15.46-130.41,8.67-229.53-2.56-25.42-2.88-54.23-6.15-86-9.34-113.83-11.41-211.79,8.58-315.5,29.75-41.1,8.39-83.61,17.07-127.3,23.64-138.48,20.85-232.2-8.66-254.44-30.12,10.27-5,49.1-16.91,189.51-22.4,102.08-4,165.82-11.91,189.55-40.55,10.78-13,11.9-28.48,3.33-46-23.23-47.49-90.17-34.3-149.24-22.68-24.09,4.74-49,9.64-71.94,11.29-53.45,3.85-80.22-2.25-120.74-11.46-17.12-3.89-36.52-8.31-60.58-12.48-36.45-6.32-69.14.61-107,8.62-51.83,11-116.34,24.68-218,6.53C64.57,2343,44,2328.8,40.76,2322c-3-6.32,9.41-20.24,21.39-33.71l1.6-1.79c24-27,157.67-51.65,229.5-64.91,28.89-5.33,51.72-9.54,66.47-13.23,34.16-8.53,54.19-26.82,52.26-47.74-2.36-25.6-35.72-44.05-89.22-49.37-14.91-1.48-29-2.53-41.37-3.45-68.3-5.08-79.14-7.89-77.51-35.21.37-6.21,3.18-8.91,5.88-10.73,21-14.17,88.47-8,142.71-3.11,15.45,1.41,31.42,2.86,46.23,3.87,83.77,5.74,119.11-18.39,156.52-43.93,6.79-4.63,13.8-9.42,21.27-14.15,28.85-18.27,151.33-14.6,229.07-6.16a26,26,0,0,0,2.93.14L4068,1972.07c60.67,3,226,21.51,273.95,70.76,11.19,11.51,15,23.86,11.59,37.76-14.21,58.12-42.52,63.24-89.42,71.72-31,5.61-69.57,12.58-108.62,37.05-23.12,14.48-41.94,27.85-58.56,39.65-49.39,35.08-79.21,56.25-157.36,61-72.5,4.39-92.57,15.8-131.07,41.17-21.36,14.08-50.62,33.36-105.11,59.15-107.17,50.69-184.09,39-205.11,34.22-14.82-3.37-23-7.54-26.87-10.22,8.51-7.51,32.21-20.71,48.62-29.86,49.81-27.76,80.17-46.18,81.77-67.9.64-8.8-4-17-12.93-23.05-36.42-24.62-104.56.91-190.84,33.21-40.68,15.24-82.74,31-125.17,43.09-72.08,20.57-204,29.18-320.43,36.79-83.86,5.47-163.07,10.65-210.95,19.73-63.66,12.07-75.12,32.25-73.53,47,4.06,37.63,95.37,53.11,179.48,55,31.52.72,59.69.68,84.55.65,41.35-.06,88.11-.12,97.25,5.57-.06,1.49-1.06,6.48-9.71,17.95-21.42,28.41-110.74,30.76-189.57,32.85C2814.59,2585.83,2799.42,2586.24,2784.75,2586.81ZM808.65,1982.59h0Z"/><path class="cls-1" d="M1335.48,2696c65.59-2.56,110.48-18.34,128.62-36.22,12.81-12.64,10.71-23.86,8.32-29.42-11.13-25.86-68.63-35.41-94.37-38.42-14.73-3.32-135.29-30.13-186.39-30.54-28.81-.18-56.92,10.16-86.71,21.15-30,11.07-61,22.56-93.53,23.24-51.81,1.17-90.3,17.35-95.73,40.38-2.62,11.11.56,32,51.3,47.31,44.84,13.49,95.3,9.28,153.74,4.42,45-3.75,96-8,149.31-3.54A535,535,0,0,0,1335.48,2696Zm97.7-56c-8.14,8.67-58.71,31-158.18,22.7-57.5-4.81-110.75-.37-157.74,3.53-53.35,4.46-99.41,8.29-135.39-2.54-19.59-5.9-25-11-26.33-12.61,3.47-4.13,22.42-12.67,56.24-13.47,40.86-1,77.41-14.36,109.6-26.25,25.47-9.39,49.5-18.27,69.13-18.12,39.78.32,141.33,21.48,177.1,29.61.87.19,1.76.34,2.66.45h0C1397.19,2626.4,1426,2634.17,1433.18,2640Zm-59.7-32.46h0Z"/><path class="cls-2" d="M8543.56,2215.73c6.68,25,6,50.73,3.9,76.21a189.09,189.09,0,0,1-3.9,25.41,2.72,2.72,0,0,1-5.3,0,189.09,189.09,0,0,1-3.9-25.41,290.22,290.22,0,0,1-.53-50.8,139.25,139.25,0,0,1,4.43-25.41,2.78,2.78,0,0,1,5.3,0Z"/><path class="cls-2" d="M8498.36,2263.89c20.84-6.65,42.59-6,64-3.9a135.47,135.47,0,0,1,21.35,3.9,2.75,2.75,0,0,1,0,5.3,135.47,135.47,0,0,1-21.35,3.9,204.34,204.34,0,0,1-42.68.52c-7-1-30.35-3.48-21.35-9.72Z"/></g></g></svg>