<svg xmlns="http://www.w3.org/2000/svg" viewBox="0 0 404.83 414.48"><defs><style>.cls-1{fill:#16397f;}.cls-2{fill:#1a4da0;}.cls-3{fill:#3473ce;}</style></defs><g id="Calque_2" data-name="Calque 2"><g id="Layer_5" data-name="Layer 5"><path class="cls-1" d="M15.67,260.46h0a4.29,4.29,0,0,0-4.29,4.29h0a4.29,4.29,0,0,0-4.29-4.29h0a4.29,4.29,0,0,0,4.29-4.29h0A4.29,4.29,0,0,0,15.67,260.46Z"/><path class="cls-1" d="M100.33,293.29h0A4.29,4.29,0,0,0,96,297.58h0a4.29,4.29,0,0,0-4.29-4.29h0A4.29,4.29,0,0,0,96,289h0A4.29,4.29,0,0,0,100.33,293.29Z"/><path class="cls-1" d="M66.67,324.12h0a4.29,4.29,0,0,0-4.29,4.29h0a4.29,4.29,0,0,0-4.29-4.29h0a4.29,4.29,0,0,0,4.29-4.29h0A4.29,4.29,0,0,0,66.67,324.12Z"/><path class="cls-1" d="M182.17,350.62h0a4.29,4.29,0,0,0-4.29,4.29h0a4.29,4.29,0,0,0-4.29-4.29h0a4.29,4.29,0,0,0,4.29-4.29h0A4.29,4.29,0,0,0,182.17,350.62Z"/><path class="cls-1" d="M270.5,402.21h0a4.29,4.29,0,0,0-4.29,4.29h0a4.29,4.29,0,0,0-4.29-4.29h0a4.29,4.29,0,0,0,4.29-4.29h0A4.29,4.29,0,0,0,270.5,402.21Z"/><path class="cls-1" d="M404.83,328h0a4.29,4.29,0,0,0-4.29,4.29h0a4.29,4.29,0,0,0-4.29-4.29h0a4.29,4.29,0,0,0,4.29-4.29h0A4.29,4.29,0,0,0,404.83,328Z"/><path class="cls-1" d="M359,225.46h0a4.29,4.29,0,0,0-4.29,4.29h0a4.29,4.29,0,0,0-4.29-4.29h0a4.29,4.29,0,0,0,4.29-4.29h0A4.29,4.29,0,0,0,359,225.46Z"/><path class="cls-1" d="M400.5,261.79h0a4.29,4.29,0,0,0-4.29,4.29h0a4.29,4.29,0,0,0-4.29-4.29h0a4.29,4.29,0,0,0,4.29-4.29h0A4.29,4.29,0,0,0,400.5,261.79Z"/><path class="cls-1" d="M397,135.62h0a4.29,4.29,0,0,0-4.29,4.29h0a4.29,4.29,0,0,0-4.29-4.29h0a4.29,4.29,0,0,0,4.29-4.29h0A4.29,4.29,0,0,0,397,135.62Z"/><path class="cls-1" d="M363.33,98.29h0a4.29,4.29,0,0,0-4.29,4.29h0a4.29,4.29,0,0,0-4.29-4.29h0A4.29,4.29,0,0,0,359,94h0A4.29,4.29,0,0,0,363.33,98.29Z"/><path class="cls-1" d="M302,134.29h0a4.29,4.29,0,0,0-4.29,4.29h0a4.29,4.29,0,0,0-4.29-4.29h0a4.29,4.29,0,0,0,4.29-4.29h0A4.29,4.29,0,0,0,302,134.29Z"/><path class="cls-1" d="M283.33,29.87h0A4.29,4.29,0,0,0,279,34.17h0a4.29,4.29,0,0,0-4.29-4.29h0A4.29,4.29,0,0,0,279,25.58h0A4.29,4.29,0,0,0,283.33,29.87Z"/><path class="cls-1" d="M346.5,19.62h0a4.29,4.29,0,0,0-4.29,4.29h0a4.29,4.29,0,0,0-4.29-4.29h0a4.29,4.29,0,0,0,4.29-4.29h0A4.29,4.29,0,0,0,346.5,19.62Z"/><path class="cls-1" d="M381.17,47.54h0a4.29,4.29,0,0,0-4.29,4.29h0a4.29,4.29,0,0,0-4.29-4.29h0a4.29,4.29,0,0,0,4.29-4.29h0A4.29,4.29,0,0,0,381.17,47.54Z"/><path class="cls-1" d="M226.33,80.29h0A4.29,4.29,0,0,0,222,84.58h0a4.29,4.29,0,0,0-4.29-4.29h0A4.29,4.29,0,0,0,222,76h0A4.29,4.29,0,0,0,226.33,80.29Z"/><path class="cls-1" d="M146.33,4.29h0A4.29,4.29,0,0,0,142,8.58h0a4.29,4.29,0,0,0-4.29-4.29h0A4.29,4.29,0,0,0,142,0h0A4.29,4.29,0,0,0,146.33,4.29Z"/><path class="cls-1" d="M8.58,14.37h0a4.29,4.29,0,0,0-4.29,4.29h0A4.29,4.29,0,0,0,0,14.38H0a4.29,4.29,0,0,0,4.29-4.29h0A4.29,4.29,0,0,0,8.58,14.37Z"/><path class="cls-1" d="M9,85.46H9a4.29,4.29,0,0,0-4.29,4.29h0A4.29,4.29,0,0,0,.46,85.46h0a4.29,4.29,0,0,0,4.29-4.29h0A4.29,4.29,0,0,0,9,85.46Z"/><path class="cls-1" d="M9.29,162.71h0A4.29,4.29,0,0,0,5,167H5a4.29,4.29,0,0,0-4.29-4.29h0A4.29,4.29,0,0,0,5,158.42H5A4.29,4.29,0,0,0,9.29,162.71Z"/><path class="cls-1" d="M346.5,393.54h0a4.29,4.29,0,0,0-4.29,4.29h0a4.29,4.29,0,0,0-4.29-4.29h0a4.29,4.29,0,0,0,4.29-4.29h0A4.29,4.29,0,0,0,346.5,393.54Z"/><path class="cls-2" d="M46.14,394.56h0a5.61,5.61,0,0,0-5.61,5.61h0a5.61,5.61,0,0,0-5.61-5.61h0A5.61,5.61,0,0,0,40.53,389h0A5.61,5.61,0,0,0,46.14,394.56Z"/><path class="cls-2" d="M16.15,45.88h0a5.61,5.61,0,0,0-5.61,5.6h0a5.61,5.61,0,0,0-5.61-5.6h0a5.61,5.61,0,0,0,5.61-5.61h0A5.61,5.61,0,0,0,16.15,45.88Z"/><path class="cls-2" d="M404.15,17.21h0a5.61,5.61,0,0,0-5.61,5.61h0a5.61,5.61,0,0,0-5.61-5.61h0a5.61,5.61,0,0,0,5.61-5.61h0A5.61,5.61,0,0,0,404.15,17.21Z"/><path class="cls-2" d="M380.8,405.56h0a5.61,5.61,0,0,0-5.61,5.61h0a5.61,5.61,0,0,0-5.61-5.61h0a5.61,5.61,0,0,0,5.61-5.61h0A5.61,5.61,0,0,0,380.8,405.56Z"/><path class="cls-2" d="M206.82,406.54h0a5.61,5.61,0,0,0-5.61,5.61h0a5.61,5.61,0,0,0-5.61-5.61h0a5.61,5.61,0,0,0,5.61-5.61h0A5.61,5.61,0,0,0,206.82,406.54Z"/><path class="cls-2" d="M94.47,241.56h0a5.61,5.61,0,0,0-5.61,5.61h0a5.61,5.61,0,0,0-5.61-5.61h0A5.61,5.61,0,0,0,88.86,236h0A5.61,5.61,0,0,0,94.47,241.56Z"/><path class="cls-3" d="M61.82,22.21h0a6.94,6.94,0,0,0-6.94,6.94h0a6.94,6.94,0,0,0-6.94-6.94h0a6.94,6.94,0,0,0,6.94-6.94h0A6.94,6.94,0,0,0,61.82,22.21Z"/><path class="cls-3" d="M387.82,77.21h0a6.94,6.94,0,0,0-6.94,6.94h0a6.94,6.94,0,0,0-6.94-6.94h0a6.94,6.94,0,0,0,6.94-6.94h0A6.94,6.94,0,0,0,387.82,77.21Z"/><path class="cls-3" d="M400.48,231.88h0a6.94,6.94,0,0,0-6.94,6.94h0a6.94,6.94,0,0,0-6.94-6.94h0a7,7,0,0,0,6.94-6.95h0A7,7,0,0,0,400.48,231.88Z"/><path class="cls-3" d="M313.48,407.54h0a6.94,6.94,0,0,0-6.94,6.94h0a6.94,6.94,0,0,0-6.94-6.94h0a6.94,6.94,0,0,0,6.94-6.94h0A6.94,6.94,0,0,0,313.48,407.54Z"/><path class="cls-3" d="M84.48,403.54h0a6.94,6.94,0,0,0-6.94,6.94h0a6.94,6.94,0,0,0-6.94-6.94h0a6.94,6.94,0,0,0,6.94-6.94h0A6.94,6.94,0,0,0,84.48,403.54Z"/><path class="cls-1" d="M10.17,354.54h0a4.29,4.29,0,0,0-4.29,4.29h0a4.29,4.29,0,0,0-4.29-4.29h0a4.29,4.29,0,0,0,4.29-4.29h0A4.29,4.29,0,0,0,10.17,354.54Z"/><path class="cls-1" d="M185.92,213.86h0a4.29,4.29,0,0,0-4.29,4.29h0a4.29,4.29,0,0,0-4.29-4.29h0a4.29,4.29,0,0,0,4.29-4.29h0A4.29,4.29,0,0,0,185.92,213.86Z"/><path class="cls-1" d="M270.58,246.69h0a4.3,4.3,0,0,0-4.29,4.29h0A4.29,4.29,0,0,0,262,246.7h0a4.29,4.29,0,0,0,4.29-4.29h0A4.3,4.3,0,0,0,270.58,246.69Z"/><path class="cls-1" d="M236.92,277.53h0a4.29,4.29,0,0,0-4.29,4.29h0a4.29,4.29,0,0,0-4.29-4.29h0a4.29,4.29,0,0,0,4.29-4.29h0A4.29,4.29,0,0,0,236.92,277.53Z"/><path class="cls-1" d="M179.54,116.11h0a4.29,4.29,0,0,0-4.29,4.29h0a4.29,4.29,0,0,0-4.29-4.29h0a4.29,4.29,0,0,0,4.29-4.29h0A4.29,4.29,0,0,0,179.54,116.11Z"/><path class="cls-2" d="M216.39,348h0a5.61,5.61,0,0,0-5.61,5.61h0a5.61,5.61,0,0,0-5.61-5.61h0a5.61,5.61,0,0,0,5.61-5.61h0A5.61,5.61,0,0,0,216.39,348Z"/><path class="cls-2" d="M264.72,195h0a5.61,5.61,0,0,0-5.61,5.61h0A5.61,5.61,0,0,0,253.5,195h0a5.61,5.61,0,0,0,5.61-5.61h0A5.61,5.61,0,0,0,264.72,195Z"/><path class="cls-3" d="M254.73,356.94h0a7,7,0,0,0-6.94,6.95h0a6.94,6.94,0,0,0-6.94-6.95h0a6.93,6.93,0,0,0,6.94-6.94h0A6.94,6.94,0,0,0,254.73,356.94Z"/><path class="cls-1" d="M180.42,307.94h0a4.29,4.29,0,0,0-4.29,4.29h0a4.29,4.29,0,0,0-4.29-4.29h0a4.29,4.29,0,0,0,4.29-4.29h0A4.29,4.29,0,0,0,180.42,307.94Z"/></g></g></svg>