<svg xmlns="http://www.w3.org/2000/svg" viewBox="0 0 279.91 315.7"><defs><style>.cls-1{opacity:0.15;}.cls-2{opacity:0.85;}.cls-3{fill:#f7c7fe;}.cls-4{fill:#f4b4fe;}.cls-5{fill:#f094fd;}.cls-6{fill:#fadbfe;}.cls-7{fill:#f2a5fe;}.cls-8{fill:#ee83fd;}.cls-9{opacity:0.9;}.cls-10{fill:#e0f9fe;}.cls-11{fill:#f3fdff;}.cls-12{fill:#d0f5fe;}.cls-13{fill:#bff2fe;}.cls-14{fill:#b3effe;}.cls-15{fill:#a4ecfd;}</style></defs><g id="Calque_2" data-name="Calque 2"><g id="Layer_2" data-name="Layer 2"><g class="cls-1"><g class="cls-2"><g class="cls-2"><path class="cls-3" d="M148.79,128.32a14.81,14.81,0,0,0,5.51.19,32.72,32.72,0,0,0,3.61-.6l1.87-.44c.41-.1.16-.08.25-.18a19.73,19.73,0,0,0,2.25,5.26c1.09.18,2.21.51,3.44.81,1.46,1,3.15,2.2,4.66,3.12-2.49-4.2-3.59-6.13-3.95-9,.76.38,1.55.78,2.48,1.34a49.35,49.35,0,0,0,10.47,12.3,10.07,10.07,0,0,1,.5,1.59,21.29,21.29,0,0,0,3.44,1.36,3.68,3.68,0,0,0,1.11.18c0,.25.36-.92-.31,1.54-.4,1.74-.73,3.31-.94,4.86a21,21,0,0,0,.23,8.84c.43,1.28.87,1.53.59,1.31l0,0-13.3-9.47-.07.11-.22.47c-.12.29,0,.07,0,.13a1,1,0,0,0,.23-.06c-1-.53,0-.63-.66-1,.36-.45.65-2.31-.24-1.94a3.48,3.48,0,0,0-.84-2.37c-.36.7-.41.17-.62-.52s-.5-1.45-.64-.48c-.21-1.36-2.3-3.58-2.24-2.46a12.84,12.84,0,0,0-5.65-3.59,2.24,2.24,0,0,0-2.73.93,3.94,3.94,0,0,0,.09,2.86c.6,2.1,1.74,4.85,1.17,6.46.72.73,1.38.46,2.12.71,0,.34.88,1.24.16,1.14-.42.17-.09.61.13,1A1.46,1.46,0,0,0,162,153a5.6,5.6,0,0,0,.77,2.1,6.77,6.77,0,0,0,.92,1.26c.83.89,1.64,1.79,2.5,2.63a101.78,101.78,0,0,0,10.65,9.24c7.43,5.62,14.77,10.25,22.58,15.42.12-.34.82-.23,1-.28a3.13,3.13,0,0,1,.84.21c.6.21,1.24.38,1.42-.35,2.05.61,4.59,1.07,6.35-.35,2-2.09,2.14-5.39,1.32-8.66a10.82,10.82,0,0,0-1.21-4,6.5,6.5,0,0,0-1.82-2.49,151.18,151.18,0,0,0-8.86-17.55,39.29,39.29,0,0,0-8-12.35c-2.48-3.75-5.26-7.66-7.81-11.06-4.44-6.56-7.59-10-7.66-8.68l-1.63-2c-2.82-3.25-5.6-6.25-8.65-9.37l-3-2.87c-2.06-2.28-4.29-4.73-6.44-6.93-2.25-2.86-4.62-3.62-6.07-4.51-3.31-3.06-6.7-6-10.17-8.89-4.24-4.06-6.06-4.21-7.67-5.61A157.31,157.31,0,0,0,111.1,65c-3.82-1.38-6.73-2.77-9.89-4.13-.29-.34-.32-.57-.6-.9l-3.45-1.37c-4.2-1-7.47-1.76-10.49-1.76-.92-.17-2.06-.39-3.16-.51a19.55,19.55,0,0,0-1.94-.52c-1-.07-1.95-.07-2.8-.06a17,17,0,0,0-2,.17,10.68,10.68,0,0,0-3.34,1.38,7.39,7.39,0,0,0-1.57,1.86,4,4,0,0,0-1.24.27,9,9,0,0,0-1.68,3.3,14.66,14.66,0,0,0-1,3.7,36.48,36.48,0,0,0,.62,5c.23,3.35.23,5.9-.63,7.37.66,2.22,1.46,4.46,2.27,6.66L70.81,88c1.54,3.84,3.38,8,5.32,11.85,2.58,6.6,5.93,12.06,8.51,18.81,1,1.37,2.1,2.73,3,3.83,1.27,2.31,2.38,4.1,3.66,6.16,3,2.78,6.34,11.25,10,14.62,2.15,3.43,4.51,7.07,6.78,10.44l-2.44-.2c-.91-.77-1.82-1.53-2.62-2.29l-3.45-5.85c-1.64-3.63-3-3.12-4.23-5.11-2.51-3.55-5-7.14-7.38-11-1.79-3.33-3.41-6.41-5.07-9.77a204.92,204.92,0,0,1-11.07-21c-1-2.68-1.78-5.14-2.57-7.78a80.78,80.78,0,0,1-3-11.56c-.36,1-.74,2-1.11,2.84-1.68-3-1.51-10.55-3-8.72a33.29,33.29,0,0,1,.38-9.07,19.87,19.87,0,0,1,2.88-7.3c2.86-4.39,7.28-6.42,10.64-8.3A15.62,15.62,0,0,1,82.48,47a26.75,26.75,0,0,1,5.39.35c.8.49,1.85,1,2.95,1.58a13.09,13.09,0,0,0,2.46,2c3.1,1.26,4.37.7,6.34,1.07a53.54,53.54,0,0,1,6.13.12A156.78,156.78,0,0,1,137.86,70.5c4.06,4.16,6.89,4.73,9.89,6.72L152,80.87c2.12,2,4.12,4,6,5.81,5.06,5.58,5.06,4,6.87,5.88.78.6,1.57,1.22,2.48,2.06,5.75,7.56,7.86,7.51,10,10.39.9,1.34,1.81,2.69,2.79,4.27.91.67,1.72,1.35,2.53,2l1.87,2.29c5.33,7.6,4.18,3.49,7.31,7.94.61,1,1.3,2.12,2,3.31,1.71,1.93,3.3,3.87,4.88,5.84a19.43,19.43,0,0,1,1,4.45l.79,1.23c4.18,4,10.79,14.8,13.49,21.1a51,51,0,0,1,4,8.81c.63,1.71,1.21,3.6,1.59,5s.64,2.69.86,3.9a15.21,15.21,0,0,1,.83,12.36,9.27,9.27,0,0,1-6.94,6.53,19.6,19.6,0,0,1-9.78-.71c-1.5,1-4.37-1-5.44-.69-1.51,0-9.56-4.32-10.53-6l-2.33-1.49c-5.56-2.35-5.55-3.06-11.62-6.69a150.59,150.59,0,0,1-11.88-11.17c-1.84-1.91-3.87-4.13-5.39-5.9-1.2-1.45-2.28-2.84-3.31-4.22-1.07-1.17-1.27-.19-2-1.53-3-3,.3-1.45-1.52-4a11.23,11.23,0,0,1-3.47-3.7,12.58,12.58,0,0,0-3-3.65c.35-1.45-.77-3.54-2-6.1s-2.68-5.54-2.11-7.46c-.37-2.11-.51-4.49.69-6.41s3.73-2.5,5.89-2.29c4.45.49,8.56,2.64,12.29,5.07A37.12,37.12,0,0,1,168,136.8l1.44,1.7a43.27,43.27,0,0,1,2.91,4.28,4.22,4.22,0,0,1,1.12.07,35.58,35.58,0,0,1,4,7.93,10.36,10.36,0,0,1,.65,4,3.39,3.39,0,0,1-.53,1.67l.05-.09,0,0,6.33,4.52.12.11-.11-.15a5.65,5.65,0,0,1-.73-1.86,15.61,15.61,0,0,1-.41-3.52c0-.63,0-1.41.07-2.16,0-.14,0,0-.07-.06a4.25,4.25,0,0,1-1.22-.25,18.51,18.51,0,0,1-3.91-2,54.23,54.23,0,0,1-8.68-7.41c-1.55-1.16-3-1.81-4.39-3.55-.92-1.16-1.92-2.54-2.71-3.73a26.67,26.67,0,0,1-4.23-7.11c0-.12-.21-.63-.12-.42-.13-.4-.25-.81-.16-.63s0-.08,0-.09a9.41,9.41,0,0,1-1.06.2c-.53.1-1,.19-1.54.25-4,.61-6.81-.15-7.3-.65-.35-.3.33.16.56,1.78a18.85,18.85,0,0,1-.43,6.65,20.56,20.56,0,0,1-.49,2.06c0,.18,0,.08,0,.12l.29.17,1,.62c.31.68-.14.79-.56.8a4.24,4.24,0,0,1-1.13-.15s-.14.08-.06-.12c.33-1.13.64-2.22.86-3.35a22.2,22.2,0,0,0,.57-5.86,5.4,5.4,0,0,0-.73-2.75A4.86,4.86,0,0,0,148.79,128.32Z"/><path class="cls-4" d="M164.64,140c1.38,1.74,2.84,2.39,4.39,3.55a54.23,54.23,0,0,0,8.68,7.41,18.51,18.51,0,0,0,3.91,2,4.25,4.25,0,0,0,1.22.25s.11-.08.07.06c-.06.75,0,1.53-.07,2.16a15.61,15.61,0,0,0,.41,3.52,5.65,5.65,0,0,0,.73,1.86l.11.15-.12-.11-6.33-4.52,0,0-.05.09a3.39,3.39,0,0,0,.53-1.67,10.36,10.36,0,0,0-.65-4,35.58,35.58,0,0,0-4-7.93,4.22,4.22,0,0,0-1.12-.07,43.27,43.27,0,0,0-2.91-4.28L168,136.8a37.12,37.12,0,0,0-9.27-9.74c-3.73-2.43-7.84-4.58-12.29-5.07-2.16-.21-4.68.32-5.89,2.29s-1.06,4.3-.69,6.41c-.57,1.92.88,4.95,2.11,7.46s2.39,4.65,2,6.1a12.58,12.58,0,0,1,3,3.65,11.23,11.23,0,0,0,3.47,3.7c1.82,2.55-1.44,1,1.52,4,.75,1.34.95.36,2,1.53,1,1.38,2.11,2.77,3.31,4.22,1.52,1.77,3.55,4,5.39,5.9a150.59,150.59,0,0,0,11.88,11.17c6.07,3.63,6.06,4.34,11.62,6.69l2.33,1.49c1,1.7,9,6,10.53,6,1.07-.28,3.94,1.7,5.44.69a19.6,19.6,0,0,0,9.78.71,9.27,9.27,0,0,0,6.94-6.53,15.21,15.21,0,0,0-.83-12.36c-.22-1.21-.5-2.53-.86-3.9s-1-3.26-1.59-5a51,51,0,0,0-4-8.81c-2.7-6.3-9.31-17.06-13.49-21.1l-.79-1.23a19.43,19.43,0,0,0-1-4.45c-1.58-2-3.17-3.91-4.88-5.84-.7-1.19-1.39-2.36-2-3.31-3.13-4.45-2-.34-7.31-7.94l-1.87-2.29-.84,0-1.69-2c-1-1.58-1.89-2.93-2.79-4.27-2.13-2.88-4.24-2.83-10-10.39a8.58,8.58,0,0,1,0-2.31c1.13.59,2.34,1.19,3.68,2,6.34,7,7.43,7.42,11.19,11.47,1.56,2.73,4.32,5.49,6,7.81s3.22,4.46,4.81,6.82c11.54,13.29,16.15,21.69,23.13,34a69.44,69.44,0,0,0,6.54,13.36c-2.62-9.6-3.81-8.87-5.71-13.16-.31-1.26-.41-2.22-.66-3.46l-17.9-29.3c-2.61-3-5.19-5.61-7.73-8.21-2.28-2.6-4.8-5.39-7.27-7.89-1.43-2.52-2.92-5-4.44-7.52C172.68,90.4,169,86.8,166.18,83.58c-3-2.48-5.9-4.69-8.81-6.85-4.11-3.85-8.36-7.58-13.1-11.32l2.87-.62c2,1.52,3.84,3.07,5.72,4.64,6.89,7.85,8.87,7.86,13.18,11.82a14,14,0,0,0,1.34,2.21l6.84,6c3.6,4.42,6.94,8.71,10.08,13.08,4.76,2.72,7.58,6.76,9.33,8.9.52,2.56,5.67,6.74,8.38,10.74,1.39,1.26,4.13,5,6,7.16l3.25,5.14.64,1.05-1.29-.2c1.66,2.83,3.31,5.95,4.73,8.83a45.69,45.69,0,0,1,5.5,9.37l3.54,3.17c.74,1.69,1.54,3.68,2.21,5.4.31,1.35.59,2.71.78,4a62.17,62.17,0,0,1,4.16,10.25c.12.94.13,1.8.19,2.71a43.36,43.36,0,0,1,.43,4.93,12.13,12.13,0,0,0-1.89,2.08,14.74,14.74,0,0,1-1.77,10.51c-2,3.6-5.79,5.89-8.82,7.23a30.76,30.76,0,0,1-9.07-.11l-4.2-.58a12.22,12.22,0,0,1-2.46-1.32c1.19,0,2.34-.17,3.77-.35a4,4,0,0,1-1-.86,52.67,52.67,0,0,1-9-3.06c4.62,1.09,7.83,1.46,9.2,2.75a29.32,29.32,0,0,0,6.81.47c3.49-.34,7.19-1.53,9.72-4.18a15.32,15.32,0,0,0,3.85-9.65,33,33,0,0,0-4.26-17.81c1.22,5.44,1.15,7.74,2.08,9.52.62,4.94.9,10.83-2.55,15.43a11.59,11.59,0,0,1-7.25,4.12,23.49,23.49,0,0,1-8.64-.3c-10.62-2.21-23.1-9.86-32.09-18.31-2.34-1.34-4.59-2.74-6.88-4.22-2.57-2.29-5.13-4.78-7.6-7.37l-3.65-4c-1.18-1.33-1.9-2.2-2.8-3.29-3.43-4.14-6.29-8-9.27-11.45.56.34.56-.07.47-.5-1.8-3.35-5.06-4.86-6.92-7.68a44.85,44.85,0,0,1-1.31-4.68c1.43.21.61-1.21-.59-3.23s-2.83-4.67-2.7-6.09c.16-2.46.74-5.47,3.27-7.12,1.36-2,5-2.59,7.69-2.33s4.85.49,5.24-.62a16.19,16.19,0,0,1,1.95.68,70.52,70.52,0,0,1,16.26,13,11,11,0,0,0-.77,1.74c.93,1.59,2.92,3.48,4.11,5.19l1.56,2c.37.19.72.43,1,.53a52.21,52.21,0,0,1,4.44,7.47c1,1.39,1.41.8,2.49,2.9a19.63,19.63,0,0,1,1,3.61,6,6,0,0,1-1.61,1.74c-.26.17-.39.75-.73,1.36-.12.23-.11.15-.06.09l4.9,3.49c.06.06,0,0,0,0a3.71,3.71,0,0,1-.44-.79,11.19,11.19,0,0,1-.74-3.57l0-.77,0-.41h0s-.06,0-.08,0a1.47,1.47,0,0,1-.51,0,32.12,32.12,0,0,1-4.09-1,35.85,35.85,0,0,1-5.6-3.76c-.35-.94-2.79-2.6-4.14-4.08-1.61-3.08-3.55-5-3.32-5.61A6.47,6.47,0,0,0,164.64,140Z"/><path class="cls-3" d="M178.16,154.43a32.12,32.12,0,0,0,4.09,1,1.47,1.47,0,0,0,.51,0s.1,0,.08,0h0l0,.41,0,.77a11.19,11.19,0,0,0,.74,3.57,3.71,3.71,0,0,0,.44.79s0,0,0,0l-4.9-3.49c-.05.06-.06.14.06-.09.34-.61.47-1.19.73-1.36a6,6,0,0,0,1.61-1.74,7.47,7.47,0,0,1-.28,3.55,4.42,4.42,0,0,1-.43.8h-.05l3.17,2.27s.17.14.12.1a4.73,4.73,0,0,1-.78-1.78,13,13,0,0,1-.39-2.37c0-.16-.06-.08-.18-.17l-1.11-.39A21.63,21.63,0,0,1,178.16,154.43Z"/><path class="cls-3" d="M173.61,140.19c-.23-.1-.58-.34-1-.53l-1.56-2c-1.19-1.71-3.18-3.6-4.11-5.19a11,11,0,0,1,.77-1.74,85.78,85.78,0,0,1,7,9.1,50.92,50.92,0,0,1,5.82,10.78c-1.08-2.1-1.49-1.51-2.49-2.9A52.21,52.21,0,0,0,173.61,140.19Z"/><path class="cls-3" d="M147.61,107.46c-1.19.67-3.9-.74-7.08-2.15s-6.78-2.71-8.39-1.6c-1.7-.76-3.53-1.5-5.38-2.12a5.25,5.25,0,0,1-.25-.64l.06-.29.13-.55a23.93,23.93,0,0,1,9,.31A55.54,55.54,0,0,1,147.59,107,4.15,4.15,0,0,0,147.61,107.46Z"/><path class="cls-3" d="M129.85,151.59a28.26,28.26,0,0,0,1.69,3.7l-1.62-.71c-4.26-3.49-6.45-8.66-9-13,1.35,1.06,2,.51,4.07,3.34C126.55,147.27,128,149.27,129.85,151.59Z"/><path class="cls-5" d="M131.39,142.73c.62,1.64,1.29,3.34,2.15,5.13,1.59,3,3.85,4.87,6,7.62,2,2.11,4,4.16,6,6.09.78.33,1.72.86,2.57,1.12,1.66,2.19,3.44,4.41,5.2,6.39a9.47,9.47,0,0,1,0,2.33c7.7,9.24,11.31,10.3,15.92,13.72l2.35,1.9a120.35,120.35,0,0,0,10.29,7.7c1.63,1,3.64,2,5.31,2.88,2.86,1.44,5.37,2.59,8.56,3.9l2.76,1.13a53.24,53.24,0,0,0,9.28,2.69c1.31.24,2.29.37,3.28.48a25,25,0,0,0,10.95-1.43,17.59,17.59,0,0,0,3-1.43c5.24-3.46,7.3-9.61,7.38-15.69,0-1.06-.11-2.2-.22-3.26a43.36,43.36,0,0,0-.43-4.93c-.06-.91-.07-1.77-.19-2.71a48.81,48.81,0,0,0-2.29-10c-1-2.71-1.91-4.4-2.65-4.31-.67-1.72-1.47-3.71-2.21-5.4-1-2.51-2.15-5.24-3.36-8-3.24-4.17-6.31-9.49-9.12-13.21l-.64-1.05-3.25-5.14-2.86-6c-1.56-2.27-3.33-4.75-5-7-2.35-1.58-7.53-7.57-5.36-7a59,59,0,0,1-8-9.21c-1.28-1.39-2.86-3-4.26-4.36-2.75-1.31-5.46-4.91-7.63-6.41-2.74-2.86-5.32-5.45-8.17-8.2-1-1.31-2.27-2.81-3.37-4.09-2.78-1.08-7.83-5.52-7.48-5.8-.48-1.11-.51-1.82.85-.14-4.89-4.21-8.14-6.9-8.92-6.5-3.64-2.62-7.37-5.13-11.45-7.69-2.22-1.59-4.65-3.34-7.24-5l-1.16.37c-2.41-1.45-5.08-3-7.54-4.3-4-2.26-7.82-4.24-12.06-6.16l-1.17.58a92.83,92.83,0,0,0-16-5.06c-3.86.36-8.74-.6-12.4-.38a10.07,10.07,0,0,0-3.47-.7c-1.66.05-4.46.31-8.9,2.66a27.48,27.48,0,0,0-9.19,6.29c-5.54,5.38-8.2,13.21-8.87,20.22.46,3.17.44,10.2,1.91,14.37a109.81,109.81,0,0,0,1.72,12c4.08,13.4,8,20,14,31.47,2.14,5.44,4.31,8.8,3.2,7.83-3.25-3.41-5.38-8.42-6.9-9.84-1.59-3.15-3.24-6.66-4.6-9.88-2.23-1.7-4.53-12.6-6.47-12.23a83.07,83.07,0,0,1-1.79-8.72A73.35,73.35,0,0,1,46.15,66.9a42.19,42.19,0,0,1,3.09-14.79A31.81,31.81,0,0,1,58.12,40a32.58,32.58,0,0,1,12.52-5.23c2.61-.75,6.46-.68,8.12-1.27a43,43,0,0,1,11.54.7c4.1.81,7.73,2.17,9.26,3.38l2.79.93c6.78,1.31,9.56,3.06,11.66,3.44-.22-1.24,5.32,1.64,8,2.94,4.87,2.29,2.69,2.06,6.4,5.06,5.4,1.48,11.56,6,14.09,6.68,12.14,10.25,25.23,19.17,36.6,31.56a18.63,18.63,0,0,1,1.3,3.22l6.13,5.45c1.64,1.39,3.48,3,5,4.45,6,10.59,13.43,12.29,16.61,21.42,1.21,1.54,2.23,3.8,3.67,4.93.46-1.36,2.57,2.25,4.33,5.18-.61-.09-2-.81,0,2.39,2.38,4.93,5.9,7.87,7.75,10.78,2,3.92,4,8.21,5.64,12.31,1.18,3,2.08,5.46,3.23,9.05a66.47,66.47,0,0,1,2.5,10.68c1,7,.64,14-2.4,19.88a52.22,52.22,0,0,1-3,4.79c1.57.06-2.07,3.72-6,5,.8-.68-.5-.28-1.42-.19a29.42,29.42,0,0,1-7.39,1.68,27.15,27.15,0,0,1-8.54-.63c.79-.67-3.82-1.38-3.69-2.24a53.27,53.27,0,0,1-7.59-2.16,75.38,75.38,0,0,1-6.94-3,96.51,96.51,0,0,1-12.24-7.13,209.69,209.69,0,0,1-22.41-18.27,84.42,84.42,0,0,0,14,14.47,79.92,79.92,0,0,0,16.82,10.83c5,2.29,2,1.81,6.12,3.89,6.78,2.52,14.68,5.29,22.69,5.55a27.64,27.64,0,0,0,11.61-1.93,18.25,18.25,0,0,0,8.6-7.32c3.7-5.6,4.93-14.32,3.5-22.85a63.53,63.53,0,0,0-3.21-12.13c-.66-1.79-1.24-3.17-1.77-4.38s-1.09-2.36-1.61-3.33c-.82-2.58-1.83-5.41-2.92-8.21a21.77,21.77,0,0,0,1.22-1.9c2.12,3.87,3.93,7.5,5.68,11.58,1,.92,1.88,3,3,6.71a86.11,86.11,0,0,1,2.45,10.74c1,6.84.77,13.52-1.4,19.49-.86,3.67-2,7.07-5,10.16-4.78,4.22-11.12,6.11-17.41,6.19a44.49,44.49,0,0,1-16-1.81,78.19,78.19,0,0,1-14.48-5.91,146.08,146.08,0,0,1-21.24-13.93c-9.27-7.77-14-12.34-18.48-16.7l-4.18-4.73c-1.44-1.72-2.88-3.43-4.22-5.17-2.73-3.48-5.28-7-7.6-10.56l1.62.71c2.27,2.69,4.67,5.3,7.06,7.81,3.59,2.08-3.83-6-5.76-9.36l-.79-1.15c-4.34-7.75-5.61-10.38-7-12.93s-2.46-5.28-3.41-7.67c.62.14,1.35.56,2,.7l3.13,2.39C128.27,137.8,129.68,140.13,131.39,142.73Z"/><path class="cls-3" d="M233.49,207.2c3-3.09,4.11-6.49,5-10.16,2.17-6,2.42-12.65,1.4-19.49a63.2,63.2,0,0,1,2.85,7.45c.09,8.09-1.76,15.37-6.76,21.45A24.79,24.79,0,0,1,233.49,207.2Z"/><path class="cls-6" d="M83.51,56.29a16.75,16.75,0,0,0-4.78.45,12.62,12.62,0,0,0-2.38,1c-1.37.77-2.46,1.44-4.11,2.28a8.38,8.38,0,0,0-1.88,3.32c-.07.92-.14,1.59-.3,2.87a45.5,45.5,0,0,0-.29,5.08A57.31,57.31,0,0,0,71.1,83.72c2,1.64,3.29,5.35,4.84,9.53s3.17,8.65,5.07,11.21c2.81,6.46,3.32,10.27,6.89,17.16,4.48,5.23,9,13.83,11.58,13.69,1.73,2.95,3.39,5.63,4.66,8.26,3.42,3.08,6.39,8.3,9.69,12.81l5.59,5.7c6.67,10.21,11.83,13.86,19.14,22.95,3.33,2.86,8.16,8.95,10,8.15a83.25,83.25,0,0,0,15.17,13.88c-1.73-3.87-8.91-10.47-6.87-11.32,6.66,3.49,12.43,14.53,16.69,14.38,1.87,2,5.87,5.24,5.54,5.74,5.12,5.28,4.73,7.86,10.25,13.43,1.84,1.92,5.47,5.27,3.28,4.82-1.63-.56-3.53-1.31-5.46-2.08l-5.55-4.48c-1.38-1.59-2.7-3.21-4-4.83-2.37-1.44-5.93-4.36-7.06-4.43-3.54-3.87-4.56-4.87-9-7.57-2.47-1.56-4.93-3.15-7.29-4.77-4.93-4.83-9.5-9.56-14.13-14.61-4.43-4.84-8.78-9.76-13.16-15-3.18-2.51-7.59-8.53-11.31-12.34l-2-3.3-5.54-7c-2.27-3.37-4.63-7-6.78-10.44-3.7-3.37-7.06-11.84-10-14.62-1.28-2.06-2.39-3.85-3.66-6.16-.94-1.1-2-2.46-3-3.83-2.58-6.75-5.93-12.21-8.51-18.81-1.94-3.85-3.78-8-5.32-11.85l-.67-2.59c-.81-2.2-1.61-4.44-2.27-6.66.86-1.47.86-4,.63-7.37a36.48,36.48,0,0,1-.62-5,14.66,14.66,0,0,1,1-3.7,9,9,0,0,1,1.68-3.3,4,4,0,0,1,1.24-.27,7.39,7.39,0,0,1,1.57-1.86,10.68,10.68,0,0,1,3.34-1.38,17,17,0,0,1,2-.17c.85,0,1.84,0,2.8.06A19.55,19.55,0,0,1,83.51,56.29Z"/><path class="cls-5" d="M74.34,134.61l.42.08,3.12,5.13c1.65,2.93,3.49,6.07,5.23,9L87,155c2,.73,4.86,7.2,8.48,11.05l1.2.11c.42.27,1,.8,1.72,1.32l-.43,0c1.47,2.68,3,5.37,4.6,8l4.33,5.84c2.18,2.45,2.85,1.77,4.4,3.68l2.62,3.34,2.49,0c2.18,1.9,3.53,2.6,4.8,4.46,7.33,8.8,3.49,2.53,5.37,3.45,0-.46,0-.93.23-1.16-8.22-9.15-14.55-15.87-19.34-21.46-.71-1.2-1.42-2.41-2.21-3.61l-5.41-7.14-2.72-2.35c-2.51-3.73-4.79-7.26-7-10.82-2.11-4-4.15-8.06-6.16-12.16l3.77,3.89c1.1,2.26,2.46,3.63,4.45,6.21,6.75,9,11.28,17.41,16.29,21.41,5.64,10.08,16.57,17.59,21.35,27.14q4.86,3.7,9.79,7.27c-.48-1.13-.75-2-1.14-3.17l2.8-.14-9.34-11.82c4.78,3.57,7,6.65,9.29,8.39l1.95,2.19c2.83,2.36,5.87,4.91,8.76,7.19l.81.85,8.14,9.3.84.83c3.59,1.42,6.53,4.71,9.9,7.67,2.86,2.59,5.63,4.91,8.56,7.4l1.51.88a8.5,8.5,0,0,0-.19-2.27c-.06-.91-4.55-4.06-2.87-3.89l1.16-.2a9.71,9.71,0,0,0,1.9.82L187.2,232c2.66,2.69.44,1.76.22,2.26.44,1.08,3.29,3,5,4.51,5.92,7,8.29,6.94,15,11.88,1.69,2.1,3.33,4.23,5.09,6.28-2.09-.76-4.17-1.57-6.49-2.57l-2.37.66-5.68-4.2-4.83-1c-2.48-2-5.09-4.26-7.44-6.39a30.7,30.7,0,0,1-2.68-1.8,24.13,24.13,0,0,1-1.62-1.8c-4.52-4.3-6.63-4.9-10.43-6.18-2.81-1.2-5.38-4.56-8.79-6.47l-1.61.21c-.81.32-1.31.85-2,1.16l4.36,4.14c.37.89.88,2,1.47,3.08,1,1.51,4.31,4.58,7.64,6.87l.9.78c-.13,1.21-.17,2.4-.2,3.59,2.32,2-1.6,0,.05,2.12,2.78,2.39,5.38,4.54,8,6.65-1.79-.84-3.48-1.73-5-2.4s-2.77-1.19-4-1.7l5.27,6c-4-1.66-7.88-5.11-10.55-6.37-3.11-2.87-6.47-6-9.46-8.94l2.91-.37-5.38-5c-5.75-2.9-10.67-8.15-15.55-13.24,1.33.61,2.57,1.25,4,1.84-7.52-8.15-9.6-9-14-15-6.83-6.86-5.44-4.1-9.32-7.81,8,11.22,13.27,13.05,16.77,18.74a34.24,34.24,0,0,1-4.43-1l-3.71-3.14c-6.27-5.91-12.1-11.76-18-18-6.6-6.52-13.08-15.59-20.08-23.84L85,169.42a126.09,126.09,0,0,0-10.54-15.37L73,151.63l2.49.44c5.65,7.64,8.76,9.9,11.66,14.27l3.29,4.86c1.15,1.29,2.11,2.33,3.35,3.61,1.26,2,2.53,4,3.9,6,3.14,4.69,4.94,4.31,7.45,7.26,2.44,3.39,5.23,7,7.78,10.32,3.24,4,2.55,1.22,5.46,3.58l-4.69-5.67c-2.59-4-5.24-5-7.69-8.2-1.16-1.92-2.2-3.86-3.26-5.8-3.24-5.59-3.91-3.06-6.88-7.29-5.44-9.89-6.55-8.63-9.62-13.49-2.63-6-4.47-6.76-5.81-9.83a2.84,2.84,0,0,0,0-1.19l-2.89-6.19c-2-3.46-3.79-6.68-5.65-10.21Z"/><path class="cls-3" d="M162.13,227.25c3.41,1.91,6,5.27,8.79,6.47,2.46,2.67,4.92,5.3,7.54,7.88L174.18,240c-1.65-.89-5.07-3.89-4.83-2.52l-6.5-4.71-4.36-4.14c.72-.31,1.22-.84,2-1.16Z"/><path class="cls-7" d="M181.35,239.9a24.13,24.13,0,0,0,1.62,1.8,30.7,30.7,0,0,0,2.68,1.8c2.35,2.13,5,4.36,7.44,6.39l4.83,1,5.68,4.2,2.37-.66c2.32,1,4.4,1.81,6.49,2.57,3.6,3.65,5.46,5.88,4,6.86,4.59,3.76,4.88,3.87,5.76,5l-2.33.85a3,3,0,0,0-.65,1.45A24.1,24.1,0,0,0,221,274l-6.46-2.45c.81,1.19,1.8,2.6,2.56,3.81-1.28-.29-2.63-.6-4.17-1.08-3.86-1.71-8-3.66-12.13-5.7s-7.62-4.11-11.48-6.37c0,.24.23.67.22.91L184.82,262,177,257.76l-5.27-6c1.21.51,2.54,1,4,1.7s3.24,1.56,5,2.4c-2.62-2.11-5.22-4.26-8-6.65-1.65-2.1,2.27-.14-.05-2.12,0-1.19.07-2.38.2-3.59,4.18,2.85,8.27,5.41,12.64,8.07,1.78,1.77,3.9,3.68,5.81,5.39,2.13.71,4.25,1.4,6.46,2l-.87-3.36c-2.33-1.33-4.32-2.52-6.86-4.09-3.92-3.15-7.9-6.6-11.58-9.93-2.62-2.58-5.08-5.21-7.54-7.88C174.72,235,176.83,235.6,181.35,239.9Z"/><path class="cls-3" d="M188.45,251.88q4.59,3.65,9.32,7.1a3.28,3.28,0,0,0,.79,1l-7.25-3c-1.91-1.71-4-3.62-5.81-5.39C186.41,251.61,187.46,251.86,188.45,251.88Z"/><path class="cls-6" d="M154,128.55a32.17,32.17,0,0,0,4.25-.71c.79-.17,1.6-.36,2.39-.61s1.93-.81,1.52-.81l.54,1.43a24.36,24.36,0,0,0,3.06,5.51c-1.23-.3-2.35-.63-3.44-.81a19.73,19.73,0,0,1-2.25-5.26l.11.06c.05,0,.13,0-.28.09l-1.71.41c-1.07.26-2.15.43-3.07.57C152.41,128.73,153.23,128.6,154,128.55Z"/><path class="cls-6" d="M168.42,146.59c-2.29-1.05-4-3.44-5.62-5.43l2.3-.18C164.87,141.62,166.81,143.51,168.42,146.59Z"/><path class="cls-6" d="M179.38,141.14a15,15,0,0,0,4.35,2.21,6.19,6.19,0,0,1,1,.3v0l-.28,1c-.22.78-.4,1.54-.55,2.27-.33,1.39-.53,2.66-.68,3.67.21-1.55.54-3.12.94-4.86.67-2.46.33-1.29.31-1.54a3.68,3.68,0,0,1-1.11-.18,21.29,21.29,0,0,1-3.44-1.36A10.07,10.07,0,0,0,179.38,141.14Z"/><path class="cls-6" d="M169.58,150.57c-.73,1.08-.42.59-.51.66l-.06-.08a.86.86,0,0,0-.18-.14,1.22,1.22,0,0,0,.68-.06,4.62,4.62,0,0,0-.89-2.45c-.34.1-.6-.33-1.22-1.14a11.14,11.14,0,0,0-2.48-2.51c0,.68-.87,0-2.21-.37s-2.15.41-1.57,1.44a20.77,20.77,0,0,0,3.64,7.73c.18.24.24.35.55.71l2.23,2.36c1.51,1.55,3,3.09,4.59,4.57,3.12,3,6.34,5.8,9.63,8.41a100.61,100.61,0,0,0,10,7.06c1.68,1.05,3.34,2,5.11,2.9l2.59,1.28,1.74.8c.31-.49.81.23,1.43,1.44-.18.73-.82.56-1.42.35a3.13,3.13,0,0,0-.84-.21c-.15.05-.85-.06-1,.28-7.81-5.17-15.15-9.8-22.58-15.42a101.78,101.78,0,0,1-10.65-9.24c-.86-.84-1.67-1.74-2.5-2.63a6.77,6.77,0,0,1-.92-1.26A5.6,5.6,0,0,1,162,153a1.46,1.46,0,0,1-1.32-.25c-.22-.35-.55-.79-.13-1,.72.1-.18-.8-.16-1.14-.74-.25-1.4,0-2.12-.71.57-1.61-.57-4.36-1.17-6.46a3.94,3.94,0,0,1-.09-2.86,2.24,2.24,0,0,1,2.73-.93,12.84,12.84,0,0,1,5.65,3.59c-.06-1.12,2,1.1,2.24,2.46.14-1,.48-.16.64.48s.26,1.22.62.52a3.48,3.48,0,0,1,.84,2.37c.89-.37.6,1.49.24,1.94.68.33-.37.43.66,1a1,1,0,0,1-.23.06c0-.06-.17.16,0-.13l.22-.47.07-.11,13.3,9.47,0,0c.28.22-.16,0-.59-1.31a5.47,5.47,0,0,0,.58,1.26l.1.12-.06,0Z"/><path class="cls-6" d="M170.18,145.11a2.63,2.63,0,0,1,1.66,1.43C171.8,148.72,170.34,145.81,170.18,145.11Z"/><path class="cls-6" d="M168.61,142.58a9.45,9.45,0,0,1-3.69-2.64,24.42,24.42,0,0,0-4.73-4.07A15.81,15.81,0,0,1,168.61,142.58Z"/><path class="cls-6" d="M158.64,115.33c-2.28-.73-9.38-5.79-11-7.87a4.15,4.15,0,0,1,0-.42,55.54,55.54,0,0,0-11.86-6.62c1.55.1,3.05.36,4.55.58,6.28,2.58,5.47,3.43,8.76,6.35,1.06.63,1.87,1.05,2.68,1.48,2.07,1.46,4.06,3,6,4.61a9.4,9.4,0,0,0,1.1,1.29C158.77,114.88,158.71,115.09,158.64,115.33Z"/><path class="cls-6" d="M149.55,117a58.58,58.58,0,0,0-8.16-5.05c2.28-.55,8.8,2.57,10.11,5.73A16.19,16.19,0,0,0,149.55,117Z"/><path class="cls-6" d="M135.1,113.22a5.1,5.1,0,0,0-4.86,4.44,18.86,18.86,0,0,0,.4,6.93,43.37,43.37,0,0,0,4.67,15c.83,1.63,1.72,3.26,2.69,4.89-.95.14,1.89,3.83.08,2.9-2.1-1.36-4.47-3-6.69-4.68-1.71-2.6-3.12-4.93-4.65-7.65a72.19,72.19,0,0,1-4.95-12.33c-.63-1.34-1.68-2.89-2.25-4.26a11.1,11.1,0,0,1-.87-4.12c-.35-2.81-.29-5.83,1-8.34a8.57,8.57,0,0,1,7-4.44c1.85.62,3.68,1.36,5.38,2.12-2.86.53-5.85,1.94-7.09,4.66a10.45,10.45,0,0,0,.25,8.46c2.28-.36-.25-5.85,2.57-7a40.18,40.18,0,0,1,4.84-.33,15.17,15.17,0,0,1,6.16,1.84A8.39,8.39,0,0,0,135.1,113.22Z"/><path class="cls-6" d="M151.28,138.44c-2-1.69-3.25-3.64-1.79-4.55C152.32,136.28,153,138.57,151.28,138.44Z"/><path class="cls-6" d="M118.22,124.56c1,2.5,2.12,5,3.42,7.43,1,2.39,2,5,3.41,7.67s2.66,5.18,7,12.93l-2.2-1c-1.84-2.32-3.3-4.32-4.85-6.64-1.16-2.26-2.14-4.27-3.23-6.76-1.5-2.59-2.77-4.9-4.18-7.86,2.39,1,.7-2.23,0-4.65-.09-.66-.17-1.31-.32-2.05Z"/><path class="cls-6" d="M164.4,191.74a146.08,146.08,0,0,0,21.24,13.93,78.19,78.19,0,0,0,14.48,5.91,44.49,44.49,0,0,0,16,1.81c6.29-.08,12.63-2,17.41-6.19a24.79,24.79,0,0,0,2.46-.75,22.2,22.2,0,0,1-10.18,7.75,33.22,33.22,0,0,1-13.56,2,58.69,58.69,0,0,1-14.14-2.64c-2.3-.7-4.54-1.49-6.71-2.31l-5.45-2.11c-7.56-4.49-18.37-11.51-22.81-17.19-3.72-2.83-7.52-6-10.95-9.11-1.48-.79-8.34-7.47-6.23-7.79C150.45,179.4,155.13,184,164.4,191.74Z"/><path class="cls-6" d="M210.34,174.17A25.37,25.37,0,0,1,208,170c-.65-1.38-1-2.33-.72-2.37a6.5,6.5,0,0,1,1.82,2.49A10.82,10.82,0,0,1,210.34,174.17Z"/><path class="cls-6" d="M239.86,177.55a86.11,86.11,0,0,0-2.45-10.74c-1.16-3.73-2.06-5.79-3-6.71-1.75-4.08-3.56-7.71-5.68-11.58-1.52-3.19-3.27-6.59-5-9.64l.44.1-1.71-6.22c-2.1-3.59-4.49-6.15-6.74-9.12L214,121c-2.29-3.42-4.65-6.76-6.9-9.8-1.81-1.57-3.33-3.59-5.87-6.08l-1.94-2.47L193.84,98Q189,92.3,183.9,86.78c-5.33-6-12.4-14.53-21.22-21A211.57,211.57,0,0,0,136,46.43c-6.26-3.34-12.93-6.85-20-10.3-5-3.79-12.53-5.12-21.43-6.86-.6.07-1.57.07-2.24.2l-1.83-.34A51.09,51.09,0,0,0,83.54,28a54.37,54.37,0,0,0-8.64.38,44,44,0,0,0-9.71,2.35A35.84,35.84,0,0,0,43.63,52c-.44.57-.87,1.18-1.16,1.19A45.07,45.07,0,0,1,45.25,43c4-6,10.84-12.3,18.45-15.18a33.77,33.77,0,0,1,10.74-2.4c3.15-.13,5.15.33,6.5,1.17,5.81-2.54,13.58,0,16.32,1.07a110,110,0,0,1,13.16,3c7.94,2.83,2.93,2,7.09,4.82,2.91.42,6,1.1,8.89,1.68,11.65,6.56,23.55,13.8,31.73,21,1-.43,6.39,3.89,9.54,6.92a291.73,291.73,0,0,1,21.67,21.54,5.2,5.2,0,0,0,1.9,2.12c.79-1.48,7.66,7.16,10,8.25,2.42,3,1.8,3.91,2.23,5.84,2.76,2.78,5.4,5.6,8.16,8.76.82,2.22,5.23,7.33,6.09,9.89,6.93,9.12,3.64,8.11,8.05,13.15l.78.18c1.17,3.33,3.92,7.79,6.18,12.08s4,8.34,3.56,10.28a35.07,35.07,0,0,1,1.25,3.32c.21.57.41,1.11.64,1.62a9.31,9.31,0,0,0,.86,1.59,86.65,86.65,0,0,1,3.38,10.75c.92,4.09,1.09,8.15.29,10.53A63.2,63.2,0,0,0,239.86,177.55Z"/><path class="cls-7" d="M222.6,167.79a69.44,69.44,0,0,1-6.54-13.36c-7-12.32-11.59-20.72-23.13-34-1.59-2.36-3.05-4.48-4.81-6.82s-3.53-4.39-5.45-6.67a6.6,6.6,0,0,0-.54-1.14c-3.76-4.05-4.85-4.51-11.19-11.47-1.34-.82-2.55-1.42-3.68-2a8.58,8.58,0,0,0,0,2.31c-.91-.84-1.7-1.46-2.48-2.06-.91-1.3-2.12-2.78-3.14-4l-2.13-2-1.18-1.93-2.17-2L152,80.87l-4.23-3.65-.8-2c-4.49-2.62-8.34-5.19-9.09-4.76a156.78,156.78,0,0,0-32.11-18.37A85.66,85.66,0,0,0,94.4,47.62c-3.85-1.12-3.24.14-6.53-.28A26.75,26.75,0,0,0,82.48,47a15.62,15.62,0,0,0-6.38,1.65,18.45,18.45,0,0,0-8.55,2.28c-1.8-.77-3.9,1.06-5.28,4s-2,6.59-3.21,10.22c.62,2.82,0,6.52.06,9.86a84.76,84.76,0,0,0,3.15,16.58c.64,2.26,1.38,4.5,2.14,6.76,3.9,7.53,6.2,15.3,8.6,16.41,2.49,5.91,5.23,11.44,7.11,16.52l1.62,2.43,1.56-1.82c-1.11-3.7,1.29,0,2.43.43.14-.44.19-.89.46-1.08l-1-2.5q-3.18-6.15-5.87-12.39c-2.11-5.65-3.62-5.34-5.65-10.4-.79-2.58-2.9-7.53-1.79-7.41a204.92,204.92,0,0,0,11.07,21c1.66,3.36,3.28,6.44,5.07,9.77,2.42,3.88,4.87,7.47,7.38,11,1.22,2,2.59,1.48,4.23,5.11l3.45,5.85c.8.76,1.71,1.52,2.62,2.29l3.1,5.72,2.52,3.6c.5.25,1.1.75,1.52,1l.84,0c3,4.72,5.91,9.16,8.91,13.55,3.06,3.7,6.09,7.36,9.28,11l9.34,11.82a8.37,8.37,0,0,0,.64,1.12c-3.84-1.42-1.48,1.91-2.3,2.19q-4.94-3.56-9.79-7.27c-4.78-9.55-15.71-17.06-21.35-27.14-5-4-9.54-12.43-16.29-21.41-2-2.58-3.35-3.95-4.45-6.21l-3.77-3.89c2,4.1,4,8.14,6.16,12.16,2.21,3.56,4.49,7.09,7,10.82l2.72,2.35,5.41,7.14c.79,1.2,1.5,2.41,2.21,3.61,4.79,5.59,11.12,12.31,19.34,21.46-.23.23-.19.7-.23,1.16-1.88-.92,2,5.35-5.37-3.45-1.27-1.86-2.62-2.56-4.8-4.46l-2.49,0L111.25,185c-1.55-1.91-2.22-1.23-4.4-3.68l-4.33-5.84c-2.07-3.16-3.91-6.13-5.89-9.34l-1.2-.11C91.81,162.18,89,155.71,87,155l-3.84-6.21,1.7.25a72.78,72.78,0,0,0-6.93-9.2l-3.12-5.13-.42-.08-2.45-.53-1.19-.25-1.42-2.74c1.11,1-1.06-2.39-3.2-7.83-6-11.47-9.88-18.07-14-31.47a109.81,109.81,0,0,1-1.72-12c-1.47-4.17-1.45-11.2-1.91-14.37.67-7,3.33-14.84,8.87-20.22A27.48,27.48,0,0,1,66.55,39a21.35,21.35,0,0,1,8.51-3c3.15-.42,5.16-.15,4.49.36l-.63.66c3.66-.22,8.54.74,12.4.38a92.83,92.83,0,0,1,16,5.06l1.17-.58c4.24,1.92,8.1,3.9,12.06,6.16,2.46,1.34,5.13,2.85,7.54,4.3l1.16-.37c2.59,1.66,5,3.41,7.24,5,4.08,2.56,7.81,5.07,11.45,7.69.78-.4,4,2.29,8.92,6.5-1.36-1.68-1.33-1-.85.14-.35.28,4.7,4.72,7.48,5.8,1.1,1.28,2.39,2.78,3.37,4.09,2.85,2.75,5.43,5.34,8.17,8.2,2.17,1.5,4.88,5.1,7.63,6.41,1.4,1.36,3,3,4.26,4.36a59,59,0,0,0,8,9.21c-2.17-.53,3,5.46,5.36,7,1.63,2.22,3.4,4.7,5,7l2.86,6c-1.91-2.12-4.65-5.9-6-7.16-2.71-4-7.86-8.18-8.38-10.74-1.75-2.14-4.57-6.18-9.33-8.9-3.14-4.37-6.48-8.66-10.08-13.08l-6.84-6A14,14,0,0,1,166,81.25l-6.63-4.82c-2.11-2.32-8.26-6.47-6.55-7-1.88-1.57-3.77-3.12-5.72-4.64l-2.87.62c4.74,3.74,9,7.47,13.1,11.32,2.91,2.16,5.78,4.37,8.81,6.85,2.8,3.22,6.5,6.82,12.71,14.67,1.52,2.49,3,5,4.44,7.52,2.47,2.5,5,5.29,7.27,7.89,2.54,2.6,5.12,5.25,7.73,8.21l17.9,29.3c.25,1.24.35,2.2.66,3.46C218.79,158.92,220,158.19,222.6,167.79Z"/><path class="cls-6" d="M198.45,150.12a82.56,82.56,0,0,1-8-12.35A39.29,39.29,0,0,1,198.45,150.12Z"/><path class="cls-6" d="M182.62,126.71c-3.78-3.64-7.6-7.79-7.66-8.68C175,116.68,178.18,120.15,182.62,126.71Z"/><path class="cls-6" d="M173.33,116.06c-4.9-3.16-6.05-5.74-8.65-9.37C167.73,109.81,170.51,112.81,173.33,116.06Z"/><path class="cls-6" d="M161.64,103.82c-5.56-4.64-11-9.22-12.51-11.44,1.45.89,3.82,1.65,6.07,4.51C157.35,99.09,159.58,101.54,161.64,103.82Z"/><path class="cls-6" d="M139,83.49c-3.92-2.34-10.13-6-7.67-5.61C132.9,79.28,134.72,79.43,139,83.49Z"/><path class="cls-6" d="M101.21,60.83c-7.57-2.23-15.08-3-14.54-4,3,0,6.29.77,10.49,1.76l3.45,1.37C100.89,60.26,100.92,60.49,101.21,60.83Z"/><path class="cls-6" d="M41.41,79.33c1.12,4.84,1.14,6,1,6.94s-.29,1.52,1.05,4.67c2.49,9.75,7.21,20.1,11.81,29.15,1.15,2.64,2.09,4.67,3.18,7l2.8,7.94A51.81,51.81,0,0,0,70,146.49l3,5.14,1.45,2.42A126.09,126.09,0,0,1,85,169.42l5.11,6.25c7,8.25,13.48,17.32,20.08,23.84,6,6.25,11.78,12.1,18,18,.74,2.09,1.72,4.41,2.71,6.73a229.49,229.49,0,0,1-17-15.72C105.9,199.71,100.11,194,92.59,184c-2.41-.42-6.26-10.31-8.73-10.14-1.79-2.83-4-6.92-6.62-10-.2,2.16-5.3-5.38-6.14-8,.76.62.28-.43.06-1.19a22.81,22.81,0,0,0-2.69-3.91c-.36,1.66-3.21-3.56-4.44-4.56a24.68,24.68,0,0,0-4.86-7c-5.29-8.25-7.85-20.31-11.71-22.8-3-6.21-5.38-17.08-7.62-19.1-.8,2.86-3-8-3.64-5.17C32.68,79,33.83,73.2,34.91,70.68c1.31-2.77,2.7-2.87,4.83-9.18A59.73,59.73,0,0,0,41.41,79.33Z"/><path class="cls-6" d="M169.35,237.47c-.24-1.37,3.18,1.63,4.83,2.52l4.28,1.61c3.68,3.33,7.66,6.78,11.58,9.93l-1.59.35c-1,0-2-.27-2.95-.32-4.37-2.66-8.46-5.22-12.64-8.07l-.9-.78c-3.33-2.29-6.69-5.36-7.64-6.87-.59-1.09-1.1-2.19-1.47-3.08Z"/><path class="cls-6" d="M166.42,251.39c2.67,1.26,6.51,4.71,10.55,6.37l7.85,4.21c1.06,1.22,2.34,2.65,3.5,3.83l-2,.45c-6.95-5-14.7-8.23-19.46-13.73A2.79,2.79,0,0,0,166.42,251.39Z"/><path class="cls-4" d="M126.76,101.59a8.57,8.57,0,0,0-7,4.44c-1.34,2.51-1.4,5.53-1,8.34-1-1.49-1.82-2.88-2.58-4.28a16.65,16.65,0,0,1,.35-2.62,10.4,10.4,0,0,1,3.69-5.49,10.67,10.67,0,0,1,6.57-1.87l-.13.55-.06.29A5.25,5.25,0,0,0,126.76,101.59Z"/><path class="cls-7" d="M149.55,117c-.39,1.11-2.5.75-5.24.62S138,118,136.62,120c-2.53,1.65-3.11,4.66-3.27,7.12a52.67,52.67,0,0,0,3.7,7.75,20.18,20.18,0,0,1,.9,6.25c1.86,2.82,5.12,4.33,6.92,7.68.09.43.09.84-.47.5,3,3.49,5.84,7.31,9.27,11.45.9,1.09,1.62,2,2.8,3.29l3.65,4c2.47,2.59,5,5.08,7.6,7.37,2.29,1.48,4.54,2.88,6.88,4.22,9,8.45,21.47,16.1,32.09,18.31a23.49,23.49,0,0,0,8.64.3,11.59,11.59,0,0,0,7.25-4.12c3.45-4.6,3.17-10.49,2.55-15.43-.93-1.78-.86-4.08-2.08-9.52a33,33,0,0,1,4.26,17.81,15.32,15.32,0,0,1-3.85,9.65c-2.53,2.65-6.23,3.84-9.72,4.18a32.34,32.34,0,0,1-7-.16,4,4,0,0,0,1,.86c-1.43.18-2.58.31-3.77.35a12.22,12.22,0,0,0,2.46,1.32l4.2.58a30.76,30.76,0,0,0,9.07.11c3-1.34,6.86-3.63,8.82-7.23a14.74,14.74,0,0,0,1.77-10.51,12.13,12.13,0,0,1,1.89-2.08c.11,1.06.21,2.2.22,3.26-.08,6.08-2.14,12.23-7.38,15.69a17.59,17.59,0,0,1-3,1.43,25,25,0,0,1-10.95,1.43c-1-.11-2-.24-3.28-.48a53.24,53.24,0,0,1-9.28-2.69l-2.76-1.13c-3.19-1.31-5.7-2.46-8.56-3.9-1.67-.87-3.68-1.91-5.31-2.88a120.35,120.35,0,0,1-10.29-7.7l-2.35-1.9c-4.61-3.42-8.22-4.48-15.92-13.72a9.47,9.47,0,0,0,0-2.33c-1.76-2-3.54-4.2-5.2-6.39-.85-.26-1.79-.79-2.57-1.12-2-1.93-4-4-6-6.09-2.17-2.75-4.43-4.57-6-7.62-.86-1.79-1.53-3.49-2.15-5.13,2.22,1.7,4.59,3.32,6.69,4.68,1.81.93-1-2.76-.08-2.9-1-1.63-1.86-3.26-2.69-4.89a43.37,43.37,0,0,1-4.67-15,18.86,18.86,0,0,1-.4-6.93,5.1,5.1,0,0,1,4.86-4.44,8.39,8.39,0,0,1,3.77-1.9,24.7,24.7,0,0,1,2.52.67A58.58,58.58,0,0,1,149.55,117Z"/><path class="cls-8" d="M229.56,158.32c-1.66-4.1-3.64-8.39-5.64-12.31-1.85-2.91-5.37-5.85-7.75-10.78-2-3.2-.58-2.48,0-2.39-1.76-2.93-3.87-6.54-4.33-5.18-1.44-1.13-2.46-3.39-3.67-4.93-3.18-9.13-10.63-10.83-16.61-21.42-1.53-1.43-3.37-3.06-5-4.45l-6.13-5.45a18.63,18.63,0,0,0-1.3-3.22c-11.37-12.39-24.46-21.31-36.6-31.56C140,56,133.86,51.43,128.46,50c-3.71-3-1.53-2.77-6.4-5.06-2.73-1.3-8.27-4.18-8-2.94-2.1-.38-4.88-2.13-11.66-3.44l-2.79-.93C98,36.37,94.4,35,90.3,34.2a43,43,0,0,0-11.54-.7c-1.66.59-5.51.52-8.12,1.27A32.58,32.58,0,0,0,58.12,40a31.81,31.81,0,0,0-8.88,12.11A42.19,42.19,0,0,0,46.15,66.9a73.35,73.35,0,0,0,3.37,23.52,83.07,83.07,0,0,0,1.79,8.72c1.94-.37,4.24,10.53,6.47,12.23,1.36,3.22,3,6.73,4.6,9.88,1.52,1.42,3.65,6.43,6.9,9.84l1.42,2.74,1.19.25c2.76,5.64,5.7,11.21,8.54,16.4a2.84,2.84,0,0,1,0,1.19c1.34,3.07,3.18,3.81,5.81,9.83,3.07,4.86,4.18,3.6,9.62,13.49,3,4.23,3.64,1.7,6.88,7.29,1.06,1.94,2.1,3.88,3.26,5.8,2.45,3.16,5.1,4.17,7.69,8.2l4.69,5.67c-2.91-2.36-2.22.46-5.46-3.58-2.55-3.32-5.34-6.93-7.78-10.32-2.51-3-4.31-2.57-7.45-7.26-1.37-2-2.64-4-3.9-6-1.24-1.28-2.2-2.32-3.35-3.61l-3.29-4.86c-2.9-4.37-6-6.63-11.66-14.27L73,151.63l-3-5.14A51.81,51.81,0,0,1,61.25,135l-2.8-7.94c-1.09-2.3-2-4.33-3.18-7-4.6-9-9.32-19.4-11.81-29.15-1.34-3.15-1.15-3.77-1.05-4.67s.12-2.1-1-6.94a60,60,0,0,1,.47-10c.22-2.81.14-5.18.25-7.92a29.06,29.06,0,0,1,1.64-8.82A34.29,34.29,0,0,1,55.33,39.77a33.78,33.78,0,0,1,10.89-8,41.62,41.62,0,0,1,14.06-1.08c.85-1.22,9.4-.82,10.14-1.52l1.83.34a68.25,68.25,0,0,1,8.55,3.17c5.18.86,10.06,1.59,15.12,3.49,7.12,3.45,13.79,7,20,10.3a211.57,211.57,0,0,1,26.71,19.3c8.82,6.52,15.89,15.09,21.22,21Q189,92.29,193.84,98q2.28,3.93,4.4,7.91c2.35,3.64,4.67,5,5.76,6,1.77,2.49,3.42,5,4.93,7.3,2.63,3.15,1.66-1,5.06,4.18l1.2,2.31c3,4.27,5.85,8.64,8.54,13.15,1.69,3.05,3.44,6.45,5,9.64a21.77,21.77,0,0,1-1.22,1.9c1.09,2.8,2.1,5.63,2.92,8.21.52,1,1.06,2.09,1.61,3.33s1.11,2.59,1.77,4.38A63.53,63.53,0,0,1,237,178.47c1.43,8.53.2,17.25-3.5,22.85a18.25,18.25,0,0,1-8.6,7.32,27.64,27.64,0,0,1-11.61,1.93c-8-.26-15.91-3-22.69-5.55-4.15-2.08-1.14-1.6-6.12-3.89a79.92,79.92,0,0,1-16.82-10.83,84.42,84.42,0,0,1-14-14.47,209.69,209.69,0,0,0,22.41,18.27,96.51,96.51,0,0,0,12.24,7.13,75.38,75.38,0,0,0,6.94,3,53.27,53.27,0,0,0,7.59,2.16c-.13.86,4.48,1.57,3.69,2.24a27.15,27.15,0,0,0,8.54.63,29.42,29.42,0,0,0,7.39-1.68c.92-.09,2.22-.49,1.42.19,3.89-1.29,7.53-4.95,6-5a52.22,52.22,0,0,0,3-4.79c3-5.92,3.37-12.85,2.4-19.88a66.47,66.47,0,0,0-2.5-10.68C231.64,163.78,230.74,161.3,229.56,158.32Z"/><path class="cls-4" d="M174.45,185.23a132.34,132.34,0,0,0,12.1,7.93,12.25,12.25,0,0,0-1-2.07c2.46,1.54,4.77,2.84,7.37,4.18a38,38,0,0,1-4.07-.77c2.33,1.54,4.75,3,6.95,4.22l-1.49.76-2.48-1.21c-2.38-1.51-4.77-3.06-6.82-4.57a103.43,103.43,0,0,1-10.9-8.4Z"/><path class="cls-4" d="M223.73,138.88c-2.69-4.51-5.56-8.88-8.54-13.15l-1.2-2.31,1.73.22c2.25,3,4.64,5.53,6.74,9.12l1.71,6.22Z"/><path class="cls-4" d="M147.75,77.22c-3-2-5.83-2.56-9.89-6.72.75-.43,4.6,2.14,9.09,4.76Z"/><path class="cls-4" d="M99.62,52c-2-.37-3.24.19-6.34-1.07a13.09,13.09,0,0,1-2.46-2c-1.1-.54-2.15-1.09-2.95-1.58,3.29.42,2.68-.84,6.53.28a85.66,85.66,0,0,1,11.35,4.51A53.54,53.54,0,0,0,99.62,52Z"/><path class="cls-4" d="M115.92,36.13c-5.06-1.9-9.94-2.63-15.12-3.49a68.25,68.25,0,0,0-8.55-3.17c.67-.13,1.64-.13,2.24-.2,3.34.36,6.65.86,9.81,1.52a124.78,124.78,0,0,1,12.37,5Z"/><path class="cls-4" d="M85.41,39c6-.13,13.29,1.41,11.86,2.56A67.73,67.73,0,0,0,85.41,39Z"/><path class="cls-4" d="M77.13,53.91a12.79,12.79,0,0,0-9,3.89,24.4,24.4,0,0,0-.3,2.71A9.07,9.07,0,0,0,66,65a4.16,4.16,0,0,0,.42,2.71,47.71,47.71,0,0,0,1.05,10.88c-.29.34-.5.7-.82.79a89.64,89.64,0,0,0,2.64,11.38c.79,2.64,1.62,5.1,2.57,7.78a204.92,204.92,0,0,0,11.07,21c.67,3.16,1.37,6.07,2.24,9.25l1,2.5c-.27.19-.32.64-.46,1.08-1.14-.43-3.54-4.13-2.43-.43l-1.56,1.82-1.62-2.43c-1.88-5.08-4.62-10.61-7.11-16.52-2.4-1.11-4.7-8.88-8.6-16.41-.76-2.26-1.5-4.5-2.14-6.76A84.76,84.76,0,0,1,59.12,75c-.06-3.34.56-7-.06-9.86,1.22-3.63,1.78-7.24,3.21-10.22s3.48-4.77,5.28-4a18.45,18.45,0,0,1,8.55-2.28c-3.36,1.88-7.78,3.91-10.64,8.3a19.87,19.87,0,0,0-2.88,7.3,33.29,33.29,0,0,0-.38,9.07c1.5-1.83,1.33,5.73,3,8.72.37-.79.75-1.83,1.11-2.84l-1.77-4.4a26,26,0,0,1,0-9.61,21.1,21.1,0,0,1,3.27-8.06,12.82,12.82,0,0,1,5.68-3.56,17.2,17.2,0,0,1,3.24-.64,26.51,26.51,0,0,1,3.52-.05A13.34,13.34,0,0,0,77.13,53.91Z"/><path class="cls-4" d="M43.77,52.55a29.06,29.06,0,0,0-1.64,8.82c-.11,2.74,0,5.11-.25,7.92a60,60,0,0,0-.47,10A59.73,59.73,0,0,1,39.74,61.5a47.83,47.83,0,0,1,2.73-8.31c.29,0,.72-.62,1.16-1.19Z"/><path class="cls-4" d="M58.45,127.06l2.8,7.94A51.81,51.81,0,0,0,70,146.49,51.81,51.81,0,0,1,61.25,135Z"/><path class="cls-4" d="M77.88,139.82a72.78,72.78,0,0,1,6.93,9.2l-1.7-.25C81.37,145.89,79.53,142.75,77.88,139.82Z"/><path class="cls-4" d="M108.16,153.72l5.54,7,2,3.3c3.72,3.81,8.13,9.83,11.31,12.34,4.38,5.26,8.73,10.18,13.16,15,4.63,5,9.2,9.78,14.13,14.61,2.36,1.62,4.82,3.21,7.29,4.77l7.85,7.73-5.34-2.52c-3.19-3.53-6.21-5.25-10.21-9.94l-2,.17c-2.89-2.28-5.93-4.83-8.76-7.19-4.34-4.35-7.73-8.14-11.24-10.58-3.19-3.6-6.22-7.26-9.28-11-3-4.39-5.92-8.83-8.91-13.55l-.84,0c-.42-.25-1-.75-1.52-1l-2.52-3.6-3.1-5.72Z"/><path class="cls-4" d="M85,169.42a126.09,126.09,0,0,0-10.54-15.37A126.09,126.09,0,0,1,85,169.42Z"/><path class="cls-4" d="M190,251.53c2.54,1.57,4.53,2.76,6.86,4.09l.87,3.36q-4.72-3.47-9.32-7.1Z"/><path class="cls-4" d="M189.27,262.21c3.86,2.26,7.52,4.26,11.48,6.37-.17.52-.59.87-.75,1.41-3.55-2.23-7.06-4.51-10.51-6.87C189.5,262.88,189.26,262.45,189.27,262.21Z"/><path class="cls-5" d="M204,111.94c-1.09-1-3.41-2.36-5.76-6q-2.13-4-4.4-7.91l5.43,4.63,1.94,2.47C202.16,107.31,203.2,109.74,204,111.94Z"/><path class="cls-5" d="M66.22,31.73a33.78,33.78,0,0,0-10.89,8A34.29,34.29,0,0,0,43.77,52.55L43.63,52A35.84,35.84,0,0,1,65.19,30.68C67.06,30.56,66.64,31.11,66.22,31.73Z"/><path class="cls-7" d="M118.67,114.37a11.1,11.1,0,0,0,.87,4.12c.57,1.37,1.62,2.92,2.25,4.26a72.19,72.19,0,0,0,4.95,12.33l-3.13-2.39c-.62-.14-1.35-.56-2-.7-1.3-2.46-2.4-4.93-3.42-7.43-1.43-4.88-2.5-9.41-2.13-14.47C116.85,111.49,117.67,112.88,118.67,114.37Z"/><path class="cls-7" d="M132.05,152.59l.79,1.15c1.93,3.38,9.35,11.44,5.76,9.36-2.39-2.51-4.79-5.12-7.06-7.81a28.26,28.26,0,0,1-1.69-3.7Z"/><path class="cls-7" d="M227.41,166.11c-.19-1.33-.47-2.69-.78-4,.74-.09,1.69,1.6,2.65,4.31a48.81,48.81,0,0,1,2.29,10A62.17,62.17,0,0,0,227.41,166.11Z"/><path class="cls-7" d="M220.88,153.5a45.69,45.69,0,0,0-5.5-9.37c-1.42-2.88-3.07-6-4.73-8.83l1.29.2c2.81,3.72,5.88,9,9.12,13.21,1.21,2.72,2.34,5.45,3.36,8Z"/><path class="cls-7" d="M214,123.42c-3.4-5.22-2.43-1-5.06-4.18-1.51-2.31-3.16-4.81-4.93-7.3-.8-2.2-1.84-4.63-2.79-6.81,2.54,2.49,4.06,4.51,5.87,6.08,2.25,3,4.61,6.38,6.9,9.8l1.74,2.63Z"/><path class="cls-7" d="M66.22,31.73c.42-.62.84-1.17-1-1.05a44,44,0,0,1,9.71-2.35A54.37,54.37,0,0,1,83.54,28a51.09,51.09,0,0,1,6.88,1.18c-.74.7-9.29.3-10.14,1.52A41.62,41.62,0,0,0,66.22,31.73Z"/><path class="cls-7" d="M135.48,203.7c2.1,1.76,4.22,3.52,6.44,5.23a17.43,17.43,0,0,1,4,5.29l-5.51-4.05a8.16,8.16,0,0,0-.86,2.38L132.71,205c-1.89-3-.3-2.54-1.83-5.51C132.31,200.81,134,202.38,135.48,203.7Z"/><path class="cls-7" d="M153.92,206c4,4.69,7,6.41,10.21,9.94l5.34,2.52,1,1c4.68,5.52,6.45,5.91,8.08,7.48-1.68-.17,2.81,3,2.87,3.89a8.5,8.5,0,0,1,.19,2.27l-1.51-.88c-2.93-2.49-5.7-4.81-8.56-7.4-3.37-3-6.31-6.25-9.9-7.67l-.84-.83L152.7,207l-.81-.85Z"/><path class="cls-7" d="M136.4,221.62l2.54,2.19c4.88,5.09,9.8,10.34,15.55,13.24l5.38,5-2.91.37c-1.8-1.2-3.8-2.65-5.49-3.89a262.42,262.42,0,0,1-19.5-17.9A34.24,34.24,0,0,0,136.4,221.62Z"/><path class="cls-8" d="M160.84,216.31l.84.83,4.91,6.06c-3.25-2.57-6.37-5-9.56-7.64-.38-.65-.74-1.31-1.31-2.17Z"/><path class="cls-8" d="M147.86,218.49c3.14,3.23,6.11,6.2,9.34,9.35-5.25-3.61-10.19-7.66-10.11-9.29Z"/><path class="cls-8" d="M184.94,239.21c2.86,1.3,5.62,4,7.9,6l5.38,3.43c.6.54,1.14,1.11,1.68,1.69l-2,.49-5.9-5.42c-.93-.49-1.87-1-2.88-1.47Z"/><path class="cls-8" d="M196.32,241.17a16.58,16.58,0,0,1,.77-3.45c8,4.76,6.79,5.72,11,10.4l-5.92-2.82c1.89,1.84,3.57,3.49,5.59,5.26l-.41.12c-6.66-4.94-9-4.85-15-11.88Z"/><path class="cls-6" d="M160.19,135.87c.19,1.59-1.91-.12-3.49-1a4.52,4.52,0,0,0-2.86.29c-1.49-2.16-1.42-4.2,1.75-2.14A21.26,21.26,0,0,1,160.19,135.87Z"/><path class="cls-6" d="M135.73,100.42a23.93,23.93,0,0,0-9-.31,10.67,10.67,0,0,0-6.57,1.87,10.4,10.4,0,0,0-3.69,5.49,10.32,10.32,0,0,1,1.48-6c2.57-3,6.44-3.63,9.48-3.43A21.8,21.8,0,0,1,135.73,100.42Z"/><path class="cls-4" d="M167.29,94.62c-.91-.84-1.7-1.46-2.48-2.06C165.59,93.16,166.38,93.78,167.29,94.62Z"/><path class="cls-4" d="M143.31,64.68a10.81,10.81,0,0,0-2.07-.73l-1.21-.9c-2.95-1.91-6.2-3.93-9.25-5.67a159,159,0,0,0-22.17-11.64c-2.82-1.23-5.41-2.26-8.37-3.27,2.81.54,5.68,1.17,8.44,1.92l.39-.19c2.45.92,4.77,2,7.15,3,2.88,1.6,5.78,3.25,8.8,5.16,3.22,2.34,5.82,2.77,7.45,3.52C136,58.5,139.85,61.63,143.31,64.68Z"/><path class="cls-4" d="M144.27,65.41l-1-.73Z"/><path class="cls-5" d="M207.37,250.68l.41-.12Z"/><path class="cls-7" d="M223.05,169.12l-.45-1.33Z"/><path class="cls-8" d="M119.63,202.88c3.88,3.71,2.49,1,9.32,7.81,4.38,5.92,6.46,6.81,14,15-1.42-.59-2.66-1.23-4-1.84l-2.54-2.19C132.9,215.93,127.65,214.1,119.63,202.88Z"/><path class="cls-8" d="M118.41,202a14.88,14.88,0,0,0,1.22.93A14.88,14.88,0,0,1,118.41,202Z"/><path class="cls-8" d="M223.73,138.88l.44.1Z"/><path class="cls-8" d="M166.59,223.2l3.32,1.86,8.64,7.43,3,3.87c-.56-.13-1.26-.47-1.73-.62C170.59,228.74,169.14,226.31,166.59,223.2Z"/><path class="cls-4" d="M164.81,92.56c-1.81-1.88-1.81-.3-6.87-5.88-1.84-1.83-3.84-3.85-6-5.81l4.21,1.65,2.17,2,1.18,1.93,2.13,2C162.69,89.78,163.9,91.26,164.81,92.56Z"/></g></g><g class="cls-9"><g class="cls-9"><path class="cls-10" d="M105.84,116.57c1.51,2.19,1.94,5.21,3,7.83,2.88,9.52,7.85,19.22,14.21,28.67a66.88,66.88,0,0,0,16.15,17.75c1.28,2,2.54,3.74,4,5.72a243.57,243.57,0,0,0,23.49,18.6c2.91,2.21,6.23,4.38,9.3,6.4,7.2,5.6,14.91,8.34,18.92,11.16a34.37,34.37,0,0,0,7.24,2.1,58,58,0,0,0,21.35,5,56.77,56.77,0,0,0,9.3.68l-.14-.36c13-.39,23.51-6.17,28.12-15.41,3.26-5,4-7.83,3.59-10.08.18-1.17.29-2.53.36-3.72a52.13,52.13,0,0,0-.25-7.87,51.59,51.59,0,0,0,.69-7.36c1.45,2.59,2.88,5.23,4.08,7.93a54.92,54.92,0,0,1,.36,8.37c0,1.27-.14,2.74-.31,4a40,40,0,0,1-1.17,7,30,30,0,0,1-5.88,10l1.35,1.14a33.09,33.09,0,0,1-6.05,5.94l-1.44-1.61c-1,.22-2.07.58-3.19.88a43.55,43.55,0,0,1-4.83.44,40.25,40.25,0,0,1-9.61,2.38c-1.72.08-3.22.11-5,0a42.54,42.54,0,0,1-4.31,1.35c-5.29-.7-6.78-.64-6.2-.18-1.15.74,2.4,1.61,3.12,2.34-2.05.35-4.19.6-6.38.76-2.27-.62-4.52-1.29-6.74-2.11-4.64-1.25-6.7-.44-10.89-1.66-3.84-1.67-7.56-3.39-11.4-5.42-2-1.08-4.12-2.3-6.14-3.54-3-1.92-4-1.26-6.54-2.76a194.59,194.59,0,0,1-40.21-30.34c-4.42-5-6.26-7.25-8.12-8.69a167.28,167.28,0,0,1-21.54-29c-2.51-5.21-6.19-11.83-8.36-17.87a2.84,2.84,0,0,0,1.64-2.87c1,.8,2,1.55,3.12,2.53,1.26,1.17.28-2.14,2-.67A43,43,0,0,1,105.84,116.57Z"/><path class="cls-11" d="M229.13,223.58a42.54,42.54,0,0,0,4.31-1.35c1.77.07,3.27,0,5,0a40.25,40.25,0,0,0,9.61-2.38,43.55,43.55,0,0,0,4.83-.44c1.12-.3,2.23-.66,3.19-.88l1.44,1.61a48.9,48.9,0,0,1-6,2.66c-4.05,1.38-4.3,2.39-6.32,2.74-1.05.13-1.85.15-2.64.19a60.73,60.73,0,0,1-8.22,1.76c-2.08-.43-3.86-.95-5.87-1.51l-2.43-.2c-.72-.73-4.27-1.6-3.12-2.34C222.35,222.94,223.84,222.88,229.13,223.58Z"/><path class="cls-10" d="M259,198.55a28.34,28.34,0,0,1-1.48-4.54c1.44-3,1.32-7,.84-10.93s-1.27-7.73-.95-11.1c-1.44-3.45-3.06-7.06-4.93-10.65-1.76-3.91-2-8.12-5-11.16-1-2.51-2-5.06-3.16-7.59-2.09-3.71-4.43-7.41-6.87-11-1.45-2.52-2.94-5.06-4.59-7.54l-3.24-4.56a60,60,0,0,1-4.72-4.26,98.7,98.7,0,0,0,5.34,8.36c-.09.22,0,.64-.13.85l-1.71.27c-1.64-2-3.3-4-5.09-6-1.83-2.35-3.8-4.67-5.81-7-1.8-2.14-3.86-4.43-5.89-6.67l-1.53-1.76-2.87-4.52c-2.71-1.78-4.52-5.09-5.61-6.83-.44-.54-.83-1.11-1.45-1.81-2.43-2.63-5.28-5.56-8.08-8.24,2.93,1.55,5.62,4.61,9,7.82l1.43-.66,4.09,4.21,6.29,4.61c1.69.37,3.2.56,4.72.78l.9-.3c3.78,2.37,10.35,10.32,9.9,11.8a18,18,0,0,1,1.17,2c.34,1.3.89,2.74,1.12,4,1.94,2,4,4.31,5.84,6.42a13.12,13.12,0,0,1,0-2.16c.85.3,1.59.43,2.42.72,1.45.42,6.68,6.87,4.39,1.4.92.76,1.71,1.35,2.49,1.93l3.8,7.12c3.61,5.43,4.3,2.83,7.57,5.78-1-1.72-1.88-3.25-3-5.16-.72-1.95-1.56-4.14-2.36-6.1l-2.12-3.2L248.29,121c-4.52-5.4-6.84-8.75-9.42-10.83-1.24-2.15-2.42-4-3.74-6.17-5.46-5.47-6.22-9.87-12.56-14.47l-.32.12c-2.36-2-4.77-4-7.45-6.12-1.51-1.53-2.83-2.87-5.34-5.31-2.29-1.71-4.65-3.35-6.77-4.82C198.94,68.71,189,62.09,187.77,59l1.95-1.44,3,2.49c5.59,1.1,12.32,9.36,15.33,10.4,2.43,2,4.26,4.36,3.76,5.16,3.68,3.72,7.29,7.46,10.7,11.27,1.8,1.21,3.43,2.22,5.22,3.46,7.24,8.08,15.64,17.47,16.76,23.28,1.49,2.11,3.68,4.62,3.76,6.25,1.31,1,2.5,1.75,3.81,2.78,1.46,2.13,6.15,6.86,5.63,9.41l1.31,2.19a40.87,40.87,0,0,1,4.95,7.54c.24,2,1.21,5.32.59,6.15-2.17-1.17-3.18-5.1-5.63-7.28l.62,6.2c-1.38,2.06.58,5.65,1.94,9.05.23,1.27.42,2.71.51,3.91.81,2.72,2.18,4.53,3,7.28a22.38,22.38,0,0,0-1.47,2.52c-2.5-6.77-5-6.71-6.15-9.39-1.33-3.66-2.69-7.11-4.37-10.78-1.26-2.64-2.54-5.09-4-7.72-2.85-4.66-5.88-9.05-9.21-13.54,4,7.17,5.68,10.95,7.74,13.54,1.42,2.62,2.68,5,3.93,7.65,1.73,3.62,3.24,7.06,4.65,10.7.68,1.81,1.43,3.83,2.08,5.85.23,2.13.29,4.21.37,6.29.82,2.26,1.59,4.72,2.25,7a43.82,43.82,0,0,1-1.21,18.86,7.28,7.28,0,0,0,.18.91Z"/><path class="cls-11" d="M207.62,74.88c-4.89-3.86-7.56-6.22-10.24-8.58-.72-1.11-2.34-2.9-1.94-3.18,6.88,4.77,10.25,7.78,12.32,10.21C208.2,74.58,207.89,74.72,207.62,74.88Z"/><path class="cls-10" d="M100.07,25.32c-3.67-1.16-7.37-2.18-11.06-3-3.51-1.5-8.29-1.92-12.17-2.17A82.39,82.39,0,0,0,65,20.06a69.38,69.38,0,0,0-12,1.1,51.7,51.7,0,0,0-7.54,1.94,46.65,46.65,0,0,0-5.84,2.39,43.26,43.26,0,0,0-6.15,3.71c-.89.64-1.86,1.43-2.68,2.14-.94.47-2.05,1.09-2.95,1.65a40.25,40.25,0,0,0-4.63,7.33c-.77,1.65-1.38,3.17-2,4.84A47.4,47.4,0,0,0,18.27,56c-2.93,2.58-.37,10.16-1.45,16.72.54,2.56,1.22,5,1.93,7.34a68.19,68.19,0,0,0,.38,7.06c.63,1.94,1.23,3.41,1.94,5.15.26,1.68.45,3,.78,4.56.94,2.47.8,4.18-.32,4.08,1.26,2.1,2.33,3.75,3.67,5.65,1.29,3.6,2.8,7.28,4.25,10.7a4,4,0,0,1,0,.88,242,242,0,0,0,12,23.34,42.35,42.35,0,0,1,3.28,3.36l1,1.78,1.89,4.58a33.85,33.85,0,0,0,3.15,4.8c4.79,8.76,7.13,9.27,10.39,13.39L65.4,175c1.67,4.3,7.54,11.67,11.81,16.61l-.27,1.65q2.93,3.71,5.93,7.39l3,4.54c1.26,1.3,2.47,2.62,4.57,4.48l.82,0,4.64,4.42c.57.73,1.24,1.67,2,2.59,1.32,1.08,2.89,2.34,4.3,3.39,3.28,3.26,6.45,6.31,9.91,9.48,5.92,3.85,12,11.2,18,14.58,2.28,2,3.67,4.26,6.35,5.76l6.52,5.66c6.61,6.1,12.59,7.93,17.45,13.76,2.14,2,3.94,2.26,5.86,3.37,3.7,2.77,7.28,5.31,11.1,8,1.45-.46,5.51,3.56,9.06,5,3.47,2.27,6.95,4.51,10.5,6.65.77.62,1.33,1.11,1.93,1.54a5.9,5.9,0,0,0-.79,1.93l-6.77-2.47L186,291c-2.87-1.63-5.94-3.46-9-5.3-6-3.52-6.92-3.13-9.81-5.13l-1.08-.78c-3.41-2.28-6.59-4.44-9.73-6.62l-5-3.93-7-4.48c-3.62-2.83-7.36-6.71-11.64-8.79l-5.45-4-5.78-6.14-8.58-6.6c-2.58-1.91-5.07-3.87-7.71-6-3.23-3.73-6.62-5.87-9.64-9.65-1.13-1.32-2-2.47-3-3.8-1.26-.72-2.6-1.66-4-2.59l-4.88-5.55c-2.15-2.49-4.09-4.82-6.18-7.33-3.77-4.47-7.34-8.78-10.75-13.13-8.43-7.7-16.43-22.54-23.37-31.22-6-8.9-11.45-17.92-16.51-27.29A236.32,236.32,0,0,1,10,93.45l-.74-2.93a4.76,4.76,0,0,1,1.9-.06c.39-.38-.09-1.69-.37-2.93-1-1.25-2-2.89-2.9-3.16C5.28,77.83,5.26,73.56,4.27,69.89c-.14-1.92-.21-4-.2-5.93l4.49,2.9c.44.5.88,1.17,1.31,1.64a98.39,98.39,0,0,0,1.18,10A143.94,143.94,0,0,0,16,96.07l1.12,3.9c.5,2.18,1.1,4.59,1.78,6.82,1.79,4.09,3.69,8.16,5.65,12.18,1.27,3.09,2.52,6,3.93,9.06a65.73,65.73,0,0,0,6.39,9.36l-2-6.54c-1.22-2.27-2.41-4.56-3.48-6.82l-2.18-4.21L26.39,118l-1.22-3c-1.76-7-3.38-9.87-4.23-13.39l-.31-1-3-8-1.09-6.64c-1-3-1.79-6.06-2.56-9.32l-.09-1c.61-1.16,1.37-2.06,2.14-3.3-1.14-.86-2.25-1.92-3.37-2.81l-.43-.25c-.06-1.41,0-2.59,0-4a116.53,116.53,0,0,0,1.5-15c.34-4.33.83-8.47,3.75-12.43.76-3.13,2.07-4.51,2.65-6.14.94-.28,2-.46,3-.71a28.3,28.3,0,0,1,1.25-4.38,37.67,37.67,0,0,1,6.23-4.1c0-.83-.16-1.57-.13-2.41a39.51,39.51,0,0,1,7.1-3.81c1.29.39,2.55.75,3.86,1.2l.13.39a49.64,49.64,0,0,0-8.88,4.3l1.23,2.27c4-3,8.6-.79,9.58-4.32,4.51-.8,4.86-1.85,6.56-2.13a61.24,61.24,0,0,1,6.2-1.23c4.59-1.23.68-3.5,7.62-3.86,1.44,0,2.9.07,4.62.19l-.07,1a13.85,13.85,0,0,0-2.42,2c4,.86,5.51,2,11.09,2.55A97,97,0,0,1,87.3,19.61c1.22.14,3.28-.62,6,.53,3.59,1,7,2,10.52,3.2l3.5,3.18C104.86,26,102.58,25.63,100.07,25.32Z"/><path class="cls-11" d="M7.84,84.37c.94.27,1.91,1.91,2.9,3.16.28,1.24.76,2.55.37,2.93a4.76,4.76,0,0,0-1.9.06C8.7,88.44,8.23,86.31,7.84,84.37Z"/><path class="cls-12" d="M165.53,134.41l.92.62.11.07h0l1.35-.25h0v.06l0,.16.12.39c-.11,1.66,1,1.8,1.53,1.64a23.31,23.31,0,0,0,2.06,2,17.12,17.12,0,0,0,1.87,2.74,15.18,15.18,0,0,1,2.25,3.62,2.84,2.84,0,0,0,2.35,1.81,1.71,1.71,0,0,1,1.18.31c.22.14-.45-.12,0,.18l.92.56.12.07,0,0h0l-.53-.24h0l.07.06.14.14c.75.72,1.6,1.35,1.67.64,0-.33.44,1.59.79,2.3a11.84,11.84,0,0,0,1,1.9c.52.84.76,1,.63.91a4.08,4.08,0,0,0-.56-.48,17.88,17.88,0,0,0-2.73-1.72c-.79-.43-2-1-2.22-1.07a1.46,1.46,0,0,1-.52-.39,12.62,12.62,0,0,0,2.4.18,8.8,8.8,0,0,0-.37-1.79,11.25,11.25,0,0,0-.16-4.27,45.57,45.57,0,0,0-1.59-4.92c-3.27-3.45-7.56-9.29-9.86-12-.07-.9-1.77-2.14-2.75-3.16-2.86-.42-2.06-2.79-4.35-4.2a60.32,60.32,0,0,0-10-7.79,25.87,25.87,0,0,0-9.45-3.81,26.76,26.76,0,0,0-2.79-.66,7.68,7.68,0,0,0-6.69-1.14c-2,.55-3.41,1.76-5.35,2.32a12,12,0,0,0-3.21,5.86,11.85,11.85,0,0,0,0,4.13,18.29,18.29,0,0,0,.54,2.28c.38,1,.69,2,1.21,3.07A21.83,21.83,0,0,0,129.92,136a104.88,104.88,0,0,0,6.74,11c5.37,10.57,16.48,20.76,23.89,28.06a127.63,127.63,0,0,0,29.38,20.34c10.7,5.25,21.65,8.64,30.54,9.55,1.1.72,2.85.35,4.21.44.37-1.78,2.31.31,4.62-.43a25.07,25.07,0,0,0,9.61-3.67,10.91,10.91,0,0,0,4.76-7.05l.5-1.07a11.67,11.67,0,0,0,1.88-2.6c.39-2.07,1.25-4.34.54-7.09a39.83,39.83,0,0,0-.16-4.52c-.09-3.27,0-4.71-1-6.39A80.24,80.24,0,0,0,235.84,147L235,145.4c-.94-1.8-1.82-3.41-2.85-5.22-6-8.86-5-12.77-11.08-17.16-1.65-2.31-3.25-4.42-5-6.7-6.62-9.85-11.92-15.71-19.08-23.47q-6.92-6.61-14.32-12.77a74.29,74.29,0,0,0-8.21-7.65,6.27,6.27,0,0,1,0-1.49c-1.82-1.84-3.87-3.83-5.79-5.64-3.54-1.22-12.16-9.08-16.21-10.28-4.28-2.22-2.71-3.45-7.38-5.13-1.65-.75-4.37-2-4.9-1.63l-2-1.19c-1.52-.48-3.32-1-4.82-1.39-5.38-2.83-6.57-2.8-9.49-3.88l-4.47-3c-2.24.33-6-2-7.87-2.05s-6.17-2.15-9.07-3.3q-5.07-1.66-10.1-2.93c-1.26-.32-2.73-.65-4-.92-1.49.89-4.48,0-6.1-.44a79.48,79.48,0,0,0-10.66-1.35c-2.73.15-3.2.77-4.54.73a46.54,46.54,0,0,0-4.67-.42c-1.3.07-1.87.81-4.23,1a49.11,49.11,0,0,0-5,1.18,21.57,21.57,0,0,0-2.9,1.41A39.28,39.28,0,0,0,46.06,34c-.43.21-.87.45-1.27.69-.33,2.17-3.64,3.36-3.94,5a12.43,12.43,0,0,0-1.58.19,30.75,30.75,0,0,0-3,3.22,34.57,34.57,0,0,0-2.53,2.61c-1.87,4.66-5.08,9.63-5.17,16.13l1.13.78.08,2.54a42.38,42.38,0,0,0,0,6.57l-.86,1.21c.19,1.48.33,2.93.59,4.41l.86.46.07.88A95.1,95.1,0,0,0,32.19,89c-.08,2.11-.14,4.25-.06,6.45a10.88,10.88,0,0,1,.68,1.11l3.25,7.57c.73,1.1,2.32,5,3.15,5.08l.36,4.06c.5,2.65,2.34,4.06,3,4.92,1.69,4.78,3.51,9.42,5.62,14.3l.82,1.69c2.16,1.52,3.12,4.22,3.58,5.67l1.91,3.57c2.36,1.65,3.46,4.55,4.8,5.8,1.95,4.39,4.18,8.8,6.45,13.21L68.48,166c3.51,3.51,4.51,5,5.13,6.41,2.51,3.53,5.22,7.05,8.12,10.72,2.2,1,3.84,3.69,4.64,5.14,1.84,2.37,3.7,4.72,5.61,7.07,2.42,1.08,4.17,3.75,5.11,5.19l4.64,5.88c6.17,6.54,13.35,14.18,19,19.21,3.48,1.85,6.59,5.44,9,8,3.72,1.89,7.69,6.48,10.58,8.25,7.81,6.36,15.64,11,24,18.25,2.69,1,8.07,6.25,8.44,4.24,9.8,7.68,16.16,9.41,26.36,16.32,4.42,2.3,6.23,2.63,10.89,5.19-1.09,0,.16,1,.65,2.06,5.55,3,11.17,5.87,16.6,8.47a9,9,0,0,1-.82,2.54l-1.53,1.55c-1.57-.45-2.12-.22-4-.72-1.88.45-3.61,1-5.28,1.51-.1.7-.48,1.33-.57,2l-4.85-2c-2.56-2-5.13-3.93-7.56-6a9.61,9.61,0,0,0,1.61.31,16.2,16.2,0,0,0,.65-3.34,10.35,10.35,0,0,0,2.1-.11l2.19,1.25c2,1.09,4.16,2.33,6.38,3.52-1.16-1.18-2.08-2.22-3.19-3.41l-1-1.86-1.72-3c-2.27-.53-4.32-1-6.88-1.65l-1.07-.35c-3.28-1.86-6.33-3.61-9.51-5.61-5.44-4-4.5-2.25-6.68-3.32l-2-1.4-2.25-2.28-9.46-6.06-7.15-5.8-4.93-2.42-1.26-1.78-3.61-3c-1.45-1.25-2.81-2.56-4.24-3.84-4.1-4.32-4.07-1.79-7.34-4.08-2.4-2.1-4.59-4.06-6.92-6.21-1.91-1.81-3.89-3.84-5.76-5.69-2.49-2.13-4.8-4.11-7.25-6.27-1.12-.42-2.24-.85-3.54-1.44-.32-.16-.75-.5-1.24-.81-1.91-1.51-4-3.19-5.8-4.74-2.73-2.22-5.36-4.46-8-6.76-1.54-1.77-1.47-2.91-3.94-5.23,0-1.67-2.82-3.4-4.39-5l-4.09-4.35c-1.86-2.72-3.53-5.28-5.29-8l-1.58,0c-1.66-1.65-3.32-3.51-4.87-5.19a6.73,6.73,0,0,1,.19-1.79l-5.09-6.33-3.74-7c-1-1.13-2-2.46-2.84-3.6l-4-3.06a35.13,35.13,0,0,0-1.1-3.43l-3.62-4.64c-2.24-1.22-3.46-4-4.19-5.69l-4.55-7.34c-2.11-1.11-3.49-6.17-5.57-8.53-3.31-5.38-4.8-9.85-7.31-14.12-2.39-5.1-4.49-10-6.41-15.11-.51-1.54-1-3.07-1.46-4.6-1-2.08-1.65-.46-2.69-2.75l-.76-2.7c-2.73-3.71-3.66-7.95-3.26-8.82,2.18.48,1.76-.73,1.58-1.86-.83-2-1.57-1.11-2.13-1-1-2.06-2-4.32-2.86-6.42-.16-1.51-.31-3-.39-4.55,1.75-2-.59-8.61.81-12.89.28-5.4,1.81-11.49,1.35-15.8a41.39,41.39,0,0,1,3.12-4.82l.66.7c3-3.26,1.2-3.39,2.2-4.53l1.14-1.29c3.64-.89,7.84-3.36,6.84-4.67,4.29-2.06,2.54-2.68,4-3.41a44.22,44.22,0,0,1,5.52-2.72c5.31-.05,5.81,1,6.5,1.75,2.3-.21,6.66-.5,9-1.86a23.31,23.31,0,0,1,2.85-1.23c1.68.25,3.16.59,5.06,1,2.26,0,5.42-.15,5.91-1,1.74.38,3.45.81,5.17,1.26,2.38.27,5,.66,7.49,1.1,1.13,1,5.33,1.06,4.91,2.45,2.21.43,4.23.88,6.44,1.48,4-.65,10.79.83,18.2,4.24,4.71,2.32,7.9,4,10.75,4.67,6.78,4,4.12.89,7.89,3.12l4.87,3.14c3.16,2.43,5.14,2.19,7.92,3.88l2.8,3.22c5.08,3.2,7.93,5.35,12.12,6.82,5.24,4,10.67,8.1,15.7,12.42,4.38,3.61,8.42,7.17,12.35,10.82,2.8,2.68,5.65,5.61,8.08,8.24.62.7,1,1.27,1.45,1.81,1.09,1.74,2.9,5,5.61,6.83l2.87,4.52,1.53,1.76c2,2.24,4.09,4.53,5.89,6.67,2,2.29,4,4.61,5.81,7,1.79,2,3.45,4,5.09,6l1.71-.27c.09-.21,0-.63.13-.85a98.7,98.7,0,0,1-5.34-8.36c-5.15-4.94-7.28-7.88-7.11-8.87l2.48,1.59c1.61,2.06,3.24,4.32,4.76,6.38,3.36,2.78,5.58,6.69,7.83,9.72,1.65,2.48,3.14,5,4.59,7.54-.25.59-.4,1.24-.72,1.86l.59,1c1.32,1.89,2.49,3.62,3.65,5.54.94.94,1.83,1.91,2.65,2.67.67,2,1.26,3.88,1.74,5.61l-1.5-.05a1.71,1.71,0,0,1,.08.94l-2.3-.08c1.17,2.06,2.35,4.31,3.32,6.39l.32.76c.71,1.85,1.26,3.7,1.72,5.36.19.72.2,1.25.32,1.8.76,1.51,1.48,3,2.17,4.56,2.81,5.75,3.65,9.72,2.51,12a12.6,12.6,0,0,1-.27,1.59,42.22,42.22,0,0,1,.74,9.91c2.48-.87.34,4.09-.84,4.61-.46,6.65-5,8.77-8.39,10.92a20.69,20.69,0,0,1-5.61,3c-4.87,2.41-11.88,1.93-18.44.59s-13-3.38-19.42-4.26c-2.63-.91-5-2.73-7.16-2.94-4.14-1.69-4.87-1.82-5.39-1.88-1.92.14,4,3.31,5.14,2.72,1.75.78,3.27,1.41,5.28,2.21-.48,1.18,4.86,2.06,6.09,3.22,4.1.8,9.45,2.61,14.06,3.2-.65,1.37,5.34,1.92,6.78,2.41l.4,1.35a80.7,80.7,0,0,1-18-3.41,38.12,38.12,0,0,0-9.22-2.85c-3.77-1.32-7.48-2.93-11.26-4.65-3.57-2.12-7-4.41-10.34-6.76-1.3-.82-2.84-1.74-4.11-2.6-1.95-1.25-4-2.69-6.11-4.17a186,186,0,0,1-15.9-12.83c-4.25-5.26-7.18-8.82-10.25-11.26-1.48-1.59-3.1-3.36-4.51-5-1.5-1.82-2.89-3.68-4.06-5.36-2.33-2.51-1.81-2.85-1.75-3.72,5.13,3.32,3.58-.13-.63-4-.79-1.07-1.63-2.35-2.37-3.43-1-1.67-2-3.51-3-5.34-.61-3.15-3.82-5.3-5.09-8.83a54.27,54.27,0,0,1-2.1-6.88,59.48,59.48,0,0,1-2-6.68c-.69-5.17.18-8.15-.89-10.87a15.35,15.35,0,0,1,1-3.29,15,15,0,0,1,2.77-1.13c.69-1.36,2.52-2.21,2.88-3.43,4.41-2.68,10.83-2.85,17.25-1.3a5.94,5.94,0,0,1,3.4-.08,48.72,48.72,0,0,1,4.51,2.48c-1.54,1.6,5.82,3.46,8.53,4.94a13.13,13.13,0,0,1,3.37.63l.74.46c2.08,1.66,3.89,3.25,5.62,4.91,1.38,1,2.76,2.12,4.11,3.22.43,1,0,1.38,1.09,2.84,5.48,3.8,9.14,9.53,11.17,13.39,1.56,2,2.92,3.86,4.24,5.89a54.63,54.63,0,0,1,4.5,7.42,42,42,0,0,1,1.7,4.36c-.52,1.48-.54,2.14-.35,2.68s.52,1,.5,1.51a7.17,7.17,0,0,1-.4,2.17,2.32,2.32,0,0,1-3.08,1.67,23.89,23.89,0,0,0-4.16-.92,32.52,32.52,0,0,1-5.14-3c-.89-.82-2.92-2.32-4.91-3.88a40,40,0,0,1-6.47-7.23l1.57-.49a14.71,14.71,0,0,1-1-3.45,6.31,6.31,0,0,1-1.32-3,2.5,2.5,0,0,1,0-.49l.06-.21h0c0-.09.23.86.11.45h0l0-.1,0-.21c-.05-.15-.48-.36-.7-.54a13.65,13.65,0,0,1-5-1c.78.28,1.64.52,2.59.77a3.23,3.23,0,0,0,1.4.15l.66-.1C164.93,133.93,165.28,134.28,165.53,134.41Z"/><path class="cls-12" d="M158.53,94.88c-6.78-3-12.45-5.21-14-6.74C153.12,90.31,157.23,92.8,158.53,94.88Z"/><path class="cls-12" d="M108.69,85.44c-4.6,4.45-6.79,8.66-8.77,8.2a17.7,17.7,0,0,1,1.76-5.24A22.59,22.59,0,0,1,108.69,85.44Z"/><path class="cls-12" d="M96.15,107.92a79.73,79.73,0,0,0,2.94,8.9c.91,2.3,1.56,3.8,2.28,5.39a2.84,2.84,0,0,1-1.64,2.87c-1.07-1.66-2.11-3.1-3.11-4.8a60.34,60.34,0,0,1-.92-9.2A21.21,21.21,0,0,1,96.15,107.92Z"/><path class="cls-12" d="M178,211c2.57,1.5,3.56.84,6.54,2.76,2,1.24,4.11,2.46,6.14,3.54-1.58.39-4.78-1.45-6.89-1.95C180.39,214,179.74,212.62,178,211Z"/><path class="cls-12" d="M219.67,226.5c2.19-.16,4.33-.41,6.38-.76l2.43.2c2,.56,3.79,1.08,5.87,1.51a60.73,60.73,0,0,0,8.22-1.76c.79,0,1.59-.06,2.64-.19l1.57,2.8a58,58,0,0,1-11.73,1.23c-2.47.24-4.42.34-6.7.37-2.94-.46-5.88-1.07-8.51-1.75a113.12,113.12,0,0,1-17.8-5.42c4.19,1.22,6.25.41,10.89,1.66C215.15,225.21,217.4,225.88,219.67,226.5Z"/><path class="cls-12" d="M265.94,161.37l-1.27-3.25c-1-.74-2.08-1.45-3.16-2.19-1.36-3.4-3.32-7-1.94-9.05l-.62-6.2c2.45,2.18,3.46,6.11,5.63,7.28l2.12,4.46c2.09,4.45,4.17,9.19,5.93,14-.28,1-.53,1-.87.91C269.87,165.28,267.91,163.29,265.94,161.37Z"/><path class="cls-12" d="M247.58,141.75c-2.06-2.59-3.71-6.37-7.74-13.54,3.33,4.49,6.36,8.88,9.21,13.54Z"/><path class="cls-12" d="M257.13,137.42c-3.27-2.95-4-.35-7.57-5.78l-3.8-7.12a3.12,3.12,0,0,0,0-1.12c-2.1-3.33-4.32-6.66-6.7-9.94-.76-1.25-1.8-2.68-2.6-3.93.87.28,1.57.35,2.45.67,2.58,2.08,4.9,5.43,9.42,10.83l1.32,1.93,2.12,3.2c.8,2,1.64,4.15,2.36,6.1C255.25,134.17,256.16,135.7,257.13,137.42Z"/><path class="cls-12" d="M230.64,116.21c-.23-1.29-.78-2.73-1.12-4,2.62,1.92,4.92,5.53,6.94,8.29a13.12,13.12,0,0,0,0,2.16C234.6,120.52,232.58,118.25,230.64,116.21Z"/><path class="cls-12" d="M187.77,59c-8.13-5.64-9.34-5.48-11.4-8.42,1.35-.45,6.64,3.43,9.78,5.19,1.94,1.37-2.59-2.8-.62-1.56l4.19,3.35Z"/><path class="cls-13" d="M149.08,48.64c-2.78-1.69-4.76-1.45-7.92-3.88l-4.87-3.14c-3.77-2.23-1.11.91-7.89-3.12-2.85-.72-6-2.35-10.75-4.67-7.41-3.41-14.24-4.89-18.2-4.24-2.21-.6-4.23-1.05-6.44-1.48.42-1.39-3.78-1.48-4.91-2.45-2.44-.44-5.11-.83-7.49-1.1-1.72-.45-3.43-.88-5.17-1.26-.49.83-3.65,1-5.91,1-1.9-.4-3.38-.74-5.06-1a23.31,23.31,0,0,0-2.85,1.23c-2.36,1.36-6.72,1.65-9,1.86-.69-.79-1.19-1.8-6.5-1.75a44.22,44.22,0,0,0-5.52,2.72c-1.45.73.3,1.35-4,3.41,1,1.31-3.2,3.78-6.84,4.67.25-1.35.68-2.79,1.05-4.09.82-.71,1.79-1.5,2.68-2.14a43.26,43.26,0,0,1,6.15-3.71,46.65,46.65,0,0,1,5.84-2.39A51.7,51.7,0,0,1,53,21.16a69.38,69.38,0,0,1,12-1.1,82.39,82.39,0,0,1,11.85.06c3.88.25,8.66.67,12.17,2.17,3.69.85,7.39,1.87,11.06,3,2.51.31,4.79.69,7.29,1.2,2.24.54,4.67,1.28,7.08,2.06.94.78,4.36,2.24,2.28,2.57l3.17,1.38c3.35,1.56,6.37,3.11,9.61,4.88,2,1,4.19,2.17,6.15,3.24l.76-.63c4.51,2.64,8.91,5.39,13.26,8.29,4.9,3.31,9.71,6.75,14.33,10.37-4.19-1.47-7-3.62-12.12-6.82Z"/><path class="cls-12" d="M135.65,40.65c-2-1.07-4.15-2.24-6.15-3.24-3.24-1.77-6.26-3.32-9.61-4.88,1.23,0,2.25-.07,3.26-.15A38.44,38.44,0,0,1,136.41,40Z"/><path class="cls-10" d="M88.13,6.85,81.66,5.1a12.93,12.93,0,0,0-8.35,0c.32,1,.37,2,.69,3.06A96.19,96.19,0,0,0,55.32,7.7l-.08-3.56-1.31.05c.5-1.36.81-2.68,1.41-3.94C57.58.07,59.84,0,62.11,0A141.37,141.37,0,0,1,96.22,5.8c.08.42-1.61.6.44,2.06C93.71,7.41,91,7.13,88.13,6.85Z"/><path class="cls-12" d="M81.75,9.05c-2.66-.44-5.09-.69-7.75-.91-.32-1.07-.37-2.05-.69-3.06,2.94.69,6.09,1.51,9,2.44Z"/><path class="cls-12" d="M50.29,4.45a61.77,61.77,0,0,1-10.53,3.2c-1.31-.28-3.76.08-3.91-.54C42.69,3.9,47.4,3.45,50.29,4.45Z"/><path class="cls-12" d="M24.32,26.5a28.3,28.3,0,0,0-1.25,4.38c-1,.25-2,.43-3,.71-.58,1.63-1.89,3-2.65,6.14-2.92,4-3.41,8.1-3.75,12.43a116.53,116.53,0,0,1-1.5,15,53.71,53.71,0,0,1-3-4.91c0-9.73,2.12-15.51,2.46-21.06C12.73,38,14,36.62,15.29,35.35A43.23,43.23,0,0,1,19,30.17,34.68,34.68,0,0,1,23.36,25Z"/><path class="cls-13" d="M12.21,65.2c0,1.39,0,2.57,0,4l.43.25a60.64,60.64,0,0,0,1.23,6.11l.09,1c.77,3.26,1.58,6.28,2.56,9.32l1.09,6.64,3,8,.31,1a6.27,6.27,0,0,1-1.85.14c2.59,7.45,3.63,9.22,6.08,13.25l1.22,3,.73,1.83L29.3,124c1.07,2.26,2.26,4.55,3.48,6.82l2,6.54-3.63-4.32c-2.52-4.77-5.2-9-6.69-14.1-2-4-3.86-8.09-5.65-12.18-.68-2.23-1.28-4.64-1.78-6.82L16,96.07a143.94,143.94,0,0,1-4.9-17.53,98.39,98.39,0,0,1-1.18-10C9.44,68,9,67.36,8.56,66.86c.16-2.12.28-4.49.62-6.57A53.71,53.71,0,0,0,12.21,65.2Z"/><path class="cls-12" d="M16,72.24c-.77,1.24-1.53,2.14-2.14,3.3a60.64,60.64,0,0,1-1.23-6.11C13.79,70.32,14.9,71.38,16,72.24Z"/><path class="cls-12" d="M25.17,114.94c-2.45-4-3.49-5.8-6.08-13.25a6.27,6.27,0,0,0,1.85-.14C21.79,105.07,23.41,108,25.17,114.94Z"/><path class="cls-12" d="M6.06,99.81C7,101.69,8,103.61,9,105.52l1.43,4.1c1.4,2.78,2.74,5.29,4.07,7.79,2.83,4.31,2.95,6.51,3.12,9l3.19,3.75c1.2,2.93,3.54,6.7,4,9a2.44,2.44,0,0,0-1.17.63c1.44,2.77,2.8,5.34,4.33,8.12l-3.07-.74-4.51-5.63c.68-.95,1.19-2.12,1.8-3.07-2.39-4.55-4.75-9.13-6.83-13.72l-3.1-1c-1.59-3.36-3.24-7.1-4.75-10.69,0-1.12.76-.87,1-2.27-.05-.58-.2-1.21-.32-2-.87-1.08-1.88-2.43-2.8-3.76-.75-2.18-1.35-4.17-2-6.36.21-.1.34-.42.49-.75A19.19,19.19,0,0,0,6.06,99.81Z"/><path class="cls-12" d="M29.3,124c1.07,2.26,2.26,4.55,3.48,6.82C31.56,128.58,30.37,126.29,29.3,124Z"/><path class="cls-12" d="M37.79,142.38c4,2.87,6.17,9.52,9,12,3.1,4.1,1.25,3.78,1.83,5.49l-.44-.07c-1.8-1.92-3.74-4.06-5.63-6.24C40.72,149.83,36.07,143.77,37.79,142.38Z"/><path class="cls-14" d="M7.34,92.27,10,93.45a236.32,236.32,0,0,0,16.86,39.13C31.87,142,37.33,151,43.32,159.87c6.94,8.68,14.94,23.52,23.37,31.22,3.41,4.35,7,8.66,10.75,13.13,2.09,2.51,4,4.84,6.18,7.33l4.88,5.55c1.42.93,2.76,1.87,4,2.59,1,1.33,1.92,2.48,3,3.8-2.81-.64-5.44-1.11-8-1.6-4.8-4.81-9.63-9.89-14.23-15L68,199.31c-2.15-3.55-5.17-5.25-7.78-7L58,189.5l-2.6-5.75c-2-3.76-4.91-4.85-7.2-8-4.76-5.7-6.51-8.25-8.25-10.22-2.11-3.35-4.19-6.7-6.17-10.09-.71-2-1.27-4-1.8-5.73-1.87-4.46-4.79-7-7.17-10.58-.5-2.33-2.84-6.1-4-9l-3.19-3.75c-.17-2.46-.29-4.66-3.12-9-1.33-2.5-2.67-5-4.07-7.79L9,105.52l-.74-5.73C7.48,97.22,6.7,94.43,6,91.66Z"/><path class="cls-12" d="M48.24,175.78c.28,1.35,2.11,4.22,1,3.72-4-2.22-6.33-7.46-9.09-11.28a5,5,0,0,1-.2-2.66C41.73,167.53,43.48,170.08,48.24,175.78Z"/><path class="cls-12" d="M74.5,193.18c1.89,3.06,3.77,6.12,5.78,9.17-4.61-3.29-7.27-7.17-9.76-10.29C72.19,192.52,73,191.63,74.5,193.18Z"/><path class="cls-12" d="M95.12,228.32c2.64,2.46,9.38,8.36,8,9.12-3.82-.85-7.09-5.74-9.49-7.19a19.89,19.89,0,0,1-4.77-6.41Z"/><path class="cls-12" d="M119,248.29l4.67,4.31c4,2.71,7.38,6.12,10.68,8.22,1,.21,4.08,3.24,6.29,4.91l1,.85a11.23,11.23,0,0,0,.49,3.08c-1.94-.16-3.68-2-5-3-3.75-3.14-7.23-6.14-10.86-9.35l-2-1.79c-2.87-1.84-5.58-3.73-8.33-5.65-2.89-2.77-5.41-5.36-8-8C111.73,244.13,115.26,246.16,119,248.29Z"/><path class="cls-10" d="M177.9,137c-.25.67.54,1.27,1.22,1.75s1.28.87,1.14,1.76l-1.09,1c0,1.13.41,1.59-.14,2.51a8.56,8.56,0,0,0,1.05,1s.16.12.11.1a4.07,4.07,0,0,0-.44-.18l1.09.53.16.08.06,0h0c.56.25-.76-.34-.62-.29h0l.06,0,.12.06a2,2,0,0,1,.62.41.17.17,0,0,1,0,.14l.16,1.24a18.27,18.27,0,0,0,.53,2.44,12.32,12.32,0,0,0,2.17,4.46c.09.1,0,0-.35-.31a15.68,15.68,0,0,0-2.42-1.59s-.82-.48-2.2-1.12c-.65-.3-1.56-.66-2.21-.92.05,0,.11,0,.3,0,.17-.24.27-.57.09-1.77a27.64,27.64,0,0,0-1.26-3.37c.8.24,1.94,0,.73-1.55-1.24-1.8-.15-3.25-2.81-5.36-.54.24-1.21-1.44-2-2.29.91-.2-.6-1.63-.07-2.09-2.32-2.9-5.46-2.54-7.65-6.64-2-2.8-4.78-6.76-9.61-9-4.51-1.27-5-2.62-5.92-4.19-.69-1.41-1.62-2.89-4-1.74-1,0-1.31-1.2-2.44-1.47a19.87,19.87,0,0,0-5.93-.48,2.74,2.74,0,0,0-2.82-.39c-.92.3-1.73.7-2.69.15-.55,1-.91,2.44-2.16,2.63-1.68,1.4-2,3.11-2.61,5.15.53,1.41-1.7,2.41.55,3.81,1.45.32,1.5,3.5,2.51,5.5-1.34,1.17,3.28,7.47,2.19,8.91a107.8,107.8,0,0,0,5.92,10.87c1.28,1.23,2.53,2.46,3.85,3.65a154.61,154.61,0,0,0,22.76,25.13,120.78,120.78,0,0,0,29.87,19.9c6.63,4.35,9.63,2.58,16,5.68,7.73,2.64,13.48,2.07,19.07,1.9,2.52.69,2.07-1.21,3.62-1.41,4.92-2.73,8.43-3.84,11.16-7.5a10.91,10.91,0,0,1-4.76,7.05,25.07,25.07,0,0,1-9.61,3.67c-2.31.74-4.25-1.35-4.62.43-1.36-.09-3.11.28-4.21-.44-8.89-.91-19.84-4.3-30.54-9.55A127.63,127.63,0,0,1,160.55,175c-7.41-7.3-18.52-17.49-23.89-28.06a104.88,104.88,0,0,1-6.74-11,21.83,21.83,0,0,1-4.24-11.41c-.52-1.08-.83-2.06-1.21-3.07a18.29,18.29,0,0,1-.54-2.28,11.85,11.85,0,0,1,0-4.13,12,12,0,0,1,3.21-5.86c1.94-.56,3.33-1.77,5.35-2.32a7.68,7.68,0,0,1,6.69,1.14,26.76,26.76,0,0,1,2.79.66,25.87,25.87,0,0,1,9.45,3.81,60.32,60.32,0,0,1,10,7.79c2.29,1.41,1.49,3.78,4.35,4.2,1,1,2.68,2.26,2.75,3.16,2.3,2.69,6.59,8.53,9.86,12a45.57,45.57,0,0,1,1.59,4.92,11.25,11.25,0,0,1,.16,4.27,8.8,8.8,0,0,1,.37,1.79,12.62,12.62,0,0,1-2.4-.18,1.46,1.46,0,0,0,.52.39c.2.1,1.43.64,2.22,1.07a17.88,17.88,0,0,1,2.73,1.72,4.08,4.08,0,0,1,.56.48c.13.11-.11-.07-.63-.91a11.84,11.84,0,0,1-1-1.9c-.35-.71-.82-2.63-.79-2.3-.07.71-.92.08-1.67-.64l-.14-.14-.07-.06h0l.53.24h0l0,0-.12-.07-.92-.56c-.42-.3.25,0,0-.18a1.71,1.71,0,0,0-1.18-.31,2.84,2.84,0,0,1-2.35-1.81,15.18,15.18,0,0,0-2.25-3.62,17.12,17.12,0,0,1-1.87-2.74l1.47.45,1.86-.62a4.18,4.18,0,0,1,.35-2.24c-.28-.45-.62-.77.29-.83s1.18,0,1.29.27A1.41,1.41,0,0,0,177.9,137Z"/><path class="cls-10" d="M168.12,135.47c1.21.35,1.08,1,1.53,1.64C169.15,137.27,168,137.13,168.12,135.47Z"/><path class="cls-14" d="M184.74,126.35c-5.67-4.95-10.41-9.31-15.26-13.33a67.32,67.32,0,0,0-15.29-10c-4.1-3.26-5-2.65-6.61-3.44-7.92-4-12.55-4.32-15.22-6a30.09,30.09,0,0,0-10.73-.12,51.28,51.28,0,0,0-5.91,2.5,6.94,6.94,0,0,0-3.69,5.15,9.81,9.81,0,0,0-.64,1.25,12.59,12.59,0,0,0-2.58,2,32.92,32.92,0,0,0,.65,4.71,10.94,10.94,0,0,0,.43,8.52,46.23,46.23,0,0,0,1.71,7.15A88.12,88.12,0,0,0,116.52,136c.58,1.16,1.23,2.31,2,3.66,1.67,4.64,2.89,7,4.37,8.29,2.61,1.74.08,1.68,2.9,4.61,2.56,3.38,5.19,7.23,8.87,10.71,1.36,1.69,2.86,3.5,4.3,5.14a18,18,0,0,1,.77,2.15c3.41,3.1,6.71,5.9,10.34,8.76A186,186,0,0,0,166,192.16c2.08,1.48,4.16,2.92,6.11,4.17,1.27.86,2.81,1.78,4.11,2.6,3.31,2.35,6.77,4.64,10.34,6.76,3.78,1.72,7.49,3.33,11.26,4.65a38.12,38.12,0,0,1,9.22,2.85,80.7,80.7,0,0,0,18,3.41,5.93,5.93,0,0,0,1,.42c7.23,1.39,5.93-.37,7.39-.49a32.88,32.88,0,0,0,10.6-3.79,26.4,26.4,0,0,0,5.14-3,26.07,26.07,0,0,0,10.09-8,25.7,25.7,0,0,0,.64-2.72,7.28,7.28,0,0,1-.18-.91,43.82,43.82,0,0,0,1.21-18.86c.26.06.51.14.76.22a16.2,16.2,0,0,0-.34-5.66,6.27,6.27,0,0,1,2-2.28c-1.61-1.9-3.25-3.74-5-5.57-.65-2-1.4-4-2.08-5.85l1.22.15c1.19,2.68,3.65,2.62,6.15,9.39.11.58.1,1.18.17,2,.51,1.25,1.05,2.8,1.42,4.08a51.59,51.59,0,0,1-.69,7.36,52.13,52.13,0,0,1,.25,7.87c-.07,1.19-.18,2.55-.36,3.72.4,2.25-.33,5.11-3.59,10.08-4.61,9.24-15.08,15-28.12,15.41a64.37,64.37,0,0,1-9.16-.32,58,58,0,0,1-21.35-5,34.37,34.37,0,0,1-7.24-2.1c-4-2.82-11.72-5.56-18.92-11.16-3.07-2-6.39-4.19-9.3-6.4a243.57,243.57,0,0,1-23.49-18.6c-1.44-2-2.7-3.74-4-5.72A66.88,66.88,0,0,1,123,153.07c-6.36-9.45-11.33-19.15-14.21-28.67-1-2.62-1.46-5.64-3-7.83-.2-1.06-.41-2.09-.53-3.11.27-5.33.43-6.76.36-8.2a18.89,18.89,0,0,1,1.37-4c1.87-5.32,6.43-9.19,12.75-10.56.94.38,1.79.69,2.87,1.06a19.93,19.93,0,0,1,4.67-1,39.37,39.37,0,0,1,4.26.34,55.18,55.18,0,0,1,7.66,1.62c2.77,1.27,11.52,4,14.38,6.39C165.15,106,177.86,116.19,184.74,126.35Z"/><path class="cls-10" d="M122.66,91.78c-1.08-.37-1.93-.68-2.87-1.06,1-1.23,6.49-1.89,7.54.1A19.93,19.93,0,0,0,122.66,91.78Z"/><path class="cls-10" d="M101.68,88.4a17.7,17.7,0,0,0-1.76,5.24,24.91,24.91,0,0,0-3.77,14.28,21.21,21.21,0,0,0-.45,3.16,60.34,60.34,0,0,0,.92,9.2l-.41-.08-1.12-3.38c-.37-1.3-.77-2.61-1-3.82a41.82,41.82,0,0,1-1.2-7.78c-.43-5.1,2.34-4.64,3.28-6.79-.18-2.15-2-2.06-1.27-4.54a22.2,22.2,0,0,1,2.63-4.78,14.78,14.78,0,0,1,2.55-2.24l.27.25Z"/><path class="cls-10" d="M105.31,113.46c-1.43-2.61-1.61-8.5.36-8.2C105.74,106.7,105.58,108.13,105.31,113.46Z"/><path class="cls-10" d="M261.6,222.91a26.09,26.09,0,0,0,4.95-6.15l.73-.86a33.22,33.22,0,0,0,6.94-9.14,45.8,45.8,0,0,0,0-5c2.32-4.25.47-12.39,1.34-16a60.57,60.57,0,0,0-1.36-9.89c-.62-2.62-1.33-5-2.11-7.48l-.37-1.11c.34.07.59.12.87-.91,1.28,1.93,2.51,3.87,3.71,5.85.55,2.4,2,6.26,1.53,7.93a71,71,0,0,1,.72,7.78,59.3,59.3,0,0,1,.64,7.08c1.5,2.35.11,6.44-.33,9.32l-2.38,3.83c-.4,4.87-1.59,6.77-2.88,8.76-1,.71-2.55,1.91-3.1.5l-.58.74a33.14,33.14,0,0,1-2,4.74c-1.73,1.39-4.1,3.68-6,3.83C263.4,224.52,260.11,224.86,261.6,222.91Z"/><path class="cls-10" d="M244.17,193.13c.3-3.91,1.13-5.65,1.59-10a39.25,39.25,0,0,0-.51-4.56,51,51,0,0,0-.66-6.23A104,104,0,0,0,235.84,147a80.24,80.24,0,0,1,9.58,25.51c1.06,1.68.92,3.12,1,6.39a39.83,39.83,0,0,1,.16,4.52c.71,2.75-.15,5-.54,7.09A11.67,11.67,0,0,1,244.17,193.13Z"/><path class="cls-10" d="M235,145.4a17.4,17.4,0,0,1-3.91-5.18c-1-.87-2-1.72-3-2.4-3.14-4-.76-3.46-3.2-7-.05-2.71-7.7-8.52-3.86-7.8,6.1,4.39,5.07,8.3,11.08,17.16C233.19,142,234.07,143.6,235,145.4Z"/><path class="cls-10" d="M210.67,110.6c-5.77-4.56-16.11-15.4-22.45-22.66-1.22-.33-2.39-1.41-4-2.53l-3.35-4.16,1.77-1.17q7.41,6.17,14.32,12.77c7.16,7.76,12.46,13.62,19.08,23.47C214.38,114.45,212.5,112.41,210.67,110.6Z"/><path class="cls-10" d="M173.11,72a289.75,289.75,0,0,0-32.94-23.77c.53-.4,3.25.88,4.9,1.63,4.67,1.68,3.1,2.91,7.38,5.13,4.05,1.2,12.67,9.06,16.21,10.28,1.92,1.81,4,3.8,5.79,5.64a6.27,6.27,0,0,0,0,1.49A6.2,6.2,0,0,0,173.11,72Z"/><path class="cls-10" d="M124.91,47c-2-1-3.8-1.83-5.79-2.73.73-.29-1-1.25-2.44-1.77-5.67-3.36-17.92-7.06-24.36-7.73-3.27-1.08-4-2.77-8.22-3.65-5.22-.54-11.25-1.61-16.88-1.52-6.72,1.86-13.17,2.76-17.41,4.51l-1.45.67c-1.36,2.38-4.83,4-6.71,5.92a30.65,30.65,0,0,0-3.9,4.08C37,47.17,35.21,49.92,33.81,53s-2.35,6.45-2,9.36c-1.06-.75-1,1.92-2.2.22l-1.13-.78c.09-6.5,3.3-11.47,5.17-16.13a34.57,34.57,0,0,1,2.53-2.61,30.75,30.75,0,0,1,3-3.22,12.43,12.43,0,0,1,1.58-.19c.3-1.63,3.61-2.82,3.94-5,.4-.24.84-.48,1.27-.69a39.28,39.28,0,0,1,4.19-2.28,21.57,21.57,0,0,1,2.9-1.41,49.11,49.11,0,0,1,5-1.18c2.36-.19,2.93-.93,4.23-1a46.54,46.54,0,0,1,4.67.42c1.34,0,1.81-.58,4.54-.73a79.48,79.48,0,0,1,10.66,1.35c1.62.43,4.61,1.33,6.1.44,1.25.27,2.72.6,4,.92q5,1.26,10.1,2.93c2.9,1.15,7.32,3.2,9.07,3.3s5.63,2.38,7.87,2.05l4.47,3c2.92,1.08,4.11,1.05,9.49,3.88-1.08.1-2.12.16-3.37.21l1.89,2.65C129.9,48.34,129.36,49.86,124.91,47Z"/><path class="cls-10" d="M117.53,48.3c-1.41-1.23-6-3-9.1-4.18s-5-2.13-1-2.19c1.94.73,3.89,1.5,5.64,2.22l2,.83,5.3,3C120.82,49,117.72,47.63,117.53,48.3Z"/><path class="cls-10" d="M103.16,12.46c-.33,1.52-1.84,1.4-7.44,0C90.52,12,85.39,11.62,84,9.84c-.75-.29-1.49-.56-2.28-.79l.52-1.53c1.73-.08,3.81-.08,5.6-.06,2.64.83,5,1.65,7.56,2.6C97.86,10.74,100.53,11.57,103.16,12.46Z"/><path class="cls-10" d="M10.84,27.35c2,1.19,1.23,2.95-.68,7.91a21.65,21.65,0,0,0,.16,2.62,51.19,51.19,0,0,0-4.94,5.27l-2.15-2c.46-1.39.9-2.56,1.46-3.9L7,34.41A48,48,0,0,1,10.84,27.35Z"/><path class="cls-13" d="M5.38,43.15,5,46.24,3.13,50.42l0,6.63,1.16.84c-.14,1.86-.24,4-.24,6.07,0,1.89.06,4,.2,5.93,1,3.67,1,7.94,3.57,14.48.39,1.94.86,4.07,1.37,6.15L10,93.45,7.34,92.27,6,91.66a17.46,17.46,0,0,1-2-1.85l-.72-3c-.1-1.25-.36-2.75-.43-4-.74-3-1.27-5.88-1.79-8.84l-1-6.64A84.52,84.52,0,0,1,.27,56.05c0-5.85-.25-12.65,3-14.89Z"/><path class="cls-10" d="M6.41,47.49a75.71,75.71,0,0,0-2.1,10.4l-1.16-.84,0-6.63L5,46.24Z"/><path class="cls-13" d="M28.61,36.72c-1,1.14.83,1.27-2.2,4.53a33.51,33.51,0,0,0-3.78,4.12c.46,4.31-1.07,10.4-1.35,15.8-1.4,4.28.94,10.86-.81,12.89.08,1.5.23,3,.39,4.55.89,2.1,1.86,4.36,2.86,6.42.56-.08,1.3-.93,2.13,1,.18,1.13.6,2.34-1.58,1.86-.4.87.53,5.11,3.26,8.82l.76,2.7c1,2.29,1.67.67,2.69,2.75.47,1.53.95,3.06,1.46,4.6,1.92,5.09,4,10,6.41,15.11,2.51,4.27,4,8.74,7.31,14.12,2.08,2.36,3.46,7.42,5.57,8.53l4.55,7.34c.73,1.69,1.95,4.47,4.19,5.69l3.62,4.64a35.13,35.13,0,0,1,1.1,3.43l4,3.06c.85,1.14,1.89,2.47,2.84,3.6l3.74,7,5.09,6.33a6.73,6.73,0,0,0-.19,1.79l-1.17,0c2.54,4.26,4.63,5.95,5.53,6.15a1.62,1.62,0,0,0,.51-.91l1.58,0c1.76,2.74,3.43,5.3,5.29,8-3-2-4-3.82-5.91-5.29,1,3.89,11.25,13.17,6.76,11.42-2.44-2.39-2.85-2.36-6.15-5.33a8.2,8.2,0,0,1,0,1.87c1.3,2.06,2.89,4.3,4.25,6.35l-.82,0c-2.1-1.86-3.31-3.18-4.57-4.48l-3-4.54q-3-3.69-5.93-7.39l.27-1.65C72.94,186.7,67.07,179.33,65.4,175l-4.26-5.66-3.31-6.27c-2-1.71-3.56-6.34-5.32-6.81-1.67-2.74-3.37-5.68-4.91-8.44a14.53,14.53,0,0,1-1.89-1.25l-1-1.78-1.2-4.44c-4.25-8.27-7.53-13-13.14-23.69-1.19-6.27-3.21-8.72-4.39-9.86l-.81-.29c-1.34-1.9-2.41-3.55-3.67-5.65,1.12.1,1.26-1.61.32-4.08-.33-1.55-.52-2.88-.78-4.56-.71-1.74-1.31-3.21-1.94-5.15A68.19,68.19,0,0,1,18.75,80c-.71-2.39-1.39-4.78-1.93-7.34C17.9,66.14,15.34,58.56,18.27,56A47.4,47.4,0,0,1,21.2,45.16c.64-1.67,1.25-3.19,2-4.84a15.65,15.65,0,0,0,2.53.23A38.12,38.12,0,0,1,28.61,36.72Z"/><path class="cls-10" d="M29.74,65.11c2.31,4.8.87,5.2.76,7,1.57,1.61,1.12,3.63-.17,5.63l.07.88c-.36-.53-.66-.85-.93-1.34-.26-1.48-.4-2.93-.59-4.41l.86-1.21A42.38,42.38,0,0,1,29.74,65.11Z"/><path class="cls-10" d="M6,91.66c.7,2.77,1.48,5.56,2.26,8.13L9,105.52c-1-1.91-2-3.83-2.94-5.71a19.19,19.19,0,0,1-2.14-1.88c-.15.33-.28.65-.49.75-2.05-3-2.46-4.35-1.56-7a3.47,3.47,0,0,1,.36.15l1.8.82V89.81A17.46,17.46,0,0,0,6,91.66Z"/><path class="cls-10" d="M15.4,124.75c.28.46.67,1,.85,1.21,1.83,4.11,3.9,8.43,6,12.51-.61.95-1.12,2.12-1.8,3.07-4.18-5.82-5.12-9.15-6.53-11.84,1.15.18-.26-3.08-1.6-5.95Z"/><path class="cls-10" d="M24.85,139.16c2.38,3.58,5.3,6.12,7.17,10.58.53,1.77,1.09,3.75,1.8,5.73L30.28,152a5.8,5.8,0,0,1-.94,1.65,11.28,11.28,0,0,1-4.4-6.43l3.07.74c-1.53-2.78-2.89-5.35-4.33-8.12A2.44,2.44,0,0,1,24.85,139.16Z"/><path class="cls-10" d="M48.24,175.78c2.29,3.12,5.22,4.21,7.2,8L58,189.5c-5.2-5.59-7.14-7.38-8.76-10C50.35,180,48.52,177.13,48.24,175.78Z"/><path class="cls-10" d="M60.17,192.34c2.61,1.72,5.63,3.42,7.78,7l5.38,7.53-4-2.83C66.26,200.21,63.08,196.18,60.17,192.34Z"/><path class="cls-10" d="M154.75,277a4.82,4.82,0,0,0,.4,1.05c-6.48-2.82-10-6-13-8.39a11.23,11.23,0,0,1-.49-3.08C145.81,270,150.23,273.52,154.75,277Z"/><path class="cls-10" d="M162.35,283.44c2.9,2.57,5.6,5,8.63,7.55,1.23.48,2.63,1.14,4.09,1.78,5.61,3.4,7.26,3.36,10.91,6.06a228.37,228.37,0,0,0,20.16,11.33c2.44.73,5.56,2.82,8.39,4.15l-.25.22c-10.12-4.72-11.86-3.93-18.3-7.88-1.73-.37-6.27-3.45-10.6-6.12l-5.41-2.4c-3.08-2.24-5.64-3.44-9.65-5.83-2.86-1.62-5.69-3.25-8.51-4.93-1.23-2.52,1.58-1.6-.33-4.58Z"/><path class="cls-13" d="M202.61,295.36c2.43,2.05,5,4,7.56,6l-1.26,1,4.42,2.41c1.55.64,3.35,1.36,4.9,1.95,4.23,2.52,4.07,2.66,3.59,3.11a6.15,6.15,0,0,1-.46,2.11,28.68,28.68,0,0,1,1.07,3.81l-6.64-2.39-5.56-4.59c-3.26-1.62-6.41-3.33-9.6-5a3,3,0,0,0-.34-1.24c1.86.23,3.75.41,5.62.57a12.55,12.55,0,0,0-1.56-1.88l.56-.38-6.78-4.94a5.9,5.9,0,0,1,.79-1.93C200.22,294.44,201.28,294.85,202.61,295.36Z"/><path class="cls-10" d="M210.17,301.34l4.85,2c1,1.08,2.21,2.26,3.21,3.33-1.55-.59-3.35-1.31-4.9-1.95l-4.42-2.41Z"/><path class="cls-13" d="M190.52,153.43c0-.53-.33-1-.5-1.51s-.17-1.2.35-2.68A11.68,11.68,0,0,1,190.52,153.43Z"/><path class="cls-13" d="M188.67,144.88a54.63,54.63,0,0,0-4.5-7.42c-1.32-2-2.68-3.9-4.24-5.89-2-3.86-5.69-9.59-11.17-13.39-1.12-1.46-.66-1.82-1.09-2.84-1.35-1.1-2.73-2.19-4.11-3.22-4.48-2.18-4.3-2.87-6.36-5.37a13.13,13.13,0,0,0-3.37-.63c-2.71-1.48-10.07-3.34-8.53-4.94a48.72,48.72,0,0,0-4.51-2.48,5.94,5.94,0,0,0-3.4.08c-6.42-1.55-12.84-1.38-17.25,1.3-.36,1.22-2.19,2.07-2.88,3.43a15,15,0,0,0-2.77,1.13,15.35,15.35,0,0,0-1,3.29c1.07,2.72.2,5.7.89,10.87a59.48,59.48,0,0,0,2,6.68,54.27,54.27,0,0,0,2.1,6.88c1.27,3.53,4.48,5.68,5.09,8.83.91,1.83,1.94,3.67,3,5.34.74,1.08,1.58,2.36,2.37,3.43,4.21,3.9,5.76,7.35.63,4-.06.87-.58,1.21,1.75,3.72,1.17,1.68,2.56,3.54,4.06,5.36,1.41,1.64,3,3.41,4.51,5,3.07,2.44,6,6,10.25,11.26-3.63-2.86-6.93-5.66-10.34-8.76a18,18,0,0,0-.77-2.15c-1.44-1.64-2.94-3.45-4.3-5.14-3.68-3.48-6.31-7.33-8.87-10.71-2.82-2.93-.29-2.87-2.9-4.61-1.48-1.25-2.7-3.65-4.37-8.29-.75-1.35-1.4-2.5-2-3.66a88.12,88.12,0,0,1-4.92-11.19,46.23,46.23,0,0,1-1.71-7.15,10.94,10.94,0,0,1-.43-8.52,32.92,32.92,0,0,1-.65-4.71,12.59,12.59,0,0,1,2.58-2,17.3,17.3,0,0,1,1.38-4.54c1.14-1.59,3.35-2.66,4.38-2.22,2.19.09,2.67-1.64,4.48-2.14a30.09,30.09,0,0,1,10.73.12c2.67,1.64,7.3,1.93,15.22,6,1.58.79,2.51.18,6.61,3.44a67.32,67.32,0,0,1,15.29,10c4.85,4,9.59,8.38,15.26,13.33a100.25,100.25,0,0,1,7.28,9.27c.84,1.68,1.42,3,2,4.45a49.65,49.65,0,0,1,2.67,6.15,2.91,2.91,0,0,1-3.59,1.3C191.67,146.58,190.11,145.7,188.67,144.88Z"/><path class="cls-13" d="M130.81,83.86c-9.34-.39-14.25,1.19-16.61,0C115.44,81.74,122.5,81.1,130.81,83.86Z"/><path class="cls-13" d="M129.63,172c1.86,1.44,3.7,3.65,8.12,8.69C134.69,178.72,129.92,174.26,129.63,172Z"/><path class="cls-13" d="M180.47,196.8c-.79,1.35-4.26-.64-7.49-3.59C172,190.63,178,195.8,180.47,196.8Z"/><path class="cls-13" d="M192.59,203.37c2.13.21,4.53,2,7.16,2.94,6.42.88,12.76,2.92,19.42,4.26s13.57,1.82,18.44-.59a20.69,20.69,0,0,0,5.61-3c3.38-2.15,7.93-4.27,8.39-10.92,1.18-.52,3.32-5.48.84-4.61a42.22,42.22,0,0,0-.74-9.91,12.6,12.6,0,0,0,.27-1.59c1.14-2.33.3-6.3-2.51-12-.69-1.52-1.41-3.05-2.17-4.56-.12-.55-.13-1.08-.32-1.8-.46-1.66-1-3.51-1.72-5.36l-.32-.76c-1-2.08-2.15-4.33-3.32-6.39l2.3.08a1.71,1.71,0,0,0-.08-.94l1.5.05c-.48-1.73-1.07-3.65-1.74-5.61-.82-.76-1.71-1.73-2.65-2.67-1.16-1.92-2.33-3.65-3.65-5.54l-.59-1c.32-.62.47-1.27.72-1.86,2.44,3.62,4.78,7.32,6.87,11,1.12,2.53,2.19,5.08,3.16,7.59,3.09,3,3.29,7.25,5,11.16,1.87,3.59,3.49,7.2,4.93,10.65-.32,3.37.49,7.19.95,11.1s.6,7.89-.84,10.93a28.34,28.34,0,0,0,1.48,4.54c.22-.08.42-.38.62-.45a7.28,7.28,0,0,0,.18.91,25.7,25.7,0,0,1-.64,2.72,26.07,26.07,0,0,1-10.09,8,26.4,26.4,0,0,1-5.14,3,32.88,32.88,0,0,1-10.6,3.79c-1.46.12-.16,1.88-7.39.49a5.93,5.93,0,0,1-1-.42l-.4-1.35c-1.44-.49-7.43-1-6.78-2.41-4.61-.59-10-2.4-14.06-3.2-1.23-1.16-6.57-2-6.09-3.22-2-.8-3.53-1.43-5.28-2.21-1.18.59-7.06-2.58-5.14-2.72C187.72,201.55,188.45,201.68,192.59,203.37Z"/><path class="cls-13" d="M223.45,219.82a64.37,64.37,0,0,0,9.16.32l.14.36A56.77,56.77,0,0,1,223.45,219.82Z"/><path class="cls-13" d="M245.21,225.5c2-.35,2.27-1.36,6.32-2.74a48.9,48.9,0,0,0,6-2.66,33.09,33.09,0,0,0,6.05-5.94L262.2,213a30,30,0,0,0,5.88-10,40,40,0,0,0,1.17-7c.17-1.24.27-2.71.31-4a9,9,0,0,0,2.05-1.3,27.71,27.71,0,0,0-.8-6.53l-1.61-.54c-1.2-2.7-2.63-5.34-4.08-7.93-.37-1.28-.91-2.83-1.42-4.08-.07-.8-.06-1.4-.17-2a22.38,22.38,0,0,1,1.47-2.52c-.8-2.75-2.17-4.56-3-7.28-.09-1.2-.28-2.64-.51-3.91,1.08.74,2.17,1.45,3.16,2.19l1.27,3.25c2,1.92,3.93,3.91,5.82,5.93l.37,1.11c.78,2.5,1.49,4.86,2.11,7.48a60.57,60.57,0,0,1,1.36,9.89,54.43,54.43,0,0,1-.25,12c-1.91,3.06.25,5.4-1.13,9a33.22,33.22,0,0,1-6.94,9.14l-.73.86a26.09,26.09,0,0,1-4.95,6.15,42,42,0,0,1-6.71,2.82c-1.37,1.44-5.13,2.22-8.11,2.57Z"/><path class="cls-13" d="M256.16,160.1c-1.41-3.64-2.92-7.08-4.65-10.7-1.25-2.62-2.51-5-3.93-7.65h1.47c1.42,2.63,2.7,5.08,4,7.72,1.68,3.67,3,7.12,4.37,10.78Z"/><path class="cls-13" d="M236.42,109.53c-4-5.09-8.29-10.28-12.86-15.37.68-.48-3-4.92-1.31-4.48l.32-.12c6.34,4.6,7.1,9,12.56,14.47,1.32,2.12,2.5,4,3.74,6.17C238,109.88,237.29,109.81,236.42,109.53Z"/><path class="cls-13" d="M87.87,7.46c-1.79,0-3.87,0-5.6.06-2.87-.93-6-1.75-9-2.44A4.55,4.55,0,0,0,72,4.58c4.21-1.12,11,.94,16.11,2.27,2.9.28,5.58.56,8.53,1,3.73,1.32,7.69,2.82,11.27,4.38.07.85-1.53,1.18-4.77.22C98,10.53,93,8.88,87.87,7.46Z"/><path class="cls-13" d="M30.55,22.4a37.67,37.67,0,0,0-6.23,4.1l-1-1.48a45.19,45.19,0,0,1,7.06-5C30.39,20.83,30.55,21.57,30.55,22.4Z"/><path class="cls-13" d="M25.51,12.05c-5.25,5.1-9,8-12,10.73a51.31,51.31,0,0,0-2.71,4.57A48,48,0,0,0,7,34.41L4.69,37.26,3.36,35.89c.18-.65.29-1.38.44-2.1a50.82,50.82,0,0,1,9-12.19C16.59,16,21.67,11.85,25.51,12.05Z"/><path class="cls-14" d="M92.36,200.65,96.45,205c1.57,1.63,4.41,3.36,4.39,5,2.47,2.32,2.4,3.46,3.94,5.23,2.59,2.3,5.22,4.54,8,6.76a11.79,11.79,0,0,0,.87,2.62l4.79,4.09c2,1.7,3.77,3.22,5.82,4.88,1.79,1.9,3.58,3.81,5.5,5.68,3.79,3.15,9.75,7.38,11.59,10.49l3.28,2.12,2-.56,3.18,2.29,5.61,5.44c1.51,1.05,2.82,1.93,4.05,2.84,3.86,3.12,7.5,6.06,11.21,8.94.73.18,1.25.18,2,.33,2.89,2,6.08,4.16,9.11,6.09l1.71-.88,2,1.4c2.18,1.07,1.24-.65,6.68,3.32,3.18,2,6.23,3.75,9.51,5.61l1.07.35a11.24,11.24,0,0,1,.86.79c2.48,1.29,5.2,2.64,7.74,3.86l1,1.86-3.19-.11L207,292.22a10.35,10.35,0,0,1-2.1.11,16.2,16.2,0,0,1-.65,3.34,9.61,9.61,0,0,1-1.61-.31c-1.33-.51-2.39-.92-3.69-1.48-.6-.43-1.16-.92-1.93-1.54-1.54-2-3-4.13-4.43-6.18-1.63-.88-3-1.66-4.58-2.6L186.61,282c-2.29-1.29-4.36-2.48-6.63-3.83-3.46-2.26-6.81-4.58-10.2-6.92-2.75-1.44-5.49-2.91-8.45-4.57,1.8,2.08,3.37,4,5,6-1.92-1.11-3.72-1.38-5.86-3.37-4.86-5.83-10.84-7.66-17.45-13.76l-6.52-5.66c-2.68-1.5-4.07-3.72-6.35-5.76-6-3.38-12.1-10.73-18-14.58-3.46-3.17-6.63-6.22-9.91-9.48-1.41-1-3-2.31-4.3-3.39-.75-.92-1.42-1.86-2-2.59l-4.64-4.42c-1.36-2-3-4.29-4.25-6.35a8.2,8.2,0,0,0,0-1.87c3.3,3,3.71,2.94,6.15,5.33,4.49,1.75-5.79-7.53-6.76-11.42C88.39,196.83,89.38,198.68,92.36,200.65Z"/><path class="cls-13" d="M96.45,205c1.57,1.63,4.41,3.36,4.39,5C100.86,208.36,98,206.63,96.45,205Z"/><path class="cls-13" d="M87.56,221.89c2.57.49,5.2,1,8,1.6,3,3.78,6.41,5.92,9.64,9.65,2.64,2.15,5.13,4.11,7.71,6,4,3.59,6.87,5,8.58,6.6l5.78,6.14c-3.37-1.49-4.16-2.17-8.49-4.64.16.4.32.81.21,1-3.74-2.13-7.27-4.16-11-6.41l-4.84-4.44c1.33-.76-5.41-6.66-8-9.12l-6.21-4.48C88.37,223.06,87.92,222.47,87.56,221.89Z"/><path class="cls-13" d="M112.73,222c1.8,1.55,3.89,3.23,5.8,4.74.49.31.92.65,1.24.81,1.3.59,2.42,1,3.54,1.44l5.69,4.76,1.56,1.51c1.87,1.85,3.85,3.88,5.76,5.69,2.33,2.15,4.52,4.11,6.92,6.21,3.27,2.29,3.24-.24,7.34,4.08,1.43,1.28,2.79,2.59,4.24,3.84l3.61,3,1.26,1.78,4.93,2.42,7.15,5.8,9.46,6.06,2.25,2.28-1.71.88c-3-1.93-6.22-4.06-9.11-6.09-.73-.15-1.25-.15-2-.33-3.71-2.88-7.35-5.82-11.21-8.94-1.23-.91-2.54-1.79-4.05-2.84l-5.61-5.44-3.18-2.29-2,.56-3.28-2.12c-1.84-3.11-7.8-7.34-11.59-10.49-1.92-1.87-3.71-3.78-5.5-5.68-2-1.66-3.87-3.18-5.82-4.88l-4.79-4.09A11.79,11.79,0,0,1,112.73,222Z"/><path class="cls-13" d="M124.33,255.51l2,1.79c3.63,3.21,7.11,6.21,10.86,9.35-4.11-1.69-7.41-4.11-11.65-8.1-4.52-3.26-8.48-6.51-9.53-8.69C118.75,251.78,121.46,253.67,124.33,255.51Z"/><path class="cls-13" d="M132.73,255.92c4.28,2.08,8,6,11.64,8.79l7,4.48-1.66.54c-2.59-1.5-5-3.07-7.33-4.47-3.69-3.27-7.49-6.78-11-10.11A12.74,12.74,0,0,0,132.73,255.92Z"/><path class="cls-13" d="M168.71,285.85c1.87,1.46,4,3.1,5.95,4.51a10.31,10.31,0,0,1,.41,2.41c-1.46-.64-2.86-1.3-4.09-1.78-3-2.55-5.73-5-8.63-7.55C164.78,284.23,165.55,283.67,168.71,285.85Z"/><path class="cls-10" d="M42.55,118.18c2.23.35,2.47,3.35,3.6,4.17a199.87,199.87,0,0,0,13.91,27c3,4.88,6.11,9.75,9.2,14.39,1.28.49,2.3,2.65,3.33,2.77C81,178.62,88.17,189.16,98,198.72a240,240,0,0,0,25.64,25.57c2.77,4.85,10.72,8.3,12,12,4.51,1.42,10.67,11.13,12.86,8.46,7.85,5.87,15.19,11.77,24,16.58-.06-1.56,3.81,2.63,5.53,3,3.39,2.31,5.91,2.93,10.43,6,6.18,3.05,11.29,7.15,18.84,11,.53-1.2,5.81,1.8,6.79,1.21,6.71,3,3.42,3.09,7.59,5.81,1.69.82,3.43,1.58,5.16,2.3-.35.38-.69.75-2.09.6,1,1.24,1.7,2.43,2.5,3.58,1.9,1,.15,1.16,0,1.64-5.43-2.6-11-5.44-16.6-8.47-.49-1.05-1.74-2.06-.65-2.06-4.66-2.56-6.47-2.89-10.89-5.19-10.2-6.91-16.56-8.64-26.36-16.32-.37,2-5.75-3.25-8.44-4.24-8.32-7.3-16.15-11.89-24-18.25-2.89-1.77-6.86-6.36-10.58-8.25-2.4-2.54-5.51-6.13-9-8-5.68-5-12.86-12.67-19-19.21l-4.64-5.88c-.94-1.44-2.69-4.11-5.11-5.19-1.91-2.35-3.77-4.7-5.61-7.07-.8-1.45-2.44-4.14-4.64-5.14-2.9-3.67-5.61-7.19-8.12-10.72C73,171,72,169.55,68.48,166l-2.75-3.62c-2.27-4.41-4.5-8.82-6.45-13.21-1.34-1.25-2.44-4.15-4.8-5.8l-1.91-3.57c-.46-1.45-1.42-4.15-3.58-5.67l-.82-1.69C46.06,127.6,44.24,123,42.55,118.18Z"/><path class="cls-13" d="M185.52,277.79c2.18,1.07,1.24-.65,6.68,3.32C186.76,277.14,187.7,278.86,185.52,277.79Z"/><path class="cls-13" d="M209.66,288.72l1.05.6a13.49,13.49,0,0,1,.67,2.4c-2.54-1.22-5.26-2.57-7.74-3.86l-1.93-1.14,1.07.35C205.34,287.76,207.39,288.19,209.66,288.72Z"/><path class="cls-13" d="M212.35,293.58c1.11,1.19,2,2.23,3.19,3.41-2.22-1.19-4.42-2.43-6.38-3.52Z"/><path class="cls-15" d="M118.79,247.26c4.33,2.47,5.12,3.15,8.49,4.64,1.32,1,2.83,2.21,4.09,3.25a12.74,12.74,0,0,0,1.36.77l4,4.32c1.92,1.74,5.56,4.35,5.6,5l-1.73.47c-2.21-1.67-5.29-4.7-6.29-4.91-3.3-2.1-6.71-5.51-10.68-8.22L119,248.29C119.11,248.07,119,247.66,118.79,247.26Z"/><path class="cls-15" d="M169.78,271.25c3.39,2.34,6.74,4.66,10.2,6.92,2.27,1.35,4.34,2.54,6.63,3.83l1.37,1.56c1.55.94,3,1.72,4.58,2.6,1.43,2,2.89,4.13,4.43,6.18-3.55-2.14-7-4.38-10.5-6.65-3.55-1.46-7.61-5.48-9.06-5-3.82-2.68-7.4-5.22-11.1-8-1.63-2-3.2-3.92-5-6C164.29,268.34,167,269.81,169.78,271.25Z"/><path class="cls-14" d="M142.37,265.26c2.28,1.4,4.74,3,7.33,4.47l1.66-.54,5,3.93c3.14,2.18,6.32,4.34,9.73,6.62l1.08.78,6.3,5.51c1.39.38,2.56.59,3.73.8a6.64,6.64,0,0,0-.22-1.18c3.09,1.84,6.16,3.67,9,5.3l-1.15.63-2.09,1.1a2.59,2.59,0,0,1,.28,1.18c7.13,4.58,13.77,8.53,17.56,9.82,3.19,1.71,6.34,3.42,9.6,5l5.56,4.59-1.26,1c-2.83-1.33-5.95-3.42-8.39-4.15A228.37,228.37,0,0,1,186,298.83c-3.65-2.7-5.3-2.66-10.91-6.06a10.31,10.31,0,0,0-.41-2.41c-2-1.41-4.08-3.05-5.95-4.51-3.16-2.18-3.93-1.62-6.36-2.41l-.87-.65-6.33-4.74a4.82,4.82,0,0,1-.4-1.05c-4.52-3.48-8.94-7-13.08-10.42l-1-.85Z"/><path class="cls-15" d="M167.19,280.52c2.89,2,3.84,1.61,9.81,5.13a6.64,6.64,0,0,1,.22,1.18c-1.17-.21-2.34-.42-3.73-.8Z"/><path class="cls-15" d="M184.88,291.58,186,291l5.33,2.39,5.23,4.58c3.12,1.43,4.47,1.69,7.76,3.21a12.55,12.55,0,0,1,1.56,1.88c-1.87-.16-3.76-.34-5.62-.57a3,3,0,0,1,.34,1.24c-3.79-1.29-10.43-5.24-17.56-9.82a2.59,2.59,0,0,0-.28-1.18Z"/><path class="cls-14" d="M269.25,196a40,40,0,0,1-1.17,7A40,40,0,0,0,269.25,196Z"/><path class="cls-14" d="M269.2,183.63l1.61.54a27.71,27.71,0,0,1,.8,6.53,9,9,0,0,1-2.05,1.3A54.92,54.92,0,0,0,269.2,183.63Z"/><path class="cls-14" d="M29.75,35.43l-1.14,1.29a38.12,38.12,0,0,0-2.86,3.83,15.65,15.65,0,0,1-2.53-.23A40.25,40.25,0,0,1,27.85,33c.9-.56,2-1.18,2.95-1.65C30.43,32.64,30,34.08,29.75,35.43Z"/><path class="cls-14" d="M26,106.83c1.18,1.14,3.2,3.59,4.39,9.86,5.61,10.64,8.89,15.42,13.14,23.69l1.2,4.44a42.35,42.35,0,0,0-3.28-3.36,242,242,0,0,1-12-23.34,4,4,0,0,0,0-.88c-1.45-3.42-3-7.1-4.25-10.7Z"/><path class="cls-14" d="M47.6,147.85c1.54,2.76,3.24,5.7,4.91,8.44,1.76.47,3.28,5.1,5.32,6.81l3.31,6.27c-3.26-4.12-5.6-4.63-10.39-13.39a33.85,33.85,0,0,1-3.15-4.8l-1.89-4.58A14.53,14.53,0,0,0,47.6,147.85Z"/><path class="cls-14" d="M80.62,187.41c1.55,1.68,3.21,3.54,4.87,5.19a1.62,1.62,0,0,1-.51.91c-.9-.2-3-1.89-5.53-6.15Z"/><path class="cls-14" d="M191.36,293.34l6.77,2.47,6.78,4.94-.56.38c-3.29-1.52-4.64-1.78-7.76-3.21Z"/><path class="cls-10" d="M201.58,92c-.44-.54-.83-1.11-1.45-1.81C200.75,90.86,201.14,91.43,201.58,92Z"/><path class="cls-10" d="M41.51,17.77a4.86,4.86,0,0,0,1.26.38A4.86,4.86,0,0,1,41.51,17.77Z"/><path class="cls-10" d="M30.4,78.64c2.12,2.3,1.65,5.33,2.69,6.82.51.4,1.9,5.26,0,3.91.75,1.82,1.43,3.26,2.19,4.88.62,1.89.69,4.07,1.81,5.49.74.11.93,2.48,1.46,3.64-1.56-.41.78,4.05.69,5.82-.83-.12-2.42-4-3.15-5.08l-3.25-7.57a10.88,10.88,0,0,0-.68-1.11c-.08-2.2,0-4.34.06-6.45A95.1,95.1,0,0,1,30.4,78.64Z"/><path class="cls-13" d="M263.27,171.52a6.27,6.27,0,0,0-2,2.28,16.2,16.2,0,0,1,.34,5.66c-.25-.08-.5-.16-.76-.22-.66-2.28-1.43-4.74-2.25-7-.08-2.08-.14-4.16-.37-6.29C260,167.78,261.66,169.62,263.27,171.52Z"/><path class="cls-13" d="M263.7,171.62l-.43-.1Z"/><path class="cls-13" d="M202.61,295.36a9.61,9.61,0,0,0,1.61.31A9.61,9.61,0,0,1,202.61,295.36Z"/><path class="cls-14" d="M60.17,192.34c2.91,3.84,6.09,7.87,9.18,11.67a15,15,0,0,1-5.5-4.9C60.39,195.62,61.52,194.34,60.17,192.34Z"/><path class="cls-10" d="M39.21,109.2c2.86,3.77,3.44,6.85,3.34,9-.64-.86-2.48-2.27-3-4.92Z"/></g></g></g></g></g></svg>