<svg xmlns="http://www.w3.org/2000/svg" xmlns:xlink="http://www.w3.org/1999/xlink" viewBox="0 0 96.9 105.89"><defs><style>.cls-1{mask:url(#mask);filter:url(#luminosity-noclip-2);}.cls-2{mix-blend-mode:multiply;fill:url(#linear-gradient);}.cls-3{fill:#edb656;}.cls-4{opacity:0.2;}.cls-5{fill:#0cb0c1;}.cls-6{fill:#ffd685;}.cls-7{fill:#d3b94f;}.cls-8{fill:#d69630;}.cls-9{fill:#007272;}.cls-10{mask:url(#mask-2);}.cls-11{fill:url(#linear-gradient-2);}.cls-12{fill:#fff;opacity:0.7;}.cls-13{filter:url(#luminosity-noclip);}</style><filter id="luminosity-noclip" x="11.44" y="-8174.02" width="78.19" height="32766" filterUnits="userSpaceOnUse" color-interpolation-filters="sRGB"><feFlood flood-color="#fff" result="bg"/><feBlend in="SourceGraphic" in2="bg"/></filter><mask id="mask" x="11.44" y="-8174.02" width="78.19" height="32766" maskUnits="userSpaceOnUse"><g class="cls-13"/></mask><linearGradient id="linear-gradient" x1="42.65" y1="-7.15" x2="108.84" y2="44.35" gradientTransform="translate(-10.39 30.16) rotate(11.88)" gradientUnits="userSpaceOnUse"><stop offset="0"/><stop offset="0.12" stop-color="#030303"/><stop offset="0.23" stop-color="#0e0e0e"/><stop offset="0.33" stop-color="#202020"/><stop offset="0.43" stop-color="#393939"/><stop offset="0.53" stop-color="#5a5a5a"/><stop offset="0.61" stop-color="#7a7a7a"/><stop offset="1" stop-color="#fff"/></linearGradient><filter id="luminosity-noclip-2" x="11.44" y="18.3" width="78.19" height="73.66" filterUnits="userSpaceOnUse" color-interpolation-filters="sRGB"><feFlood flood-color="#fff" result="bg"/><feBlend in="SourceGraphic" in2="bg"/></filter><mask id="mask-2" x="11.44" y="18.3" width="78.19" height="73.66" maskUnits="userSpaceOnUse"><g class="cls-1"><path class="cls-2" d="M69,18.3A39.14,39.14,0,0,1,21.86,59.62a39.4,39.4,0,0,1-10.42-3.8A39.15,39.15,0,1,0,69,18.3Z"/></g></mask><linearGradient id="linear-gradient-2" x1="42.65" y1="-7.15" x2="108.84" y2="44.35" gradientTransform="translate(-10.39 30.16) rotate(11.88)" gradientUnits="userSpaceOnUse"><stop offset="0"/><stop offset="0.57"/><stop offset="0.61"/><stop offset="1" stop-color="#404040"/></linearGradient></defs><g id="Calque_2" data-name="Calque 2"><g id="Layer_2" data-name="Layer 2"><path class="cls-3" d="M21.83,10.18a6.61,6.61,0,1,1-5.11-7.83A6.6,6.6,0,0,1,21.83,10.18Z"/><path class="cls-4" d="M18.28,2.91a6.62,6.62,0,0,1-7,10,6.89,6.89,0,0,1-1.58-.56,6.61,6.61,0,1,0,8.57-9.4Z"/><path class="cls-5" d="M83.44,100.61a6.61,6.61,0,1,1-5.11-7.83A6.62,6.62,0,0,1,83.44,100.61Z"/><path class="cls-4" d="M80,93.36a6.5,6.5,0,0,1,.85,4.83A6.61,6.61,0,0,1,73,103.31a6.72,6.72,0,0,1-1.58-.56A6.61,6.61,0,1,0,80,93.36Z"/><path class="cls-6" d="M10.36,84.87a5.24,5.24,0,1,1-4-6.2A5.24,5.24,0,0,1,10.36,84.87Z"/><path class="cls-4" d="M7.61,79.14A5.2,5.2,0,0,1,8.28,83,5.23,5.23,0,0,1,2.08,87a5.3,5.3,0,0,1-1.25-.44,5.23,5.23,0,1,0,6.78-7.43Z"/><path class="cls-5" d="M36.94,6.32a5.23,5.23,0,1,1-4-6.21A5.23,5.23,0,0,1,36.94,6.32Z"/><path class="cls-4" d="M34.19.58a5.17,5.17,0,0,1,.68,3.83,5.23,5.23,0,0,1-6.2,4A5,5,0,0,1,27.41,8,5.23,5.23,0,1,0,34.19.58Z"/><path class="cls-6" d="M48,3.68a3.28,3.28,0,1,1-4.55-1A3.28,3.28,0,0,1,48,3.68Z"/><path class="cls-4" d="M44.23,2.37a3.28,3.28,0,0,1,1,6,3.23,3.23,0,0,1-.75.36,3.29,3.29,0,1,0-.29-6.31Z"/><path class="cls-6" d="M13,23.33a3.29,3.29,0,1,1-4.55-.95A3.28,3.28,0,0,1,13,23.33Z"/><path class="cls-4" d="M9.22,22a3.3,3.3,0,0,1,1,6,3.39,3.39,0,0,1-.75.35A3.28,3.28,0,1,0,9.22,22Z"/><path class="cls-5" d="M9.45,66.55a3.29,3.29,0,1,1-4.55-1A3.29,3.29,0,0,1,9.45,66.55Z"/><path class="cls-4" d="M5.71,65.26a3.29,3.29,0,0,1,1,5.95,2.93,2.93,0,0,1-.76.36,3.29,3.29,0,1,0-.29-6.31Z"/><path class="cls-3" d="M23.11,90.37a3.28,3.28,0,1,1-4.55-1A3.27,3.27,0,0,1,23.11,90.37Z"/><path class="cls-4" d="M19.31,89.07a3.28,3.28,0,0,1,1,6,3.69,3.69,0,0,1-.75.36,3.28,3.28,0,0,0,3.51-5A3.28,3.28,0,0,0,19.31,89.07Z"/><path class="cls-5" d="M41.37,96.93a3.29,3.29,0,1,1-4.55-1A3.28,3.28,0,0,1,41.37,96.93Z"/><path class="cls-4" d="M37.57,95.63a3.28,3.28,0,0,1,1,6,3.69,3.69,0,0,1-.75.36,3.29,3.29,0,1,0-.29-6.31Z"/><path class="cls-5" d="M89.56,85.09a3.29,3.29,0,1,1-4.55-1A3.29,3.29,0,0,1,89.56,85.09Z"/><path class="cls-4" d="M85.82,83.8a3.21,3.21,0,0,1,2,1.4,3.28,3.28,0,0,1-1,4.55,3.23,3.23,0,0,1-.75.36,3.29,3.29,0,1,0-.29-6.31Z"/><path class="cls-3" d="M90.29,17.07a3.28,3.28,0,1,1-4.55-.95A3.3,3.3,0,0,1,90.29,17.07Z"/><path class="cls-7" d="M87.78,16.83a.26.26,0,0,1,.36.08.25.25,0,0,1-.08.36Z"/><path class="cls-4" d="M86.56,15.78a3.29,3.29,0,0,1,1,6,3.34,3.34,0,0,1-.76.37,3.35,3.35,0,0,0,2.56-.45,3.29,3.29,0,0,0-2.84-5.87Z"/><path class="cls-6" d="M96.37,31.3a3.29,3.29,0,1,1-4.55-.95A3.29,3.29,0,0,1,96.37,31.3Z"/><path class="cls-4" d="M92.56,30a3.25,3.25,0,0,1,2,1.4,3.3,3.3,0,0,1-1,4.55,3.5,3.5,0,0,1-.76.36A3.29,3.29,0,1,0,92.56,30Z"/><path class="cls-8" d="M15,46.57C29.54,68.88,59.9,75.27,84.32,66.82A8.17,8.17,0,0,1,87,67a39.45,39.45,0,0,0,1.43-4.47C62.54,71.1,35.82,67.7,17.61,44.86A6.22,6.22,0,0,0,13,41.37c-.33,1.1-.62,2.23-.86,3.38-.06.3-.11.6-.17.9C13.31,45.69,14.45,45.75,15,46.57Z"/><path class="cls-6" d="M11.67,57.92a39.11,39.11,0,0,0,5.19,14.93c20-1.14,41.7-.42,60.41,8.45a38.87,38.87,0,0,0,5.61-6.57C59.11,72.08,31.56,72.2,11.67,57.92Z"/><path class="cls-3" d="M84.32,66.82C59.9,75.27,29.54,68.88,15,46.57c-.54-.82-1.68-.88-3-.92a39,39,0,0,0-.32,12.27C31.56,72.2,59.11,72.08,82.88,74.73A38,38,0,0,0,87,67,8.17,8.17,0,0,0,84.32,66.82Z"/><path class="cls-3" d="M16.86,72.85c.42.69.84,1.37,1.3,2,18.43-.91,39.65.3,55.29,9.59a38.55,38.55,0,0,0,3.82-3.18C58.56,72.43,36.86,71.71,16.86,72.85Z"/><path class="cls-8" d="M38.74,90.14c1.2.37,2.42.71,3.67,1a38.55,38.55,0,0,0,10.38.74C48.76,89,43.46,87.84,38.74,90.14Z"/><path class="cls-3" d="M33.53,88.1a38.06,38.06,0,0,0,5.21,2c4.72-2.3,10-1.14,14,1.72a40.61,40.61,0,0,0,5.53-.73A26.18,26.18,0,0,0,33.53,88.1Z"/><path class="cls-6" d="M58.32,91.13a39.12,39.12,0,0,0,7.17-2.19C54.28,81.74,39,80.6,25.83,83.22a38.32,38.32,0,0,0,7.7,4.88A26.18,26.18,0,0,1,58.32,91.13Z"/><path class="cls-5" d="M18.16,74.89a39.12,39.12,0,0,0,7.67,8.33C39,80.6,54.28,81.74,65.49,88.94a39.59,39.59,0,0,0,8-4.46C57.81,75.19,36.59,74,18.16,74.89Z"/><path class="cls-5" d="M17.61,44.86C35.82,67.7,62.54,71.1,88.39,62.49q.21-.81.39-1.62A39,39,0,0,0,89,46c-20.53,19.71-46.53.38-64.79-11.08a20,20,0,0,0-7-2.81A39.19,39.19,0,0,0,13,41.37,6.22,6.22,0,0,1,17.61,44.86Z"/><path class="cls-8" d="M85,34.38c-.48-.9-1-1.78-1.54-2.64C68.54,39.72,47,32,35.7,18.1a6.73,6.73,0,0,0-1.25-1,40,40,0,0,0-6.83,3.95C45.31,31.49,63.94,45,85,34.38Z"/><path class="cls-3" d="M86.69,38.1A39.21,39.21,0,0,0,85,34.38C63.94,45,45.31,31.49,27.62,21.06c-.93.67-1.83,1.39-2.71,2.14C44.33,32.07,67.16,50.35,86.69,38.1Z"/><path class="cls-6" d="M88.5,43.6a40.22,40.22,0,0,0-1.81-5.5c-19.53,12.25-42.36-6-61.78-14.9a38.35,38.35,0,0,0-5.14,5.36C40,38,66.79,56.22,88.5,43.6Z"/><path class="cls-3" d="M19.77,28.56a37.69,37.69,0,0,0-2.55,3.56,20,20,0,0,1,7,2.81C42.49,46.39,68.49,65.72,89,46c-.14-.81-.32-1.61-.52-2.41C66.79,56.22,40,38,19.77,28.56Z"/><path class="cls-5" d="M76.68,23.73c-5,.69-10.44.38-15.19.93-9.63.88-14.62-4.72-20.35-9.86a38.88,38.88,0,0,0-6.69,2.31,6.73,6.73,0,0,1,1.25,1C47,32,68.54,39.72,83.42,31.74A39.37,39.37,0,0,0,76.68,23.73Z"/><path class="cls-8" d="M71.21,19.62c-7.67,5.35-18.55-.87-26.42-5.53-1.23.18-2.45.41-3.65.71,5.73,5.14,10.72,10.74,20.35,9.86,4.75-.55,10.24-.24,15.19-.93A38.7,38.7,0,0,0,71.21,19.62Z"/><path class="cls-6" d="M67.59,17.61a38.92,38.92,0,0,0-9.06-3.11,38,38,0,0,0-6.64-.8C56.45,17.8,62.65,22.26,67.59,17.61Z"/><path class="cls-3" d="M67.59,17.61c-4.94,4.65-11.14.19-15.7-3.91a39,39,0,0,0-7.1.39C52.66,18.75,63.54,25,71.21,19.62A41.17,41.17,0,0,0,67.59,17.61Z"/><path class="cls-9" d="M24.15,39.82c-.17.8-1.28,1.24-2.48,1s-2-1.1-1.86-1.9,1.28-1.24,2.47-1S24.31,39,24.15,39.82Z"/><path class="cls-9" d="M41.3,49.75c-.16.8-1.27,1.25-2.47,1s-2-1.1-1.86-1.9,1.27-1.24,2.47-1S41.47,49,41.3,49.75Z"/><path class="cls-9" d="M61.89,59.56c-.17.79-1.28,1.24-2.47,1s-2-1.11-1.87-1.91,1.28-1.24,2.47-1S62.06,58.76,61.89,59.56Z"/><path class="cls-9" d="M80.07,59.7c-.17.8-1.28,1.24-2.48,1s-2-1.1-1.86-1.9,1.27-1.24,2.47-1S80.23,58.9,80.07,59.7Z"/><path class="cls-9" d="M60.94,28.6c-.16.8-1.27,1.24-2.47,1s-2-1.11-1.86-1.9,1.27-1.25,2.47-1S61.11,27.8,60.94,28.6Z"/><path class="cls-9" d="M72.19,30.11c-.06.29-.46.44-.88.35s-.72-.39-.66-.67.45-.44.88-.35S72.24,29.83,72.19,30.11Z"/><path class="cls-9" d="M78.35,27.73c-.06.28-.45.44-.88.35s-.72-.39-.66-.67.45-.44.88-.35S78.41,27.45,78.35,27.73Z"/><path class="cls-9" d="M44.81,23.88c-.06.29-.45.44-.87.35s-.72-.39-.66-.67.45-.44.87-.35S44.87,23.6,44.81,23.88Z"/><path class="cls-9" d="M48.94,23.53c-.06.28-.45.44-.87.35s-.72-.39-.66-.68.45-.44.88-.35S49,23.24,48.94,23.53Z"/><path class="cls-9" d="M39.31,17.73c-.06.28-.45.44-.87.35s-.72-.4-.66-.68.45-.43.87-.35S39.37,17.44,39.31,17.73Z"/><path class="cls-9" d="M19.13,42.79c-.06.29-.45.44-.87.35s-.72-.39-.66-.67.45-.44.87-.35S19.19,42.51,19.13,42.79Z"/><path class="cls-9" d="M28.58,40.47c-.06.29-.45.44-.87.35s-.72-.39-.66-.67.45-.44.88-.35S28.64,40.19,28.58,40.47Z"/><path class="cls-9" d="M30.74,47.72c-.06.28-.45.44-.88.35s-.72-.39-.66-.67.46-.44.88-.35S30.8,47.44,30.74,47.72Z"/><path class="cls-9" d="M26.74,49.24c-.06.28-.45.44-.87.35s-.73-.39-.67-.68.46-.44.88-.35S26.8,49,26.74,49.24Z"/><path class="cls-9" d="M40.2,53.86c-.05.28-.45.44-.87.35s-.72-.39-.66-.67.45-.44.87-.35S40.26,53.58,40.2,53.86Z"/><path class="cls-9" d="M37.39,45.25c-.06.28-.45.44-.87.35s-.72-.39-.66-.67.45-.44.87-.35S37.45,45,37.39,45.25Z"/><path class="cls-9" d="M38.72,56.85c0,.29-.45.44-.87.35s-.72-.39-.66-.67.45-.44.88-.35S38.78,56.57,38.72,56.85Z"/><path class="cls-9" d="M49,57.61c-.06.28-.45.44-.87.35s-.73-.39-.67-.68.46-.43.88-.34S49.1,57.33,49,57.61Z"/><path class="cls-9" d="M54.33,64.76c-.06.28-.45.44-.88.35s-.72-.39-.66-.67.46-.44.88-.36S54.39,64.48,54.33,64.76Z"/><path class="cls-9" d="M38.22,76.28c0,.28-.45.44-.87.35s-.72-.39-.66-.68.45-.43.87-.35S38.28,76,38.22,76.28Z"/><path class="cls-9" d="M22.21,76.59c-.06.28-.45.44-.87.35s-.72-.39-.66-.68.45-.43.87-.35S22.27,76.31,22.21,76.59Z"/><path class="cls-9" d="M46.88,79.52c-.05.28-.45.43-.87.34s-.72-.38-.66-.67.45-.44.87-.35S46.94,79.23,46.88,79.52Z"/><path class="cls-9" d="M49.41,81c-.06.29-.46.45-.88.36s-.72-.39-.66-.68.45-.43.87-.34S49.46,80.7,49.41,81Z"/><path class="cls-9" d="M55.17,81.83c-.06.28-.45.44-.87.35s-.72-.4-.66-.68.45-.44.87-.35S55.23,81.54,55.17,81.83Z"/><path class="cls-9" d="M54.77,78.82c-.06.28-.45.43-.88.34s-.72-.38-.66-.67.45-.44.88-.35S54.83,78.53,54.77,78.82Z"/><path class="cls-9" d="M63.42,81.2c-.06.29-.45.44-.88.35s-.72-.39-.66-.67.46-.44.88-.35S63.48,80.92,63.42,81.2Z"/><path class="cls-9" d="M66.52,86.66c-.06.29-.46.44-.88.35s-.72-.39-.66-.67.45-.44.87-.35S66.57,86.38,66.52,86.66Z"/><path class="cls-9" d="M31.7,76.79c-.06.29-.45.44-.88.35s-.72-.39-.65-.67.45-.44.87-.35S31.76,76.51,31.7,76.79Z"/><path class="cls-9" d="M39.9,80.41c-.06.28-.45.44-.87.35s-.72-.39-.66-.67.45-.45.87-.36S40,80.12,39.9,80.41Z"/><path class="cls-9" d="M40.34,78.77c-.06.28-.45.44-.87.35s-.73-.39-.66-.67.45-.45.87-.36S40.4,78.49,40.34,78.77Z"/><path class="cls-9" d="M55.75,60.72c-.06.28-.46.44-.88.35s-.72-.39-.66-.68.45-.44.87-.35S55.81,60.43,55.75,60.72Z"/><path class="cls-9" d="M65.11,56.56c-.06.28-.45.44-.87.35s-.72-.39-.66-.68.45-.44.87-.35S65.17,56.27,65.11,56.56Z"/><path class="cls-9" d="M67.12,58.2c-.06.29-.45.44-.87.35s-.72-.39-.66-.67.45-.44.87-.35S67.18,57.92,67.12,58.2Z"/><path class="cls-9" d="M88.36,50.12c-.06.29-.46.44-.88.35s-.72-.39-.66-.67.45-.44.88-.35S88.42,49.84,88.36,50.12Z"/><path class="cls-9" d="M85.34,56.37c-.06.29-.45.45-.87.36s-.73-.39-.66-.68.45-.44.87-.35S85.4,56.09,85.34,56.37Z"/><path class="cls-9" d="M77.82,63.66c-.06.28-.64.4-1.29.27s-1.12-.48-1.06-.76.63-.4,1.28-.27S77.88,63.38,77.82,63.66Z"/><path class="cls-9" d="M25.27,45.48c-.11.53-.84.82-1.62.65s-1.34-.72-1.23-1.25.84-.81,1.63-.65S25.38,45,25.27,45.48Z"/><path class="cls-9" d="M32.24,43.74c-.11.52-.84.81-1.63.65s-1.33-.72-1.22-1.25.84-.81,1.62-.65S32.35,43.22,32.24,43.74Z"/><path class="cls-9" d="M32.28,53.85c-.11.52-.83.81-1.62.65s-1.34-.73-1.23-1.25.84-.82,1.63-.65S32.39,53.32,32.28,53.85Z"/><path class="cls-9" d="M46.08,54.2c-.12.52-.84.82-1.63.65s-1.33-.73-1.22-1.25.84-.81,1.62-.65S46.19,53.68,46.08,54.2Z"/><path class="cls-9" d="M49.18,62.31c-.11.52-.83.81-1.62.65s-1.33-.73-1.22-1.25.83-.82,1.62-.65S49.29,61.78,49.18,62.31Z"/><path class="cls-9" d="M54.49,56.35c-.11.52-.83.81-1.62.65s-1.33-.73-1.22-1.25.83-.81,1.62-.65S54.6,55.83,54.49,56.35Z"/><path class="cls-9" d="M73.52,58.75c-.11.52-.84.81-1.62.65s-1.34-.73-1.23-1.25.84-.82,1.63-.65S73.63,58.22,73.52,58.75Z"/><path class="cls-9" d="M86.82,53c-.11.52-.84.81-1.63.65s-1.33-.73-1.22-1.25.84-.81,1.62-.65S86.93,52.43,86.82,53Z"/><path class="cls-9" d="M85.43,61c-.11.52-.84.81-1.63.65s-1.33-.73-1.22-1.25.84-.81,1.62-.65S85.54,60.49,85.43,61Z"/><path class="cls-9" d="M63.12,64.35c-.11.52-.84.81-1.62.65s-1.33-.73-1.22-1.25.83-.82,1.62-.65S63.23,63.82,63.12,64.35Z"/><path class="cls-9" d="M75.09,26.76c-.12.53-.84.82-1.63.65s-1.33-.72-1.22-1.25.84-.81,1.62-.65S75.2,26.24,75.09,26.76Z"/><path class="cls-9" d="M66.39,32.2c-.11.52-.83.81-1.62.65s-1.34-.73-1.22-1.25.83-.82,1.62-.65S66.5,31.67,66.39,32.2Z"/><path class="cls-9" d="M67.64,26.7c-.11.53-.83.82-1.62.65s-1.33-.72-1.22-1.24.83-.82,1.62-.65S67.75,26.18,67.64,26.7Z"/><path class="cls-9" d="M78.3,31.21c-.11.53-.84.82-1.62.65s-1.34-.72-1.23-1.25.84-.81,1.62-.65S78.41,30.69,78.3,31.21Z"/><path class="cls-9" d="M44.14,19.59c-.11.52-.84.82-1.63.65s-1.33-.72-1.22-1.25.84-.81,1.62-.65S44.25,19.07,44.14,19.59Z"/><path class="cls-9" d="M52,27.47c-.11.53-.84.82-1.63.65s-1.33-.72-1.22-1.25.84-.81,1.62-.64S52.12,27,52,27.47Z"/><path class="cls-9" d="M26.72,76.78c-.11.53-.83.82-1.62.66s-1.33-.73-1.22-1.25.84-.82,1.62-.66S26.83,76.26,26.72,76.78Z"/><path class="cls-9" d="M36.42,79.58c-.11.52-.84.81-1.62.65S33.46,79.5,33.57,79s.84-.82,1.63-.65S36.53,79.06,36.42,79.58Z"/><path class="cls-9" d="M51.75,78.93c-.11.53-.84.82-1.63.65s-1.33-.72-1.22-1.25.84-.81,1.62-.65S51.86,78.41,51.75,78.93Z"/><path class="cls-9" d="M62.25,84.16c-.11.53-.84.82-1.62.65s-1.33-.72-1.22-1.25.83-.81,1.62-.64S62.36,83.64,62.25,84.16Z"/><path class="cls-9" d="M59.74,80.43c-.11.52-.84.81-1.62.65s-1.34-.73-1.23-1.25.84-.82,1.62-.65S59.85,79.9,59.74,80.43Z"/><path class="cls-9" d="M67.43,84.31c-.07.37-.59.58-1.15.46s-1-.51-.88-.89.6-.58,1.16-.46S67.51,83.94,67.43,84.31Z"/><path class="cls-9" d="M44.44,77.59c-.08.37-.6.58-1.16.46s-1-.52-.88-.89.6-.59,1.16-.47S44.52,77.21,44.44,77.59Z"/><path class="cls-9" d="M25.44,79.06c-.08.38-.59.58-1.15.47s-1-.52-.88-.9.6-.58,1.16-.46S25.52,78.69,25.44,79.06Z"/><path class="cls-9" d="M29.21,81.36c-.08.38-.6.59-1.16.47s-1-.52-.88-.9.6-.58,1.16-.46S29.28,81,29.21,81.36Z"/><path class="cls-9" d="M34.13,56.17c-.08.37-.6.58-1.16.46s-.95-.51-.87-.89.59-.58,1.16-.46S34.21,55.8,34.13,56.17Z"/><path class="cls-9" d="M35.06,52.21c-.08.38-.6.58-1.16.47s-1-.52-.88-.9.6-.58,1.16-.46S35.13,51.84,35.06,52.21Z"/><path class="cls-9" d="M18.92,37.87c-.08.38-.6.59-1.16.47s-1-.52-.88-.89.6-.58,1.16-.47S19,37.5,18.92,37.87Z"/><path class="cls-9" d="M49.1,53.19c-.08.37-.6.58-1.16.46s-.95-.52-.88-.89.6-.58,1.16-.47S49.18,52.81,49.1,53.19Z"/><path class="cls-9" d="M69.58,62.12c-.08.37-.6.58-1.16.46s-1-.51-.87-.89.59-.58,1.16-.46S69.66,61.74,69.58,62.12Z"/><path class="cls-9" d="M73.42,61.8c-.08.37-.6.58-1.16.46s-1-.52-.87-.89.6-.58,1.16-.47S73.5,61.42,73.42,61.8Z"/><path class="cls-9" d="M82.47,55.11c-.08.38-.6.58-1.16.46s-1-.51-.87-.89.6-.58,1.16-.46S82.55,54.74,82.47,55.11Z"/><path class="cls-9" d="M87.92,58.33c-.07.38-.59.59-1.15.47s-1-.52-.88-.89.6-.59,1.16-.47S88,58,87.92,58.33Z"/><path class="cls-9" d="M41.67,60.68c-.08.38-.6.58-1.16.46s-.95-.51-.87-.89.6-.58,1.16-.46S41.75,60.31,41.67,60.68Z"/><path class="cls-9" d="M20.37,35.58c-.11.53-.84.82-1.62.65s-1.34-.72-1.23-1.25.84-.81,1.62-.65S20.48,35.06,20.37,35.58Z"/><g class="cls-10"><path class="cls-11" d="M69,18.3A39.14,39.14,0,0,1,21.86,59.62a39.4,39.4,0,0,1-10.42-3.8A39.15,39.15,0,1,0,69,18.3Z"/></g><path class="cls-12" d="M43.31,22.5c.83,1.77-1,4.37-4,5.81s-6.21,1.17-7-.59,1-4.36,4-5.8S42.47,20.74,43.31,22.5Z"/></g></g></svg>