<svg xmlns="http://www.w3.org/2000/svg" xmlns:xlink="http://www.w3.org/1999/xlink" viewBox="0 0 224.57 209.73"><defs><style>.cls-1{mask:url(#mask);filter:url(#luminosity-noclip-2);}.cls-2{mix-blend-mode:multiply;fill:url(#linear-gradient);}.cls-3{fill:#ffde3e;}.cls-4{fill:#fff8c2;}.cls-5{fill:#fff39c;}.cls-6{fill:#ffeb73;}.cls-7{fill:#ffbe06;}.cls-8{fill:#ffc533;}.cls-9{fill:#ff7415;}.cls-12,.cls-9{opacity:0.5;}.cls-10{fill:#fff;opacity:0.7;}.cls-11{fill:#ff8500;}.cls-12{fill:#fffa94;}.cls-13{mask:url(#mask-2);}.cls-14{fill:url(#linear-gradient-2);}.cls-15{filter:url(#luminosity-noclip);}</style><filter id="luminosity-noclip" x="56.09" y="-7982.19" width="132.21" height="32766" filterUnits="userSpaceOnUse" color-interpolation-filters="sRGB"><feFlood flood-color="#fff" result="bg"/><feBlend in="SourceGraphic" in2="bg"/></filter><mask id="mask" x="56.09" y="-7982.19" width="132.21" height="32766" maskUnits="userSpaceOnUse"><g class="cls-15"/></mask><linearGradient id="linear-gradient" x1="116.94" y1="102.5" x2="184.6" y2="155.13" gradientUnits="userSpaceOnUse"><stop offset="0"/><stop offset="1" stop-color="#fff"/></linearGradient><filter id="luminosity-noclip-2" x="56.09" y="40.77" width="132.21" height="132.22" filterUnits="userSpaceOnUse" color-interpolation-filters="sRGB"><feFlood flood-color="#fff" result="bg"/><feBlend in="SourceGraphic" in2="bg"/></filter><mask id="mask-2" x="56.09" y="40.77" width="132.21" height="132.22" maskUnits="userSpaceOnUse"><g class="cls-1"><path class="cls-2" d="M139.77,40.77a67.48,67.48,0,0,1-83.68,83.69,67.46,67.46,0,1,0,83.68-83.69Z"/></g></mask><linearGradient id="linear-gradient-2" x1="116.94" y1="102.5" x2="184.6" y2="155.13" gradientUnits="userSpaceOnUse"><stop offset="0" stop-color="#ff3b00"/><stop offset="1" stop-color="#ff8d00"/></linearGradient></defs><g id="Calque_2" data-name="Calque 2"><g id="Layer_2" data-name="Layer 2"><path class="cls-3" d="M195.48,79.24a80.66,80.66,0,0,0-3.69-9c-1.4-2.91,12.18-16.87,10.45-19.58-1.29-2-17.84,7.19-19.3,5.3a80.59,80.59,0,0,0-6.88-7.77c-1.45-1.45,9.68-23.68,8.12-25-4.05-3.45-21.08,14.35-25.76,11.75-2.34-1.3-1.62-13.44-4.09-14.5-2-.84-7.11,9.34-9.16,8.66q-3.4-1.16-6.94-2c-1.39-.34-.54-18.59-2-18.85-2.73-.49-7.77,17.12-10.58,16.9-2-.14-4-.22-6-.22-2.51,0-6.92-16.11-9.35-15.89-4.71.44-7.37,17.52-11.8,18.74a78.3,78.3,0,0,0-7.72,2.54c-2.76,1.07-12-12.43-14.65-11.07-3.05,1.6.59,18.1-2.22,20.06q-2.1,1.47-4.1,3.06C68.37,43.55,54.41,34.84,53,36.13c-2.63,2.41,7.43,14.95,5.15,17.7-1.67,2-3.25,4.11-4.72,6.28-.82,1.21-24.42-14.24-25.17-13-1.18,2,20.54,20.66,19.53,22.73s-2,4.28-2.84,6.49c-.7,1.83-14.54.31-15.12,2.2-.62,2.06,12,7.54,11.59,9.67s-16.4,1-16.69,3.29c-.19,1.55,15.19,6.65,15.09,8.22-.11,1.73-.17,3.48-.17,5.23,0,1.08-14.57,4.33-14.53,5.4.08,2,14.85,1.89,15.08,3.89.19,1.6.42,3.17.7,4.74.4,2.27-20.29,12.73-19.71,14.94.47,1.73,22.19-4.78,22.76-3.09.34,1,.7,2,1.08,3q1.08,2.77,2.35,5.45c.94,2-13.92,11.23-12.83,13.11.78,1.36,17.49-4.63,18.35-3.32,1.17,1.77,2.41,3.48,3.71,5.15,1.44,1.85-8,15.3-6.36,17,1.4,1.5,13.77-8.74,15.28-7.35a79.14,79.14,0,0,0,6.64,5.48c.67.5-5.32,19.85-4.64,20.33,4.28,2.95,15.54-13.35,20.37-11.26q3,1.29,6,2.33c1.79.61-1.54,18.66.31,19.14,2.8.73,10.83-16.18,13.74-15.75a80.7,80.7,0,0,0,11.71.84c3.2,0,8.74,23.52,11.85,23.15,1.51-.18.62-24.1,2.09-24.36q3.72-.66,7.31-1.65c1.18-.32,10.65,14.61,11.81,14.23,2.3-.75-3.74-16.89-1.53-17.84a76.13,76.13,0,0,0,7.94-3.94c4.29-2.44,18.11,6.88,21.86,3.72,1.71-1.44-6.44-15.08-4.87-16.65A79.12,79.12,0,0,0,182.1,155c1.59-2,29,5.75,30.35,3.62,1.77-2.69-22.49-15.26-21-18.16A79,79,0,0,0,196.92,126c.55-2,16.71,1,17.1-1.07.58-3.08-14.69-11.33-14.48-14.53.12-1.78.19-3.58.19-5.4,0-3.79,18.34-10.59,17.82-14.24-.39-2.79-19.53-2.45-20.2-5.14Q196.54,82.35,195.48,79.24Z"/><path class="cls-4" d="M149.94,56.11a41.46,41.46,0,0,0,13.47-2.52A67.43,67.43,0,0,0,95.36,42C110.67,53.78,131.81,57.51,149.94,56.11Z"/><path class="cls-5" d="M169,65.66a19.57,19.57,0,0,1,4-2,68.2,68.2,0,0,0-9.6-10.06,41.46,41.46,0,0,1-13.47,2.52c-18.13,1.4-39.27-2.33-54.58-14.08A67.6,67.6,0,0,0,74,55.32C101,76.68,134.27,85.52,169,65.66Z"/><path class="cls-6" d="M183.58,83.28A67.3,67.3,0,0,0,173,63.65a19.57,19.57,0,0,0-4,2c-34.76,19.86-68.08,11-95-10.34A67,67,0,0,0,61.86,70.27c15.83,5.23,26.28,22,42.25,27.85C134.4,111.1,159.25,99,183.58,83.28Z"/><path class="cls-7" d="M86.92,149.68c-11.2-6.23-20-16.51-31.07-22.91A67.49,67.49,0,0,0,146.28,167C126,168.11,104.73,161.2,86.92,149.68Z"/><path class="cls-8" d="M184.8,122.65C149.35,145,99.41,140.89,64,109.58c-3.33-2.5-7.4-2.45-11.72-1.93a67.52,67.52,0,0,0,3.56,19.12c11.1,6.4,19.87,16.68,31.07,22.91C104.73,161.2,126,168.11,146.28,167A67.66,67.66,0,0,0,184.8,122.65Z"/><path class="cls-3" d="M64,109.58c35.4,31.31,85.34,35.42,120.79,13.07a67.68,67.68,0,0,0-1.22-39.37C159.25,99,134.4,111.1,104.11,98.12c-16-5.8-26.42-22.62-42.25-27.85A67,67,0,0,0,52.23,105c0,.91,0,1.81.06,2.7C56.61,107.13,60.68,107.08,64,109.58Z"/><path class="cls-9" d="M90.42,66.47C90.42,70,91.6,79,87.64,80.7a17.67,17.67,0,0,1-6.94,1.38c-3.3,0-17.38,8.53-17.68-.3-.09-3,7.6-15.3,10.61-17.08,2.34-1.39,11.49-17.09,20-16.79C107.93,48.4,90.42,62.88,90.42,66.47Z"/><path class="cls-9" d="M131.19,55.82c-2.74,2.25-8.49,7.16-12.78,6.86-8.85-.63-3.71-8.09-5.31-10.06C111,50.07,95.34,50.12,102,44.3c2.27-2,16.44-4.34,19.93-4.34,5,0,19.57.85,24.74,7.65C155.33,59,134,53.55,131.19,55.82Z"/><path class="cls-10" d="M85.53,64.3c2.57,2.2,1.56,7.58-2.25,12s-9,6.27-11.53,4.08-1.56-7.59,2.24-12S83,62.11,85.53,64.3Z"/><path class="cls-9" d="M101,57.92c-1.18,0-3.53,2.95-5,9.72s-8.83,11.2-2.94,16.79S103.38,97.68,109.27,98a24.62,24.62,0,0,0,20.32-9.43c6.18-7.66,9.72-14.43,8.24-19.43s-2.35-12.67-7.65-8.55-5.6,9.72-13.55,7.66-3.83-6.18-6.48-10.31S101,57.92,101,57.92Z"/><path class="cls-9" d="M62.14,90.91a39.41,39.41,0,0,1,10.31-1.77c8.29-.39,4.12-4.71,12.08-2.06S96.9,91.8,98.08,93.85s8.83,1.48,6.77,10.9-4.71,12.67-12.08,10.61-6.77-6.48-14.72-5.31-15,9.72-17.67,6.78-3.83-11.19-3.24-15S56.55,95,62.14,90.91Z"/><path class="cls-9" d="M78.05,114.18c-.93.06-11.19,5.3-11.19,5.3s-5.9,2.36-3.84,8,2.36,10.9,6.78,15,2.36,15,12.08,11.49,20.91-5.89,15.9-11.49-5.59-6.18-12.66-9.71-5.31-7.07-3-9.72,10.6,10.3,14.73,7.36,10.31-7.66,7.36-9.43-3.53-1.47-10-2.65S86.88,113.59,78.05,114.18Z"/><path class="cls-9" d="M117.51,103.28s-4.12-3.53-8,2.36-8.83,8.24-5.3,10.6,5.6,4.42,5,6.78-6.78,4.12,1.47,7.07,13.84,9.13,20.91,5.59,16.2-15.32,19.44-24.45,4.71-20-.59-24.74-13.55-1.77-18,3.83S117.51,103.28,117.51,103.28Z"/><path class="cls-9" d="M156.69,53.21c-1.9-.86-5.31-1.77-10.31,3.83s-8.84,7.66-6.78,12.37S134,78.54,143.14,80s12.07,7.07,13,9.13.88,13,5.59,10.9,15.61-19.73,12.37-27.39S163.17,56.16,156.69,53.21Z"/><path class="cls-9" d="M97.19,134.8a6.84,6.84,0,0,1,4.42-2.06c3-.3,5-1.18,9.42,1.47s3.83,6.18,9.43,6.48,8.84-1.77,13,0,10.31,3.83,7.36,11.19-7.07,15-12.66,15.61-18.56-.88-23-.3-11.78-4.12-12.07-7.07,3.24-5.59,9.72-6.77,8.83-5.6,3.83-9.13-9.13-6.48-9.72-7.07S97.78,135.68,97.19,134.8Z"/><path class="cls-9" d="M158.16,104.75c-.88.3-10.6,9.72-8.54,18.56s10.89,12.66,13.55,8.25-5.31-8.84-1.18-15.32,8.83-5.6,13.25-11.49,7.66-13.55,3.53-13.84-3.53,5.89-9.12,9.13A50.22,50.22,0,0,1,158.16,104.75Z"/><path class="cls-9" d="M183.78,104.75s1.77,7.37-1.18,13.26-4.12,15.61-8.24,15-10-2.94-8.84-9.43,0-8.24,5.89-11.19,8.54-5,8.84-6.48S183.49,99.16,183.78,104.75Z"/><path class="cls-9" d="M146.67,128.31a17,17,0,0,0-5.89,5.61c-2.06,3.52-2.95,5,.59,8.53s-1.18,6.78,4.13,7.66a16.39,16.39,0,0,0,12.66-3.53c2.35-2.06,12.07-9.72,7.07-10.31s-7.07,3.53-10.61.59-6.18-8.55-6.18-8.55Z"/><path class="cls-9" d="M143.14,154.53l-3.54,6.18s-7.66,7.36-2.06,6.48,9.43-2.06,13.84-5.3,13.55-7.65,14.14-10.9-3.24-3.53-8.24-1.17-7.37,6.18-9.43,5.3S146.67,154.53,143.14,154.53Z"/><path class="cls-9" d="M178.48,76.48s2.65,5,2.06,7.07-.88,5-4.12,5-2.65-2.06-1.18-4.12a15.14,15.14,0,0,0,2.06-5S176.42,77.06,178.48,76.48Z"/><path class="cls-9" d="M169.94,136.27s-1.47,1.17-2.94,4.71-.59,5.89-.59,5.89a3.36,3.36,0,0,0,4.71-1.18c1.77-2.94,5.89-6.77,5.89-8.54s-4.12-2.65-4.12-2.65Z"/><path class="cls-11" d="M162.3,17.16c-.84,2.82,3.14,3.92,5.84,2.71a7.08,7.08,0,0,0,3.8-6.49c-.19-2.72-2.38-5.67-4.91-3.35C167,10,163.13,14.34,162.3,17.16Z"/><path class="cls-12" d="M164.63,17.36c.83-2.82,4.74-7.14,4.74-7.14a3.28,3.28,0,0,1,.88-.6,2.28,2.28,0,0,0-3.25.27s-3.91,4.32-4.74,7.14c-.65,2.2,1.61,3.34,3.92,3.17A2.23,2.23,0,0,1,164.63,17.36Z"/><path class="cls-11" d="M198.5,72.8c-2,2.16,1.07,4.91,4,5a7.06,7.06,0,0,0,6.29-4.12c1-2.52.39-6.13-2.91-5.18C205.91,68.52,200.5,70.64,198.5,72.8Z"/><path class="cls-12" d="M200.51,74c2-2.16,7.41-4.29,7.41-4.29a3.86,3.86,0,0,1,1.06-.15,2.3,2.3,0,0,0-3-1.2s-5.41,2.13-7.41,4.29c-1.56,1.68,0,3.71,2.1,4.58A2.23,2.23,0,0,1,200.51,74Z"/><path class="cls-11" d="M62.81,18.33c-2.51-1.53-4.59,2-4.11,5A7.05,7.05,0,0,0,64,28.61c2.68.52,6.08-.84,4.5-3.88C68.5,24.73,65.33,19.85,62.81,18.33Z"/><path class="cls-12" d="M62,20.53c2.51,1.53,5.68,6.41,5.68,6.41a3.53,3.53,0,0,1,.35,1,2.27,2.27,0,0,0,.57-3.21S65.47,19.85,63,18.32c-2-1.19-3.64.7-4.07,3A2.24,2.24,0,0,1,62,20.53Z"/><path class="cls-11" d="M86.64,15.53c1.36,1.66,3.65-.28,4-2.4A5.11,5.11,0,0,0,88.31,8.2c-1.72-1-4.38-.88-4,1.58C84.29,9.78,85.29,13.88,86.64,15.53Z"/><path class="cls-12" d="M87.71,14.21c-1.35-1.65-2.35-5.76-2.35-5.76a2.48,2.48,0,0,1,0-.77A1.65,1.65,0,0,0,84.2,9.75s1,4.1,2.35,5.75c1.06,1.29,2.67.4,3.51-1.06A1.64,1.64,0,0,1,87.71,14.21Z"/><path class="cls-11" d="M18.83,49.23c-2.28-.83-3.39,2.39-2.52,4.67a5.84,5.84,0,0,0,5.15,3.44c2.26,0,4.78-1.68,3-3.87C24.46,53.47,21.11,50.05,18.83,49.23Z"/><path class="cls-12" d="M18.56,51.14c2.27.82,5.63,4.24,5.63,4.24a2.76,2.76,0,0,1,.45.75,1.86,1.86,0,0,0-.07-2.68S21.22,50,18.94,49.2c-1.77-.64-2.83,1.16-2.8,3.07A1.84,1.84,0,0,1,18.56,51.14Z"/><path class="cls-11" d="M7.65,90.06c-2.42.17-2.13,3.56-.41,5.29a5.81,5.81,0,0,0,6.1,1.06c2.05-.93,3.69-3.47,1.18-4.76C14.52,91.65,10.06,89.89,7.65,90.06Z"/><path class="cls-12" d="M8.17,91.91c2.42-.16,6.87,1.6,6.87,1.6a2.7,2.7,0,0,1,.71.51,1.87,1.87,0,0,0-1.14-2.43S10.16,89.81,7.74,90c-1.88.13-2.12,2.21-1.32,3.94A1.85,1.85,0,0,1,8.17,91.91Z"/><path class="cls-11" d="M30.18,137.52c-1.91,1.49.24,4.13,2.63,4.6a5.83,5.83,0,0,0,5.65-2.54c1.17-1.92,1.11-4.94-1.7-4.6C36.76,135,32.09,136,30.18,137.52Z"/><path class="cls-12" d="M31.66,138.76c1.9-1.5,6.58-2.53,6.58-2.53a2.83,2.83,0,0,1,.88,0,1.88,1.88,0,0,0-2.32-1.37s-4.68,1-6.59,2.53c-1.48,1.16-.51,3,1.13,4A1.83,1.83,0,0,1,31.66,138.76Z"/><path class="cls-11" d="M51,181.06c-1.25,3.37,3.49,5.06,6.88,3.82a8.65,8.65,0,0,0,5.2-7.57c0-3.33-2.4-7.1-5.68-4.51C57.39,172.8,52.26,177.7,51,181.06Z"/><path class="cls-12" d="M53.82,181.51c1.26-3.36,6.4-8.27,6.4-8.27a4,4,0,0,1,1.12-.65c-1-1-2.39-1.21-4,0,0,0-5.14,4.9-6.4,8.27-1,2.6,1.67,4.2,4.5,4.2A2.74,2.74,0,0,1,53.82,181.51Z"/><path class="cls-11" d="M108.74,197.75c.51,1.85,3.09,1.1,4.17-.5a4.59,4.59,0,0,0-.1-4.9c-1-1.45-3.26-2.33-3.88-.18C108.93,192.17,108.24,195.9,108.74,197.75Z"/><path class="cls-12" d="M110.1,197.06c-.5-1.85.2-5.58.2-5.58a2.37,2.37,0,0,1,.29-.64,1.5,1.5,0,0,0-1.72,1.26s-.69,3.74-.19,5.59c.38,1.44,2,1.3,3.26.42A1.47,1.47,0,0,1,110.1,197.06Z"/><path class="cls-11" d="M117.28,208.35c.5,1.85,3.09,1.11,4.18-.49a4.59,4.59,0,0,0-.11-4.9c-1-1.45-3.25-2.34-3.87-.19C117.48,202.77,116.78,206.5,117.28,208.35Z"/><path class="cls-12" d="M118.65,207.66c-.51-1.85.2-5.58.2-5.58a1.93,1.93,0,0,1,.28-.63,1.49,1.49,0,0,0-1.72,1.26s-.69,3.73-.19,5.58c.39,1.44,2,1.3,3.26.42A1.45,1.45,0,0,1,118.65,207.66Z"/><path class="cls-11" d="M100.07,208.19c0,1.92,2.66,1.92,4.15.69a4.63,4.63,0,0,0,1.25-4.75c-.59-1.68-2.48-3.14-3.67-1.25C101.8,202.88,100.11,206.28,100.07,208.19Z"/><path class="cls-12" d="M101.57,207.9c0-1.91,1.74-5.3,1.74-5.3a2,2,0,0,1,.45-.53,1.49,1.49,0,0,0-2,.73s-1.7,3.39-1.73,5.32c0,1.48,1.59,1.82,3,1.3A1.46,1.46,0,0,1,101.57,207.9Z"/><path class="cls-11" d="M1.21,82.56C-.45,82.68-.26,85,.93,86.2a4,4,0,0,0,4.19.73c1.41-.64,2.54-2.38.81-3.27A15.3,15.3,0,0,0,1.21,82.56Z"/><path class="cls-12" d="M1.57,83.84a15,15,0,0,1,4.72,1.1,2.13,2.13,0,0,1,.49.35A1.28,1.28,0,0,0,6,83.62a14.93,14.93,0,0,0-4.72-1.1C0,82.61-.18,84,.36,85.23A1.27,1.27,0,0,1,1.57,83.84Z"/><path class="cls-11" d="M25,160.18c-1.21,1.14.41,2.82,2.08,3a4,4,0,0,0,3.72-2.07c.68-1.39.46-3.46-1.45-3A14.89,14.89,0,0,0,25,160.18Z"/><path class="cls-12" d="M26.08,161a15.16,15.16,0,0,1,4.35-2.14,2.13,2.13,0,0,1,.6,0,1.27,1.27,0,0,0-1.66-.79A15.07,15.07,0,0,0,25,160.1c-.94.89-.17,2.1,1,2.68A1.26,1.26,0,0,1,26.08,161Z"/><path class="cls-11" d="M216.42,153.7c1.67.05,1.7-2.28.64-3.59A4,4,0,0,0,213,149c-1.46.5-2.76,2.11-1.13,3.17A15.15,15.15,0,0,0,216.42,153.7Z"/><path class="cls-12" d="M216.19,152.39a15.15,15.15,0,0,1-4.59-1.57,2,2,0,0,1-.45-.4,1.29,1.29,0,0,0,.61,1.74,15,15,0,0,0,4.59,1.58c1.29,0,1.6-1.36,1.18-2.6A1.27,1.27,0,0,1,216.19,152.39Z"/><path class="cls-11" d="M215,81.75c1.49-.75.4-2.82-1.15-3.46a4,4,0,0,0-4.15.94c-1.05,1.14-1.42,3.18.52,3.33A15.1,15.1,0,0,0,215,81.75Z"/><path class="cls-12" d="M214.15,80.71a15.07,15.07,0,0,1-4.78.81,1.84,1.84,0,0,1-.58-.13,1.28,1.28,0,0,0,1.37,1.23,15,15,0,0,0,4.78-.8c1.16-.58.75-2-.21-2.85A1.27,1.27,0,0,1,214.15,80.71Z"/><path class="cls-11" d="M215.27,112.84c1.65-.24,1.27-2.55,0-3.65a4,4,0,0,0-4.23-.41c-1.36.74-2.35,2.56-.56,3.32A15.14,15.14,0,0,0,215.27,112.84Z"/><path class="cls-12" d="M214.81,111.59a15.05,15.05,0,0,1-4.79-.75,1.56,1.56,0,0,1-.51-.3,1.28,1.28,0,0,0,.91,1.6,15.05,15.05,0,0,0,4.79.75c1.28-.19,1.34-1.62.7-2.77A1.26,1.26,0,0,1,214.81,111.59Z"/><path class="cls-11" d="M205.17,137.05c1,0,1-1.39.4-2.18a2.45,2.45,0,0,0-2.5-.7c-.89.3-1.68,1.28-.69,1.92A9.15,9.15,0,0,0,205.17,137.05Z"/><path class="cls-12" d="M205,136.26a9.44,9.44,0,0,1-2.79-1,1.07,1.07,0,0,1-.27-.24.77.77,0,0,0,.37,1.05,8.77,8.77,0,0,0,2.79,1c.78,0,1-.82.71-1.58A.77.77,0,0,1,205,136.26Z"/><path class="cls-11" d="M215.49,145.52c1,0,1-1.39.4-2.18a2.41,2.41,0,0,0-2.5-.7c-.89.3-1.68,1.28-.69,1.93A9.22,9.22,0,0,0,215.49,145.52Z"/><path class="cls-12" d="M215.35,144.73a9.15,9.15,0,0,1-2.79-1,1.64,1.64,0,0,1-.27-.24.78.78,0,0,0,.38,1.06,9.34,9.34,0,0,0,2.78,1c.79,0,1-.83.72-1.59A.79.79,0,0,1,215.35,144.73Z"/><path class="cls-11" d="M223.74,115.19c1,0,1-1.4.39-2.19a2.44,2.44,0,0,0-2.49-.7c-.89.3-1.68,1.29-.69,1.93A9.32,9.32,0,0,0,223.74,115.19Z"/><path class="cls-12" d="M223.6,114.39a9.15,9.15,0,0,1-2.79-1,1.35,1.35,0,0,1-.28-.24.79.79,0,0,0,.38,1.06,9.32,9.32,0,0,0,2.79,1c.78,0,1-.83.71-1.59A.77.77,0,0,1,223.6,114.39Z"/><path class="cls-11" d="M188.8,43.61c.67-.76-.41-1.69-1.43-1.7a2.44,2.44,0,0,0-2.14,1.47c-.33.88-.08,2.11,1.05,1.76A9.35,9.35,0,0,0,188.8,43.61Z"/><path class="cls-12" d="M188.09,43.2a9.2,9.2,0,0,1-2.52,1.54,1.23,1.23,0,0,1-.36.06.8.8,0,0,0,1.06.39,9.2,9.2,0,0,0,2.52-1.54c.52-.59,0-1.28-.77-1.56A.75.75,0,0,1,188.09,43.2Z"/><path class="cls-11" d="M198.62,42.12c.67-.75-.41-1.68-1.43-1.69a2.44,2.44,0,0,0-2.13,1.47c-.34.88-.09,2.11,1,1.76A9.2,9.2,0,0,0,198.62,42.12Z"/><path class="cls-12" d="M197.92,41.73a9.08,9.08,0,0,1-2.52,1.53,1.23,1.23,0,0,1-.36.06.78.78,0,0,0,1.05.38,9.08,9.08,0,0,0,2.52-1.53c.53-.58,0-1.28-.76-1.56A.77.77,0,0,1,197.92,41.73Z"/><path class="cls-11" d="M197.94,33.71c.92-1-.56-2.31-2-2.33a3.35,3.35,0,0,0-2.94,2c-.46,1.21-.11,2.9,1.43,2.42A12.41,12.41,0,0,0,197.94,33.71Z"/><path class="cls-12" d="M197,33.16a12.67,12.67,0,0,1-3.46,2.11,1.86,1.86,0,0,1-.5.08,1.08,1.08,0,0,0,1.45.53,12.3,12.3,0,0,0,3.47-2.1c.72-.81,0-1.76-1.05-2.15A1.05,1.05,0,0,1,197,33.16Z"/><path class="cls-11" d="M178.5,15.65c.48-.9-.79-1.55-1.79-1.32A2.45,2.45,0,0,0,175,16.27c-.12.93.42,2.07,1.43,1.46A9.19,9.19,0,0,0,178.5,15.65Z"/><path class="cls-12" d="M177.73,15.42a9.08,9.08,0,0,1-2.08,2.09,1.29,1.29,0,0,1-.34.14.79.79,0,0,0,1.11.13,9.06,9.06,0,0,0,2.09-2.09c.37-.69-.32-1.24-1.11-1.33A.77.77,0,0,1,177.73,15.42Z"/><path class="cls-11" d="M46.34,48.8c.9.47,1.54-.8,1.31-1.79a2.46,2.46,0,0,0-1.95-1.72c-.93-.11-2.07.44-1.45,1.44A8.91,8.91,0,0,0,46.34,48.8Z"/><path class="cls-12" d="M46.56,48A8.93,8.93,0,0,1,44.47,46a1.22,1.22,0,0,1-.15-.34.79.79,0,0,0-.12,1.12,9,9,0,0,0,2.1,2.07c.69.36,1.23-.33,1.33-1.12A.76.76,0,0,1,46.56,48Z"/><path class="cls-11" d="M200,181.6c.73.7,1.7-.34,1.76-1.35a2.45,2.45,0,0,0-1.38-2.2c-.86-.37-2.1-.17-1.81,1A9.18,9.18,0,0,0,200,181.6Z"/><path class="cls-12" d="M200.47,180.91a9.06,9.06,0,0,1-1.42-2.58,1.17,1.17,0,0,1,0-.36.78.78,0,0,0-.44,1,9.06,9.06,0,0,0,1.42,2.58c.57.55,1.28,0,1.6-.69A.78.78,0,0,1,200.47,180.91Z"/><path class="cls-11" d="M162.2,184.88c.72.7,1.7-.34,1.75-1.36a2.43,2.43,0,0,0-1.37-2.19c-.87-.37-2.11-.17-1.81,1A8.91,8.91,0,0,0,162.2,184.88Z"/><path class="cls-12" d="M162.62,184.2a9.48,9.48,0,0,1-1.42-2.59,1.2,1.2,0,0,1,0-.36.77.77,0,0,0-.43,1,9.07,9.07,0,0,0,1.42,2.59c.56.55,1.27,0,1.59-.69A.78.78,0,0,1,162.62,184.2Z"/><path class="cls-11" d="M164.41,192.67c-1.74-1.85-4.3.63-4.57,3.18a6.11,6.11,0,0,0,3.18,5.66c2.12,1.05,5.26.7,4.65-2.2C167.67,199.31,166.15,194.52,164.41,192.67Z"/><path class="cls-12" d="M163.25,194.33c1.74,1.85,3.25,6.65,3.25,6.65a2.92,2.92,0,0,1,.06.91,2,2,0,0,0,1.22-2.54s-1.51-4.8-3.26-6.65c-1.34-1.44-3.19-.26-4.07,1.54A1.93,1.93,0,0,1,163.25,194.33Z"/><path class="cls-11" d="M191.81,165c-2.26-1.17-3.86,2-3.27,4.5a6.1,6.1,0,0,0,4.86,4.3c2.35.3,5.2-1.07,3.66-3.6C197.06,170.24,194.06,166.22,191.81,165Z"/><path class="cls-12" d="M191.25,167c2.25,1.18,5.26,5.2,5.26,5.2a2.88,2.88,0,0,1,.36.85,2,2,0,0,0,.31-2.8s-3-4-5.26-5.21c-1.75-.91-3.1.81-3.35,2.8A1.94,1.94,0,0,1,191.25,167Z"/><path class="cls-11" d="M47.74,17.06c-2-1.18-3.57,1.58-3.19,3.84A5.45,5.45,0,0,0,48.65,25c2.09.41,4.72-.65,3.5-3C52.15,22,49.69,18.25,47.74,17.06Z"/><path class="cls-12" d="M47.13,18.78c1.95,1.18,4.4,5,4.4,5a2.5,2.5,0,0,1,.28.77A1.76,1.76,0,0,0,52.25,22s-2.45-3.78-4.41-5c-1.51-.92-2.82.55-3.15,2.31A1.73,1.73,0,0,1,47.13,18.78Z"/><path class="cls-11" d="M120.22,8.86c-.51-1.22-2.2-.48-2.79.71a3.15,3.15,0,0,0,.52,3.32c.84.89,2.43,1.29,2.65-.22A11.93,11.93,0,0,0,120.22,8.86Z"/><path class="cls-12" d="M119.36,9.45a12.14,12.14,0,0,1,.37,3.81,1.79,1.79,0,0,1-.13.46c.51,0,.94-.28,1.05-1a11.93,11.93,0,0,0-.38-3.81c-.4-.94-1.5-.7-2.26,0A1,1,0,0,1,119.36,9.45Z"/><path class="cls-11" d="M128.33,1.23c-.14-1.72-2.55-1.48-3.77-.24a4.13,4.13,0,0,0-.71,4.35c.68,1.45,2.49,2.6,3.39.8C127.24,6.14,128.47,3,128.33,1.23Z"/><path class="cls-12" d="M127,1.62c.14,1.72-1.09,4.91-1.09,4.91a2.38,2.38,0,0,1-.35.51,1.33,1.33,0,0,0,1.72-.84s1.23-3.18,1.09-4.9c-.11-1.34-1.59-1.49-2.82-.91A1.31,1.31,0,0,1,127,1.62Z"/><g class="cls-13"><path class="cls-14" d="M139.77,40.77a67.48,67.48,0,0,1-83.68,83.69,67.46,67.46,0,1,0,83.68-83.69Z"/></g></g></g></svg>