<svg xmlns="http://www.w3.org/2000/svg" xmlns:xlink="http://www.w3.org/1999/xlink" viewBox="0 0 73.23 76.76"><defs><style>.cls-1{mask:url(#mask);filter:url(#luminosity-noclip-2);}.cls-2{mix-blend-mode:multiply;fill:url(#linear-gradient);}.cls-3{fill:#ffdf4f;}.cls-4{fill:#d3b94f;}.cls-5{opacity:0.2;}.cls-6{fill:#007e93;}.cls-7{fill:#11aaba;}.cls-8{fill:#20cbd3;}.cls-9{fill:#3ee5e5;}.cls-10{fill:#a6f2ff;}.cls-11{fill:#84ecf7;}.cls-12{fill:#0d7024;}.cls-13{fill:#03841f;}.cls-14{fill:#04a02c;}.cls-15{fill:#00ba35;}.cls-16{fill:#70ff61;}.cls-17{fill:#4fdd3a;}.cls-18{fill:#065e1d;}.cls-19{mask:url(#mask-2);}.cls-20{fill:url(#linear-gradient-2);}.cls-21{fill:#fff;opacity:0.7;}.cls-22{filter:url(#luminosity-noclip);}</style><filter id="luminosity-noclip" x="1.24" y="-7831.31" width="61.62" height="32766" filterUnits="userSpaceOnUse" color-interpolation-filters="sRGB"><feFlood flood-color="#fff" result="bg"/><feBlend in="SourceGraphic" in2="bg"/></filter><mask id="mask" x="1.24" y="-7831.31" width="61.62" height="32766" maskUnits="userSpaceOnUse"><g class="cls-22"/></mask><linearGradient id="linear-gradient" x1="17.74" y1="27.33" x2="70.82" y2="68.63" gradientTransform="matrix(1, 0.01, -0.01, 1, -3.09, 4.15)" gradientUnits="userSpaceOnUse"><stop offset="0"/><stop offset="0.12" stop-color="#030303"/><stop offset="0.23" stop-color="#0e0e0e"/><stop offset="0.33" stop-color="#202020"/><stop offset="0.43" stop-color="#393939"/><stop offset="0.53" stop-color="#5a5a5a"/><stop offset="0.61" stop-color="#7a7a7a"/><stop offset="1" stop-color="#fff"/></linearGradient><filter id="luminosity-noclip-2" x="1.24" y="15.28" width="61.62" height="61.48" filterUnits="userSpaceOnUse" color-interpolation-filters="sRGB"><feFlood flood-color="#fff" result="bg"/><feBlend in="SourceGraphic" in2="bg"/></filter><mask id="mask-2" x="1.24" y="15.28" width="61.62" height="61.48" maskUnits="userSpaceOnUse"><g class="cls-1"><path class="cls-2" d="M40.62,15.28a31.67,31.67,0,0,1,1.16,8.82A31.36,31.36,0,0,1,1.24,53.8,31.39,31.39,0,1,0,40.62,15.28Z"/></g></mask><linearGradient id="linear-gradient-2" x1="17.74" y1="27.33" x2="70.82" y2="68.63" gradientTransform="matrix(1, 0.01, -0.01, 1, -3.09, 4.15)" gradientUnits="userSpaceOnUse"><stop offset="0"/><stop offset="0.57"/><stop offset="0.61"/><stop offset="1" stop-color="#404040"/></linearGradient></defs><g id="Calque_2" data-name="Calque 2"><g id="Layer_2" data-name="Layer 2"><path class="cls-3" d="M73.23,5.31A5.31,5.31,0,1,1,67.92,0,5.3,5.3,0,0,1,73.23,5.31Z"/><path class="cls-4" d="M67.37,2.83a.71.71,0,1,1-.71-.71A.71.71,0,0,1,67.37,2.83Z"/><path class="cls-4" d="M66,6.3a1,1,0,1,1-1-1A1,1,0,0,1,66,6.3Z"/><path class="cls-4" d="M72,6.37a.75.75,0,1,1-.75-.74A.74.74,0,0,1,72,6.37Z"/><path class="cls-4" d="M69.43,8.8a.75.75,0,0,1-1.5,0,.75.75,0,1,1,1.5,0Z"/><path class="cls-4" d="M70.47,3.19a.42.42,0,0,1-.42.42.42.42,0,0,1-.42-.42.41.41,0,0,1,.42-.42A.42.42,0,0,1,70.47,3.19Z"/><path class="cls-4" d="M68.28,5.26a.43.43,0,1,1-.42-.42A.42.42,0,0,1,68.28,5.26Z"/><path class="cls-5" d="M69.24.19A5.31,5.31,0,0,1,64.06,9,5.31,5.31,0,1,0,69.24.19Z"/><path class="cls-6" d="M5.62,63.27A31.35,31.35,0,0,0,31,76.76a32,32,0,0,0,4.41-.28A86.81,86.81,0,0,1,20.64,66.34C17,63.1,10.83,62,5.62,63.27Z"/><path class="cls-7" d="M60.51,57.06c-8.75,6.13-17.24,13.64-28.28,5.85-7.06-4.53-12.31-11.7-21.18-12.7A35.52,35.52,0,0,0,.41,50.4,31.47,31.47,0,0,0,5.62,63.27c5.21-1.32,11.41-.17,15,3.07A86.81,86.81,0,0,0,35.43,76.48,31.42,31.42,0,0,0,60.51,57.06Z"/><path class="cls-8" d="M11.05,50.21c8.87,1,14.12,8.17,21.18,12.7,11,7.79,19.53.28,28.28-5.85a31.32,31.32,0,0,0,1.27-19.57c-.29.27-.57.55-.84.85-16.2,17.6-34.75,8.49-52.38-3.27a9.41,9.41,0,0,0-6.33-1.35A31.32,31.32,0,0,0,0,45,32.44,32.44,0,0,0,.41,50.4,35.52,35.52,0,0,1,11.05,50.21Z"/><path class="cls-9" d="M28.12,33.51c-5.29-3.62-7.88-9.87-12.3-11.7a17.78,17.78,0,0,0-3.76-1.23A31.48,31.48,0,0,0,2.23,33.72a9.41,9.41,0,0,1,6.33,1.35c17.63,11.76,36.18,20.87,52.38,3.27.27-.3.55-.58.84-.85a31.4,31.4,0,0,0-8.06-14.24C46.4,30.25,38.21,39.1,28.12,33.51Z"/><path class="cls-10" d="M45.16,19.48c.66-.43,1.31-.88,1.94-1.35A31.05,31.05,0,0,0,33.05,14c.22.59.43,1.19.61,1.83C34.51,18.46,40.7,21.21,45.16,19.48Z"/><path class="cls-11" d="M45.16,19.48c-4.46,1.73-10.65-1-11.5-3.69-.18-.64-.39-1.24-.61-1.83-.43,0-.86-.05-1.3-.05a31.2,31.2,0,0,0-19.69,6.67,17.78,17.78,0,0,1,3.76,1.23c4.42,1.83,7,8.08,12.3,11.7,10.09,5.59,18.28-3.26,25.6-10.26a31.42,31.42,0,0,0-6.62-5.12C46.47,18.6,45.82,19.05,45.16,19.48Z"/><path class="cls-12" d="M34.88,60.34a11.4,11.4,0,0,0,.49,2.87c.4.61-.25,3.54.77,3.35a4,4,0,0,0,3.43-2.22c1.25-2,2.63-3.44,3-4.59a1.5,1.5,0,0,0,.08-.44A14.86,14.86,0,0,1,34.88,60.34Z"/><path class="cls-13" d="M24.94,46.44a3.17,3.17,0,0,0,.1,3,5.09,5.09,0,0,0,5.49,2.45c2.52-.72,1.69.43,2.58.72s.2-.07,0,1.84,1,2.87,1.39,3.9a9,9,0,0,1,.34,2,14.86,14.86,0,0,0,7.82-1c.1-1.32-.75-3.68,0-5s1.3-.66,2.14-2L45.72,51a6.37,6.37,0,0,0-.39-1.64l-1.09.19a1.07,1.07,0,0,1-.51,0C37.5,50.58,31.2,49.34,24.94,46.44Z"/><path class="cls-14" d="M41.74,47.4c-.8-.9-1.23-5.13-1.43-5.27S37,42.3,36,42.29s-1.41-2-2.08-2.41l-.68-.42a9.34,9.34,0,0,1-3,1.13l-.68.12c-.68.13-1,1.42-1,1.7a7.83,7.83,0,0,0-3,2.83,9.27,9.27,0,0,0-.62,1.2c6.26,2.9,12.56,4.14,18.79,3.06C42.94,49.25,42.41,48.14,41.74,47.4Z"/><path class="cls-14" d="M52.26,46.44a9,9,0,0,0,.49,2.72l.34.21a4.65,4.65,0,0,0,1.4,1.93l0-1a11.49,11.49,0,0,1,.16-2.45,5.39,5.39,0,0,1,.91-1.76c.48-.54,1-1.08,1.24-1.08s.53,1,.8,1.24a4.54,4.54,0,0,1,.73,1.23,1.32,1.32,0,0,0,.74.76l.28.08A13.89,13.89,0,0,0,60,50.61l.06.34c.07.34-.09,2.45,0,2.79s.46,1.71.93,2l.07,0c.32-.92.61-1.85.85-2.81-.18-.45-.37-1-.46-1.24s-.26-1.3-.46-1.78-1.21-1.58-.53-1.57,1.36.08,1.56.69l.2.62.33,0a30.54,30.54,0,0,0,.29-3.18c-.32-.34-.94-.76-.51-1.06a2.37,2.37,0,0,1,.53-.25,31.57,31.57,0,0,0-.72-6.71A39.52,39.52,0,0,1,52.26,46.44Z"/><path class="cls-15" d="M29.61,37.17l-.14.27-.14.27a3.06,3.06,0,0,0,1.06,2.2l.28-.07a8,8,0,0,0,1.92-1.41,2.89,2.89,0,0,1,.7-.76c-.83-.19-1.64-.42-2.44-.68A3.18,3.18,0,0,1,29.61,37.17Z"/><path class="cls-16" d="M44.52,30.22A29,29,0,0,0,55,25.3a1.19,1.19,0,0,0-.42-.18,14.71,14.71,0,0,0-1.85.46c-.27.06-.61,0-.6-.55s-.33-1.44-.87-1.31a19.89,19.89,0,0,0-3.42,1.12c-.28.27-1,.87-1,1.35s.4,1,.19,1l-.2-.07c-.19,0-.61-.49-.94-1.17h-.68a2.7,2.7,0,0,0-.63,1.46.61.61,0,0,1-.35.68,7.78,7.78,0,0,1-1.36.08A4.11,4.11,0,0,0,40.8,29l-.14.2-.14.2A1.32,1.32,0,0,1,39.47,29c-.17-.23.28-.62,1-.87L40.13,28c-.34-.21-2.3-1.19-3-1l-.69.19A7.84,7.84,0,0,0,34,28.5a8.73,8.73,0,0,0-.56,1.05A21.76,21.76,0,0,0,44.52,30.22Z"/><path class="cls-17" d="M55,25.3a29,29,0,0,1-10.43,4.92,21.76,21.76,0,0,1-11.12-.67c-.13.27-.26.57-.38.85l.06.54c.07.55.32,2-.16,2.18l-.48.2A6,6,0,0,0,30.93,35a1.71,1.71,0,0,0,.22,1.43c.14.22,0,.41-.3.55.8.26,1.61.49,2.44.68a.79.79,0,0,1,.53-.24,1.84,1.84,0,0,1,.64.48,18.72,18.72,0,0,0,4.64.25c6.28-.89,13.12-6,19.75-8.27a32.68,32.68,0,0,0-2.42-3.7C56.07,26.05,55.42,25.57,55,25.3Z"/><path class="cls-15" d="M39.1,38.16a18.72,18.72,0,0,1-4.64-.25c.39.38.82.87,1,1s.33,1,1.29.84l1-.2c.64-.1,1.22,0,1.29.22s.74.48,1.49.56l.41-.13c.41-.13.74.62.54.89l-.21.27a24,24,0,0,0,1.51,5.13l.34.21c.33.21.72,2,1,1.92s1.64-.12,2.05-.59l.41-.47c1.07-1.11,1.71-2.32,1.43-2.68s-1.24-.29-2.14.15l-.13-.41c-.14-.41-1.21-2.2-.52-2.26s1.69.84,2.09,1.12a4.8,4.8,0,0,0,1.9.84,2.66,2.66,0,0,1,1.63.56l.13.28c.19.22.62.08,1-.33l.2.34a5.93,5.93,0,0,1,.21,1.24,39.52,39.52,0,0,0,9.87-7.94,31.31,31.31,0,0,0-3.28-8.61C52.22,32.2,45.38,37.27,39.1,38.16Z"/><path class="cls-14" d="M.72,39C.55,39.85.4,40.7.3,41.56c.54.89,1.33,1.7,1.72,2.52s.06,1.43.32,2.11A6.3,6.3,0,0,0,3,47.77c.2.14,1.16.42,1.43.15a1.58,1.58,0,0,1,1.36-.12A2.14,2.14,0,0,1,7,49c.13.62-.07.75.81,1s-.52-1.64-.11-2.11,1.1-.67.35-.88-2-.7-2.16-1.11a9.26,9.26,0,0,1-.59-2.26c-.13-.89-.46-1.64.09-2.11A1.82,1.82,0,0,1,7.23,41l.82.22c.71.42,1.13,1,.94,1.3l.53.69c.54.69.67,1.44.81,1.1a12.31,12.31,0,0,0,.16-2.18c0-.34-.27-.55.7-1.35a4.77,4.77,0,0,1,1.64-1.14,3,3,0,0,1,.75-.22c-.67-.51-1.35-1-2-1.58C9.21,36,4.44,36.59.72,39Z"/><path class="cls-17" d="M19.2,24.85c-.82-.08-2.59,0-3.6-1a3.62,3.62,0,0,0-3.12-1c-.34.19-1.23.46-1.23.73s.73,1.1.53,1.23l-.21.14a3.82,3.82,0,0,0-1.5.39H9.73c.4.76.41,1.27,0,1.13a28.52,28.52,0,0,0-2.95-.61h0A31.79,31.79,0,0,0,3.87,30.3c2.3-.06,4.7.39,6.89.42a19.54,19.54,0,0,1,8.29,1.36h0c-.06-.54-.05-1.63-.73-2a4.9,4.9,0,0,0-2.65-.17c-.82.13-1.64,0-1.29-.63S15.84,27.2,17,28a14.91,14.91,0,0,1,2,1.86A9,9,0,0,0,21,31c.34,0,1.15.43,1.57.3s1.42-.06,1.71-.8-.34-.35,1-1.62,1.42-.78,2.27-1.46c-2.57-1.09-5.13-2.28-7.71-3.28C19.81,24.54,19.62,24.89,19.2,24.85Z"/><path class="cls-16" d="M29.41,24.83a9,9,0,0,0,.16-1.9c-.13-.41.42-1-.67-1s-4.16.15-4.63.08-4,.77-4.17,1.18c-.06.19-.09.61-.19,1,2.58,1,5.14,2.19,7.71,3.28l.27-.22A4.37,4.37,0,0,0,29.41,24.83Z"/><path class="cls-15" d="M10.76,30.72c-2.19,0-4.59-.48-6.89-.42A31.25,31.25,0,0,0,.72,39c3.72-2.42,8.49-3,10.84-1.17.67.54,1.35,1.07,2,1.58a1.2,1.2,0,0,0,.9-.45,1.64,1.64,0,0,0,.15-1.56c-.13-.48-.54-.69,1-1s2.46-.38,2.6-.72.49-1.29.7-1.77a4.13,4.13,0,0,0,.16-1.83A19.54,19.54,0,0,0,10.76,30.72Z"/><path class="cls-12" d="M9.45,51.74c.05.41.11.89.16,1.35l-.41.2a4.29,4.29,0,0,0-1.31,1.42,3.31,3.31,0,0,0,.19,1.77,24.38,24.38,0,0,0,1.2,2.2c.13.2.33,1,.8,1a2.78,2.78,0,0,1,1.56.63,4.5,4.5,0,0,1,.8,2.17c2-.11,4.27.3,5.94.32a2.93,2.93,0,0,1,.4.19c-.06-.17,0-.31.19-.55.41-.47,1.63,0,1.78-1.07s.63-1.08.3-2.11-.54-1-.39-1.71.21-.47.9-1.35c.16-.21.28-.37.38-.52a49.69,49.69,0,0,0-9.65-3.63A11.57,11.57,0,0,0,9.45,51.74Z"/><path class="cls-13" d="M20.23,53.08a21.47,21.47,0,0,0-2.65-.3,1.91,1.91,0,0,1-1.48-1.52c-.19-.89-.25-1.5-.86-1.92s-2.58-.78-2.91-1.05A2,2,0,0,0,10.76,48l-.48.13a5.49,5.49,0,0,1-1.17,1.14l-.21.41c-.2.4-.41.33-.48.81.45-.07.86.12.91.42,0,.14.07.45.12.83a11.57,11.57,0,0,1,2.84.34,49.69,49.69,0,0,1,9.65,3.63.91.91,0,0,0,.11-1A3.1,3.1,0,0,0,20.23,53.08Z"/><path class="cls-18" d="M12.44,62.51a.28.28,0,0,1,0,.09,11.46,11.46,0,0,0-.51,2.79c0,.75.18,2.32.24,2.86s1.75,1.73,1.75,1.93a7.92,7.92,0,0,1-.33.89q.86.59,1.74,1.11h0a7.7,7.7,0,0,1,.57-1.84c.28-.75-.13-.61-.32-1.3s.42-1.42.56-1.63l.14-.2a16.31,16.31,0,0,1,1.51-.94l.07-.34c.07-.34.41-.47,1-.87s.55-.68.29-1.36c-.13-.33-.26-.52-.31-.68a2.93,2.93,0,0,0-.4-.19C16.71,62.81,14.46,62.4,12.44,62.51Z"/><g class="cls-19"><path class="cls-20" d="M40.62,15.28a31.67,31.67,0,0,1,1.16,8.82A31.36,31.36,0,0,1,1.24,53.8,31.39,31.39,0,1,0,40.62,15.28Z"/></g><path class="cls-21" d="M23.63,21c.93,1.26-.08,3.59-2.27,5.2s-4.71,1.9-5.63.64.08-3.59,2.27-5.2S22.7,19.78,23.63,21Z"/></g></g></svg>